<svg class="svgOrigin" xmlns="http://www.w3.org/2000/svg" width="400" height="400" x="0px" y="0px" viewBox="0 0 400 400" enable-background="new 0 0 400 400">
<g>
	<path fill="#0334A6" d="M396.331085,200c0,108.436493-87.903381,196.339844-196.323288,196.339844
		C91.5718,396.339844,3.66797,308.436493,3.66797,200C3.66797,91.564003,91.5718,3.66021,200.007797,3.66021
		C308.427704,3.66021,396.331085,91.564003,396.331085,200z"/>
	<path fill="none" stroke="#FFFFFF" stroke-width="5.60971" d="M387.915985,200
		c0,103.785187-84.133789,187.924805-187.908188,187.924805C96.2173,387.924805,12.0825,303.785187,12.0825,200
		C12.0825,96.209511,96.2173,12.07471,200.007797,12.07471C303.782196,12.07471,387.915985,96.209511,387.915985,200z"/>
	<path fill="#FFFFFF" d="M180.182098,52.356407c-7.296799,0-15.402298,10.268593-20.266602,10.268593
		c-4.8647,0-2.432602,7.025909,2.161194,7.025909c4.593201,0,4.324707,7.565399,4.324707,10.808601
		c0,3.243095,0,3.243095,0,3.243095s4.322205,4.867699,4.322205,6.757393c0,1.890106-1.081512,2.969208-7.025406,5.672806
		c-5.944305,2.703606-24.320801,15.141602-28.374496,30.543999c-4.054199,15.40181-2.972107,29.182602-4.593704,35.668396
		c-1.621597,6.486313-2.164093,18.64801-2.164093,27.835007s3.246094,27.832504,7.56839,27.832504
		c4.322205,0,5.943802-25.942398,5.943802-25.942398c0-9.997513,1.621597-24.862808,2.432602-32.157211
		c0.810593-7.294388,4.596207-17.836899,8.918503-17.294891c4.322296,0.542404,5.406693,11.890594,4.8647,17.565903
		c-0.542404,5.675797-7.565399,33.242188-9.458496,37.293396c-1.892502,4.050797-2.432114,8.647491,0.539597,10.805695
		c2.972198,2.164108,5.943802,4.59079,5.943802,10.540009c0,5.949295,2.166992,46.225586,2.975098,50.541992
		c0.807693,4.328186,2.43219,20.269592,2.161194,28.376984c-0.2715,8.108398-4.325195,21.081024-1.893097,24.049805
		c2.432602,2.969696,15.402405,11.887695,17.834503,12.430695c2.432602,0.541901,5.678192-2.701172,3.785599-6.754883
		c-1.893005-4.053711-4.593704-6.212891-4.593704-12.699219c0-6.485382,1.350601-27.029297,1.350601-34.326172
		c0-7.292023-3.514206-31.883804-3.243195-36.748108c0.270996-4.864197,6.214798-13.508804,9.186996-12.972595
		c2.971695,0.542892,12.701202,28.377899,11.351105,45.671906c-1.350601,17.294891-5.1362,34.047791-4.864807,36.753876
		c0.270996,2.695313,10.537201,10.808594,13.241302,11.887695c2.703094,1.079102,10.539993-1.895599,8.380798-5.675781
		c-2.1689-3.779297-4.327103-6.48642-4.053696-9.728516c0.262695-3.243195,4.042999-27.830078,4.317398-32.694397
		c0.273392-4.865204,4.59079-13.246094,4.59079-15.947205c0-2.701172-7.834-25.40239-8.645493-30.541077
		c-0.804703-5.127914-1.347702-6.486313-1.347702-6.486313s-4.053696-8.102493-2.700195-13.77829
		c1.353592-5.674805,8.375992-11.890106,7.291092-15.672897c-1.073288-3.782715-9.452194-10.271408-10.802795-15.404709
		c-1.350098-5.132904-2.161102-21.617203-0.810501-26.481491c1.350098-4.8647,7.296906-12.969711,9.455109-8.376511
		c2.158188,4.593811,7.571198,43.776398,10.266586,48.370209c2.706009,4.593201,9.455002,15.402298,11.35051,17.297791
		c1.895599,1.889709,0.27449,10.808609,0.27449,12.97171c0,2.159195,3.779312,6.75,6.759705,6.75
		c2.968796,0,12.698303-0.2686,12.698303,3.785187c0,4.053711-1.084,13.241211-3.24321,15.135712
		c-2.1689,1.890594-8.655289,10.541-10.813492,13.509781c-2.158203,2.968719,4.590805,7.02832,6.486404,8.107422
		c1.895508,1.080078,2.1689,9.993103-0.537201,12.699188c-2.706009,2.706116-4.053711,7.296906-1.895508,8.644501
		c2.158203,1.358398,9.455109,12.161194,10.003006,14.325195c0.537094,2.164093-0.810608,7.02829-2.169006,8.376007
		c-1.347595,1.353485-0.810501,11.888702,5.412109,7.297882c6.212891-4.590881,8.919006-8.381897,7.560608-12.69928
		c-1.347717-4.327118-6.212906-10.540009-5.128006-15.941406c1.085007-5.407196,1.895584-8.918884,5.138687-8.918884
		c3.232391,0,7.022491,3.506775,7.022491,7.833984c0,4.328094,0.537109,10.2724,3.243103,11.351501
		c2.695404,1.079102,5.938507,4.322296,3.243225,7.565491c-2.705994,3.243103-0.810516,9.997009,3.243195,8.649414
		c4.054688-1.3526,8.371094-8.649414,8.371094-11.082092c0-2.432617-7.559601-15.130798-8.919006-19.996124
		c-1.347595-4.864197,5.138702-10.807587,5.138702-15.946198c0-5.133789-7.833984-14.588898-7.833984-19.453186
		c0-4.865204,5.402374-14.326096,8.108398-14.326096c2.695282,0,4.316376,4.053696,3.779297,9.192291
		c-0.536102,5.133804-0.536102,23.507889,0.537079,23.507889c1.085022,0,4.601624,0.267517,5.138702-5.944397
		c0.537109-6.211884,2.969696-24.860291,2.969696-30.267593c0-5.406189,0-5.406189,0-5.406189
		s-11.351593-12.699203-14.857391-14.046906c-3.516602-1.352493-1.895508-8.917908-0.273407-10.002899
		c1.621002-1.079102,4.053711-5.943909,2.158203-8.376495c-1.884796-2.432098-7.286194-14.322708-10.803802-14.322708
		c-3.516602,0-15.130783,8.378906-15.130783,15.4048c0,7.025803,5.127884,14.317795,2.969681,16.213303
		c-2.158173,1.895493-10.814392,1.3526-13.783188,1.084c-2.969696-0.273407-7.023392-2.979507-8.381805-4.327103
		c-1.347687-1.347702,1.358414-4.322296,0.273407-11.348709c-1.084-7.025787-5.949203-13.248993-7.844696-32.704987
		c-1.883804-19.455597-5.949203-40.264702-8.370102-51.073303c-2.432709-10.808594-29.728104-18.645493-29.728104-23.238792
		c0-4.593201,2.703705-4.053703,2.703705-8.6474c0-4.5933,1.347595-11.619202,4.322205-11.619202
		c2.974594,0,7.56839-7.29731,1.893097-7.29731C193.962402,65.334,190.993195,52.356407,180.182098,52.356407z"/>
</g>
</svg>
