<svg class="svgOrigin" xmlns="http://www.w3.org/2000/svg" width="400" height="400" x="0px" y="0px" viewBox="0 0 400 400" enable-background="new 0 0 400 400">
<g>
	<circle fill="#FF0000" cx="200" cy="200" r="197.666992"/>
	
		<ellipse transform="matrix(0.707107 -0.707107 0.707107 0.707107 -82.842628 199.999969)" fill="none" stroke="#FFFFFF" stroke-width="5.64763" cx="200" cy="199.999878" rx="189.195297" ry="189.195419"/>
	<path fill="#FFFFFF" d="M329.851593,200c0-71.714798-58.142578-129.851593-129.851593-129.851593
		c-71.714798,0-129.856903,58.136795-129.856903,129.851593c0,71.720703,58.142105,129.851593,129.856903,129.851593
		C271.709015,329.851593,329.851593,271.720703,329.851593,200z"/>
	<path fill="#0334A6" d="M267.9375,89.336411C248.169891,77.175308,224.907196,70.148407,200,70.148407
		c-24.912598,0-48.175797,7.026901-67.942398,19.188004L200,121.05471L267.9375,89.336411z"/>
	<path fill="#0334A6" d="M132.063004,310.664093c19.766586,12.161102,43.030289,19.1875,67.936996,19.1875
		c24.912094,0,48.175797-7.026398,67.942383-19.1875L200,278.945313L132.063004,310.664093z"/>
	<path fill="#0334A6" d="M193.161102,277.759796c0,1.555603-1.268509,2.823212-2.8237,2.823212h-7.605515
		c-1.555588,0-2.824188-1.267609-2.824188-2.823212v-4.291107c0-1.555573,1.2686-2.824188,2.824188-2.824188h7.605515
		c1.555191,0,2.8237,1.268616,2.8237,2.824188V277.759796z"/>
	<path fill="#0334A6" d="M176.824692,196.867203c-2.184097-1.676804-4.351593-2.912094-6.39209-3.811005
		c1.417496-1.604996,3.027786-3.518585,4.66069-5.664093c4.621506-6.386703,10.169907-14.141098,10.484299-24.741699
		c-0.060501-6.568405-0.204102-15.966293-4.743103-25.193405c-4.312988-9.431091-15.475586-17.411591-29.947784-17.009193
		c-15.288605-0.231499-25.70121,8.863197-30.074707,16.926186c-4.632797,8.09082-5.261696,15.238815-5.382797,16.022003
		l19.683594,1.946808c-0.010696-0.010803-0.010696-0.010803,0.049805-0.375c0.204102-1.439499,1.307098-5.884811,3.667496-9.094803
		c2.537109-3.154694,4.980408-5.476501,12.05661-5.6586c8.763687,0.402802,10.0103,2.4711,12.293488,6.133301
		c2.057098,3.882797,2.708008,10.627899,2.6362,16.302704c0.314499,1.594193-2.597595,8.024902-6.458496,12.768097
		c-1.847595,2.443298-3.772491,4.616196-5.184097,6.143997c-1.417496,1.522003-2.239197,2.283203-2.2285,2.294403
		c-2.079102,1.974197-3.176697,4.704605-3.055206,7.5616l0.386307,9.45311c0.132294,3.099091,1.714798,5.96138,4.268494,7.72699
		c1.759308,1.218796,3.844299,1.808609,5.934601,1.742203c0.248001,0.022507,0.733398,0.082993,1.439407,0.264694
		c1.649002,0.463806,3.750504,1.329102,5.719299,3.882813c1.963394,2.564392,4.285095,7.462891,4.296402,17.5
		c-0.049805,14.643494-3.628906,20.059586-6.105499,22.298798c-2.503906,2.283203-5.9785,2.878876-9.618698,2.889709
		c-2.233307,0.071167-7.351501-1.164124-10.760208-3.905319c-3.446793-2.856506-5.995102-6.21489-6.143997-13.798798h-19.772003
		c-0.132301,13.302704,6.171402,23.726486,13.859802,29.457016c7.715897,5.818268,15.9888,7.930695,22.816406,8.002899
		c0.044495,0,0.083099,0,0.121597,0c5.449295,0,14.703598-0.822205,22.689499-7.942413
		c8.052689-7.219696,12.746094-19.335907,12.685501-37.001892C190.861298,214.598602,184.7173,202.906204,176.824692,196.867203z"/>
	<path fill="#0334A6" d="M246.140594,224.9785c-1.212906-0.849594-2.416-1.489197-3.551697-1.979507
		c0.760696-0.799789,1.588791-1.71579,2.432602-2.713791c2.950195-3.745209,6.601501-8.195404,6.838898-14.775391
		c-0.01181-5.598206-1.003998-11.47171-4.505905-16.490814c-3.469696-5.090286-9.906296-8.427185-17.439499-8.306091
		c-9.431595-0.148911-15.983398,4.930695-18.895493,9.745605c-3.039001,4.787094-3.458008,9.067398-3.545898,9.585388
		l12.00589,1.318405c-0.010696-0.010696,0.016602-0.303696,0.253906-1.186005
		c1.185501-2.900894,2.372101-7.241196,10.181595-7.395996c4.593796,0.121597,6.122101,1.329605,7.583008,3.204605
		c1.428787,1.930084,2.333099,5.438004,2.3116,9.524902c0.242188,0.496094-1.549805,4.295898-4.026413,7.003891
		c-2.372101,2.830002-4.776398,4.870102-4.753891,4.892502c-1.412109,1.212906-2.178696,3-2.090805,4.853607l0.253906,5.487289
		c0.093689,2.030197,1.218689,3.893509,2.972595,4.919907c1.003906,0.584991,2.139694,0.860291,3.264694,0.821304
		c0.474609,0.02829,2.278305,0.248993,3.739212,1.329086c1.627991,1.28511,3.794998,3.364212,3.927795,10.948212
		c-0.072296,8.349594-2.201202,11.179703-3.811508,12.525375c-1.654297,1.389709-4.191391,1.814514-6.584991,1.797913
		c-1.649399,0.049805-5.080109-0.733398-7.340805-2.376984c-2.283203-1.732407-3.739288-3.507813-3.832993-7.594711h-12.056702
		c-0.110306,8.024399,4.136703,14.25679,8.995102,17.494095c4.886795,3.336914,10.048889,4.501007,14.235397,4.544891
		c3.408203-0.010681,9.078094-0.3974,14.190399-4.495087c5.151413-4.136688,8.334-11.48819,8.261703-21.895493
		C255.285187,235.462906,251.137695,228.386703,246.140594,224.9785z"/>
	<path fill="#0334A6" d="M321.121094,244.80571c0-0.010803,0-17.438507,0-23.251999
		c0.204102-4.191406-2.537079-7.865204-5.405304-8.946304c-2.741211-1.207001-5.205994-1.075195-6.442383-1.096695
		c-2.222626,0.038086-4.75882,0.639694-7.549805,2.100586c-0.198212,0.105515-0.408203,0.281311-0.618103,0.408203
		c-0.694397-0.623001-1.433594-1.125-2.200195-1.412094c-2.752014-1.207001-5.217804-1.075195-6.453217-1.096695
		c-2.166901,0.038086-4.637604,0.623093-7.345703,2.006897c-1.26358-1.637711-3.232391-3.039108-5.884705-3.010803
		c-6.359375,0.325195-8.267578,5.305695-8.498993,5.570297c-1.015686,2.118195-0.105499,4.6436,2.006805,5.647507
		c2.118195,1.003891,4.638702,0.104492,5.642609-2.007797l0.016602-0.021515c0.071289-0.116196,0.154297-0.220688,0.242188-0.314392
		c0.259705,1.047806,0.40329,2.845703,0.386688,4.323196c0,0.872101-0.016571,1.632797-0.016571,2.261703
		c-0.011719,2.608398-0.011719,18.829102-0.011719,18.839905c0,2.332993,1.8974,4.241196,4.241211,4.241196
		c2.344696,0,4.24118-1.908203,4.24118-4.241196c-0.010773-0.010803,0-16.242203-0.010773-18.839905
		c0-0.474594,0.010773-1.295898,0.010773-2.261703c0-0.291992-0.032196-0.666992-0.032196-0.9814
		c0-0.060593,0.032196-0.115295,0.032196-0.176804c-0.032196-0.192398,0.122101-0.688492,1.511719-1.5
		c1.208008-0.722687,3.276398-1.114288,3.468689-1.075195c1.164093-0.022491,2.503998,0.110397,2.962006,0.352509
		c0.335907,0.370193,0.220703-0.391602,0.414001,1.230499c0,5.813492,0,23.241196,0,23.251999
		c0,2.332993,1.896484,4.241196,4.241211,4.241196c2.332977,0,4.24118-1.908203,4.24118-4.241196h-0.011688
		c0-0.010803,0-15.690506,0-22.259811c-0.038116-0.192398,0.122101-0.688492,1.511688-1.5
		c1.208099-0.722687,3.270599-1.114288,3.462921-1.075195c1.153381-0.022491,2.503876,0.110397,2.961975,0.352509
		c0.341705,0.370193,0.2099-0.391602,0.414001,1.230499c0,5.813492,0,23.241196,0,23.251999
		c0,2.332993,1.897522,4.241196,4.241211,4.241196c2.333008,0,4.241211-1.908203,4.241211-4.241196H321.121094z"/>
</g>
</svg>
