<?xml version="1.0" encoding="UTF-8" standalone="no"?>
<!DOCTYPE svg PUBLIC "-//W3C//DTD SVG 1.1//EN" "http://www.w3.org/Graphics/SVG/1.1/DTD/svg11.dtd">
<!-- Created with Vectornator (http://vectornator.io/) -->
<svg height="400.0pt" stroke-miterlimit="10" style="fill-rule:nonzero;clip-rule:evenodd;stroke-linecap:round;stroke-linejoin:round;" version="1.1" viewBox="0 0 400 400" width="400.0pt" xml:space="preserve" xmlns="http://www.w3.org/2000/svg" xmlns:xlink="http://www.w3.org/1999/xlink">
<defs/>
<g id="名称未設定">
<g opacity="1">
<path d="M1.87587 200C1.87587 90.5787 90.5794 1.87512 200.001 1.87512C309.422 1.87512 398.126 90.5787 398.126 200C398.126 309.421 309.422 398.125 200.001 398.125C90.5794 398.125 1.87587 309.421 1.87587 200Z" fill="#0334a6" fill-rule="nonzero" opacity="1" stroke="none"/>
<path d="M389.631 200C389.631 304.73 304.734 389.634 200.001 389.634C95.2695 389.634 10.3667 304.73 10.3667 200C10.3667 95.2661 95.2695 10.3657 200.001 10.3657C304.734 10.3657 389.631 95.2661 389.631 200Z" fill="none" opacity="1" stroke="#ffffff" stroke-linecap="butt" stroke-linejoin="miter" stroke-width="5.66073"/>
<path d="M159.307 269.906C152.865 269.321 87.1979 267.615 87.1979 267.615C87.1979 267.615 80.0634 267.337 79.2944 268.477C78.5237 269.619 81.4533 276.13 81.4533 276.13C81.4533 276.13 108.324 335.772 111.275 341.531C114.839 348.485 129.475 349.543 129.154 337.377C129.048 333.472 129.307 339.861 128.631 332.619C128.039 326.044 134.472 326.296 137.701 328.367C170.725 349.545 259.2 357.114 311.959 289.549L285.372 268.395C245.945 317.159 185.636 315.613 156.694 300.216C152.409 297.937 150.921 292.127 157.242 290.21C164.213 288.123 158.491 289.4 162.153 288.035C173.554 283.777 167.093 270.602 159.307 269.906Z" fill="#ffffff" fill-rule="nonzero" opacity="1" stroke="none"/>
<path d="M281.137 200.022C283.887 205.876 315.605 263.401 315.605 263.401C315.605 263.401 318.971 269.698 320.343 269.786C321.718 269.873 325.855 264.055 325.855 264.055C325.855 264.055 363.738 210.725 367.216 205.268C371.415 198.678 364.931 185.514 354.595 191.94C351.279 194.005 356.661 190.552 350.755 194.796C345.38 198.63 342.347 192.952 342.501 189.118C344.085 149.919 305.899 69.7502 220.934 58.3747L216.118 92.0072C278.122 101.382 307.269 154.203 308.611 186.958C308.81 191.807 304.548 196.027 299.7 191.542C294.377 186.582 298.37 190.873 295.341 188.404C285.905 180.718 277.803 192.952 281.137 200.022Z" fill="#ffffff" fill-rule="nonzero" opacity="1" stroke="none"/>
<path d="M159.923 129.834C163.634 124.537 197.773 68.4153 197.773 68.4153C197.773 68.4153 201.562 62.364 200.956 61.13C200.348 59.8933 193.243 59.1969 193.243 59.1969C193.243 59.1969 128.136 52.8467 121.672 52.5427C113.866 52.1762 105.669 64.3474 116.384 70.1203C119.824 71.9702 114.152 69.0174 120.772 72.032C126.771 74.789 123.352 80.244 119.949 82.0159C85.1525 100.133 34.584 173.127 66.9623 252.5L98.5372 239.955C75.8399 181.498 107.175 129.945 134.927 112.494C139.035 109.91 144.816 111.509 143.335 117.946C141.678 125.031 143.416 119.432 142.779 123.288C140.803 135.297 155.447 136.243 159.923 129.834Z" fill="#ffffff" fill-rule="nonzero" opacity="1" stroke="none"/>
</g>
</g>
</svg>
