<svg class="svgOrigin" xmlns="http://www.w3.org/2000/svg" width="400" height="400" x="0px" y="0px" viewBox="0 0 400 400" enable-background="new 0 0 400 400">
<g>
	<g>
		<path fill="#0334A6" d="M3,287.895508c0,15.269501,12.4912,27.756805,27.7563,27.756805H369.24408
			c15.259796,0,27.75592-12.487305,27.75592-27.756805V112.103508c0-15.264603-12.496124-27.755798-27.75592-27.755798H30.7563
			C15.4912,84.34771,3,96.838905,3,112.103508V287.895508z"/>
	</g>
	<g>
		<path fill="none" stroke="#FFFFFF" stroke-width="4.62605" d="M19.200199,287.127899
			c0,7.626007,6.2432,13.877991,13.877899,13.877991h333.843811c7.634674,0,13.877899-6.251984,13.877899-13.877991V112.87841
			c0-7.632301-6.243225-13.877899-13.877899-13.877899H33.078098c-7.634699,0-13.877899,6.245598-13.877899,13.877899V287.127899z"
			/>
	</g>
	<path fill="#FFFFFF" d="M349.732391,177.313507H178.667999c-5.620102,0-9.098709-2.798904-6.772003-7.1763
		c0-0.002396,12.463898-23.462402,16.200195-30.595703c8.772903-16.744598-7.440399-23.387695-22.059601-14.085899
		C151.417496,134.757309,40.7178,200.001007,40.7178,200.001007s110.699692,65.243103,125.318787,74.540985
		c14.619202,9.305725,30.832504,2.665009,22.059601-14.085876c-3.736298-7.129013-16.195801-30.593811-16.200195-30.593811
		c-2.326706-4.381805,1.151901-7.173798,6.772003-7.173798h171.064392c2.542999,0,4.626007-2.086899,4.626007-4.626007v-36.123001
		C354.358398,179.395996,352.275391,177.313507,349.732391,177.313507z"/>
</g>
</svg>
