<svg class="svgOrigin" xmlns="http://www.w3.org/2000/svg" width="400" height="400" x="0px" y="0px" viewBox="0 0 400 400" enable-background="new 0 0 400 400">
<g>
	<circle fill="#0334A6" cx="200.000748" cy="200" r="198.124878"/>
	<path fill="none" stroke="#FFFFFF" stroke-width="5.66073" d="M389.63089,200
		c0,104.730499-84.896484,189.633789-189.629395,189.633789C95.269501,389.633789,10.3667,304.730499,10.3667,200
		c0-104.733894,84.902802-189.634293,189.634796-189.634293C304.734406,10.36571,389.63089,95.266106,389.63089,200z"/>
	<path fill="#FFFFFF" d="M301.093781,140.275406c-3.117188-5.666992-47.916092-77.6465-47.916092-77.6465
		s-3.759689-6.069801-5.134689-6.069801c-1.378006,0-5.136703,6.069801-5.136703,6.069801s-44.796402,71.979507-47.919998,77.6465
		c-3.7715,6.843704,3.536591,19.568802,13.44339,12.498505c3.177704-2.271912,8.408203-6.445297,14.033203-11.05661
		c5.120102-4.167999,8.59761-0.032196,8.59761,5.141602V257.15329c-0.768494-0.670898-1.541-1.34758-2.316406-1.998993
		c-9.186493-7.530304-18.923798-13.754898-28.264099-18.342789c-9.486801-4.488297-17.947296-7.711899-27.834-7.904297
		c-8.043503,0-20.233902,0-32.057602,0c-4.223694,0-4.983902-5.246109-2.188995-9.167007
		c3.607391-5.044907,6.992691-9.783203,9.207001-12.884705c7.070801-9.906296-1.318802-15.987793-8.162598-12.211502
		c-5.666,3.122604-81.983398,43.578705-81.983398,43.578705s-6.069801,3.756805-6.069801,5.133698
		c0,1.376007,6.069801,5.134811,6.069801,5.134811s76.317398,47.25589,81.983398,50.378906
		c6.843796,3.773468,15.233398-2.305603,8.162598-12.211914c-2.233398-3.129913-5.663498-8.607391-9.303207-14.628906
		c-2.786102-3.923798-2.026291-9.158203,2.193405-9.158203c11.855499,0,24.088806,0,32.149399,0
		c0.290009-0.192383,6.363297,1.092804,12.901901,4.451202c10.102493,4.885712,22.611298,13.684509,31.63179,23.354492
		c9.277313,9.679626,14.135712,19.98822,13.870102,26.092712c0,35.146484,0,14.979492,0,34.593811h0.010712h33.959h0.00589
		c0-19.603516,0,0.540985,0-34.593811c0-0.016602-0.00589-0.027313-0.00589-0.044891V146.858902
		c0-5.173798,3.4776-9.309601,8.601593-5.141602c5.627899,4.611313,10.856384,8.784698,14.036102,11.05661
		C297.563507,159.844208,304.871094,147.11911,301.093781,140.275406z"/>
</g>
</svg>
