<svg class="svgOrigin" xmlns="http://www.w3.org/2000/svg" width="400" height="400" x="0px" y="0px" viewBox="0 0 400 400" enable-background="new 0 0 400 400">
<g>
	<path fill="#FF0000" d="M396.433594,369.569305c0,15.6875-12.835907,28.523468-28.523407,28.523468H32.089802
		c-15.687902,0-28.523392-12.835968-28.523392-28.523468V30.43121c0-15.6875,12.835489-28.523499,28.523392-28.523499h335.820374
		c15.6875,0,28.523407,12.835999,28.523407,28.523499V369.569305z"/>
	<path fill="none" stroke="#FFFFFF" stroke-width="2.85235" d="M367.910187,392.387695H32.0928
		c-12.579599,0-22.8218-10.239288-22.8218-22.81839V30.437c0-12.57959,10.242201-22.82469,22.8218-22.82469h335.817383
		c12.579102,0,22.824188,10.2451,22.824188,22.82469v339.132294C390.734375,382.148407,380.489288,392.387695,367.910187,392.387695
		L367.910187,392.387695z"/>
	<path fill="#FFFFFF" d="M326.272491,72.598106c-2.835999-2.841301-6.752014-4.595695-11.069397-4.595695H200H89.3125
		l61.50679,61.503494l-26.166992,14.184006L69.139603,88.180206v111.827103v116.33638
		c0,4.323303,1.757896,8.233398,4.593796,11.063507c2.835403,2.841797,6.749001,4.59079,11.064003,4.59079H200h112.958008
		L231.916,250.961899l25.042007-15.31929l73.905273,73.904297V200.007309v-116.3452
		C330.863281,79.350609,329.108398,75.434105,326.272491,72.598106z"/>
	<path fill="#0334A6" d="M71.256798,185.617203c-1.493095-2.763199-0.467697-6.2285,2.300804-7.732391l0,0L272.863281,69.851608
		c2.768524-1.492699,6.228516-0.467796,7.732422,2.301201l0,0c1.498993,2.7686,0.473602,6.228096-2.294922,7.732498l0,0
		L78.995102,187.917999c-0.866203,0.468201-1.799805,0.690903-2.718704,0.690903l0,0
		C74.253899,188.608902,72.295898,187.533707,71.256798,185.617203L71.256798,185.617203z"/>
	<path fill="#0334A6" d="M181.2202,268.600616c-1.638199-2.685608-0.796906-6.206116,1.894089-7.844727l0,0l129.42572-79.155289
		c2.68457-1.632294,6.206085-0.791,7.837891,1.893997l0,0c1.643585,2.685104,0.802795,6.200714-1.882813,7.849609l0,0
		L189.063995,270.49411c-0.924805,0.56839-1.949707,0.835999-2.963898,0.835999l0,0
		C184.178192,271.330109,182.295395,270.360413,181.2202,268.600616L181.2202,268.600616z"/>
	<path fill="#FFFFFF" d="M216.539993,267.173798h-0.004791c-0.568405-1.258789-0.568405-2.362305-0.568405-2.751892l0,0
		c0.294891-3.899414,1.592804-5.192413,2.612305-7.420898l0,0c0.6689-1.225601,1.3535-2.495102,1.788086-3.341797l0,0
		c-0.039093-0.07811-0.077194-0.156311-0.11618-0.234406l0,0c-0.535217-1.058594-1.354507-2.5186-2.245117-4.010696l0,0
		c-1.805695-3.087006-3.789093-6.207108-4.864288-8.357498l0,0c-1.036102-2.105408-3.425812-8.122009-6.150406-14.64061l0,0
		c-1.376007-3.341797-2.902298-6.885696-4.133804-9.6035l0,0c-0.138596,0.111298-0.272385,0.222702-0.412094,0.344711l0,0
		c-2.083008,1.705093-4.445297,4.022491-5.018997,4.657288l0,0c-0.005905,0.011703-0.011307,0.0224-0.016602,0.044907l0,0
		c-0.084,0.255798-0.234406,0.735306-0.373596,1.326096l0,0c-0.284103,1.18071-0.579102,2.830109-0.824203,4.612396l0,0
		c-0.53511,3.577103-0.930603,7.74411-1.164505,10.685501l0,0c-0.484894,4.980499-1.014206,11.063507-3.354004,15.843704l0,0
		c-0.818893,1.404297-2.306198,4.267593-6.746094,4.557693l0,0c-0.707596-0.044983-6.997604,0.679718-11.676804,0.690399l0,0
		c-2.451691-0.166992-4.084,0.234406-7.387192-1.425781l0,0c-0.980499-0.512695-2.585007-1.995117-3.042007-4.201218l0,0
		c-0.105896-0.434494-0.139191-0.891586-0.150391-1.192291l0,0c0-0.210999,0-0.210999,0-0.210999l0,0
		c0.478989-4.959,2.685104-6.073196,3.972198-7.966797l0,0c1.459488-1.649399,2.746597-3.242203,3.108398-4.067413l0,0
		c0.172791,0,1.671402-7.409088,2.401398-13.949188l0,0c0.863205-6.729507,1.493103-13.983398,1.481903-16.010696l0,0
		c0.122498-5.084,2.623993-8.671906,4.941391-11.769104l0,0c2.400909-3.030701,4.997101-5.420898,6.624008-6.780197l0,0
		c0.740692-0.62941,1.492691-1.425812,1.916489-2.077698l0,0c0.434601-0.668915,0.484406-1.069809,0.484406-1.069809l0,0
		c0,0-0.039093-0.083496-0.039093-0.072296l0,0c-1.977509-4.117096-4.852005-11.771408-6.300705-18.133804l0,0
		c-0.440002,0.300797-0.891205,0.6241-1.337006,0.952698l0,0c-2.835388,2.06691-6.645996,4.061508-10.139099,6.261703l0,0
		c-3.454102,2.033691-6.373093,4.707504-6.384293,5.142105l0,0c-0.880402,1.844193-3.370605,4.406693-6.785599,4.378891l0,0
		c-4.997101-0.434601-6.361908-3.342789-7.626511-5.297897l0,0c-1.136688-2.217194-1.827591-4.651794-1.855499-7.404205l0,0
		c0.011307-1.754395,0.323303-3.676788,1.365311-5.554199l0,0c2.423294-3.972198,6.121994-6.6241,10.038498-9.604492l0,0
		c3.498596-2.528793,6.596191-4.534698,8.780304-5.688004l0,0c0.289597-0.356506,0.7686-1.013702,1.292496-1.838394l0,0
		c1.1138-1.721207,2.523392-4.150406,3.949692-6.763199l0,0c2.885712-5.208496,5.894012-11.085907,7.576706-14.2173l0,0
		c2.456497-4.456505,6.033203-7.760201,8.434006-10.0942l0,0c-0.8965-0.618706-1.933105-1.398506-2.991211-2.373505l0,0
		c-2.663086-2.712906-3.526794-5.626495-3.899902-7.732498l0,0c-1.175293-0.078102-2.451187-0.2509-3.832993-0.657196l0,0
		c-1.776794-0.523903-5.008301-1.960907-6.083496-5.860802l0,0l-0.005402,0.005295
		c-0.272903-0.907707-0.261703-1.799294-0.2509-1.871498l0,0c-0.010803-2.885796,1.710403-4.963898,2.919403-5.916595l0,0
		c1.275894-1.024902,2.406693-1.532204,3.431595-1.977501l0,0c1.220306-0.484901,2.406799-0.897003,3.125504-1.159203l0,0
		c0.33989-0.629402,0.869202-1.676697,1.626495-2.879906l0,0c1.604507-2.635193,4.913605-6.145004,10.050308-7.448692l0,0l0,0
		c1.287094-0.373001,2.529297-0.495598,3.604492-0.495598l0,0c7.007813,0.351097,10.780304,4.551292,12.545898,8.272995l0,0
		c0.846695,0.3452,2.150406,0.674294,3.876907,1.5429l0,0c0.980499,0.557205,3.789093,2.005905,4.011795,6.189499l0,0
		c-0.245209,4.501404-3.465897,6-4.407303,6.473602l0,0c-0.233398,0.11129-0.455994,0.211403-0.662094,0.306198l0,0
		c-0.133804,1.638199-0.301697,3.521004-0.301697,5.470703l0,0c-0.033203,1.587898,0.189392,3.097595,0.323196,3.632301l0,0
		c2.875,2.735794,13.822296,11.164497,18.975601,18.640594l0,0c2.350601,3.465408,6.785095,10.596207,10.84079,17.760803l0,0
		c4.049805,7.453598,7.615204,13.615204,8.506805,19.024902l0,0c0.100601,0.891098,0.144592,1.804703,0.144592,2.74649l0,0
		c0,3.320404-0.628891,6.389709-1.8936,9.097198l0,0c-1.259689,2.479004-3.292999,5.844299-8.351486,6.139206l0,0
		c-4.26181-0.294907-5.621109-2.623596-6.735413-3.960999l0,0c-1.091797-1.554199-1.843689-3.152802-2.511688-4.78511l0,0
		c-0.357407-0.947296-0.685608-1.832993-0.969711-2.685593l0,0c0.200211,0.997604,0.2724,1.978104,0.2724,2.91951l0,0
		c-0.183594,5.938385-2.584,11.253387-2.289001,11.893997l0,0c-0.111389,0.039093,0.857407,4.122589,1.983414,7.615692l0,0
		c1.075195,3.849609,2.30069,6.932602,2.451096,10.542999l0,0l0.022491,0.111298
		c0.027313,0.222702,0.077103,0.556702,0.150406,0.980499l0,0c0.150406,0.824203,0.383804,1.960907,0.667908,3.253906l0,0
		c0.580093,2.595688,1.387695,5.882797,2.267593,9.158203l0,0c1.604492,6.362289,4.005905,13.682602,4.317398,13.983398l0,0
		c0.869095,1.559601,2.389694,4.267593,3.738297,7.120087l0,0c1.314407,2.997116,2.663101,5.626007,2.807602,9.380905l0,0
		c-0.010696,1.371109-0.222595,3.621109-2.422791,5.727493l0,0c-2.429703,2.027405-9.621109,6.752014-15.237305,9.660217l0,0
		c-2.066498,0.902283-3.019608,1.759705-6.200195,1.983398l0,0c-0.078201,0.010681-0.178802,0.021484-0.295013,0.021484l0,0
		C220.746094,270.772491,217.832993,270.015594,216.539993,267.173798L216.539993,267.173798z"/>
	<path fill="#FFFFFF" d="M228.980499,174.079605c-0.251007-1.002502-0.434601-1.982895-0.535202-2.985901l0,0
		c-0.133804-0.245102-0.350601-0.618591-0.624008-1.053192l0,0c-0.155289-0.250519-0.334-0.523407-0.529282-0.807602l0,0
		C227.955093,171.210403,228.556595,172.932098,228.980499,174.079605L228.980499,174.079605z"/>
	<path fill="#FFFFFF" d="M191.470688,102.949211c0.741211,1.448296,0.8638,2.406792,1.036102,3.248093l0,0
		c0.28421,1.631805,0.445801,2.918907,0.696304,3.598602l0,0c0.133804,0.4067,0.161606,0.3955,0.161606,0.3955l0,0
		c1.075195,1.002899,2.2901,1.710503,3.860901,2.751999l0,0c0.702087,0.462402,2,1.337402,3.036087,2.785591l0,0
		c-0.250488-1.69339-0.200684-3.314888-0.311996-4.919388l0,0c0-3.899399,0.518097-8.127998,0.479004-8.289612l0,0
		c0.028305-1.175285,0.3013-2.172287,0.696304-3.008286l0,0c-0.952103-0.763206-1.949707-1.905304-2.5625-3.749001l0,0
		c-0.027802,0.010696-0.010712-0.078102-0.189499-0.323204l0,0c-0.155701-0.261795-0.406204-0.568398-0.668411-0.807701l0,0
		c-0.579102-0.507301-0.974594-0.6689-1.420395-0.6689l0,0c-0.22319,0-0.362305,0.028305-0.445801,0.050301l0,0l-1.582092-5.482002
		l1.431702,5.521004c-2.005402,0.596199-2.501511,1.2481-3.437515,2.584999l0,0
		c-0.913589,0.985794-0.846695,2.306198-2.534698,4.2285l0,0C190.590302,101.550804,191.2314,102.341805,191.470688,102.949211
		L191.470688,102.949211z"/>
	<path fill="#0334A6" d="M194.261688,88.537109c-7.225586,1.871597-7.687988,8.3843-9.782684,9.548302
		c-2.094711,1.164589-7.676804,2.094795-7.214401,4.657799c0.462494,2.5625,5.849686,2.579094,8.178299,2.3452
		c2.328598-0.233902,0.785599,6.261696,4.044388,9.287094c3.259308,3.024902,6.6353,3.737801,6.6353,6.066406
		c0,2.328598-7.682693,7.225594-10.941391,13.275894c-3.259308,6.050308-12.111404,23.749008-14.674408,24.913498
		c-2.5625,1.164612-14.667892,9.086502-16.996994,13.275909c-2.328598,4.188995,2.334396,13.275391,4.891602,8.384293
		c2.557098-4.891602,13.737793-10.016602,18.161606-13.275894c4.423294-3.258804,9.548294-6.055603,9.548294-2.094711
		c0,3.960907,4.417999,17.2314,6.518097,21.192413c2.100601,3.960892-0.924805,7.916-3.721207,10.245087
		c-2.79689,2.328598-9.548798,8.84671-9.548798,14.20311c0,5.35939-2.56839,28.422897-4.428696,32.378891
		c-1.860901,3.955109-6.752502,7.442398-6.518097,9.7715c0.233902,2.328094,13.971695,0.467804,16.534698,0.467804
		c2.5625,0,3.955002-9.0811,4.423294-15.130905c0.467804-6.061493,1.626511-17.002899,3.258804-19.330994
		c1.632294-2.329102,10.713394-10.016602,12.111801-10.250992c1.398392-0.234406,11.876999,26.774399,13.503906,30.039093
		c1.626999,3.264603,8.150391,13.046799,8.150391,15.141602c0,2.094696-5.353485,9.314407-4.657196,11.175705
		c0.696304,1.860382,16.060501-8.145508,18.161102-10.005814c2.100601-1.872101-3.258804-11.420898-5.3535-15.141602
		c-2.094711-3.721695-8.150406-27.019592-8.150406-30.273499c0-3.264587-4.423798-14.436996-4.423798-18.163986
		c0-3.727112,3.487305-10.016602,1.861298-14.673813c-1.626892-4.657288-8.145493-22.584991-6.518494-25.381393
		c1.626892-2.796906,5.3535,1.164108,6.518494,3.492706c1.164108,2.328598,10.245102,13.041992,10.245102,15.37059
		s3.024399,12.105896,5.821304,12.105896c2.79689,0,5.13089-5.821686,4.428696-11.643494
		c-0.701096-5.821808-13.977493-27.704605-18.400406-34.2285c-4.423798-6.523499-15.838791-15.358894-18.629791-18.1558
		c-2.791107-2.796394-1.164108-13.509796-1.164108-15.604507c0-2.094688,4.891602-2.10009,4.891602-3.960892
		c0-1.860901-6.289993-2.094696-6.986298-4.423401C203.342789,91.807106,199.7939,87.105003,194.261688,88.537109z"/>
	<g>
		<path fill="#0334A6" d="M258.172882,320.399414H241.3535v-16.791016h9.626999c1.576096,0,2.852493-1.292999,2.852493-2.863312
			c0-1.571289-1.276398-2.852478-2.852493-2.852478H241.3535v-13.013702c0-1.571289-1.275406-2.852509-2.84671-2.852509
			c-1.577103,0-2.852493,1.281219-2.852493,2.852509v15.832001c0,0.01178-0.005905,0.022491-0.005905,0.03418
			c0,0.010803,0.005905,0.010803,0.005905,0.022522v19.631805h-4.100601v-26.785126c0-1.571289-1.292007-2.8526-2.851608-2.8526
			c-1.587799,0-2.846588,1.281311-2.846588,2.8526v26.785126h-6.273499c-1.576111,0-2.852509,1.281281-2.852509,2.8526
			c0,1.570282,1.276398,2.852478,2.852509,2.852478h38.590881c1.570313,0,2.846619-1.282196,2.846619-2.852478
			C261.019501,321.680695,259.743195,320.399414,258.172882,320.399414z"/>
		<path fill="#0334A6" d="M114.429199,323.0625c-1.646004-0.679688-2.612801-1.849609-3.233902-2.953094
			c-0.523399-0.947296-0.629402-1.537109-0.688004-1.71582h0.894104c0.754898,0,1.473602-0.300781,2.008301-0.834991
			c0.543396-0.546906,0.841301-1.259796,0.841301-2.017609v-15.152283c0-0.769592-0.297905-1.482513-0.841301-2.016602
			c-0.534698-0.546906-1.253403-0.835999-2.008301-0.835999H105.5103v-1.415009h7.308998
			c1.573799,0,2.860901-1.292999,2.860901-2.863281c0-1.57132-1.287102-2.852509-2.860901-2.852509h-4.991699v-1.426788h2.682701
			c1.5737,0,2.849594-1.281219,2.849594-2.851501c0-1.583099-1.275894-2.8526-2.849594-2.8526h-2.682701v-0.702118
			c0-1.593781-1.275803-2.863281-2.846596-2.863281c-1.573807,0-2.849709,1.269501-2.849709,2.863281v0.702118H101.0532v-0.702118
			c0-1.593781-1.275398-2.863281-2.846703-2.863281c-1.5737,0-2.849594,1.269501-2.849594,2.863281v0.702118h-0.894005
			c-1.5737,0-2.849602,1.269501-2.849602,2.8526c0,1.570282,1.275902,2.851501,2.849602,2.851501h0.894005v1.426788h-6.378906
			c-0.464798-0.936615-1.412094-1.604492-2.534599-1.604492h-2.317398v-4.100616c0-1.571289-1.275902-2.852478-2.849602-2.852478
			c-1.587898,0-2.8638,1.281189-2.8638,2.852478v4.100616h-2.854996c-1.570801,0-2.846703,1.281189-2.846703,2.852478
			c0,1.570313,1.275902,2.851624,2.846703,2.851624h2.565399c-0.211403,1.626892-0.540504,3.867188-1.0112,6.30658
			c-0.891098,4.791016-2.515099,10.407196-4.225601,12.712921c-0.916496,1.281281-0.618103,3.064484,0.6577,3.989288
			c0.503998,0.356384,1.085999,0.523407,1.660202,0.523407c0.891098,0,1.7715-0.412109,2.328598-1.192413
			c0.314499-0.467682,0.5933-1.013611,0.879898-1.537109v7.899414c0,1.571289,1.275902,2.8526,2.8638,2.8526
			c1.5737,0,2.849602-1.281311,2.849602-2.8526v-12.980408c0.593201,0.290009,1.278297,0.412109,1.9692,0.234314
			c1.523499-0.412109,2.429199-1.972595,2.0308-3.487305l-3.0728-11.632813c0.507301,0.467804,1.172897,0.780304,1.919502,0.780304
			h12.838295v1.415009h-6.426193c-0.740807,0-1.484406,0.300812-2.019608,0.835999
			c-0.517998,0.534088-0.829994,1.258789-0.829994,2.016602v15.152283c0,0.757813,0.298302,1.470703,0.8442,2.017609
			c0.5317,0.53421,1.250496,0.834991,2.005402,0.834991h0.713295c-0.365196,0.545929-0.885696,1.292908-1.509697,2.072205
			c-1.189499,1.57132-2.986305,3.031311-3.5933,3.109406c-1.526802,0.400391-2.429199,1.97171-2.0224,3.487305
			c0.342697,1.281189,1.501396,2.117188,2.766098,2.117188c0.245102,0,0.492599-0.022491,0.7407-0.089874
			c5.713402-1.938416,8.799301-8.579102,9.122597-8.723602c0.354004-0.624023,0.423302-1.326202,0.298302-1.972626h2.704605
			c0.019493,0,0.036095,0.011719,0.055595,0.011719c0.0196,0,0.036201-0.011719,0.055702-0.011719h2.150398
			c-0.036102,0.27832-0.069801,0.568329-0.016602,0.86911l-0.0112-0.010681c0.086403,0.288971,1.063896,6.372986,7.448196,9.091675
			c0.348206,0.144623,0.710503,0.212006,1.066902,0.212006c1.122604,0,2.189499-0.669006,2.648903-1.771484
			C116.585396,325.324188,115.891594,323.641602,114.429199,323.0625z M101.0532,288.978516h1.078094v1.426788H101.0532V288.978516z
			 M96.237297,312.677704v-1.415009h3.5737v1.415009H96.237297z M105.5103,311.262695h3.027794v1.415009H105.5103V311.262695z
			 M108.538094,303.240204v2.31839H105.5103v-2.31839H108.538094z M99.810997,303.240204v2.31839h-3.5737v-2.31839H99.810997z"/>
		<path fill="#0334A6" d="M162.022491,285.769501h-8.423401c3.626511-2.762695,6.596207-5.470703,6.740707-5.526306
			c1.181198-1.036194,1.292496-2.840881,0.262299-4.021484c-1.042007-1.192413-2.847198-1.303711-4.027893-0.256897
			c-0.0112,0-2.579605,2.26178-5.6772,4.668976c-3.019608,2.406219-6.935608,4.968719-8.189011,5.236328
			c-0.050293,0.011688-0.072693,0.067383-0.117203,0.078094c-0.072189,0.033203-0.150391,0.022491-0.2173,0.055695
			c-0.311996-0.545898-0.763092-1.013702-1.342697-1.258789c1.102997-1.091827,1.125504-2.863312,0.044907-3.989227
			c-1.1035-1.13678-2.897003-1.158173-4.022507-0.066376l-0.061493,0.055603c-0.200195-1.381805-1.348099-2.462921-2.7798-2.462921
			c-1.336899,0-2.406708,0.936493-2.718704,2.184601l-0.584991-0.613281c-1.103012-1.125-2.9077-1.1474-4.033203-0.044922
			c-1.130905,1.092804-1.153305,2.897522-0.050301,4.022522h-0.0112l0.6689,0.691376h-1.292503
			c-0.1894,0-0.362297,0.077118-0.540497,0.111298v-4.747101c0-1.58197-1.275902-2.84079-2.852501-2.84079
			c-1.570801,0-2.835503,1.25882-2.835503,2.84079h-0.0112v42.607422c0,0.757904,0.295403,1.470703,0.841301,2.016602
			c0.534698,0.535187,1.253403,0.835999,2.005402,0.835999h14.523903c-0.262207,0.389587-0.451706,0.667877-0.451706,0.667877
			c-0.9189,1.292999-0.606903,3.064514,0.679703,3.9776c0.507401,0.357422,1.0811,0.524414,1.6548,0.524414
			c0.897003,0,1.777405-0.412109,2.339905-1.204102c0.033188-0.300812,4.534592-5.882813,4.779694-11.275391
			c0-2.84082,0-19.765594,0-26.5625h5.905304v33.872101c0,1.570282,1.259293,2.84079,2.846695,2.84079
			c1.565399,0,2.852493-1.270508,2.852493-2.84079v-33.872101h4.094803c1.576599,0,2.846603-1.281219,2.846603-2.852509
			C164.869095,287.051788,163.599091,285.769501,162.022491,285.769501z M139.922394,290.226593
			c0.250504,0,0.479004-0.078186,0.707504-0.144592c0,2.049805,0,6.016602-0.005905,10.395508l-2.707489-10.250916H139.922394z
			 M125.649399,290.115204c0.1782,0.045013,0.351097,0.111389,0.540497,0.111389h4.930206
			c-0.167007,1.960907-0.439911,4.646393-0.835907,7.476501c-0.623596,5.381897-2.445297,11.643616-3.258797,12.066406
			c-1.119598,1.114288-1.119598,2.930695,0,4.055695c0.557098,0.557617,1.287102,0.835907,2.016609,0.835907
			c0.729996,0,1.465286-0.27829,2.022491-0.835907v-0.010681c0.111298-0.13382,0.189392-0.300812,0.295395-0.434601v1.983398
			c0,1.571289,1.275406,2.852478,2.852005,2.852478c1.571304,0,2.857895-1.281189,2.857895-2.852478v-9.292999
			c0.624008,0.357391,1.387207,0.490173,2.145004,0.2901c0.590393-0.156311,1.047394-0.512726,1.4151-0.947327
			c0,5.75,0,11.130829,0.005402,12.624023c0.027802,0.289978-0.133804,0.902405-0.373108,1.604492h-14.612793V290.115204z"/>
		<path fill="#0334A6" d="M214.078094,288.578094c0-1.571289-1.276306-2.852478-2.846695-2.852478h-3.214798v-4.59082
			c0-1.582092-1.275406-2.863281-2.84671-2.863281c-1.576096,0-2.852493,1.281189-2.852493,2.863281v4.59082h-4.3228
			c-1.376404,0-2.473602,1.002899-2.735306,2.294891c-0.267593-1.291992-1.37059-2.294891-2.741196-2.294891h-3.214401v-4.59082
			c0-1.582092-1.275894-2.863281-2.852493-2.863281c-1.582108,0-2.85791,1.281189-2.85791,2.863281v4.59082h-4.311996
			c-1.570908,0-2.846695,1.281189-2.846695,2.852478c0,1.570313,1.275787,2.851593,2.846695,2.851593h1.169907
			c-0.879913,1.00293-1.860413,2.061523-2.919006,3.120117c-1.114197,1.114288-1.114197,2.918884,0,4.044891
			c0.557205,0.556702,1.286606,0.834991,2.022003,0.834991c0.729996,0,1.465302-0.27829,2.027802-0.834991l-0.010712-0.011688
			c0.718307-0.723602,1.376007-1.4375,2.022003-2.150391v2.618195c0,1.571289,1.275803,2.864197,2.85791,2.864197
			c1.576599,0,2.852493-1.292908,2.852493-2.864197v-2.239319l0.974594,1.237305c0.963913,1.248108,2.757813,1.470703,4,0.490295
			c1.236801-0.969788,1.448807-2.763702,0.479507-4l-2.440399-3.109406h0.200699c1.370605,0,2.473602-1.001984,2.741196-2.305695
			c0.261703,1.303711,1.358902,2.305695,2.735306,2.305695h1.169998c-0.880402,1.00293-1.860901,2.073212-2.914108,3.120117
			c-1.1138,1.114288-1.1138,2.930695,0.0112,4.044891c0.563004,0.556702,1.292511,0.834991,2.022507,0.834991
			c0.729507,0,1.459503-0.27829,2.016602-0.834991l-0.0112-0.011688c0.724106-0.723602,1.376404-1.4375,2.027802-2.150391v2.618195
			c0,1.571289,1.276398,2.864197,2.852493,2.864197c1.571304,0,2.84671-1.292908,2.84671-2.864197v-2.2276l0.969696,1.236389
			c0.963898,1.237305,2.757797,1.448212,4,0.479492c1.236404-0.980499,1.459-2.774506,0.48439-4.01178l-2.440399-3.097626h0.201111
			C212.801788,291.429688,214.078094,290.148407,214.078094,288.578094z"/>
		<path fill="#0334A6" d="M203.209,309.123993c1.559601,0,2.852493-1.281189,2.852493-2.852478
			c0-1.57132-1.292892-2.8526-2.852493-2.8526h-14.440002c-1.576599,0-2.852509,1.281281-2.852509,2.8526
			c0,1.571289,1.275909,2.852478,2.852509,2.852478H203.209z"/>
		<path fill="#0334A6" d="M213.370102,315.184601c0-1.582092-1.287109-2.851593-2.852509-2.851593h-30.662094
			c-1.571304,0-2.8526,1.269501-2.8526,2.851593c0,1.571289,1.281296,2.852509,2.8526,2.852509h5.180603
			c-0.172302,0.189484-0.323212,0.368195-0.495605,0.545898c-1.203598,1.292999-2.479004,2.5625-3.532196,3.43158
			c-0.518112,0.434601-0.980499,0.769623-1.275909,0.936615c-0.083496,0.043884-0.155701,0.078094-0.200195,0.099609
			c-1.431595,0.156189-2.523895,1.359375-2.523895,2.830078c0,1.571198,1.259293,2.852509,2.847198,2.852509
			c4.116699-0.579102,5.9272-3.532196,8.846603-6.261688c1.576187-1.682617,2.930191-3.264709,3.804688-4.311523v9.325226
			c0,1.571198,1.275909,2.852478,2.8526,2.852478c1.570801,0,2.852509-1.281281,2.852509-2.852478v-9.448303h1.303192
			c0.602097,1.125,1.465408,2.673798,2.507401,4.300781c2.206009,2.863312,3.598602,6.294922,8.133804,6.918915
			c1.570297,0,2.846603-1.25882,2.846603-2.84082c0-1.493073-1.1474-2.718689-2.613312-2.84079
			c-0.473587-0.279297-2.595688-2.540985-3.876892-4.813507c-0.156296-0.245087-0.284195-0.479492-0.428696-0.724579h4.433594
			C212.082993,318.037109,213.370102,316.75589,213.370102,315.184601z"/>
	</g>
</g>
</svg>
