<svg class="svgOrigin" xmlns="http://www.w3.org/2000/svg" width="400" height="400" x="0px" y="0px" viewBox="0 0 400 400" enable-background="new 0 0 400 400">
<g>
	<path fill="#0334A6" d="M395.799805,367.657196c0,14.694397-12.023407,26.717804-26.718719,26.717804H30.918501
		c-14.694901,0-26.7183-12.023407-26.7183-26.717804V32.343307C4.2002,17.647909,16.2236,5.625,30.918501,5.625h338.162598
		c14.695313,0,26.718719,12.022909,26.718719,26.718307V367.657196z"/>
	<path fill="none" stroke="#FFFFFF" stroke-width="2.67182" d="M369.081085,389.020508H30.918501
		c-11.788101,0-21.37455-9.585907-21.37455-21.363312V32.343307c0-11.783197,9.58645-21.364307,21.37455-21.364307h338.162598
		c11.789001,0,21.375,9.58111,21.375,21.364307v335.313904C390.456085,379.434601,380.870087,389.020508,369.081085,389.020508
		L369.081085,389.020508z"/>
	<path fill="#FFFFFF" d="M200.005402,362.501007c0,0-120.451202-92.783203-130.658691-101.02829
		c-10.207104-8.245209-7.415104-15.170013,4.409599-11.491318c14.497101,4.508804,91.149994,25.178818,91.149994,25.178818
		v-79.246109h70.198196v79.246109c0,0,76.652313-20.670013,91.149414-25.178818
		c11.825195-3.678696,14.617188,3.246109,4.410187,11.491318C320.456085,269.717804,200.005402,362.501007,200.005402,362.501007z"
		/>
	<g>
		<path fill="#FFFFFF" d="M135.688492,80.723106h-26.238297v-14.2202c0-3.684097-2.990196-6.674297-6.674301-6.674297
			c-3.689491,0-6.679192,2.9902-6.679192,6.674297v14.2202H69.852997c-1.763596,0-3.4804,0.714897-4.727997,1.9673
			c-1.241699,1.236801-1.946301,2.95359-1.946301,4.7173v32.839401c0,1.758797,0.704601,3.475601,1.946301,4.7173
			c1.247597,1.247498,2.964401,1.967697,4.727997,1.967697h26.243706v15.769997c0,3.684097,2.9897,6.684601,6.679192,6.684601
			c3.684105,0,6.674301-3.000504,6.674301-6.684601v-15.769997h26.238297c1.774399,0,3.454605-0.7099,4.7173-1.967697
			c1.263107-1.262703,1.957001-2.948303,1.957001-4.7173V87.407707c0-1.753403-0.71489-3.4702-1.957001-4.7173
			C139.1689,81.448212,137.441895,80.723106,135.688492,80.723106z M76.527298,113.562508V94.08741h19.569405v19.475098H76.527298z
			 M129.003891,113.562508h-19.553696V94.08741h19.553696V113.562508z"/>
		<path fill="#FFFFFF" d="M241.580093,104.012711h-10.274399V81.072807c0-1.414597-0.542999-2.739807-1.544998-3.731499
			c-0.997009-0.996597-2.327103-1.555199-3.736298-1.555199h-19.475601v-9.283203c0-2.922298-2.363297-5.286098-5.286102-5.286098
			c-2.921906,0-5.286102,2.3638-5.286102,5.286098v9.283203h-19.479996c-1.3936,0-2.750504,0.568893-3.736801,1.544998
			c-0.991196,0.986298-1.544495,2.3535-1.544495,3.741699v22.939903h-10.274902c-2.922302,0-5.286102,2.3638-5.286102,5.286095
			c0,2.906799,2.3638,5.286194,5.286102,5.286194h15.556198h18.655701c-3.366196,4.92131-11.083908,10.953606-18.421295,15.285103
			c-8.484909,5.171402-16.182205,8.552811-16.1978,8.5737c-2.671906,1.184601-3.877411,4.310104-2.692902,6.98201
			c0.876999,1.972595,2.807602,3.146988,4.837891,3.146988c0.714905,0,1.440002-0.14119,2.134308-0.448807v-0.010681
			c0.125-0.057098,8.276398-3.652908,17.408188-9.205109c6.653809-4.148392,13.8862-9.033203,19.063507-15.039497
			c11.626007,13.776802,33.141602,23.174797,33.423798,23.607903c2.629898,1.247498,5.776398,0.120102,7.039108-2.504395
			c1.252899-2.640701,0.125-5.787613-2.4991-7.0401c-0.021408-0.010208-6.993103-3.334412-14.763611-8.38031
			c-6.710999-4.2481-13.807602-10.066399-17.110397-14.966805h18.650406h15.555695c2.922806,0,5.286102-2.379395,5.286102-5.286194
			C246.866196,106.376511,244.502899,104.012711,241.580093,104.012711z M220.738297,86.353508v17.659203h-14.189499V86.353508
			H220.738297z M181.772003,86.353508h14.20459v17.659203h-14.20459V86.353508z"/>
		<path fill="#FFFFFF" d="M346.814484,135.020508c-0.057678,0.078094-2.035187-0.501007-4.377991-2.003906
			c-3.214813-1.914993-7.107391-4.936493-10.353485-7.676292c2.348572-1.017502,4.586884-2.207504,6.679688-3.339806
			c5.050781-2.844299,8.850586-5.609894,8.964783-5.677696c2.353607-1.716805,2.876007-5.025398,1.15921-7.378502
			c-1.717804-2.364197-5.015594-2.8862-7.384674-1.1689v-0.015602c-0.009827,0.015602-3.444427,2.515106-7.911224,5.020004
			c-2.222595,1.299301-4.785095,2.515099-7.070313,3.381302v-10.8647h10.082001c1.408203,0,2.728607-0.542503,3.73642-1.534203
			c0.99118-1.007301,1.549805-2.327599,1.549805-3.736298V73.975609c0-1.419403-0.558624-2.739799-1.549805-3.741699
			c-0.997101-0.996605-2.328217-1.544403-3.73642-1.544403h-11.600464c0.031189-0.067902,0.087769-0.198296,0.10437-0.229507
			c1.07431-2.71389-0.250885-5.792492-2.954102-6.867691c-2.713776-1.080101-5.791901,0.2505-6.872986,2.963898v-0.0103
			c0,0-0.031311,0.109406-0.281311,0.563499c-0.861298,1.570801-2.703094,3.726006-4.780182,3.580101h-4.34671
			c-1.388702,0-2.75,0.558105-3.742188,1.544403c-0.975616,0.980896-1.543915,2.343201-1.543915,3.741699v26.050301
			c0,1.408699,0.547791,2.7397,1.554596,3.736298c0.991302,0.991699,2.322296,1.534203,3.731506,1.534203h10.076202v6.476097
			h-13.077209c-2.921906,0-5.290985,2.363701-5.290985,5.286102c0,2.912102,2.36908,5.286095,5.290985,5.286095v-0.010193h7.864319
			c-0.036224,0.036598-0.067413,0.073196-0.098724,0.114693c-3.789001,4.524406-9.075195,9.685608-14.189392,12.278793
			c-2.609406,1.331116-3.631805,4.514206-2.285187,7.11821c0.92868,1.831497,2.776398,2.875504,4.696289,2.875504
			c0.814514,0,1.643616-0.188004,2.420898-0.584503c5.714905-3.0215,10.703094-7.462402,14.669006-11.726105v10.291
			c0,2.92189,2.364197,5.286209,5.287109,5.286209c2.921875,0,5.286072-2.364319,5.286072-5.286209v-8.245102
			c0.474609,0.391113,0.949219,0.7827,1.440399,1.179199c6.037109,4.487793,11.63092,9.435104,18.853607,9.951706
			c2.912109,0,5.286102-2.379913,5.286102-5.291504C352.100586,137.384308,349.726593,135.020508,346.814484,135.020508z
			 M331.310486,81.709511h-20.158203v-2.463402h20.158203V81.709511z M311.152283,92.281708h20.158203v2.452698h-20.158203
			V92.281708z"/>
		<path fill="#FFFFFF" d="M294.844696,133.366211c1.648499,0,3.271484-0.767105,4.304688-2.207504
			c1.69632-2.379395,1.148499-5.677299-1.21579-7.378899l-13.160187-9.434601v-3.527802h7.341797
			c1.006897,1.314903,2.541077,2.092804,4.154297,2.092804c0.740295,0,1.492188-0.156799,2.211884-0.490799
			c2.656311-1.226006,3.814514-4.362305,2.588898-7.008301l-4.430695-9.601501
			c-1.21579-2.661697-4.352509-3.820297-6.997986-2.593803c-2.661102,1.226601-3.819305,4.362801-2.593719,7.013702
			l0.010712,0.020493h-7.545898c-0.010681,0-0.015594-0.00489-0.026398-0.00489c-0.009705,0-0.015594,0.00489-0.025391,0.00489
			h-0.96582l17.058594-16.839394c2.077209-2.056099,2.092804-5.395996,0.047913-7.467697
			c-2.045898-2.076698-5.390686-2.097702-7.467804-0.057198l-10.791992,10.661194l-3.438507-2.416496l13.139709-11.923904
			c2.160095-1.956993,2.317383-5.296799,0.365204-7.451599c-1.951202-2.170906-5.291016-2.332996-7.461914-0.375999
			l-18.040009,16.359901c-1.195374,1.074699-1.821289,2.6455-1.7276,4.247498
			c0.114319,1.602104,0.928711,3.068405,2.238312,3.997604l7.274414,5.108894l-7.775421,7.681107
			c-1.53418,1.497597-1.988281,3.793999-1.17868,5.761299c0.808594,1.977501,2.75,3.282196,4.894501,3.282196h8.57428v0.292503
			l-20.132889,23.910599c-1.883698,2.243698-1.602509,5.573196,0.63681,7.451706
			c0.99118,0.8349,2.196274,1.242188,3.397385,1.242188c1.502014,0,2.995117-0.64209,4.038116-1.878998l12.060577-14.318794
			v15.185493c0,2.92189,2.358398,5.286209,5.280212,5.286209c2.922882,0,5.287109-2.364319,5.287109-5.286209v-15.352493
			l6.997101,5.024902C292.705078,133.042511,293.780304,133.366211,294.844696,133.366211z"/>
	</g>
</g>
</svg>
