<svg class="svgOrigin" xmlns="http://www.w3.org/2000/svg" width="400" height="400" x="0px" y="0px" viewBox="0 0 400 400" enable-background="new 0 0 400 400">
<g>
	<circle fill="#FF0000" cx="199.999985" cy="200.000015" r="196.885727"/>
	<path fill="none" stroke="#FFFFFF" stroke-width="10.8594" d="M168.333496,213.585007c0,0-2.409698-3.817398-3.292496-3.817398
		s-3.290497,3.817398-3.290497,3.817398s-28.710007,45.303696-30.711411,48.867111
		c-2.417999,4.305695,2.266602,12.317383,8.613708,7.869171c3.0728-2.158173,9.112289-7.015594,14.531296-11.463898v40.792023
		h21.710907v-40.797821c5.42189,4.449219,11.461395,9.311523,14.534195,11.469696
		c6.349594,4.448212,11.031693-3.563477,8.6138-7.869171C197.041,258.888702,168.333496,213.585007,168.333496,213.585007z"/>
	<path fill="none" stroke="#FFFFFF" stroke-width="10.8594" d="M271.86908,201.193405
		c-9.421783-9.194901-20.17569-15.207993-29.269485-21.284195c-5.832001-3.775406-9.782196-10.72171-11.994095-18.007309
		c-2.226608-7.105499-2.571304-14.200195-2.539108-15.106995c0-1.065399,0-3.579102,0-6.75
		c6.691406,5.594299,14.120102,11.681702,17.911102,14.385803c7.869202,5.615189,13.68071-4.496597,10.684586-9.936996
		c-2.481384-4.496613-38.087891-61.704605-38.087891-61.704605s-2.985291-4.825203-4.082993-4.825203
		c-1.091797,0-4.077103,4.825203-4.077103,4.825203s-35.603592,57.207993-38.084991,61.704605
		c-2.998505,5.440399,2.807587,15.552185,10.681595,9.936996c3.788605-2.704102,11.217804-8.791504,17.909195-14.385803
		c0,3.1763,0,5.689499,0,6.75c0.023911,3.409698,0.434601,12.211899,3.730499,23.081604
		c3.319305,10.679199,9.676697,23.797791,22.980499,32.668396c10.042908,6.590805,19.343704,12.148499,25.186508,17.991196
		c5.817398,6.023499,8.643509,10.8116,8.839798,20.388702c-0.185516,14.358398-1.643494,18.881805-6.086899,25.011688
		c-4.645508,6.303711-15.277298,14.644623-33.559601,28.331116l16.341797,21.68158
		c18.1241-13.787079,30.017593-22.254883,38.797897-33.554688c8.977509-11.453094,11.835907-25.287109,11.655304-41.469696
		C288.996094,223.946304,281.339783,210.2285,271.86908,201.193405z"/>
	<path fill="none" stroke="#FFFFFF" stroke-width="5.62535" d="M388.455078,200
		c0,104.077087-84.373077,188.444305-188.455078,188.444305S11.5503,304.077087,11.5503,200
		C11.5503,95.917999,95.917999,11.544909,200,11.544909S388.455078,95.917999,388.455078,200z"/>
	<path fill="#FFFFFF" d="M70.667503,200c0,71.423798,57.905693,129.327087,129.332489,129.327087
		c30.648392,0,58.788086-10.679596,80.947296-28.490173L99.168503,119.042C81.355003,141.201202,70.667503,169.34671,70.667503,200z
		"/>
	<path fill="#FFFFFF" d="M329.332001,200c0-71.434586-57.902313-129.342789-129.332001-129.342789
		c-30.645508,0-58.785599,10.684097-80.944801,28.500496l181.781677,181.784698
		C318.65329,258.783203,329.332001,230.642609,329.332001,200z"/>
	<path fill="#0334A6" d="M168.333496,213.585007c0,0-2.409698-3.817398-3.292496-3.817398s-3.290497,3.817398-3.290497,3.817398
		s-28.710007,45.303696-30.711411,48.867111c-2.417999,4.305695,2.266602,12.317383,8.613708,7.869171
		c3.0728-2.158173,9.112289-7.015594,14.531296-11.463898v40.792023h21.710907v-40.797821
		c5.42189,4.449219,11.461395,9.311523,14.534195,11.469696c6.349594,4.448212,11.031693-3.563477,8.6138-7.869171
		C197.041,258.888702,168.333496,213.585007,168.333496,213.585007z"/>
	<path fill="#0334A6" d="M271.86908,201.193405c-9.421783-9.194901-20.17569-15.207993-29.269485-21.284195
		c-5.832001-3.775406-9.782196-10.72171-11.994095-18.007309c-2.226608-7.105499-2.571304-14.200195-2.539108-15.106995
		c0-1.065399,0-3.579102,0-6.75c6.691406,5.594299,14.120102,11.681702,17.911102,14.385803
		c7.869202,5.615189,13.68071-4.496597,10.684586-9.936996c-2.481384-4.496613-38.087891-61.704605-38.087891-61.704605
		s-2.985291-4.825203-4.082993-4.825203c-1.091797,0-4.077103,4.825203-4.077103,4.825203s-35.603592,57.207993-38.084991,61.704605
		c-2.998505,5.440399,2.807587,15.552185,10.681595,9.936996c3.788605-2.704102,11.217804-8.791504,17.909195-14.385803
		c0,3.1763,0,5.689499,0,6.75c0.023911,3.409698,0.434601,12.211899,3.730499,23.081604
		c3.319305,10.679199,9.676697,23.797791,22.980499,32.668396c10.042908,6.590805,19.343704,12.148499,25.186508,17.991196
		c5.817398,6.023499,8.643509,10.8116,8.839798,20.388702c-0.185516,14.358398-1.643494,18.881805-6.086899,25.011688
		c-4.645508,6.303711-15.277298,14.644623-33.559601,28.331116l16.341797,21.68158
		c18.1241-13.787079,30.017593-22.254883,38.797897-33.554688c8.977509-11.453094,11.835907-25.287109,11.655304-41.469696
		C288.996094,223.946304,281.339783,210.2285,271.86908,201.193405z"/>
</g>
</svg>
