<?xml version="1.0" encoding="UTF-8" standalone="no"?>
<!DOCTYPE svg PUBLIC "-//W3C//DTD SVG 1.1//EN" "http://www.w3.org/Graphics/SVG/1.1/DTD/svg11.dtd">
<!-- Created with Vectornator (http://vectornator.io/) -->
<svg height="400.0pt" stroke-miterlimit="10" style="fill-rule:nonzero;clip-rule:evenodd;stroke-linecap:round;stroke-linejoin:round;" version="1.1" viewBox="0 0 400 400" width="400.0pt" xml:space="preserve" xmlns="http://www.w3.org/2000/svg" xmlns:xlink="http://www.w3.org/1999/xlink">
<defs/>
<g id="名称未設定">
<g opacity="1">
<path d="M1.42109e-14 0L400 0L400 0L400 400L400 400L1.42109e-14 400L1.42109e-14 400L1.42109e-14 0L1.42109e-14 0Z" fill="#808080" fill-rule="nonzero" opacity="1" stroke="none"/>
<path d="M249.965 167.681L151.06 234.714" fill="none" opacity="1" stroke="#ffffff" stroke-linecap="butt" stroke-linejoin="miter" stroke-width="13.61"/>
<path d="M249.965 117.681L151.06 184.714" fill="none" opacity="1" stroke="#ffffff" stroke-linecap="butt" stroke-linejoin="miter" stroke-width="13.61"/>
<path d="M249.965 67.6813L151.06 134.714" fill="none" opacity="1" stroke="#ffffff" stroke-linecap="butt" stroke-linejoin="miter" stroke-width="13.61"/>
<path d="M232.863 29.272L151.06 84.7139" fill="none" opacity="1" stroke="#ffffff" stroke-linecap="butt" stroke-linejoin="miter" stroke-width="13.61"/>
<path d="M249.965 317.681L165.909 374.65" fill="none" opacity="1" stroke="#ffffff" stroke-linecap="butt" stroke-linejoin="miter" stroke-width="13.61"/>
<path d="M249.965 267.681L151.06 334.714" fill="none" opacity="1" stroke="#ffffff" stroke-linecap="butt" stroke-linejoin="miter" stroke-width="13.61"/>
<path d="M249.965 217.681L151.06 284.714" fill="none" opacity="1" stroke="#ffffff" stroke-linecap="butt" stroke-linejoin="miter" stroke-width="13.61"/>
<path d="M150.519 65.6301C150.147 0.287773 248.398 1.87446 249.481 65.6301L249.481 334.37C249.305 400.485 150.845 400.799 150.519 334.37L150.519 65.6301Z" fill="none" opacity="1" stroke="#fd8d33" stroke-linecap="butt" stroke-linejoin="miter" stroke-width="13.61"/>
</g>
</g>
</svg>
