<svg class="svgOrigin" xmlns="http://www.w3.org/2000/svg" width="400" height="400" x="0px" y="0px" viewBox="0 0 400 400" enable-background="new 0 0 400 400">
<g>
	<path fill="#0334A6" d="M396.99408,200c0,108.800812-88.199188,197-196.988678,197C91.204597,397,3.00537,308.800812,3.00537,200
		S91.204597,3,200.005402,3C308.794891,3,396.99408,91.199211,396.99408,200z"/>
	<path fill="none" stroke="#FFFFFF" stroke-width="5.62857" d="M388.551788,200
		c0,104.133789-84.417999,188.557587-188.546387,188.557587C95.8657,388.557587,11.4482,304.133789,11.4482,200
		C11.4482,95.860405,95.8657,11.44291,200.005402,11.44291C304.133789,11.44291,388.551788,95.860405,388.551788,200z"/>
	<path fill="#FFFFFF" d="M291.166992,199.785599c-4.155304,0-8.162109,0.632401-11.94339,1.775909L264.448181,162.7603
		l8.134827-14.928787c2.419006,0,6.17868,0,11.345673,0c9.640625,0,1.610413-11.251907-12.884796-11.251907
		c-14.49408,0-20.936493,11.251907-17.71579,11.251907c2.199203,0,8.828186,0,12.845703,0l-8.365204,15.352097H157.637192
		c1.797409-5.793503,3.281708-10.3228,4.078598-12.263199c0.428711-1.093704,0.703613-2.132797,0.703613-3.265106
		c0.049393-2.759308-1.885208-4.787598-3.54541-5.716309c-2.572189-1.528381-5.425293-2.303284-7.453598-3.627991
		c-1.9897-1.368591-3.078094-2.467697-3.182602-5.760193c0.296906-5.067902,1.979004-5.079102,6.953598-5.518608
		c3.968307-0.027794,8.695297,1.049797,12.378403,1.082497c1.549805,0,2.813995-1.264091,2.813995-2.813896
		c0-1.550301-1.264191-2.803696-2.813995-2.803696v-0.010803c-2.561493,0.032692-7.596695-1.077095-12.378403-1.088402
		c-2.875,0.011307-5.85939,0.373604-8.4487,2.127502c-2.621597,1.752899-4.193893,5.045898-4.122101,9.025406
		c-0.121094,7.062988,5.029312,10.559097,8.739304,12.086899c1.896408,0.846695,3.617203,1.500488,4.557114,2.099594
		c1,0.6875,0.835388,0.654297,0.884796,0.917999c0,0.126404-0.060608,0.533203-0.313507,1.192795
		c-2.9077,7.134811-13.0215,41.917511-17.566895,57.665604c-6.459-4.243195-14.176308-6.728104-22.481506-6.728104
		c-22.684494,0-41.059998,18.392105-41.059998,41.060104c0,22.678711,18.375504,41.054688,41.059998,41.065399
		c22.679199-0.010712,41.054199-18.386688,41.065506-41.065399C157.5,228.654297,152.151398,217.737305,143.709,210.212906
		c1.038589-3.589905,2.4897-8.613297,4.133301-14.252899l43.066391,38.514603c-0.7202,2.138687-1.198303,4.392593-1.198303,6.772491
		c0,11.78511,9.552811,21.332001,21.343307,21.343689c0.274399,0,0.533203-0.072174,0.807602-0.082977l2.19339,9.432587
		c0.307602,1.302795,1.451202,2.176819,2.732407,2.176819c0.208008,0,0.428696-0.022522,0.642593-0.07132
		c1.517609-0.34671,2.462906-1.864288,2.105515-3.370087l-2.127014-9.163116c7.90921-2.484406,13.7686-9.387695,14.730499-17.858398
		h18.1064c1.461914,21.360321,19.194397,38.246094,40.921906,38.256805c22.679688-0.010712,41.054688-18.391602,41.065399-41.065399
		C332.22168,218.166,313.84668,199.785599,291.166992,199.785599z M151.865692,240.845703
		c-0.0327,19.56839-15.857895,35.392609-35.425797,35.425812c-19.568298-0.033203-35.392998-15.857422-35.431595-35.425812
		c0.038597-19.568405,15.863297-35.392593,35.431595-35.431595c7.799805,0.016602,14.983902,2.567291,20.826706,6.837891
		c-0.165009,0.587799-0.313507,1.104401-0.412109,1.440399L119.3423,233.359406
		c-0.901901-0.351608-1.874504-0.560608-2.897003-0.560608c-4.4468,0-8.052696,3.605499-8.052696,8.052811
		c0,4.446289,3.605896,8.051697,8.052696,8.051697s8.052704-3.605408,8.052704-8.051697
		c0-1.358398-0.368103-2.617203-0.961906-3.738312l17.962898-20.156296l0.384796-0.709
		C148.039993,222.61911,151.849091,231.276398,151.865692,240.845703z M273.973602,203.594711
		c-13.262695,6.134796-22.673813,19.117188-23.728516,34.425797h-18.188492c-0.093704-0.610306-0.192307-1.209-0.335907-1.802704
		c-0.010681-0.066406,0.011703-0.131897-0.004898-0.198303c-0.033203-0.142502-0.121094-0.246994-0.170898-0.378891
		c-0.669891-2.440399-1.709-4.72171-3.138596-6.733398l32.496994-59.639099L273.973602,203.594711z M283.65918,238.020508
		h-27.769592c1.039093-12.906204,8.954193-23.822296,20.095795-29.132797l9.883698,25.950195
		C284.890594,235.701202,284.126007,236.778305,283.65918,238.020508z M225.251999,234.651398l-9.943405,2.3134
		c-1.034195-1.0224-2.446304-1.631805-4.001999-1.704086l-2.2099-9.525314c0.648407-0.082092,1.286102-0.198288,1.957001-0.198288
		C217.358398,225.548798,222.75589,229.286102,225.251999,234.651398z M205.573196,235.436508l-7.387192-3.154297
		c1.423889-2.03421,3.330597-3.667007,5.529785-4.836914L205.573196,235.436508z M150.123489,190.436005
		c-0.170395-0.154297-0.373993-0.225601-0.566391-0.330002c2.094299-7.128891,4.3423-14.714401,6.37059-21.371094
		c0.126511,0.021896,0.241714,0.077087,0.374115,0.077087h98.439392l-30.423798,55.840302
		c-3.650391-2.923798-8.223602-4.743088-13.263702-4.748993c-1.110306,0-2.176697,0.1651-3.237305,0.330093l-2.347595-10.119095
		l2.512604-0.1651c1.566498-0.104492,2.731491-1.440399,2.626999-2.996094c-0.098602-1.549805-1.445297-2.720703-2.995102-2.626907
		l-10.438507,0.692398c-1.550293,0.110306-2.721191,1.445297-2.622101,3.0009
		c0.099213,1.489304,1.341309,2.628006,2.819901,2.628006c0.055099,0,0.115204,0,0.175705-0.005905l2.231995-0.148392
		l2.622009,11.279297c-3.627899,1.616196-6.727997,4.1884-8.954498,7.425705L150.123489,190.436005z M195.344193,241.247101
		c0-1.330093,0.219803-2.605499,0.533203-3.836899l9.151901,3.914001c0.027298,2.220703,1.291992,4.084,3.100601,5.106506
		l2.428696,10.470688C202.122101,256.627014,195.355499,249.745102,195.344193,241.247101z M216.132797,256.033203
		l-2.220703-9.558594c1.164993-0.643509,2.137695-1.588913,2.670898-2.820313h9.927704
		C225.608398,249.459,221.552689,254.164108,216.132797,256.033203z M291.166992,276.277313
		c-18.617188-0.039001-33.820313-14.368103-35.277405-32.623016h27.75882c1.142578,3.061508,4.067383,5.249008,7.524475,5.249008
		c4.447205,0,8.052704-3.605408,8.052704-8.051697c0-4.447311-3.605499-8.052811-8.052704-8.052811
		c-0.016602,0-0.033295,0.004913-0.049896,0.004913l-9.876892-25.938507c3.149414-0.917892,6.469696-1.440399,9.920898-1.445297
		c19.56839,0.027405,35.393494,15.857391,35.426788,35.425797C326.560486,260.418915,310.735382,276.238312,291.166992,276.277313z"
		/>
</g>
</svg>
