<svg class="svgOrigin" xmlns="http://www.w3.org/2000/svg" width="400" height="400" x="0px" y="0px" viewBox="0 0 400 400" enable-background="new 0 0 400 400">
<g>
	<path fill="#0334A6" d="M396.867188,332.414093c0,11.753906-9.61618,21.359314-21.359406,21.359314H24.4932
		c-11.749101,0-21.3599-9.605408-21.3599-21.359314V67.586411c0-11.749001,9.6108-21.359802,21.3599-21.359802h351.014587
		c11.743225,0,21.359406,9.610802,21.359406,21.359802V332.414093z"/>
	<path fill="none" stroke="#FFFFFF" stroke-width="2.66997" d="M375.507782,348.438507H24.4902
		c-8.8286,0-16.017059-7.191406-16.017059-16.014709V67.581108c0-8.828701,7.18846-16.014698,16.017059-16.014698h351.017578
		c8.823303,0,16.014709,7.185997,16.014709,16.014698v264.842682
		C391.522491,341.247101,384.331085,348.438507,375.507782,348.438507L375.507782,348.438507z"/>
	<path fill="#FFFFFF" d="M375.502014,337.758789H24.487801c-2.940901,0-5.334501-2.393585-5.334501-5.334991V67.57621
		c0-2.941399,2.3936-5.335003,5.334501-5.335003h351.014221c2.952087,0,5.345673,2.393604,5.345673,5.335003v264.847595
		C380.847687,335.365204,378.454102,337.758789,375.502014,337.758789L375.502014,337.758789z"/>
	<g>
		<path fill="#0334A6" d="M106.4067,142.475601v9.037598c0,1.913605,1.554199,3.467804,3.465401,3.467804
			c1.924294,0,3.477997-1.554199,3.477997-3.467804v-9.037598h8.398399c1.914101,0,3.467796-1.553696,3.467796-3.477997
			c0-1.908691-1.553696-3.462402-3.467796-3.462402h-8.398399v-0.334c6.5811-1.366196,11.756798-6.528793,13.169899-13.099594
			c0.1436,0.240196,0.260803,0.5009,0.469704,0.709389c0.677795,0.677811,1.563995,1.016609,2.453201,1.016609
			c0.889099,0,1.775894-0.338799,2.453598-1.016609c0-0.010689,6.200699-6.210892,12.460892-12.557091
			c6.813004,6.387703,13.586899,12.583,13.652405,12.656303c1.413101,1.303696,3.605896,1.204498,4.898895-0.209
			c1.291-1.413101,1.204605-3.608406-0.205597-4.906799c-0.023392-0.015602-6.745605-6.185005-13.485794-12.5
			c1.452591-1.486305,2.810989-2.889107,3.981903-4.109306c1.193893-1.251495,2.192398-2.314995,2.919891-3.118195
			c0.359909-0.401909,0.662598-0.7407,0.912598-1.042999c0.130402-0.161606,0.239807-0.302704,0.380905-0.5112
			c0.109406-0.401405,0.435501-0.031303,0.683105-2.106506c0.033691-0.662498-0.302704-1.867096-1.194305-2.618095
			c-0.868195-0.750999-1.736404-0.855003-2.292007-0.870598c-0.782288,0-19.17189,0-21.255386,0
			c-0.466812,0.015594-1.282715,0.078094-2.185104,0.7612c-0.933105,0.683098-1.378906,2.002495-1.3349,2.7481
			c0.456497,2.727493,0.836899,1.997498,1.087402,2.675293c1.160095,1.3974,4.463898,4.6464,8.382797,8.380302
			c-0.112305,0.114304-0.224106,0.229004-0.336395,0.338898c-6.080612,6.1689-11.967804,12.066902-11.978104,12.077103
			c-0.055107,0.052299-0.070801,0.125504-0.120102,0.182701c-0.216301-8.015198-5.921402-14.664108-13.519501-16.2388v-1.366203
			h8.3936c1.921303,0,3.475502-1.564499,3.475502-3.473198c0-1.918907-1.554199-3.473099-3.475502-3.473099h-8.3936V89.56691
			c0-1.914101-1.553703-3.4683-3.477997-3.4683c-1.911201,0-3.465401,1.554199-3.465401,3.4683v3.962898H96.1782
			c-1.911598,0-3.473099,1.554192-3.473099,3.473099c0,1.908699,1.561501,3.473198,3.473099,3.473198h10.2285v1.371605
			c-7.738701,1.600494-13.555603,8.447701-13.560997,16.655701c0,0.0103-0.005402,0.015587-0.005402,0.020996
			c0,0.0103,0.005402,0.021004,0.005402,0.031303c0.0186,8.202599,5.830093,15.03949,13.560997,16.645493v0.334H96.180702
			c-1.911201,0-3.4786,1.553711-3.4786,3.462402c0,1.924301,1.567398,3.477997,3.4786,3.477997H106.4067z M146.740204,97.874001
			c-0.802704,0.834-1.668411,1.726105-2.570801,2.654305c-0.972107-0.9282-1.905701-1.820305-2.7715-2.654305
			C143.152802,97.874001,144.998489,97.874001,146.740204,97.874001z M113.350098,109.085411
			c2.766602,1.017097,4.940903,3.196793,5.960396,5.965897h-5.960396V109.085411z M113.350098,122.002403h5.955597
			c-1.017097,2.758804-3.191399,4.933105-5.955597,5.955597V122.002403z M106.4067,109.085411v5.965897h-5.965805
			C101.463394,112.282204,103.640099,110.10791,106.4067,109.085411z M100.443794,122.002403h5.962906V127.958
			C103.643097,126.935509,101.4683,124.761208,100.443794,122.002403z"/>
		<path fill="#0334A6" d="M162.5728,147.294403h-15.44101v-11.608398h8.658707c1.914093,0,3.468292-1.548798,3.468292-3.462402
			c0-1.924301-1.554199-3.4785-3.468292-3.4785h-8.658707v-6.179192c0-1.914001-1.554199-3.467804-3.4785-3.467804
			c-1.911087,0-3.465286,1.553802-3.465286,3.467804v6.179192h-8.786606c-1.924301,0-3.4785,1.554199-3.4785,3.4785
			c0,1.913605,1.554199,3.462402,3.4785,3.462402h8.786606v11.608398h-13.613304c-1.923805,0-3.478004,1.553696-3.478004,3.467804
			c0,1.913605,1.554199,3.477997,3.478004,3.477997v-0.010208h35.9981c1.913498,0,3.467697-1.554184,3.467697-3.467789
			C166.040497,148.848099,164.486298,147.294403,162.5728,147.294403z"/>
		<path fill="#0334A6" d="M129.0103,165.061005c-1.916504,0-3.473206,1.559097-3.473206,3.478104v4.537094H99.306602
			c-1.913506,0-3.4702,1.554199-3.4702,3.467697c0,1.914093,1.556694,3.467804,3.4702,3.467804h26.230492v2.607407h-7.149399
			c-7.814499,0.0103-14.147499,6.341293-14.158195,14.147995v3.175797c0.010696,7.806091,6.343697,14.137207,14.158195,14.147903
			h7.149399v1.705093H99.306602c-1.916,0-3.472603,1.548813-3.472603,3.472702c0,1.914001,1.556602,3.462799,3.472603,3.462799
			h26.230492v8.546906c0,1.919006,1.556702,3.472702,3.473206,3.472702s3.473099-1.553696,3.473099-3.472702V222.7314h25.904297
			c1.916504,0,3.462402-1.548798,3.462402-3.462799c0-1.923889-1.545898-3.472702-3.462402-3.472702h-25.904297v-1.705093h7.162598
			c7.803696-0.010696,14.139603-6.341812,14.149902-14.147903v-3.175797c-0.0103-7.806702-6.346207-14.137695-14.149902-14.147995
			h-7.162598v-2.607407H158.3853c1.913498,0,3.467697-1.553711,3.467697-3.467804c0-1.913498-1.554199-3.467697-3.467697-3.467697
			h-25.901901v-4.537094C132.483398,166.620102,130.926804,165.061005,129.0103,165.061005z M125.537094,207.149399h-7.149399
			c-3.295898,0-6.075195-2.284195-6.925301-5.324188h14.074699V207.149399z M125.537094,194.884308h-14.0718
			c0.847206-3.0401,3.629402-5.313995,6.922401-5.324203h7.149399V194.884308z M139.645996,207.149399h-7.162598v-5.324188
			h14.077103C145.713394,204.865204,142.931198,207.149399,139.645996,207.149399z M139.645996,189.560104
			c3.285202,0.010208,6.064407,2.284103,6.914505,5.324203h-14.077103v-5.324203H139.645996z"/>
		<path fill="#0334A6" d="M157.792999,263.964813c-2.497604-1.992096-4.865311-3.327118-7.756897-3.452118h-18.345703v-6.404297
			h27.356995c1.9189,0,3.47551-1.553696,3.47551-3.472702c0-1.9189-1.55661-3.473587-3.47551-3.473587H99.314499
			c-1.918999,0-3.475601,1.554688-3.475601,3.473587c0,1.919006,1.556602,3.472702,3.475601,3.472702h27.031197v6.404297h-18.3535
			c-2.889198,0.125-5.256798,1.460022-7.754395,3.452118c-2.346703,2.023499-4.680199,4.985382-4.734901,9.037201
			c0,5.005798,0,35.204987,0,35.204987c0,1.919006,1.559097,3.4776,3.478104,3.4776c1.911095,0,3.470192-1.558594,3.470192-3.4776
			c0,0,0-30.2099,0-35.204987c-0.054695-0.964905,0.785103-2.498108,2.268501-3.739319
			c0.719803-0.604492,1.527901-1.11618,2.203201-1.433594c0.654701-0.329102,1.058502-0.329102,1.069298-0.371094h18.3535v22.595703
			c-3.183601,0-6.148399,0-8.075195,0c-0.203606-1.204102-0.435501-3.050812-0.482407-4.656219
			c-0.151398-2.758789-0.151398-5.225586-0.151398-5.225586c0-1.919006-1.559097-3.462891-3.477997-3.462891
			c-1.918999,0-3.467804,1.543884-3.467804,3.462891c0,0.041992,0,3.436493,0.260803,6.935486
			c0.130302,1.757813,0.328102,3.525421,0.664497,5.094727c0.185104,0.788086,0.383301,1.517578,0.808601,2.35257
			c0.380402,0.698212,1.295898,2.31543,3.7388,2.434601c2.007797,0,23.698692,0,25.703606,0
			c2.432587-0.119171,3.348099-1.736389,3.7314-2.434601c1.240799-2.680695,1.308594-5.631775,1.559097-8.750977
			c0.174789-2.993195,0.174789-5.589813,0.174789-5.631805c0-1.919006-1.548798-3.462891-3.467789-3.462891
			c-1.919403,0-3.468201,1.543884-3.468201,3.462891c0,0,0,3.24408-0.239807,6.414001
			c-0.096191,1.272491-0.237289,2.529297-0.401291,3.467804c-1.926804,0-4.886307,0-8.065002,0v-22.595703h18.345703
			c0.010788-0.020508,0.414597,0.041992,1.069397,0.371094c2.203094,0.916992,4.724594,3.753906,4.471603,5.172913
			c0,5.005798,0,23.95108,0,23.95108c0.043991,1.67392-1.079514,3.890594-2.803207,5.580109
			c-1.647888,1.720703-3.960403,2.638702-4.406204,2.539093c-1.92189,0-3.470688,1.548798-3.470688,3.467712
			c0,1.919006,1.548798,3.473694,3.470688,3.473694c3.56691-0.115295,6.588806-1.987305,9.282211-4.552795
			c2.607391-2.602509,4.834-6.184509,4.875488-10.507813c0,0,0-18.955994,0-23.95108
			C162.473602,268.950195,160.137192,265.988312,157.792999,263.964813z"/>
		<path fill="#0334A6" d="M239.329102,106.765106h45.107391c1.924805,0,3.478516-1.554199,3.478516-3.473106
			c0-1.924294-1.553711-3.47319-3.478516-3.47319h-45.107391c-1.924805,0-3.473602,1.548897-3.473602,3.47319
			C235.855499,105.210907,237.404297,106.765106,239.329102,106.765106z"/>
		<path fill="#0334A6" d="M294.886688,136.390106h-65.998001c-1.929688,0-3.483398,1.554199-3.483398,3.467804
			c0,1.924301,1.553711,3.4785,3.483398,3.4785h65.998001c1.924805,0,3.478516-1.554199,3.478516-3.4785
			C298.365204,137.944305,296.811493,136.390106,294.886688,136.390106z"/>
		<path fill="#0334A6" d="M287.59668,258.9375c-4.323273-4.651398-9.198273-10.283203-9.631897-11.201202
			c-0.641602-1.136688-1.84079-1.809494-3.13858-1.762695c-1.29892,0.042007-2.456116,0.792999-3.009796,1.960999
			c-0.417023,1.0634-5.219727,6.971603-9.501007,11.743103c-2.988312,3.384796-5.825195,6.487305-7.332001,8.125
			c-2.440399-3.139587-5.892609-5.439392-9.928711-6.27829v-1.367218h8.395508c1.9189,0,3.473602-1.55368,3.473602-3.472595
			c0-1.918991-1.554703-3.472702-3.473602-3.472702h-8.395508v-3.963898c0-1.908203-1.559601-3.472595-3.467789-3.472595
			c-1.924805,0-3.4785,1.564392-3.4785,3.472595v3.963898h-10.220703c-1.9189,0-3.462906,1.553711-3.462906,3.472702
			c0,1.918915,1.544006,3.472595,3.462906,3.472595h10.220703v1.372101c-7.717804,1.600616-13.505905,8.416992-13.547897,16.598602
			c0,0.026398-0.020508,0.051819-0.020508,0.078217c0,0.026276,0.015701,0.046783,0.020508,0.067291
			c0.031296,8.1875,5.825195,14.998108,13.547897,16.609406v0.328094h-10.220703c-1.9189,0-3.462906,1.554688-3.462906,3.473694
			c0,1.918884,1.544006,3.467712,3.462906,3.467712h10.220703v9.047882c0,1.913116,1.553696,3.472717,3.4785,3.472717
			c1.908188,0,3.467789-1.559601,3.467789-3.472717v-9.047882h8.395508c1.914093,0,3.473602-1.548828,3.473602-3.467712
			c0-1.919006-1.559509-3.473694-3.473602-3.473694h-8.395508v-0.323212c5.439407-1.136688,9.908203-4.859406,12.098602-9.824188
			c-0.010681,0.1875-0.0625,0.375-0.0625,0.557587c0,0.808624,0,3.541016,0,6.935516c0,0.00589,0,0.00589,0,0.015686
			c0,0,0,0.005798,0,0.010712c0,7.634796,0,18.611298,0,18.611298c0,1.919006,1.564514,3.478607,3.472717,3.478607
			c1.918884,0,3.478485-1.559601,3.478485-3.478607c0,0,0-8.045898,0-15.159088h3.717804v9.522369
			c0,1.919006,1.564392,3.467804,3.472595,3.467804c1.919891,0,3.473694-1.548798,3.473694-3.467804v-9.522369h3.410095v9.522369
			c0,1.919006,1.553711,3.467804,3.473602,3.467804c1.908203,0,3.472717-1.548798,3.472717-3.467804v-9.522369h2.951202
			c0,3.420898,0,6.643494,0,7.827087c0.041992,0.777283-0.584015,2.435608-1.553711,3.603485
			c-0.469788,0.584015-1.000977,1.053711-1.408203,1.314514c-0.412201,0.265594-0.521484,0.208984-0.521484,0.265594
			c-1.919006,0-3.4776,1.548798-3.4776,3.467804c0,1.918884,1.558594,3.473602,3.4776,3.473602
			c3.358398-0.135712,5.553711-2.065399,7.342682-4.171906c1.725616-2.201111,3.035217-4.865204,3.076202-7.953094
			c0-1.589813,0-6.804688,0-11.279297c0-0.004913,0-0.010712,0-0.010712c0-0.009796,0-0.009796,0-0.015686
			c0-3.811493,0-7.085907,0-7.096619c0-2.304688-0.448181-4.912079-2.289001-7.113281
			c-1.856506-2.226593-4.876007-3.347717-8.291107-3.316406c-2.164001,0-9.277283,0-15.294891,0
			c-5.497101,0.031189-9.042908,2.915009-10.758789,6.164001c0.172882-0.9599,0.291992-1.934509,0.297882-2.941406
			c0-0.020508,0.009705-0.031189,0.009705-0.046783c0-0.020599-0.009705-0.036224-0.009705-0.057709
			c-0.010773-1.319305-0.198273-2.585907-0.479492-3.827118c0.276398-0.162079,0.5625-0.313477,0.802704-0.558594v-0.009796
			c0-0.005798,1.063507-1.142487,2.680695-2.910095c0.552704,1.183594,1.736298,2.007813,3.128906,2.007813h19.325195
			c1.90921,0,3.462891-1.544006,3.462891-3.462921c0-0.156281-0.067383-0.281281-0.082977-0.427704
			c2.164001,2.305603,3.686493,3.901306,3.691376,3.901306c1.319305,1.381897,3.520508,1.438507,4.902313,0.114319
			c1.386688-1.324219,1.439514-3.514709,0.114288-4.901428C296.149384,268.052704,292.002899,263.713898,287.59668,258.9375z
			 M238.108398,287.639618c-2.7686-1.0224-4.943405-3.202118-5.965805-5.96582h5.965805V287.639618z M238.108398,274.738312
			h-5.965805c1.0224-2.763702,3.197205-4.94342,5.965805-5.96582V274.738312z M245.054688,287.639618v-5.96582h5.960907
			C249.998001,284.4375,247.81839,286.617218,245.054688,287.639618z M245.054688,274.738312v-5.96582
			c2.763702,1.0224,4.943314,3.196198,5.960907,5.96582H245.054688z M285.0625,282.02829
			c1.538086,0.125,2.039093,0.521515,2.304688,0.813507c0.329102,0.344696,0.657196,1.209991,0.646515,2.618195
			c0,0.004822,0,1.501923,0,3.639618H285.0625V282.02829z M274.706085,281.976593c1.178711,0,2.330994,0,3.410095,0v7.123016
			h-3.410095V281.976593z M264.041992,285.621094c0.046906-0.69339,0.870087-2.826202,3.717804-3.405304v6.88382h-3.717804
			C264.041992,287.399414,264.041992,286.127014,264.041992,285.621094z M284.071289,265.90921h-18.001007
			c0.474609-0.537109,0.954102-1.074219,1.439514-1.627014c2.752899-3.154297,5.496094-6.283203,7.577087-8.943298
			c2.054718,2.435516,4.718811,5.350616,7.410217,8.302704c0.760681,0.823212,1.501892,1.621094,2.22168,2.398407
			C284.498993,265.997986,284.300781,265.90921,284.071289,265.90921z"/>
	</g>
</g>
</svg>
