<?xml version="1.0" encoding="UTF-8" standalone="no"?>
<!DOCTYPE svg PUBLIC "-//W3C//DTD SVG 1.1//EN" "http://www.w3.org/Graphics/SVG/1.1/DTD/svg11.dtd">
<!-- Created with Vectornator (http://vectornator.io/) -->
<svg height="400.0pt" stroke-miterlimit="10" style="fill-rule:nonzero;clip-rule:evenodd;stroke-linecap:round;stroke-linejoin:round;" version="1.1" viewBox="0 0 400 400" width="400.0pt" xml:space="preserve" xmlns="http://www.w3.org/2000/svg" xmlns:xlink="http://www.w3.org/1999/xlink">
<defs/>
<g id="名称未設定">
<g opacity="1">
<path d="M390.861 377.021C390.861 388.806 381.226 398.441 369.445 398.441L30.5566 398.441C18.7764 398.441 9.1377 388.806 9.1377 377.021L9.1377 22.98C9.1377 11.1943 18.7764 1.55861 30.5566 1.55861L369.445 1.55861C381.226 1.55861 390.861 11.1943 390.861 22.98C390.861 22.98 390.861 377.021 390.861 377.021Z" fill="#0334a6" fill-rule="nonzero" opacity="1" stroke="none"/>
<path d="M385.085 372.032C385.085 383.46 375.736 392.804 364.309 392.804L35.6904 392.804C24.2656 392.804 14.9185 383.46 14.9185 372.032L14.9185 27.9678C14.9185 16.541 24.2656 7.19581 35.6904 7.19581L364.309 7.19581C375.736 7.19581 385.085 16.541 385.085 27.9678C385.085 27.9678 385.085 372.032 385.085 372.032Z" fill="none" opacity="1" stroke="#ffffff" stroke-linecap="butt" stroke-linejoin="miter" stroke-width="4.58514"/>
<path d="M43.1611 40.1157L62.2294 40.1157L62.2294 40.1157L62.2294 359.459L62.2294 359.459L43.1611 359.459L43.1611 359.459L43.1611 40.1157L43.1611 40.1157Z" fill="#ffffff" fill-rule="nonzero" opacity="1" stroke="none"/>
<path d="M214.241 40.541L233.307 40.541L233.307 40.541L233.307 359.885L233.307 359.885L214.241 359.885L214.241 359.885L214.241 40.541L214.241 40.541Z" fill="#ffffff" fill-rule="nonzero" opacity="1" stroke="none"/>
<path d="M92.7694 118.804C97.4308 116.905 108.561 112.923 118.827 109.31C118.831 109.31 118.834 109.31 118.834 109.31C121.02 108.541 121.568 109.902 121.568 111.539L121.568 132.403C121.568 136.149 124.635 139.216 128.382 139.216L151.355 139.216C155.102 139.216 158.168 136.149 158.168 132.403L158.168 111.539C158.168 109.902 158.717 108.541 160.902 109.31C160.904 109.31 160.906 109.31 160.907 109.31C171.176 112.923 182.304 116.905 186.966 118.804C196.629 122.739 201.638 120.95 192.334 111.645C185.774 105.085 162.383 79.6695 149.154 65.2454C143.622 59.2141 141.741 57.8233 139.868 57.8233C137.995 57.8233 136.108 59.2178 130.571 65.2555C117.344 79.6804 93.9614 105.085 87.4041 111.645C78.0957 120.95 83.1062 122.739 92.7694 118.804Z" fill="#ffffff" fill-rule="nonzero" opacity="1" stroke="none"/>
<g opacity="1">
<path d="M105.33 318.017C104.9 317.314 104.813 316.992 104.793 317.001C104.336 315.823 103.009 315.228 101.828 315.684C100.649 316.133 100.053 317.457 100.512 318.64C100.591 318.846 101.555 321.304 104.258 324.013C104.706 324.461 105.294 324.685 105.881 324.685C106.47 324.685 107.056 324.461 107.504 324.013C108.393 323.117 108.393 321.662 107.504 320.767C106.452 319.714 105.76 318.73 105.33 318.017Z" fill="#ffffff" fill-rule="nonzero" opacity="1" stroke="none"/>
<path d="M133.108 309.231L122.968 309.231C122.968 308.564 122.968 307.934 122.968 307.387L127.92 307.387L127.92 305.1L127.92 297.08C127.92 297.08 127.923 297.075 127.923 297.07C127.923 297.066 127.92 297.062 127.92 297.062L127.92 286.754L114.071 286.754L114.071 286.378L131.645 286.378C132.91 286.378 133.945 285.348 133.945 284.081C133.945 282.814 132.91 281.793 131.645 281.793L114.071 281.793L114.071 277.203C114.071 275.936 113.047 274.915 111.781 274.915C110.513 274.915 109.49 275.936 109.49 277.203L109.49 281.793L90.0051 281.793C88.7293 281.793 87.7058 282.814 87.7058 284.081C87.7058 285.348 88.7293 286.378 90.0051 286.378L109.49 286.378L109.49 286.754L95.636 286.754L95.636 307.387L111.758 307.387C111.767 307.387 111.774 307.392 111.781 307.392C111.787 307.392 111.794 307.387 111.803 307.387L118.385 307.387C118.385 307.942 118.385 308.556 118.385 309.232L88.2503 309.232C86.9832 309.232 85.9597 310.258 85.9597 311.525C85.9597 312.792 86.9832 313.821 88.2503 313.821L118.385 313.821C118.385 316.549 118.385 319.114 118.385 320.122C117.72 321.29 114.249 324.846 114.249 324.868C113.361 325.755 113.361 327.205 114.259 328.105C114.706 328.553 115.293 328.777 115.878 328.777C116.462 328.777 117.049 328.553 117.496 328.105C117.516 328.083 118.734 326.865 119.984 325.459C120.617 324.747 121.251 323.999 121.779 323.273C122.265 322.459 122.803 322.146 122.968 320.498C122.968 319.983 122.968 317.019 122.968 313.821L133.108 313.821C134.374 313.821 135.407 312.792 135.407 311.525C135.407 310.258 134.374 309.231 133.108 309.231ZM114.071 302.807L114.071 299.372L123.337 299.372L123.337 302.807L114.071 302.807ZM123.337 291.334L123.337 294.778L114.071 294.778L114.071 291.334L123.337 291.334ZM109.49 291.334L109.49 294.778L100.217 294.778L100.217 291.334L109.49 291.334ZM100.217 299.372L109.49 299.372L109.49 302.807L100.217 302.807L100.217 299.372Z" fill="#ffffff" fill-rule="nonzero" opacity="1" stroke="none"/>
<path d="M192.144 280.535C191.714 280.109 191.141 279.872 190.523 279.872L156.989 279.872C156.386 279.872 155.803 280.109 155.373 280.535C154.943 280.965 154.697 281.56 154.697 282.165C154.697 282.174 154.697 288.894 154.697 295.987C154.697 303.079 154.697 310.531 154.697 311.963C154.855 312.062 153.371 315.425 151.755 317.842C150.152 320.421 148.541 322.652 148.541 322.665C147.801 323.686 148.038 325.119 149.06 325.863C150.094 326.606 151.526 326.367 152.266 325.348L152.257 325.333C152.279 325.316 153.949 322.996 155.642 320.265C157.321 317.386 159.107 314.762 159.282 311.963C159.282 311.896 159.282 311.771 159.282 311.682L171.592 311.682L171.592 323.135C171.592 324.407 172.611 325.441 173.879 325.441C175.138 325.441 176.172 324.407 176.172 323.135L176.172 311.682L188.23 311.682C188.23 313.145 188.23 314.282 188.23 314.829C188.239 316.352 187.817 318.966 186.864 320.869C185.839 322.84 184.755 323.834 182.925 323.861C181.657 323.861 180.636 324.886 180.636 326.154C180.636 327.411 181.657 328.446 182.925 328.446C182.929 328.446 182.937 328.446 182.946 328.446C186.985 328.446 189.686 325.661 190.979 322.899C192.359 320.077 192.807 317.024 192.815 314.829C192.815 311.104 192.815 282.196 192.815 282.165C192.815 281.551 192.573 280.973 192.144 280.535ZM188.23 293.909L176.172 293.909L176.172 284.448L188.23 284.448C188.23 286.597 188.23 290.072 188.23 293.909ZM171.592 284.448L171.592 293.909L159.282 293.909C159.282 290.121 159.282 286.62 159.282 284.448L171.592 284.448ZM159.282 307.092C159.282 304.664 159.282 301.628 159.282 298.498L171.592 298.498L171.592 307.092L159.282 307.092ZM176.172 307.092L176.172 298.498L188.23 298.498C188.23 301.494 188.23 304.472 188.23 307.092L176.172 307.092Z" fill="#ffffff" fill-rule="nonzero" opacity="1" stroke="none"/>
</g>
<path d="M336.428 41.5825L351.242 41.5825L351.242 41.5825L351.242 78.6265L351.242 78.6265L336.428 78.6265L336.428 78.6265L336.428 41.5825L336.428 41.5825Z" fill="#ffffff" fill-rule="nonzero" opacity="1" stroke="none"/>
<path d="M336.428 132.94L351.242 132.94L351.242 132.94L351.242 169.985L351.242 169.985L336.428 169.985L336.428 169.985L336.428 132.94L336.428 132.94Z" fill="#ffffff" fill-rule="nonzero" opacity="1" stroke="none"/>
<path d="M336.428 224.298L351.242 224.298L351.242 224.298L351.242 261.344L351.242 261.344L336.428 261.344L336.428 261.344L336.428 224.298L336.428 224.298Z" fill="#ffffff" fill-rule="nonzero" opacity="1" stroke="none"/>
<path d="M336.428 315.661L351.242 315.661L351.242 315.661L351.242 352.705L351.242 352.705L336.428 352.705L336.428 352.705L336.428 315.661L336.428 315.661Z" fill="#ffffff" fill-rule="nonzero" opacity="1" stroke="none"/>
<path d="M190.874 226.539C190.874 229.883 188.166 232.588 184.824 232.588C181.479 232.588 178.772 229.883 178.772 226.539C178.772 223.196 181.479 220.488 184.824 220.488C188.166 220.488 190.874 223.196 190.874 226.539Z" fill="#ffffff" fill-rule="nonzero" opacity="1" stroke="none"/>
<path d="M97.5388 222.718C97.5388 224.987 95.6974 226.828 93.4286 226.828C91.1598 226.828 89.3189 224.987 89.3189 222.718C89.3189 220.448 91.1598 218.607 93.4286 218.607C95.6974 218.607 97.5388 220.448 97.5388 222.718Z" fill="#ffffff" fill-rule="nonzero" opacity="1" stroke="none"/>
<path d="M116.675 222.718C116.675 235.555 106.266 245.964 93.4286 245.964C80.5911 245.964 70.1814 235.555 70.1814 222.718C70.1814 209.88 80.5911 199.471 93.4286 199.471C106.266 199.471 116.675 209.88 116.675 222.718Z" fill="none" opacity="1" stroke="#ffffff" stroke-linecap="butt" stroke-linejoin="miter" stroke-width="5.60015"/>
<path d="M208.069 226.539C208.069 239.376 197.661 249.786 184.824 249.786C171.985 249.786 161.577 239.376 161.577 226.539C161.577 213.701 171.985 203.293 184.824 203.293C197.661 203.293 208.069 213.701 208.069 226.539Z" fill="none" opacity="1" stroke="#ffffff" stroke-linecap="butt" stroke-linejoin="miter" stroke-width="5.60015"/>
<path d="M149.476 222.4C149.476 226.972 145.769 230.679 141.195 230.679C136.623 230.679 132.916 226.972 132.916 222.4C132.916 217.826 136.623 214.119 141.195 214.119C145.769 214.119 149.476 217.826 149.476 222.4Z" fill="none" opacity="1" stroke="#ffffff" stroke-linecap="butt" stroke-linejoin="miter" stroke-width="5.60015"/>
<path d="M138.649 207.113L143.743 239.595" fill="none" opacity="1" stroke="#ffffff" stroke-linecap="round" stroke-linejoin="miter" stroke-width="5.60015"/>
<path d="M112.217 195.013L148.341 226.539L184.824 226.539L165.154 186.569L118.586 186.569" fill="none" opacity="1" stroke="#ffffff" stroke-linecap="round" stroke-linejoin="miter" stroke-width="5.60015"/>
<path d="M141.056 222.469L170.175 179.09" fill="none" opacity="1" stroke="#ffffff" stroke-linecap="round" stroke-linejoin="miter" stroke-width="5.60015"/>
<path d="M125.273 166.671C120.497 166.671 109.032 165.397 109.032 172.721C109.032 180.045 123.363 176.861 120.178 180.045C116.993 183.229 106.545 203.526 106.545 203.526" fill="none" opacity="1" stroke="#ffffff" stroke-linecap="round" stroke-linejoin="miter" stroke-width="5.60015"/>
<path d="M109.048 205.536L93.4286 222.718" fill="none" opacity="1" stroke="#ffffff" stroke-linecap="round" stroke-linejoin="miter" stroke-width="5.60015"/>
<path d="M168.597 181.438C169.219 181.438 173.871 182.29 176.782 180.922C179.409 179.692 180.529 176.224 177.659 176.224C171.607 176.224 168.105 176.224 165.238 176.224C162.373 176.224 163.197 181.438 168.597 181.438Z" fill="#ffffff" fill-rule="nonzero" opacity="1" stroke="none"/>
</g>
</g>
</svg>
