<svg class="svgOrigin" xmlns="http://www.w3.org/2000/svg" width="400" height="400" x="0px" y="0px" viewBox="0 0 400 400" enable-background="new 0 0 400 400">
<g>
	<g>
		<path fill="#0334A6" d="M390.861298,377.020508c0,11.785187-9.635712,21.420898-21.416016,21.420898H30.556601
			c-11.780201,0-21.4189-9.635712-21.4189-21.420898V22.98c0-11.785689,9.6387-21.421389,21.4189-21.421389h338.888672
			c11.780304,0,21.416016,9.6357,21.416016,21.421389V377.020508z"/>
	</g>
	<g>
		<path fill="none" stroke="#FFFFFF" stroke-width="4.58514" d="M385.084991,372.032196
			c0,11.427795-9.348694,20.771515-20.776398,20.771515H35.690399c-11.424799,0-20.7719-9.343719-20.7719-20.771515V27.96781
			c0-11.426809,9.3471-20.771999,20.7719-20.771999h328.618195c11.427704,0,20.776398,9.34519,20.776398,20.771999V372.032196z"/>
	</g>
	<rect x="43.161098" y="40.115707" fill="#FFFFFF" width="31.310101" height="319.343292"/>
	<rect x="325.532196" y="40.541" fill="#FFFFFF" width="31.3076" height="319.343811"/>
	<path fill="#FFFFFF" d="M263.396484,273.241211c-6.274384,2.556702-21.25589,7.915985-35.074188,12.779297
		c-0.004898,0-0.008804,0-0.008804,0c-2.942398,1.035187-3.680695-0.796906-3.680695-3v-28.084
		c0-5.042007-4.127899-9.169907-9.170898-9.169907h-30.922806c-5.043503,0-9.169998,4.127899-9.169998,9.169907v28.084
		c0,2.203094-0.738693,4.035187-3.680603,3c-0.001999,0-0.004395,0-0.006393,0
		c-13.822708-4.863312-28.800797-10.222595-35.076096-12.779297c-13.005409-5.296906-19.748604-2.887695-7.224701,9.635803
		c8.82959,8.829987,40.314499,43.039978,58.120193,62.454987c7.446304,8.118195,9.9785,9.990295,12.499512,9.990295
		c2.520493,0,5.060486-1.876984,12.514587-10.003906c17.803696-19.416077,49.276398-53.611389,58.1026-62.441376
		C283.147491,270.353516,276.40329,267.944305,263.396484,273.241211z"/>
	<path fill="#FFFFFF" d="M286.147491,68.37841c-9.744202,0-159.047394,0-169.077194,0
		c-10.030296,0-24.932098,21.7798-24.932098,31.527397c0,9.748001,0,31.518494,0,39.256302
		c0,7.737289,8.597198,13.182098,13.182098,13.182098c0.566902,0,4.007797,0,9.584503,0
		c1.166496,0,3.902298-2.811996,4.155296-4.159607c1.956497-10.411194,11.1157-18.309601,22.081505-18.309601
		c11.314896,0,20.707489,8.40921,22.245102,19.3125c0.145996,1.0298,2.935593,3.156708,4.30809,3.156708
		c26.740295,0,57.663605,0,83.436096,0c1.823196,0,5.495117-2.552704,5.705017-3.783707
		c1.799774-10.594193,11.046875-18.685501,22.146484-18.685501c11.22171,0,20.552795,8.270004,22.205109,19.0439
		c0.174805,1.119202,2.00589,3.425308,2.627899,3.425308c0.84668,0,1.370087,0,1.531281,0
		c3.730408,0,7.165009-2.865707,7.165009-7.160095c0-4.294006,0-36.112305,0-46.997604
		C312.511688,87.301308,295.890594,68.37841,286.147491,68.37841z"/>
	<g>
		<path fill="#0334A6" d="M152.127899,102.364311c0,2.520996-2.064407,4.5849-4.585403,4.5849h-17.003906
			c-2.520493,0-4.584991-2.063904-4.584991-4.5849V83.643608c0-2.5215,2.064499-4.585503,4.584991-4.585503h17.003906
			c2.520996,0,4.585403,2.064003,4.585403,4.585503V102.364311z"/>
	</g>
	<g>
		<path fill="#0334A6" d="M122.230499,102.364311c0,2.520996-2.064003,4.5849-4.585503,4.5849h-12.897896
			c-2.5205,0-4.585007-2.063904-4.585007-4.5849v-0.550308c0-2.521492,1.244606-6.229004,2.767105-8.239296l8.221199-10.862801
			c1.522499-2.010201,4.636696-3.653801,6.922401-3.653801c2.287994,0,4.1577,2.064003,4.1577,4.585503V102.364311z"/>
	</g>
	<g>
		<path fill="#0334A6" d="M182.336899,102.364311c0,2.520996-2.064896,4.5849-4.585403,4.5849h-17.001999
			c-2.520493,0-4.585403-2.063904-4.585403-4.5849V83.643608c0-2.5215,2.064911-4.585503,4.585403-4.585503h17.001999
			c2.520508,0,4.585403,2.064003,4.585403,4.585503V102.364311z"/>
	</g>
	<g>
		<path fill="#0334A6" d="M212.547897,102.364311c0,2.520996-2.064499,4.5849-4.585999,4.5849h-17.003403
			c-2.520996,0-4.585495-2.063904-4.585495-4.5849V83.643608c0-2.5215,2.064499-4.585503,4.585495-4.585503h17.003403
			c2.5215,0,4.585999,2.064003,4.585999,4.585503V102.364311z"/>
	</g>
	<g>
		<path fill="#0334A6" d="M242.758789,102.364311c0,2.520996-2.064499,4.5849-4.585892,4.5849H221.166
			c-2.520508,0-4.584-2.063904-4.584-4.5849V83.643608c0-2.5215,2.063492-4.585503,4.584-4.585503h17.006897
			c2.521393,0,4.585892,2.064003,4.585892,4.585503V102.364311z"/>
	</g>
	<g>
		<path fill="#0334A6" d="M272.964783,102.364311c0,2.520996-2.059479,4.5849-4.5849,4.5849h-17.002884
			c-2.520599,0-4.584-2.063904-4.584-4.5849V83.643608c0-2.5215,2.0634-4.585503,4.584-4.585503h17.002884
			c2.525421,0,4.5849,2.064003,4.5849,4.585503V102.364311z"/>
	</g>
	<g>
		<path fill="#0334A6" d="M303.152283,102.364311c0,2.520996-2.068268,4.5849-4.5849,4.5849h-17.00589
			c-2.520508,0-4.5849-2.063904-4.5849-4.5849V83.643608c0-2.5215,2.064392-4.585503,4.5849-4.585503h5.637695
			c2.520508,0,5.803711,1.665504,7.294006,3.703102l5.951111,8.144997c1.490295,2.037201,2.707977,5.767105,2.707977,8.287605
			V102.364311z"/>
	</g>
	<path fill="#FFFFFF" d="M111.262199,91.174309c-0.951202,0-1.7192-0.765602-1.7192-1.7099l0,0
		c0-0.958504,0.767998-1.719803,1.7192-1.719803l0,0h4.110397c0.942802,0,1.719704,0.761299,1.719704,1.719803l0,0
		c0,0.944298-0.776901,1.7099-1.719704,1.7099l0,0H111.262199L111.262199,91.174309z"/>
	<path fill="#FFFFFF" d="M285.546906,91.174309c-0.954102,0-1.719818-0.765602-1.719818-1.7099l0,0
		c0-0.958504,0.765717-1.719803,1.719818-1.719803l0,0h4.110291c0.940491,0,1.719818,0.761299,1.719818,1.719803l0,0
		c0,0.944298-0.779327,1.7099-1.719818,1.7099l0,0H285.546906L285.546906,91.174309z"/>
	<path fill="#FFFFFF" d="M136.314896,91.774406c-1.2827,0-2.314896-1.038597-2.314896-2.309998l0,0
		c0-1.285202,1.032196-2.315498,2.314896-2.315498l0,0h7.444397c1.2715,0,2.3125,1.030296,2.3125,2.315498l0,0
		c0,1.2714-1.041,2.309998-2.3125,2.309998l0,0H136.314896L136.314896,91.774406z"/>
	<path fill="#FFFFFF" d="M166.324188,91.774406c-1.2827,0-2.3237-1.038597-2.3237-2.309998l0,0
		c0-1.285202,1.041-2.315498,2.3237-2.315498l0,0h7.444412c1.271393,0,2.3125,1.030296,2.3125,2.315498l0,0
		c0,1.2714-1.041107,2.309998-2.3125,2.309998l0,0H166.324188L166.324188,91.774406z"/>
	<path fill="#FFFFFF" d="M196.322296,91.774406c-1.2827,0-2.3125-1.038597-2.3125-2.309998l0,0
		c0-1.285202,1.0298-2.315498,2.3125-2.315498l0,0h7.444305c1.284195,0,2.310486,1.030296,2.310486,2.315498l0,0
		c0,1.2714-1.026291,2.309998-2.310486,2.309998l0,0H196.322296L196.322296,91.774406z"/>
	<path fill="#FFFFFF" d="M226.334,91.774406c-1.280304,0-2.323303-1.038597-2.323303-2.309998l0,0
		c0-1.285202,1.042999-2.315498,2.323303-2.315498l0,0h7.441391c1.272507,0,2.315399,1.030296,2.315399,2.315498l0,0
		c0,1.2714-1.042892,2.309998-2.315399,2.309998l0,0H226.334L226.334,91.774406z"/>
	<path fill="#FFFFFF" d="M256.334015,91.774406c-1.270523,0-2.314514-1.038597-2.314514-2.309998l0,0
		c0-1.285202,1.043991-2.315498,2.314514-2.315498l0,0h7.451172c1.2724,0,2.301697,1.030296,2.301697,2.315498l0,0
		c0,1.2714-1.029297,2.309998-2.301697,2.309998l0,0H256.334015L256.334015,91.774406z"/>
	<g>
		<path fill="#FFFFFF" d="M142.619095,219.517609c-0.429596-0.702209-0.516998-1.024399-0.537094-1.01561
			c-0.456497-1.177795-1.784103-1.773499-2.96431-1.317398c-1.179199,0.449203-1.775391,1.773392-1.316391,2.956009
			c0.078598,0.2061,1.043396,2.664093,3.74559,5.373093c0.448212,0.448196,1.036606,0.671799,1.623001,0.671799
			c0.589401,0,1.175812-0.223602,1.623611-0.671799c0.888596-0.895493,0.888596-2.350601,0-3.246094
			C143.741196,221.214798,143.049301,220.230499,142.619095,219.517609z"/>
		<path fill="#FFFFFF" d="M170.397003,210.732407h-10.139709c0-0.667007,0-1.297806,0-1.844696h4.952209v-2.287109v-8.019989
			c0,0,0.002396-0.00441,0.002396-0.009308c0-0.004395-0.002396-0.008804-0.002396-0.008804v-10.307098h-13.849609v-0.376495
			h17.574707c1.265091,0,2.299301-1.0298,2.299301-2.297394c0-1.267014-1.03421-2.287613-2.299301-2.287613h-17.574707v-4.589798
			c0-1.267105-1.023499-2.288101-2.2901-2.288101c-1.267593,0-2.290497,1.020996-2.290497,2.288101v4.589798h-19.484901
			c-1.275795,0-2.299301,1.020599-2.299301,2.287613c0,1.267593,1.023506,2.297394,2.299301,2.297394h19.484901v0.376495h-13.854004
			v20.632309h16.122101c0.008804,0,0.01561,0.004898,0.0224,0.004898c0.006409,0,0.013199-0.004898,0.022507-0.004898h6.581497
			c0,0.555695,0,1.1689,0,1.844696h-30.134201c-1.267097,0-2.290596,1.026398-2.290596,2.293991
			c0,1.266602,1.023499,2.295914,2.290596,2.295914h30.134201c0,2.727493,0,5.292892,0,6.30069
			c-0.664505,1.167999-4.135208,4.723709-4.135208,4.746109c-0.888687,0.886795-0.888687,2.33699,0.009705,3.237289
			c0.447296,0.447311,1.033707,0.671906,1.618713,0.671906c0.584,0,1.170883-0.224594,1.618195-0.671906
			c0.020493-0.0224,1.23819-1.240189,2.487701-2.646393c0.633392-0.712006,1.26709-1.460007,1.795486-2.185608
			c0.485809-0.814392,1.023407-1.127899,1.188904-2.775406c0-0.514587,0-3.479492,0-6.676682h10.139709
			c1.266586,0,2.299286-1.029312,2.299286-2.295914C172.696289,211.758804,171.663589,210.732407,170.397003,210.732407z
			 M151.359894,204.307602v-3.434601h9.266602v3.434601H151.359894z M160.626495,192.835403v3.443909h-9.266602v-3.443909
			H160.626495z M146.779297,192.835403v3.443909h-9.273407v-3.443909H146.779297z M137.50589,200.873001h9.273407v3.434601
			h-9.273407V200.873001z"/>
		<path fill="#FFFFFF" d="M282.609406,185.6763c-0.429718-0.425797-1.003021-0.663101-1.620117-0.663101h-33.534195
			c-0.6035,0-1.186493,0.237305-1.616196,0.663101c-0.429703,0.429703-0.675797,1.024902-0.675797,1.629898
			c0,0.008713,0,6.729401,0,13.821701c0,7.092804,0,14.544006,0,15.976608c0.157196,0.098602-1.326202,3.461899-2.942413,5.878891
			c-1.602493,2.579102-3.213898,4.809601-3.213898,4.823212c-0.740189,1.020493-0.502899,2.454102,0.5186,3.197296
			c1.03421,0.743195,2.466797,0.504898,3.206009-0.514603l-0.008713-0.014694c0.0224-0.017609,1.692307-2.336899,3.384705-5.068405
			c1.679703-2.878906,3.465805-5.502899,3.64061-8.301697c0-0.067398,0-0.192398,0-0.281296h12.309586v11.453186
			c0,1.2715,1.019501,2.305603,2.287109,2.305603c1.258789,0,2.292999-1.034103,2.292999-2.305603v-11.453186h12.058594
			c0,1.462891,0,2.600586,0,3.147491c0.008789,1.522507-0.413086,4.136703-1.366211,6.040009
			c-1.025391,1.970688-2.109375,2.96489-3.939484,2.991287c-1.267609,0-2.289001,1.025299-2.289001,2.292908
			c0,1.257797,1.021393,2.291992,2.289001,2.291992c0.003906,0,0.012695,0,0.021484,0
			c4.039124,0,6.739319-2.784195,8.033203-5.546906c1.379913-2.821289,1.827209-5.875,1.835999-8.06929
			c0-3.725601,0-32.633301,0-32.664505C283.281281,186.692398,283.039093,186.1147,282.609406,185.6763z M278.696289,199.050812
			h-12.058594v-9.461411h12.058594C278.696289,191.738312,278.696289,195.213409,278.696289,199.050812z M262.057587,189.589401
			v9.461411h-12.309586c0-3.788605,0-7.289612,0-9.461411H262.057587z M249.748001,212.233398c0-2.427689,0-5.463898,0-8.593796
			h12.309586v8.593796H249.748001z M266.637695,212.233398v-8.593796h12.058594c0,2.996109,0,5.973709,0,8.593796H266.637695z"/>
	</g>
	<path fill="#FFFFFF" d="M141.141602,136.296402c-8.863312,0-16.047806,7.186005-16.047806,16.047806
		c0,8.861404,7.184494,16.047897,16.047806,16.047897c8.8638,0,16.048294-7.186493,16.048294-16.047897
		C157.189896,143.482407,150.005402,136.296402,141.141602,136.296402z"/>
	<path fill="#FFFFFF" d="M278.982391,136.296402c-8.866211,0-16.047791,7.186005-16.047791,16.047806
		c0,8.861404,7.18158,16.047897,16.047791,16.047897c8.865295,0,16.048889-7.186493,16.048889-16.047897
		C295.031281,143.482407,287.847687,136.296402,278.982391,136.296402z"/>
</g>
</svg>
