<svg class="svgOrigin" xmlns="http://www.w3.org/2000/svg" width="400" height="400" x="0px" y="0px" viewBox="0 0 400 400" enable-background="new 0 0 400 400">
<g>
	<g>
		<path fill="#0334A6" d="M389.626007,375.873993c0,11.709015-9.573303,21.282257-21.27832,21.282257H31.653799
			c-11.704599,0-21.2803-9.573242-21.2803-21.282257V24.125509c0-11.708509,9.5757-21.2822,21.2803-21.2822h336.693878
			c11.705017,0,21.27832,9.573689,21.27832,21.2822V375.873993z"/>
	</g>
	<g>
		<path fill="none" stroke="#FFFFFF" stroke-width="4.55545" d="M383.886688,370.917999
			c0,11.353516-9.288086,20.637665-20.641602,20.637665H36.754398c-11.350599,0-20.637699-9.284149-20.637699-20.637665V29.081509
			c0-11.352999,9.2871-20.637699,20.637699-20.637699h326.490692c11.353516,0,20.641602,9.2847,20.641602,20.637699V370.917999z"/>
	</g>
	<path fill="#FFFFFF" d="M262.985382,272.767609c-6.232483,2.539001-21.118195,7.865204-34.846695,12.696289
		c-0.003891,0-0.008789,0-0.008789,0c-2.922897,1.027313-3.657211-0.792999-3.657211-2.980499v-27.90329
		c0-5.008804-4.101593-9.110397-9.110397-9.110397h-30.722687c-5.011703,0-9.111313,4.101593-9.111313,9.110397v27.90329
		c0,2.1875-0.733398,4.007813-3.656693,2.980499c-0.001999,0-0.004395,0-0.006409,0
		c-13.732895-4.831085-28.614182-10.157288-34.848587-12.696289c-12.921402-5.263702-19.621101-2.870117-7.177704,9.573181
		c8.7724,8.772522,40.053696,42.760803,57.743591,62.049805c7.398514,8.066406,9.913605,9.925812,12.418518,9.925812
		c2.504883,0,5.026291-1.864319,12.433594-9.939392c17.6884-19.289124,48.958008-53.263702,57.726501-62.036224
		C282.608398,269.897491,275.90918,267.503906,262.985382,272.767609z"/>
	<path fill="#FFFFFF" d="M285.588898,69.231003c-9.679718,0-158.016602,0-167.982498,0
		c-9.964806,0-24.769997,21.638603-24.769997,31.323204s0,31.314003,0,39.001503c0,7.686996,8.541496,13.096603,13.097191,13.096603
		c0.5625,0,3.981407,0,9.522507,0c1.1586,0,3.8769-2.793411,4.128395-4.132309
		c1.943802-10.343201,11.043907-18.190903,21.938408-18.190903c11.241699,0,20.5728,8.355011,22.101089,19.1875
		c0.144608,1.02301,2.916,3.135712,4.2798,3.135712c26.567398,0,57.289597,0,82.897003,0
		c1.809601,0,5.459-2.53511,5.667007-3.758713c1.788086-10.525391,10.974579-18.564499,22.002899-18.564499
		c11.149384,0,20.419891,8.216812,22.061493,18.92041c0.173889,1.112289,1.993195,3.402802,2.611389,3.402802
		c0.84082,0,1.361298,0,1.521423,0c3.705078,0,7.117188-2.846603,7.117188-7.112701c0-4.266205,0-35.879005,0-46.693901
		S295.269501,69.231003,285.588898,69.231003z"/>
	<g>
		<path fill="#0334A6" d="M152.438004,102.996605c0,2.504395-2.0513,4.555199-4.55571,4.555199h-16.893997
			c-2.504395,0-4.555199-2.050804-4.555199-4.555199V84.396507c0-2.504402,2.050804-4.555199,4.555199-4.555199h16.893997
			c2.50441,0,4.55571,2.050797,4.55571,4.555199V102.996605z"/>
	</g>
	<g>
		<path fill="#0334A6" d="M122.733894,102.996605c0,2.504395-2.050797,4.555199-4.555199,4.555199h-12.8144
			c-2.504898,0-4.555702-2.050804-4.555702-4.555199v-0.547394c0-2.504402,1.236801-6.188004,2.749504-8.185501l8.167496-10.792503
			c1.512703-1.997597,4.606903-3.629898,6.877907-3.629898c2.272995,0,4.130394,2.050797,4.130394,4.555199V102.996605z"/>
	</g>
	<g>
		<path fill="#0334A6" d="M182.450699,102.996605c0,2.504395-2.050797,4.555199-4.555206,4.555199h-16.891602
			c-2.504395,0-4.555695-2.050804-4.555695-4.555199V84.396507c0-2.504402,2.0513-4.555199,4.555695-4.555199h16.891602
			c2.50441,0,4.555206,2.050797,4.555206,4.555199V102.996605z"/>
	</g>
	<g>
		<path fill="#0334A6" d="M212.466797,102.996605c0,2.504395-2.050797,4.555199-4.556595,4.555199h-16.8936
			c-2.50441,0-4.555206-2.050804-4.555206-4.555199V84.396507c0-2.504402,2.050797-4.555199,4.555206-4.555199h16.8936
			c2.505798,0,4.556595,2.050797,4.556595,4.555199V102.996605z"/>
	</g>
	<g>
		<path fill="#0334A6" d="M242.4814,102.996605c0,2.504395-2.050705,4.555199-4.555603,4.555199h-16.8965
			c-2.503906,0-4.554703-2.050804-4.554703-4.555199V84.396507c0-2.504402,2.050797-4.555199,4.554703-4.555199h16.8965
			c2.504898,0,4.555603,2.050797,4.555603,4.555199V102.996605z"/>
	</g>
	<g>
		<path fill="#0334A6" d="M272.492188,102.996605c0,2.504395-2.045898,4.555199-4.555695,4.555199h-16.891602
			c-2.504898,0-4.555603-2.050804-4.555603-4.555199V84.396507c0-2.504402,2.050705-4.555199,4.555603-4.555199h16.891602
			c2.509796,0,4.555695,2.050797,4.555695,4.555199V102.996605z"/>
	</g>
	<g>
		<path fill="#0334A6" d="M302.485382,102.996605c0,2.504395-2.054688,4.555199-4.555695,4.555199h-16.896484
			c-2.503906,0-4.554718-2.050804-4.554718-4.555199V84.396507c0-2.504402,2.050812-4.555199,4.554718-4.555199h5.601593
			c2.504791,0,5.765594,1.6548,7.247009,3.678688l5.912079,8.092308c1.481506,2.024406,2.691498,5.730003,2.691498,8.234901
			V102.996605z"/>
	</g>
	<path fill="#FFFFFF" d="M111.836899,91.87941c-0.945305,0-1.708-0.7612-1.708-1.699699l0,0c0-0.952202,0.762695-1.708,1.708-1.708
		l0,0h4.084c0.935997,0,1.708496,0.755798,1.708496,1.708l0,0c0,0.938499-0.772499,1.699699-1.708496,1.699699l0,0H111.836899
		L111.836899,91.87941z"/>
	<path fill="#FFFFFF" d="M284.993195,91.87941c-0.947296,0-1.708008-0.7612-1.708008-1.699699l0,0
		c0-0.952202,0.760712-1.708,1.708008-1.708l0,0h4.083893c0.933594,0,1.708099,0.755798,1.708099,1.708l0,0
		c0,0.938499-0.774506,1.699699-1.708099,1.699699l0,0H284.993195L284.993195,91.87941z"/>
	<path fill="#FFFFFF" d="M136.727097,92.475105c-1.274506,0-2.299896-1.0317-2.299896-2.295395l0,0
		c0-1.276901,1.025391-2.299805,2.299896-2.299805l0,0h7.395905c1.263199,0,2.297897,1.022903,2.297897,2.299805l0,0
		c0,1.263695-1.034698,2.295395-2.297897,2.295395l0,0H136.727097L136.727097,92.475105z"/>
	<path fill="#FFFFFF" d="M166.542007,92.475105c-1.273911,0-2.308609-1.0317-2.308609-2.295395l0,0
		c0-1.276901,1.034698-2.299805,2.308609-2.299805l0,0h7.395996c1.263687,0,2.298294,1.022903,2.298294,2.299805l0,0
		c0,1.263695-1.034607,2.295395-2.298294,2.295395l0,0H166.542007L166.542007,92.475105z"/>
	<path fill="#FFFFFF" d="M196.346191,92.475105c-1.274399,0-2.297897-1.0317-2.297897-2.295395l0,0
		c0-1.276901,1.023499-2.299805,2.297897-2.299805l0,0h7.395996c1.276413,0,2.294907,1.022903,2.294907,2.299805l0,0
		c0,1.263695-1.018494,2.295395-2.294907,2.295395l0,0H196.346191L196.346191,92.475105z"/>
	<path fill="#FFFFFF" d="M226.164093,92.475105c-1.272491,0-2.308594-1.0317-2.308594-2.295395l0,0
		c0-1.276901,1.036102-2.299805,2.308594-2.299805l0,0h7.392502c1.263702,0,2.300797,1.022903,2.300797,2.299805l0,0
		c0,1.263695-1.037094,2.295395-2.300797,2.295395l0,0H226.164093L226.164093,92.475105z"/>
	<path fill="#FFFFFF" d="M255.970688,92.475105c-1.264587,0-2.300797-1.0317-2.300797-2.295395l0,0
		c0-1.276901,1.036209-2.299805,2.300797-2.299805l0,0h7.401413c1.26358,0,2.287079,1.022903,2.287079,2.299805l0,0
		c0,1.263695-1.023499,2.295395-2.287079,2.295395l0,0H255.970688L255.970688,92.475105z"/>
	<path fill="#FFFFFF" d="M141.522903,136.708511c-8.806107,0-15.94381,7.140091-15.94381,15.943802
		c0,8.804199,7.137703,15.944397,15.94381,15.944397c8.806198,0,15.943893-7.140198,15.943893-15.944397
		C157.466797,143.848602,150.329102,136.708511,141.522903,136.708511z"/>
	<path fill="#FFFFFF" d="M278.470703,136.708511c-8.808624,0-15.944305,7.140091-15.944305,15.943802
		c0,8.804199,7.135681,15.944397,15.944305,15.944397c8.809601,0,15.945282-7.140198,15.945282-15.944397
		C294.415985,143.848602,287.280304,136.708511,278.470703,136.708511z"/>
	<rect x="336.427704" y="41.582508" fill="#FFFFFF" width="14.8145" height="37.043999"/>
	<rect x="336.427704" y="132.940399" fill="#FFFFFF" width="14.8145" height="37.044498"/>
	<rect x="336.427704" y="224.297897" fill="#FFFFFF" width="14.8145" height="37.045799"/>
	<rect x="336.427704" y="315.661102" fill="#FFFFFF" width="14.8145" height="37.043999"/>
	<rect x="45.611301" y="41.582508" fill="#FFFFFF" width="14.8189" height="37.043999"/>
	<rect x="45.611301" y="132.940399" fill="#FFFFFF" width="14.8189" height="37.044498"/>
	<rect x="45.611301" y="224.297897" fill="#FFFFFF" width="14.8189" height="37.045799"/>
	<rect x="45.611301" y="315.661102" fill="#FFFFFF" width="14.8189" height="37.043999"/>
	<g>
		<path fill="#FFFFFF" d="M131.860397,180.5103c-0.927795-0.1866-1.826202,0.413513-2.012695,1.343704
			c0,0.017609-1.846207,9.284195-9.070808,19.818909c-0.532295,0.77829-0.345299,1.84169,0.433105,2.388596
			c0.296295,0.200195,0.634201,0.297897,0.967697,0.297897c0.547401,0,1.085503-0.262695,1.421402-0.742203
			c1.203598-1.761703,2.2202-3.461395,3.154297-5.125504v28.912598h3.416496v-35.816895
			c2.251007-5.316406,3.009811-8.981903,3.033707-9.066406C133.38179,181.595703,132.778793,180.688507,131.860397,180.5103z"/>
		<path fill="#FFFFFF" d="M164.542496,208.189499c0.331497,0.330002,0.767593,0.49411,1.205505,0.49411
			c0.438492,0,0.878998-0.164108,1.212387-0.49411c2.902908-2.993195,3.267609-7.126999,3.316513-7.27739
			c0.059998-0.480911-0.086502-0.965302-0.413605-1.330109c-0.324707-0.365189-0.789597-0.583008-1.272003-0.583008h-6.237289
			c0.066391-0.182587,0.117691-0.378387,0.117691-0.586884v-3.906204c0-0.008804,0.004898-0.013199,0.004898-0.022003
			s-0.004898-0.013199-0.004898-0.022491v-4.355408c0-0.008804,0.004898-0.013199,0.004898-0.022003
			c0-0.008789-0.004898-0.013199-0.004898-0.022491v-3.81691c0-0.453598-0.177795-0.880798-0.504898-1.20549
			c-0.315399-0.324707-0.749496-0.503006-1.203094-0.503006H148.125l1.114304-1.676697h15.563889
			c0.947296,0,1.7061-0.770004,1.7061-1.7173c0-0.943405-0.758804-1.703598-1.7061-1.703598h-24.908188
			c-0.937012,0-1.706009,0.760193-1.706009,1.703598c0,0.947296,0.768997,1.7173,1.706009,1.7173h5.244598l-1.621506,2.442398
			l-0.028793,0.097595c-0.147003,0.253403-0.2491,0.524902-0.251511,0.836411l-0.004395,0.013184v12.532211
			c0,0.075195,0.033691,0.142105,0.044403,0.217789h-5.525406c-0.789505,0-1.469696,0.533707-1.656693,1.29451l-1.185501,4.74649
			c-0.235901,0.916107,0.315887,1.845718,1.234299,2.082108c0.918991,0.226501,1.846191-0.325195,2.082092-1.240295
			l0.858414-3.465805h2.350998c-0.366714,0.61821-0.422302,1.378906,0.076187,1.952209v-0.008804
			c0.046402,0.0625,0.502411,0.542892,1.300812,1.201096c-0.651413-0.123993-1.347702,0.142609-1.739304,0.725601l-2.667007,3.9991
			c-0.522903,0.78801-0.315903,1.846603,0.473709,2.3759c0.289001,0.195297,0.616196,0.289108,0.940887,0.289108
			c0.553711,0,1.099106-0.2715,1.430206-0.760712l2.665009-4c0.369095-0.555695,0.3535-1.240295,0.04689-1.779297
			c1.532196,1.089798,3.772003,2.407196,6.97261,3.550705c-0.062012,0.079086-0.148911,0.137695-0.195313,0.230499
			c0,0.008804-0.602997,1.264694-2.182098,2.954102c-1.601593,1.686493-4.099594,3.69339-7.793991,4.916
			c-0.887604,0.306702-1.381302,1.2686-1.077103,2.166c0.298294,0.89949,1.266098,1.378891,2.164597,1.085999
			c1.826096-0.613297,3.327606-1.405304,4.690903-2.251007c0.876404,0.783203,2.32959,2.002899,4.230896,3.394501
			c-2.9272,1.681702-7.106888,3.358398-13.170395,4.444397c-0.936493,0.16011-1.559097,1.049805-1.392609,1.975601
			c0.151398,0.835907,0.872101,1.422806,1.681702,1.422806c0.100601,0,0.202606-0.008804,0.305206-0.031204
			c7.355896-1.293991,12.331497-3.509796,15.685989-5.71199c3.389603,2.122101,7.480011,4.128891,11.772903,4.822296
			c0.089401,0.012695,0.178314,0.022491,0.267105,0.022491c0.823303,0,1.552795-0.605499,1.677292-1.445297
			c0.148911-0.939499-0.493698-1.806702-1.421387-1.944397c-3.210007-0.466797-6.488312-1.970703-9.371109-3.683594
			c2.52681-2.283203,3.370102-4.16011,3.432098-4.373001c0.247101-0.64061,0.109406-1.361404-0.373489-1.84671l-4.991699-4.982391
			c3.116699,0.738297,6.822296,1.232391,11.188492,1.227493c0.947205,0,1.708496-0.760696,1.708496-1.707993
			s-0.761292-1.708008-1.708496-1.708008c-3.876999,0-7.128906-0.426788-9.887192-1.041
			c0.22699-0.151398,0.435989-0.337891,0.576096-0.591797c0.300293-0.560593,0.229492-1.205093-0.088806-1.712891l4.777802,2.424789
			c0.249496,0.128906,0.513702,0.1875,0.773895,0.1875c0.620605,0,1.216812-0.342804,1.515213-0.939499
			c0.433594-0.840805,0.100098-1.864197-0.75-2.291l-5.006912-2.553696l8.465805,0.004898
			c-0.355896,1.107407-0.954498,2.451202-1.8974,3.344696C163.871094,206.432602,163.871094,207.5186,164.542496,208.189499z
			 M156.479492,217.648407c-0.482391,0.670898-1.354492,1.659195-2.680695,2.748093
			c-1.856903-1.298798-3.363297-2.517593-4.399399-3.397507c1.383301-1.201096,2.47319-2.398392,3.17189-3.346695l3.943802,3.942413
			C156.503891,217.612305,156.490189,217.629898,156.479492,217.648407z M146.647903,191.8013h12.409698v0.965302h-12.409698
			V191.8013z M159.057602,188.379898h-12.409698V187.9487h12.409698V188.379898z M146.647903,198.781204v-2.589294h12.409698v2.2202
			c0,0.208496,0.0513,0.404297,0.117691,0.586884H146.6035C146.6147,198.923309,146.647903,198.8564,146.647903,198.781204z
			 M148.905289,205.414108c-1.74559-0.876007-2.980499-1.734406-3.769989-2.357498
			c-0.349701-0.280212-0.56691-0.480408-0.733902-0.64061l3.681091,0.003906c-0.037598,0.053696-0.09079,0.088898-0.124496,0.147491
			c-0.444794,0.835907-0.137695,1.872101,0.689499,2.317413l3.454102,1.864182
			C150.895996,206.317398,149.821793,205.867203,148.905289,205.414108z M154.63089,204.217804l-3.338394-1.797897H154.709
			c-0.046906,0.067398-0.109406,0.111298-0.147003,0.186493C154.292999,203.145508,154.357391,203.736298,154.63089,204.217804z"/>
		<path fill="#FFFFFF" d="M283.066406,218.996109c-1.13382-0.53421-2.486328-0.048798-3.019501,1.084991
			c0,0-0.59671,1.254807-1.878906,2.558502c-1.302795,1.325195-3.051819,2.490295-5.430695,2.490295
			c-2.949219,0.018509-4.19632-0.564499-4.435516-0.808594c-0.205109-0.200195-0.333984-0.410202-0.356506-1.504898
			c0-1.859406,0-10.626907,0-14.848602h13.444305c1.263702,0,2.282318-1.027405,2.282318-2.283203
			c0-1.262695-1.018616-2.281296-2.282318-2.281296h-15.694305c-0.009796,0-0.014587-0.003906-0.018494-0.003906
			c-0.008789,0-0.017609,0.003906-0.026398,0.003906h-2.473602v-8.5327h12.567291c1.254913,0,2.273499-1.023407,2.273499-2.277802
			c0-1.263199-1.018585-2.277405-2.273499-2.277405h-12.567291v-7.945801c0-1.263199-1.014709-2.277298-2.277405-2.277298
			c-1.254883,0-2.269501,1.014099-2.269501,2.277298v7.945801h-9.408188c0.840805-1.60199,1.3564-2.713791,1.383804-2.753891
			c0.523392-1.1474,0.0215-2.500504-1.112305-3.020508c-1.148499-0.524902-2.5-0.031693-3.0215,1.111801
			c0.0224,0.022507-3.8125,8.083496-7.491196,11.704605c-0.899399,0.880905-0.899399,2.3311-0.008804,3.220703
			c0.444305,0.449188,1.031204,0.672897,1.614197,0.672897c0.587906,0,1.169998-0.223709,1.611404-0.663605
			c1.618103-1.637695,3.104492-3.709991,4.380798-5.716797h12.051788v8.5327h-19.979492
			c-1.262695,0-2.281296,1.0186-2.281296,2.281296c0,1.255798,1.0186,2.283203,2.281296,2.283203h13.968704
			c0,0.164993,0,0.320297,0,0.493103c0,1.5,0,3.229492,0,4.111404c0.049805,0.204086-2.121994,7.7314-14.862305,11.788986
			c-1.192291,0.395508-1.845703,1.68071-1.450195,2.881912c0.310593,0.953094,1.201202,1.570297,2.161194,1.570297
			c0.241211,0,0.477509-0.039108,0.712906-0.115295c14.111313-4.769501,17.847595-12.758713,17.990204-16.1259
			c0-0.983414,0-3.003906,0-4.604507h6.223602c0,1.4189,0,3.344696,0,5.360306c0,3.968796,0,8.256897,0,9.488297
			c-0.0224,1.375,0.208984,3.466797,1.935577,4.948196c1.708008,1.422897,4.012726,1.898499,7.407227,1.925797
			c8.078094-0.186493,11.285187-7.523392,11.418976-7.664993C284.690399,220.882797,284.201202,219.530304,283.066406,218.996109z"
			/>
	</g>
</g>
</svg>
