<svg class="svgOrigin" xmlns="http://www.w3.org/2000/svg" width="400" height="400" x="0px" y="0px" viewBox="0 0 400 400" enable-background="new 0 0 400 400">
<g>
	<path fill="#0334A6" d="M396.641602,368.377014c0,14.757782-12.075226,26.832947-26.833008,26.832947H30.191401
		c-14.758301,0-26.833-12.075165-26.833-26.832947V31.624001c0-14.758291,12.074699-26.83349,26.833-26.83349h339.617188
		c14.757782,0,26.833008,12.075199,26.833008,26.83349V368.377014z"/>
	<path fill="none" stroke="#FFFFFF" stroke-width="2.68331" d="M369.808594,389.833008H30.191401
		c-11.8389,0-21.466301-9.622101-21.466301-21.455994V31.61871c0-11.828709,9.627401-21.4561,21.466301-21.4561h339.617188
		c11.838898,0,21.466797,9.627391,21.466797,21.4561v336.758301C391.275391,380.210907,381.647491,389.833008,369.808594,389.833008
		L369.808594,389.833008z"/>
	<path fill="#FFFFFF" d="M139.856003,191.996109c-3.799408,0-7.1539,1.1138-7.1539,2.683594c0,1.56929,0,8.943298,0,21.241196
		c0,12.294907-26.162102,12.074203-26.162102,0.670914c0-4.025406,0-17.884811,0-20.348114
		c0-2.462891-11.629402-9.171387-11.629402-12.745697c0-3.574188,0-34.547302,0-45.280701s12.661697-16.938492,13.951195-21.768097
		c1.289101-4.829094,5.670403-22.367699,8.007805-31.381798c2.337402-9.014198,11.0215-18.361298,17.027893-18.361298
		c6.005798,0,110.319305,0,116.325195,0c6.005798,0,14.690399,9.347099,17.027313,18.361298
		c2.337891,9.014099,6.718781,26.552704,8.008789,31.381798c1.289093,4.829605,13.951202,11.034706,13.951202,21.768097
		s0,41.706512,0,45.280701c0,3.57431-11.629913,10.282806-11.629913,12.745697c0,2.463303,0,16.322708,0,20.348114
		c0,11.40329-26.162079,11.623993-26.162079-0.670914c0-12.297897,0-19.671906,0-21.241196
		c0-1.569794-3.354507-2.683594-7.154312-2.683594C240.464798,191.996109,143.655792,191.996109,139.856003,191.996109z"/>
	<path fill="#0334A6" d="M136.680191,117.156708c-17.808594,0-14.768593-4.341797-10.858894-19.5429
		c3.909706-15.201202,7.3843-19.110901,12.593697-19.110901c5.209,0,102.0811,0,107.2901,0
		c5.2099,0,8.684494,3.909698,12.593704,19.110901c3.910217,15.201103,6.949188,19.5429-10.858398,19.5429
		C229.63179,117.156708,154.488297,117.156708,136.680191,117.156708z"/>
	<path fill="#0334A6" d="M168.030792,180.571304c-1.478104,0-3.888702,0-5.366699,0h-55.877998
		c-1.477501,0-2.683098-1.207993-2.683098-2.683594v-5.927307c0-1.474991,1.205597-2.68309,2.683098-2.68309h55.877998
		c1.477997,0,2.683609-1.208008,2.683609-2.683609v-14.179092c0-1.475113,1.204987-2.683212,2.68309-2.683212h48.058105
		c1.4785,0,2.683594,1.208099,2.683594,2.683212v14.179092c0,1.475601,1.206009,2.683609,2.683609,2.683609h55.877914
		c1.477478,0,2.683563,1.208099,2.683563,2.68309v5.927307c0,1.475601-1.206085,2.683594-2.683563,2.683594H221.4561
		c-1.4776,0-3.888702,0-5.367203,0H168.030792z"/>
	<g>
		<path fill="#0334A6" d="M103.238297,156.169907c0,1.475098,1.205498,2.68309,2.683098,2.68309h2.012703
			c1.477997,0,2.683098-1.207993,2.683098-2.68309v-17.653793c0-1.475601-1.205101-2.683609-2.683098-2.683609h-2.012703
			c-1.4776,0-2.683098,1.208008-2.683098,2.683609V156.169907z"/>
	</g>
	<g>
		<path fill="#0334A6" d="M280.881805,156.169907c0,1.475098-1.205017,2.68309-2.683624,2.68309h-2.011688
			c-1.478485,0-2.683594-1.207993-2.683594-2.68309v-17.653793c0-1.475601,1.205109-2.683609,2.683594-2.683609h2.011688
			c1.478607,0,2.683624,1.208008,2.683624,2.683609V156.169907z"/>
	</g>
	<path fill="#FFFFFF" d="M354.280304,322.697296h20.794891l-19.459015-22.472687h18.935608l-15.235413-17.587921H340.38089
		l-19.170898-22.126892h18.935486l-8.579071-9.905289H312.63089l-10.246094-11.834h18.935486l-6.393494-7.378906H295.99118
		l-6.037079-6.970703h-11.142609l5.351593,6.970703H160.567902l11.728989-11.729492h-5.644592l-13.169907,11.729492h-14.155701
		l-8.400894,7.378906h14.265594l-13.285599,11.834h-14.454094l-11.278404,9.905289h14.611404L95.9272,282.636688H80.964798
		l-20.025299,17.587921h15.235298L47.6436,325.632813h18.6782l25.4077-25.408203h245.297791L354.280304,322.697296z
		 M153.188995,238.770508h136.644012l9.082977,11.834H141.354996L153.188995,238.770508z M109.317894,282.636688
		l22.131798-22.126892h175.075699l16.996094,22.126892H109.317894z"/>
</g>
</svg>
