<?xml version="1.0" encoding="UTF-8" standalone="no"?>
<!DOCTYPE svg PUBLIC "-//W3C//DTD SVG 1.1//EN" "http://www.w3.org/Graphics/SVG/1.1/DTD/svg11.dtd">
<!-- Created with Vectornator (http://vectornator.io/) -->
<svg height="400.0pt" stroke-miterlimit="10" style="fill-rule:nonzero;clip-rule:evenodd;stroke-linecap:round;stroke-linejoin:round;" version="1.1" viewBox="0 0 400 400" width="400.0pt" xml:space="preserve" xmlns="http://www.w3.org/2000/svg" xmlns:xlink="http://www.w3.org/1999/xlink">
<defs/>
<g id="名称未設定">
<g opacity="1">
<path d="M60.9136 339.087C-15.9017 262.271-15.9017 137.729 60.9137 60.9136C137.729-15.9018 262.271-15.9018 339.087 60.9135C415.902 137.729 415.902 262.271 339.087 339.087C262.271 415.902 137.729 415.902 60.9136 339.087Z" fill="#ff0000" fill-rule="nonzero" opacity="1" stroke="none"/>
<path d="M66.8746 333.126C-6.64868 259.603-6.6486 140.398 66.8747 66.8747C140.398-6.64869 259.603-6.64876 333.126 66.8745C406.649 140.398 406.649 259.603 333.126 333.126C259.603 406.649 140.398 406.649 66.8746 333.126Z" fill="none" opacity="1" stroke="#ffffff" stroke-linecap="butt" stroke-linejoin="miter" stroke-width="5.61993"/>
<path d="M329.215 200C329.215 128.637 271.357 70.7852 200 70.7852C128.637 70.7852 70.7798 128.637 70.7798 200C70.7798 271.367 128.637 329.215 200 329.215C271.357 329.215 329.215 271.367 329.215 200Z" fill="#ffffff" fill-rule="nonzero" opacity="1" stroke="none"/>
<path d="M118.351 125.213C118.351 133.912 118.351 261.723 118.351 269.914" fill="none" opacity="1" stroke="#0334a6" stroke-linecap="butt" stroke-linejoin="round" stroke-width="16.8598"/>
<path d="M155.476 153.294C155.476 139.857 166.37 128.966 179.805 128.966C193.241 128.966 204.134 139.857 204.134 153.294L204.134 242.116C204.134 255.552 193.241 266.44 179.805 266.44C166.37 266.44 155.476 255.552 155.476 242.116L155.476 153.294Z" fill="none" opacity="1" stroke="#0334a6" stroke-linecap="butt" stroke-linejoin="round" stroke-width="16.8598"/>
<path d="M240.687 153.294C240.687 142.612 247.572 133.538 257.146 130.267C259.615 129.423 262.262 128.966 265.016 128.966C278.451 128.966 289.345 139.857 289.345 153.294L289.345 242.116C289.345 255.552 278.451 266.44 265.016 266.44C251.58 266.44 240.687 255.552 240.687 242.116L240.687 153.294Z" fill="none" opacity="1" stroke="#0334a6" stroke-linecap="butt" stroke-linejoin="round" stroke-width="16.8598"/>
</g>
</g>
</svg>
