<svg class="svgOrigin" xmlns="http://www.w3.org/2000/svg" width="400" height="400" x="0px" y="0px" viewBox="0 0 400 400" enable-background="new 0 0 400 400">
<g>
	<path fill="#0334A6" d="M396,200c0,108.252014-87.753906,196.005859-195.994598,196.005859
		C91.754402,396.005859,4,308.252014,4,200S91.754402,3.99461,200.005402,3.99461C308.246094,3.99461,396,91.748001,396,200z"/>
	<path fill="none" stroke="#FFFFFF" stroke-width="5.60015" d="M387.599579,200
		c0,103.608398-83.99118,187.605499-187.594177,187.605499C96.391602,387.605499,12.4004,303.608398,12.4004,200
		c0-103.613792,83.991203-187.605484,187.604996-187.605484C303.608398,12.394509,387.599579,96.386208,387.599579,200z"/>
	<path fill="#FFFFFF" d="M305.134796,302.492188c0,3.675812-2.976593,6.649414-6.650391,6.649414
		c-3.675812,0-6.651398-2.973602-6.651398-6.649414c0-3.673798,2.975586-6.650391,6.651398-6.650391
		C302.158203,295.841797,305.134796,298.81839,305.134796,302.492188z"/>
	<path fill="#FFFFFF" d="M202.548798,298.292999c0,2.49411-2.023895,4.517487-4.517502,4.517487
		c-2.493698,0-4.517105-2.023376-4.517105-4.517487c0-2.495087,2.023407-4.518585,4.517105-4.518585
		C200.524902,293.774414,202.548798,295.797913,202.548798,298.292999z"/>
	<path fill="none" stroke="#FFFFFF" stroke-width="5.60015" d="M223.5811,298.292999
		c0,14.109314-11.440506,25.549805-25.549805,25.549805c-14.109894,0-25.5513-11.440491-25.5513-25.549805
		c0-14.110382,11.441406-25.550781,25.5513-25.550781C212.140594,272.742218,223.5811,284.182617,223.5811,298.292999z"/>
	<path fill="none" stroke="#FFFFFF" stroke-width="5.60015" d="M324.03418,302.492188
		c0,14.110321-11.440399,25.551727-25.549774,25.551727c-14.110413,0-25.550812-11.441406-25.550812-25.551727
		c0-14.109375,11.440399-25.549774,25.550812-25.549774C312.593781,276.942413,324.03418,288.382813,324.03418,302.492188z"/>
	<path fill="none" stroke="#FFFFFF" stroke-width="5.60015" d="M259.633789,297.94339
		c0,5.025299-4.074188,9.099609-9.101593,9.099609c-5.025406,0-9.099609-4.07431-9.099609-9.099609
		c0-5.027405,4.074203-9.101593,9.099609-9.101593C255.559601,288.841797,259.633789,292.915985,259.633789,297.94339z"/>
	
		<line fill="none" stroke="#FFFFFF" stroke-width="5.60015" stroke-linecap="round" x1="247.733398" y1="281.141602" x2="253.332001" y2="316.842804"/>
	<polyline fill="none" stroke="#FFFFFF" stroke-width="5.60015" stroke-linecap="round" points="218.681595,267.841797 
		258.385681,302.492188 298.484406,302.492188 276.865204,258.561493 225.681595,258.561493 	"/>
	
		<line fill="none" stroke="#FFFFFF" stroke-width="5.60015" stroke-linecap="round" x1="250.378891" y1="298.019501" x2="282.383789" y2="250.340805"/>
	<path fill="none" stroke="#FFFFFF" stroke-width="5.60015" stroke-linecap="round" d="M233.032196,236.691406
		c-5.25,0-17.850601-1.400406-17.850601,6.649399s15.750992,4.549805,12.25,8.049805
		c-3.5,3.5-14.984299,25.808578-14.984299,25.808578"/>
	
		<line fill="none" stroke="#FFFFFF" stroke-width="5.60015" stroke-linecap="round" x1="215.199188" y1="279.408203" x2="198.031296" y2="298.292999"/>
	<path fill="#FFFFFF" d="M280.649384,252.921906c0.683624,0,5.796906,0.936493,8.996124-0.567398
		c2.887695-1.351608,4.118195-5.163101,0.963898-5.163101c-6.651398,0-10.501007,0-13.651398,0
		C273.808594,247.191406,274.714783,252.921906,280.649384,252.921906z"/>
	<path fill="#FFFFFF" d="M139.814896,42.665001c-3.035095,0-15.170898,8.170906-15.170898,11.436108
		c0,3.264599,10.030304,5.134701,9.800293,9.099602c-0.229889,3.964802-1.8647,6.765095-3.965286,8.165501
		c-2.099609,1.399895-13.294403,6.070297-16.564903,19.1353c-3.2705,13.065399-5.835007,27.306595-5.835007,35.936493
		s3.035202,17.270508,5.835007,16.800308c2.800293-0.4702,4.664993-6.30571,2.564896-10.270508
		c-2.100098-3.965393,0.235397-19.600594,0.235397-23.100594s5.359306-12.830101,10.029701-12.830101
		c4.670502,0,2.565002,6.5298,0,9.330101c-2.564896,2.799789-1.394501,14-3.729897,16.100098
		c-2.334999,2.100601-5.829597,11.906197-2.799805,13.070793c3.029701,1.164505,3.964806,1.870605,3.964806,5.600113
		c0,3.730499,0,37.801285,0,43.165985s-3.2705,10.505402-1.6353,13.535599c1.6353,3.0298,11.205597,12.365311,13.070801,12.365311
		c1.864792,0,5.129898-5.600601,3.0298-7.700211c-2.100098-2.100098-1.399902-4.894485-1.399902-8.1651
		c0-3.270493,1.169998-16.329987,1.169998-21.000397c0-4.670898-0.470306-18.900406,1.629807-18.900406
		c2.100098,0,3.035187,3.964813,3.035187,17.264618c0,13.300293-2.794388,19.830597-1.864792,22.165985
		c0.929703,2.334503,9.565491,11.199707,11.665604,11.199707c2.099594,0,3.494095-3.258804,2.564392-6.529312
		c-0.929703-3.270493,1.64061-17.036087,1.870605-20.536087c0.229492-3.5,0.929703-17.970703-0.4702-20.535599
		c-1.400406-2.564499-1.870605-7.930206-1.400406-10.965408c0.470703-3.035095,7.235397-7.934998,6.535202-11.434998
		c-0.699707-3.5-7.229996-15.400398-7.464905-22.165596c-0.234802-6.764595,2.565002-7.464798,3.265198-6.299797
		c0.699707,1.1651,4.899902,21.229996,7,24.265198c2.100601,3.035095,5.364716,4.900406,5.364716,7
		c0,2.100098,1.017593,8.104996,2.416992,8.104996c1.400894,0,7.793503,2.717697,7.093796,5.053711
		c-0.700195,2.3349-1.011795,8.711395-2.647491,10.341293c-1.634811,1.630295-3.0728,7.382797-1.20311,8.783203
		c1.870605,1.399399,3.910599,4.118088,3.910599,6.218201c0,2.099594-1.8647,7.699692,0,9.334991
		c1.864807,1.6353,3.729507,3.0298,2.565002,4.665497c-1.1651,1.634308-2.094788,9.799805,0.234802,10.035202
		c2.330597,0.234802,9.330597-3.0298,9.565506-6.065002c0.235291-3.035095-2.335007-5.829498-2.100601-9.80069
		c0.235291-3.970306,1.400803-2.799805,3.5-2.799805c2.100601,0,6.065399,3.964798,6.065399,6.299805
		c0,2.335892-2.099609,11.200592,0.700195,10.500885c2.799805-0.700195,8.634796-3.035095,8.634796-7.235291
		s-7.23439-14.230499-7-17.965302c0.235306-3.735397,0.706009-5.371094-1.864288-6.770599
		c-2.570313-1.400299-3.035202-7.4599-3.035202-9.330002c0-1.870087,4.89949-2.32959,4.89949,0.700195
		c0,3.029312,0.935501,9.329605,3.03511,9.564407c2.101593,0.235397,3.735397-0.70459,2.800797-3.035095
		c-0.935501-2.329605-1.400406-8.870605-2.335907-13.300308c-0.933594-4.429688-1.628891-10.259293-3.96489-12.129898
		c-2.3349-1.87059-3.270004-4.440887-2.569809-6.769989c0.699707-2.330109,3.040497-5.600609,2.569809-8.865303
		c-0.469711-3.265099-2.799805-6.765099-7.235306-6.765099c-4.434601,0-9.565002,4.899895-10.264206,8.164993
		c-0.700699,3.265198,3.729004,4.435104,1.628906,7.000504c-2.100098,2.564499-4.199203,3.734894-6.764603,2.799789
		c-2.565491-0.935486-5.135788-6.530197-5.600601-11.665489c-0.46489-5.134804-3.728989-29.170898-3.96489-34.070801
		c-0.235306-4.900398-2.570297-8.859901-5.834412-11.430199c-3.265701-2.570297-11.666092-7-14.000488-9.3349
		c-2.33551-2.335999-3.735901-5.365799,0-7.465401c3.734787-2.100098,6.535095-4.435497,4.899887-6.535099
		C152.644501,52.000999,146.585007,42.665001,139.814896,42.665001z"/>
</g>
</svg>
