<svg class="svgOrigin" xmlns="http://www.w3.org/2000/svg" width="400" height="400" x="0px" y="0px" viewBox="0 0 400 400" enable-background="new 0 0 400 400">
<g>
	
		<ellipse transform="matrix(0.707107 -0.707107 0.707107 0.707107 -82.842758 200.000107)" fill="#FF0000" cx="200.000107" cy="200.000107" rx="196.698044" ry="196.697937"/>
	
		<ellipse transform="matrix(0.707107 -0.707107 0.707107 0.707107 -82.842819 200.000244)" fill="none" stroke="#FFFFFF" stroke-width="5.61993" cx="200.000244" cy="200.000259" rx="188.268219" ry="188.267975"/>
	<path fill="#FFFFFF" d="M329.214783,200c0-71.363297-57.857391-129.214783-129.214783-129.214783
		C128.636703,70.78521,70.7798,128.636703,70.7798,200c0,71.367218,57.856903,129.214813,129.2202,129.214813
		C271.357391,329.214813,329.214783,271.367218,329.214783,200z"/>
	<path fill="none" stroke="#0334A6" stroke-width="16.8598" stroke-linejoin="round" d="M185.6978,131.443802h-51.885803v60.579102
		c0,0,5.164597-7.875397,22.276901-7.875397c13.582993,0,23.900391,18.204102,23.900391,27.443298
		c0,9.231506,0,25.531296,0,34.224594c0,8.693405-10.053787,21.184601-21.732498,21.184601
		c-11.679199,0-23.901291-14.401398-23.901291-21.997101"/>
	<path fill="none" stroke="#0334A6" stroke-width="16.8598" stroke-linejoin="round" d="M220.954102,153.294403
		c0-13.436996,10.893585-24.328598,24.329086-24.328598c13.435593,0,24.329117,10.891602,24.329117,24.328598v88.821808
		c0,13.435593-10.893524,24.324188-24.329117,24.324188c-13.435501,0-24.329086-10.888596-24.329086-24.324188V153.294403z"/>
</g>
</svg>
