<?xml version="1.0" encoding="UTF-8" standalone="no"?>
<!DOCTYPE svg PUBLIC "-//W3C//DTD SVG 1.1//EN" "http://www.w3.org/Graphics/SVG/1.1/DTD/svg11.dtd">
<!-- Created with Vectornator (http://vectornator.io/) -->
<svg height="400.0pt" stroke-miterlimit="10" style="fill-rule:nonzero;clip-rule:evenodd;stroke-linecap:round;stroke-linejoin:round;" version="1.1" viewBox="0 0 400 400" width="400.0pt" xml:space="preserve" xmlns="http://www.w3.org/2000/svg" xmlns:xlink="http://www.w3.org/1999/xlink">
<defs/>
<g id="名称未設定">
<g opacity="1">
<path d="M60.9136 339.087C-15.9017 262.271-15.9017 137.729 60.9137 60.9136C137.729-15.9018 262.271-15.9018 339.087 60.9135C415.902 137.729 415.902 262.271 339.087 339.087C262.271 415.902 137.729 415.902 60.9136 339.087Z" fill="#ff0000" fill-rule="nonzero" opacity="1" stroke="none"/>
<path d="M66.8746 333.126C-6.64868 259.603-6.6486 140.398 66.8747 66.8747C140.398-6.64869 259.603-6.64876 333.126 66.8745C406.649 140.398 406.649 259.603 333.126 333.126C259.603 406.649 140.398 406.649 66.8746 333.126Z" fill="none" opacity="1" stroke="#ffffff" stroke-linecap="butt" stroke-linejoin="miter" stroke-width="5.61993"/>
<path d="M329.215 200C329.215 128.637 271.357 70.7852 200 70.7852C128.637 70.7852 70.7798 128.637 70.7798 200C70.7798 271.367 128.637 329.215 200 329.215C271.357 329.215 329.215 271.367 329.215 200Z" fill="#ffffff" fill-rule="nonzero" opacity="1" stroke="none"/>
<path d="M186.944 241.244L113.84 241.15L163.677 130.943L164.623 270.271" fill="none" opacity="1" stroke="#0334a6" stroke-linecap="butt" stroke-linejoin="round" stroke-width="16.8857"/>
<path d="M220.954 153.294C220.954 139.857 231.848 128.966 245.283 128.966C258.719 128.966 269.612 139.857 269.612 153.294L269.612 242.116C269.612 255.552 258.719 266.44 245.283 266.44C231.848 266.44 220.954 255.552 220.954 242.116L220.954 153.294Z" fill="none" opacity="1" stroke="#0334a6" stroke-linecap="butt" stroke-linejoin="round" stroke-width="16.8598"/>
</g>
</g>
</svg>
