<?xml version="1.0" encoding="utf-8"?>
<!-- Generator: Adobe Illustrator 23.1.0, SVG Export Plug-In . SVG Version: 6.00 Build 0)  -->
<svg version="1.1" id="レイヤー_1" xmlns="http://www.w3.org/2000/svg" xmlns:xlink="http://www.w3.org/1999/xlink" x="0px"
	 y="0px" width="100" height="100" viewBox="0 0 100 100" enable-background="new 0 0 100 100" xml:space="preserve">
<g>
	<circle fill="#FF0000" cx="50" cy="50" r="49"/>
	
		<ellipse transform="matrix(0.229752 -0.973249 0.973249 0.229752 -10.150082 87.175087)" fill="none" stroke="#FFFFFF" stroke-width="1.4" cx="50.000126" cy="50.000126" rx="46.900291" ry="46.900009"/>
	<path fill="#FFFFFF" d="M20.417,62.69434l22.514198-12.75444L20.459,37.211399C18.7598,41.131802,17.8125,45.454102,17.8125,50
		C17.8125,54.508801,18.742701,58.798801,20.417,62.69434z"/>
	<path fill="#FFFFFF" d="M79.3545,62.52734l0.272499,0.07032C81.274399,58.7285,82.1875,54.470699,82.1875,50
		c0-4.534199-0.941399-8.847198-2.632797-12.7598L57.133801,49.940399L79.3545,62.52734z"/>
	<path fill="#FFFFFF" d="M76.088898,31.1567C70.241203,23.075199,60.7383,17.8125,50,17.8125
		c-10.726101,0-20.220699,5.250999-26.070299,13.318399L50.0322,45.9175L76.088898,31.1567z"/>
	<path fill="#FFFFFF" d="M24.2358,68.577148l-0.288,0.317383C29.797899,76.947273,39.284698,82.1875,50,82.1875
		c10.774399,0,20.306602-5.300781,26.150398-13.429688L50.0327,53.963902L24.2358,68.577148z"/>
	<g>
		<path fill="#0B3CA8" d="M34.902302,66.416992c0.135799,0.136719,0.314999,0.205078,0.494698,0.205078
			c0.179199,0,0.358402-0.068359,0.494102-0.205078c0.272999-0.276375,0.272999-0.71582,0-0.989265l-1.480904-1.482418
			c-0.272999-0.272457-0.717297-0.272457-0.990299,0c-0.271999,0.276371-0.271999,0.717785,0,0.992191L34.902302,66.416992z"/>
		<path fill="#0B3CA8" d="M43.204601,74.831047c0,0-0.250999,0-0.647003,0c0.108902-0.125969,0.184601-0.277336,0.184601-0.447258
			v-6.719727c0-0.18457-0.0723-0.365234-0.203098-0.49511c-0.130402-0.130859-0.3116-0.206062-0.494701-0.206062h-1.821701
			l2.024902-2.025391c0.200199-0.199219,0.258701-0.50293,0.152798-0.765633c-0.107899-0.259758-0.3643-0.430656-0.647999-0.430656
			h-4.528301c-0.3867,0-0.698196,0.314445-0.698196,0.702148c0,0.384758,0.311497,0.697258,0.698196,0.697258h2.836903
			l-1.818802,1.822273H37.1675c-0.1861,0-0.3643,0.075203-0.494598,0.206062c-0.130901,0.129875-0.2061,0.310539-0.2061,0.49511
			v6.00782c0,0.386711,0.312,0.701164,0.700699,0.701164c0.387199,0,0.701599-0.314453,0.701599-0.701164h-0.002899v-1.03125
			h0.980499v1.032219c0,0.386719,0.3144,0.698242,0.700703,0.698242c0.3867,0,0.701099-0.311523,0.701099-0.698242v-1.032219
			H41.3428v0.833977l-0.224602-0.058586c-0.375999-0.097664-0.756897,0.124016-0.8545,0.5
			c-0.100098,0.373039,0.125,0.755859,0.498001,0.854485l0.2271,0.060539c-1.200199,0-2.5723,0-3.242199,0
			c-0.273003,0.038094-1.068401-0.42675-1.649403-0.976555c-0.3008-0.271484-0.562-0.543945-0.7486-0.746094
			c0.099602-0.238281,0.179703-0.487305,0.196301-0.771492c0-0.209953,0.005402-0.533195,0.005402-0.891594
			c0-0.533203-0.013702-1.150391-0.119102-1.700195c-0.108398-0.473633-0.261799-1.26075-1.223698-1.357414
			c-0.769501-0.00293-1.450699-0.00293-1.453102,0c-0.387199,0-0.6982,0.311516-0.6982,0.698235
			c0,0.385742,0.311001,0.700195,0.6982,0.700195c0.001904,0,0.567402,0,1.2495,0c0.085003,0.28125,0.167,1.049805,0.148403,1.65918
			c0,0.341797-0.008301,0.65625-0.008301,0.891594c0.039101,0.030281-0.291901,0.709976-0.703602,1.181641
			c-0.400398,0.5-0.8032,0.903336-0.8032,0.907234c-0.275398,0.271492-0.275398,0.716797,0,0.989258
			c0.1362,0.137688,0.315399,0.206055,0.495102,0.206055c0.179199,0,0.358398-0.068367,0.494198-0.206055
			c0.0117-0.011719,0.453102-0.450195,0.9091-1.023438c0.015202-0.020508,0.0303-0.039063,0.045502-0.061523
			c0.6777,0.730469,1.845699,1.804695,3.165501,1.899414c1.3349,0,5.458,0,5.458,0c0.3867,0,0.6982-0.313469,0.6982-0.701172
			C43.902802,75.142578,43.591301,74.831047,43.204601,74.831047z M41.3428,69.082031h-1.094299v-0.717773H41.3428V69.082031z
			 M38.846699,68.364258v0.717773h-0.980499v-0.717773H38.846699z M37.866199,71.240227v-0.756828h0.980499v0.756828H37.866199z
			 M40.248501,71.240227v-0.756828H41.3428v0.756828H40.248501z"/>
		<path fill="#0B3CA8" d="M45.278301,68.681641c0.162598,0,0.326199-0.054688,0.459499-0.170898
			c1.9394-1.686523,2.6768-3.509766,2.705101-3.570313c0.144997-0.359383-0.028301-0.765633-0.387203-0.910156
			c-0.358898-0.147465-0.765697,0.027344-0.909698,0.383789c0,0.00293-0.145,0.365234-0.518101,0.946289
			c-0.372498,0.583992-0.962399,1.357422-1.809097,2.092766c-0.2915,0.25293-0.322201,0.69532-0.069302,0.987312
			C44.888199,68.600594,45.082001,68.681641,45.278301,68.681641z"/>
		<path fill="#0B3CA8" d="M48.2686,68.607422c-0.345299-0.177734-0.765701-0.041992-0.943401,0.300781
			c0,0-0.256397,0.498047-0.690399,1.115234c-0.428699,0.618164-1.038601,1.331055-1.6231,1.698242
			c-0.325199,0.205078-0.422798,0.639648-0.213799,0.96582c0.131798,0.209961,0.357399,0.325203,0.588299,0.325203
			c0.129398,0,0.260799-0.03614,0.377499-0.111336c0.1059-0.069336,0.201603-0.152344,0.3027-0.230469v2.857422
			c0,0.387703,0.314503,0.702148,0.700703,0.702148c0.387199,0,0.701698-0.314445,0.701698-0.702148v-4.276367
			c0.675201-0.876953,1.076599-1.680664,1.099602-1.704102C48.747101,69.203125,48.610802,68.782227,48.2686,68.607422z"/>
		<path fill="#0B3CA8" d="M54.860401,67.762703h-4.397503c-0.387199,0-0.6992,0.3125-0.6992,0.700188
			c0,0.386719,0.312,0.699219,0.6992,0.699219h1.313503c0,0.587891,0,1.47168,0,2.387688c0,1.219734,0,2.4795,0,3.124031
			c-0.077202-0.009766-0.1534-0.023438-0.223701-0.036125c-0.125-0.024422-0.222599-0.049812-0.222599-0.047859
			c-0.3731-0.102547-0.7598,0.115234-0.8633,0.488289c-0.105,0.371086,0.1143,0.757805,0.487301,0.863274l-0.002403-0.00293
			c0.033203,0.004883,0.4799,0.141602,0.988701,0.144531c0.1992-0.00293,0.417999-0.010735,0.681702-0.136719
			c0.266598-0.099609,0.576099-0.5,0.553699-0.878906c0-0.451172,0-4.305664,0-5.905273h1.684601
			c0.3867,0,0.6982-0.3125,0.6982-0.699219C55.558601,68.075203,55.247101,67.762703,54.860401,67.762703z"/>
		<path fill="#0B3CA8" d="M50.877899,65.376953h2.932602c0.386799,0,0.698299-0.313477,0.698299-0.699226
			c0-0.387688-0.311501-0.699207-0.698299-0.699207h-2.932602c-0.387199,0-0.6987,0.31152-0.6987,0.699207
			C50.179199,65.063477,50.4907,65.376953,50.877899,65.376953z"/>
		<path fill="#0B3CA8" d="M66.167,74.831047H62.5508v-4.850578H66.167c0.385696,0,0.700203-0.316406,0.700203-0.700195
			c0-0.388672-0.314507-0.700195-0.700203-0.700195H62.5508v-3.902351c0-0.387688-0.313499-0.699207-0.698299-0.699207
			c-0.388599,0-0.700199,0.31152-0.700199,0.699207v10.15332h-1.878902v-5.868156c0-0.388672-0.3144-0.700188-0.702099-0.700188
			c-0.385799,0-0.6973,0.311516-0.6973,0.700188v5.868156h-0.942402c-0.383698,0-0.700199,0.311531-0.700199,0.69825
			c0,0.386726,0.316502,0.700195,0.700199,0.700195h1.636803c0.0009,0,0.002899,0.000977,0.002899,0.000977
			c0.0019,0,0.0019-0.000977,0.003899-0.000977h3.2686c0.002899,0,0.005802,0.000977,0.008701,0.000977
			c0.000999,0,0.001999-0.000977,0.004898-0.000977H66.167c0.385696,0,0.700203-0.313469,0.700203-0.700195
			C66.867203,75.142578,66.552696,74.831047,66.167,74.831047z"/>
	</g>
</g>
</svg>
