<svg class="svgOrigin" xmlns="http://www.w3.org/2000/svg" width="400" height="400" x="0px" y="0px" viewBox="0 0 400 400" enable-background="new 0 0 400 400">
<g>
	<circle fill="#FF0000" cx="200" cy="200" r="197"/>
	
		<ellipse transform="matrix(0.707107 -0.707107 0.707107 0.707107 -82.842842 199.999954)" fill="none" stroke="#FFFFFF" stroke-width="5.62857" cx="199.999878" cy="200.000122" rx="188.557281" ry="188.557159"/>
	<path fill="#FFFFFF" d="M329.413086,200c0-71.472687-57.945282-129.413086-129.413086-129.413086
		c-71.473099,0-129.4189,57.940407-129.4189,129.413086c0,71.478516,57.945801,129.413086,129.4189,129.413086
		C271.467804,329.413086,329.413086,271.478516,329.413086,200z"/>
	<path fill="none" stroke="#0334A6" stroke-width="16.8857" stroke-linejoin="round" d="M220.986298,147.518112
		c0-13.456116,10.911194-24.366707,24.366196-24.366707c13.4561,0,24.367203,10.910591,24.367203,24.366707v88.957489
		c0,13.456009-10.911102,24.361313-24.367203,24.361313c-13.455002,0-24.366196-10.905304-24.366196-24.361313V147.518112z"/>
	<path fill="none" stroke="#0334A6" stroke-width="16.8857" stroke-linejoin="round" d="M128.334503,153.707001
		c0-16.31929,13.230392-29.549797,29.550293-29.549797c16.319305,0,29.549805,13.230507,29.549805,29.549797
		c0,16.319901-13.230499,29.550308-29.549805,29.550308v15.4785c16.319305,0,29.549805,13.229996,29.549805,29.550293
		c0,16.319397-13.230499,29.549805-29.549805,29.549805c-16.319901,0-29.550293-13.230408-29.550293-29.549805v-8.443298"/>
	<path fill="#0334A6" d="M296.790009,285.86911H103.204094c5.496605,6.188507,11.570305,11.839905,18.144005,16.879883h157.298386
		C285.219696,297.709015,291.293884,292.057617,296.790009,285.86911z"/>
</g>
</svg>
