<?xml version="1.0" encoding="UTF-8" standalone="no"?>
<!DOCTYPE svg PUBLIC "-//W3C//DTD SVG 1.1//EN" "http://www.w3.org/Graphics/SVG/1.1/DTD/svg11.dtd">
<!-- Created with Vectornator (http://vectornator.io/) -->
<svg height="400.0pt" stroke-miterlimit="10" style="fill-rule:nonzero;clip-rule:evenodd;stroke-linecap:round;stroke-linejoin:round;" version="1.1" viewBox="0 0 400 400" width="400.0pt" xml:space="preserve" xmlns="http://www.w3.org/2000/svg" xmlns:xlink="http://www.w3.org/1999/xlink">
<defs/>
<g id="名称未設定">
<g opacity="1">
<path d="M3 200C3 91.1999 91.1999 3 200 3C308.8 3 397 91.1999 397 200C397 308.8 308.8 397 200 397C91.1999 397 3 308.8 3 200Z" fill="#ff0000" fill-rule="nonzero" opacity="1" stroke="none"/>
<path d="M66.6698 333.33C-6.96639 259.694-6.96635 140.306 66.6699 66.67C140.306-6.96618 259.694-6.96622 333.33 66.67C406.966 140.306 406.966 259.694 333.33 333.33C259.694 406.966 140.306 406.966 66.6698 333.33Z" fill="none" opacity="1" stroke="#ffffff" stroke-linecap="butt" stroke-linejoin="miter" stroke-width="5.62857"/>
<path d="M300.896 280.987C318.717 258.815 329.413 230.66 329.413 200C329.413 128.527 271.468 70.5869 200 70.5869C169.337 70.5869 141.18 81.2778 119.007 99.1035L141.279 121.376C134.972 131.317 132.499 142.428 134.358 154.25L99.1089 119.002C81.2832 141.175 70.5923 169.329 70.5923 200C70.5923 271.468 128.53 329.402 200 329.402C230.671 329.402 258.825 318.717 280.999 300.897L176.069 195.967C188.128 197.475 197.376 195.808 208.863 188.954L300.896 280.987Z" fill="#ffffff" fill-rule="nonzero" opacity="1" stroke="none"/>
<path d="M279.198 269.185C279.198 284.684 266.639 297.25 251.133 297.25C235.635 297.25 223.069 284.684 223.069 269.185C223.069 253.687 235.635 241.121 251.133 241.121C266.639 241.121 279.198 253.687 279.198 269.185Z" fill="#ffffff" fill-rule="nonzero" opacity="1" stroke="#ffffff" stroke-linecap="butt" stroke-linejoin="miter" stroke-width="16.84"/>
<path d="M229.665 231.38L198.462 269.645L150.07 269.185L172.712 221.072L226.168 224.355" fill="#ffffff" fill-rule="nonzero" opacity="1" stroke="#ffffff" stroke-linecap="round" stroke-linejoin="round" stroke-width="11.21"/>
<path d="M251.133 269.185C251.133 269.185 223.427 223.205 223.427 216.686C223.427 210.166 227.137 212.302 227.137 206.678C227.137 203.305 217.243 197.231 211.623 197.231C205.994 197.231 203.748 202.406 203.748 202.406" fill="none" opacity="1" stroke="#ffffff" stroke-linecap="round" stroke-linejoin="round" stroke-width="11.21"/>
<path d="M279.198 269.185C279.198 284.684 266.639 297.25 251.133 297.25C235.635 297.25 223.069 284.684 223.069 269.185C223.069 253.687 235.635 241.121 251.133 241.121C266.639 241.121 279.198 253.687 279.198 269.185Z" fill="none" opacity="1" stroke="#0334a6" stroke-linecap="butt" stroke-linejoin="miter" stroke-width="8.42143"/>
<path d="M178.134 269.185C178.134 284.684 165.57 297.25 150.07 297.25C134.57 297.25 122.006 284.684 122.006 269.185C122.006 253.687 134.57 241.121 150.07 241.121C165.57 241.121 178.134 253.687 178.134 269.185Z" fill="none" opacity="1" stroke="#0334a6" stroke-linecap="butt" stroke-linejoin="miter" stroke-width="8.42143"/>
<path d="M157.137 269.185C157.137 273.088 153.973 276.253 150.07 276.253C146.167 276.253 143.003 273.088 143.003 269.185C143.003 265.282 146.167 262.118 150.07 262.118C153.973 262.118 157.137 265.282 157.137 269.185Z" fill="#0334a6" fill-rule="nonzero" opacity="1" stroke="none"/>
<path d="M251.133 269.185C251.133 269.185 223.427 223.205 223.427 216.686C223.427 210.166 227.137 212.302 227.137 206.678C227.137 203.305 217.243 197.231 211.623 197.231C205.994 197.231 203.748 202.406 203.748 202.406" fill="none" opacity="1" stroke="#0334a6" stroke-linecap="round" stroke-linejoin="round" stroke-width="5.61429"/>
<path d="M229.665 231.38L198.462 269.645L150.07 269.185L172.712 221.072L226.168 224.355" fill="none" opacity="1" stroke="#0334a6" stroke-linecap="round" stroke-linejoin="round" stroke-width="5.61429"/>
<path d="M169.643 212.302L198.462 269.645" fill="none" opacity="1" stroke="#0334a6" stroke-linecap="round" stroke-linejoin="round" stroke-width="5.61429"/>
<path d="M190.704 286.739C196.549 286.739 198.575 283.366 198.575 283.366C198.575 283.366 198.575 254.22 198.575 250.755C198.575 247.944 203.072 248.188 203.072 248.188" fill="none" opacity="1" stroke="#0334a6" stroke-linecap="round" stroke-linejoin="round" stroke-width="5.61429"/>
<path d="M209.156 267.75C209.156 272.532 205.28 276.408 200.498 276.408C195.717 276.408 191.841 272.532 191.841 267.75C191.841 262.971 195.717 259.095 200.498 259.095C205.28 259.095 209.156 262.971 209.156 267.75Z" fill="none" opacity="1" stroke="#0334a6" stroke-linecap="round" stroke-linejoin="round" stroke-width="10.0716"/>
<path d="M183.941 211.004C183.941 212.524 179.724 212.866 176.56 214.447C173.395 216.027 175.141 217.089 174.49 218.221C173.932 219.184 173.39 219.069 172.908 219.069C169.171 219.069 159.732 213.114 159.732 210.84C159.732 208.567 169.319 209.702 172.893 209.866C176.467 210.03 183.941 209.055 183.941 211.004Z" fill="#0334a6" fill-rule="nonzero" opacity="1" stroke="none"/>
<path d="M197.672 147.855C197.672 155.883 191.165 162.392 183.136 162.392C175.109 162.392 168.6 155.883 168.6 147.855C168.6 139.828 175.109 133.319 183.136 133.319C191.165 133.319 197.672 139.828 197.672 147.855Z" fill="#0334a6" fill-rule="nonzero" opacity="1" stroke="none"/>
<path d="M280.267 108.904C279.458 106.899 277.184 105.928 275.185 106.731L271.087 108.375L266.73 97.5154C265.929 95.5067 263.655 94.5374 261.648 95.3406C259.642 96.1418 258.673 98.4214 259.474 100.423L263.838 111.285L223.045 127.643C215.606 112.967 200.421 102.887 182.846 102.887C157.944 102.887 137.761 123.07 137.752 147.974C137.754 152.529 138.444 156.921 139.701 161.068L125.053 166.943C123.055 167.741 122.084 170.014 122.888 172.022C123.494 173.547 124.959 174.471 126.508 174.471C126.995 174.475 127.487 174.383 127.966 174.193L142.641 168.306C150.079 182.983 165.267 193.059 182.846 193.059C207.747 193.059 227.929 172.876 227.937 147.974C227.929 143.418 227.243 139.025 225.983 134.88L270.363 117.082C270.363 117.08 270.363 117.08 270.363 117.08C270.363 117.08 270.37 117.078 270.37 117.076L278.092 113.98C280.099 113.177 281.068 110.901 280.267 108.904ZM215.774 130.561L194.95 138.911L208.639 121.134C211.486 123.869 213.904 127.042 215.774 130.561ZM175.084 184.417C170.346 183.407 165.937 181.51 162.053 178.889L177.812 160.221L175.084 184.417ZM185.25 163.956L193.029 183.792C189.79 184.715 186.385 185.245 182.852 185.253L185.25 163.956ZM188.851 134.027L191.713 111.817C195.572 112.765 199.187 114.304 202.468 116.347L188.851 134.027ZM183.972 110.756L181.204 132.27L173.236 112.008C176.307 111.185 179.518 110.703 182.846 110.697C183.226 110.697 183.594 110.745 183.972 110.756ZM165.937 114.802L174.207 135.822L156.393 121.748C159.167 118.949 162.395 116.612 165.937 114.802ZM168.392 141.191L147.151 137.309C148.162 133.928 149.648 130.76 151.515 127.858L168.392 141.191ZM145.571 147.974C145.573 146.967 145.646 145.978 145.726 144.994L169.13 149.267L147.021 158.134C146.104 154.899 145.577 151.503 145.571 147.974ZM149.917 165.39L170.042 157.317L156.082 173.86C153.652 171.346 151.569 168.504 149.917 165.39ZM200.278 180.892L191.595 158.729L210.821 172.518C207.853 175.906 204.292 178.759 200.278 180.892ZM196.35 152.526L219.604 153.853C218.894 158.256 217.453 162.403 215.354 166.146L196.35 152.526ZM220.016 146.051L200.862 144.956L218.666 137.814C219.414 140.452 219.864 143.209 220.016 146.051Z" fill="#0334a6" fill-rule="nonzero" opacity="1" stroke="none"/>
</g>
</g>
</svg>
