<?xml version="1.0" encoding="utf-8"?>
<!-- Generator: Adobe Illustrator 23.1.0, SVG Export Plug-In . SVG Version: 6.00 Build 0)  -->
<svg version="1.1" id="レイヤー_1" xmlns="http://www.w3.org/2000/svg" xmlns:xlink="http://www.w3.org/1999/xlink" x="0px"
	 y="0px" width="100" height="100" viewBox="0 0 100 100" enable-background="new 0 0 100 100" xml:space="preserve">
<g>
	
		<ellipse transform="matrix(0.92696 -0.375161 0.375161 0.92696 -15.105986 22.410049)" fill="#FF0000" cx="49.999996" cy="49.999878" rx="49.165989" ry="49.166161"/>
	<path fill="none" stroke="#FFFFFF" stroke-width="1.40476" d="M97.058601,50c0,25.990196-21.069298,47.060547-47.058601,47.060547
		C24.0098,97.060547,2.94043,75.990196,2.94043,50S24.0098,2.9404,50,2.9404C75.989304,2.9404,97.058601,24.0098,97.058601,50z"/>
	<path fill="#FFFFFF" d="M17.7031,50C17.7031,67.837898,32.163101,82.296898,50,82.296898
		c7.653301,0,14.680702-2.667999,20.213898-7.115295L24.820299,29.7847C20.371099,35.319302,17.7031,42.346699,17.7031,50z"/>
	<path fill="#FFFFFF" d="M82.297897,50C82.297897,32.162601,67.837898,17.7031,50,17.7031
		c-7.652302,0-14.679699,2.667-20.2139,7.115299l45.3955,45.394501C79.629898,64.679703,82.297897,57.652302,82.297897,50z"/>
</g>
</svg>
