<svg class="svgOrigin" xmlns="http://www.w3.org/2000/svg" width="400" height="400" x="0px" y="0px" viewBox="0 0 400 400" enable-background="new 0 0 400 400">
<g>
	<circle fill="#FF0000" cx="200.00087" cy="200" r="197.499695"/>
	<path fill="none" stroke="#FFFFFF" stroke-width="11.2857" d="M297.293884,165.925308c0,0-61.255783-38.127899-66.082993-40.786598
		c-5.81929-3.215805-16.65329,3.005791-10.635696,11.437004c2.954102,4.138687,9.676804,12.330093,15.760696,19.606888H104.999001
		v28.211395h40.048393c-9.701691,13.318909-15.055191,30.71051-15.005386,50.752502c0,42.299789,0,47.997116,0,47.997116h28.216782
		c0,0,0-5.686615,0-47.997116c0.058105-18.338898,5.436005-30.511688,13.123505-38.441895
		c7.731506-7.882797,18.501999-12.255402,32.124496-12.302307v-0.008301h32.839905
		c-6.084,7.276901-12.817398,15.476608-15.7715,19.617706c-6.017593,8.431702,4.816406,14.647507,10.635696,11.440399
		c4.827209-2.656204,66.082993-40.784103,66.082993-40.784103s5.169006-3.199295,5.169006-4.375488
		C302.462891,169.126999,297.293884,165.925308,297.293884,165.925308z"/>
	<path fill="none" stroke="#FFFFFF" stroke-width="5.64286" d="M389.03418,200
		c0,104.398407-84.631897,189.036102-189.032684,189.036102C95.600601,389.036102,10.9658,304.398407,10.9658,200
		c0-104.403793,84.634804-189.035583,189.03569-189.035583C304.402283,10.96441,389.03418,95.596207,389.03418,200z"/>
	<path fill="#FFFFFF" d="M70.265602,200c0,71.648407,58.084496,129.730499,129.735901,129.730499
		c30.746506,0,58.972107-10.712891,81.201599-28.578186L98.8545,118.795906
		C80.983902,141.025406,70.265602,169.251007,70.265602,200z"/>
	<path fill="#FFFFFF" d="M329.740204,200c0-71.654297-58.081024-129.741699-129.738708-129.741699
		c-30.740799,0-58.968796,10.7183-81.198799,28.588898L301.151398,281.19339
		C319.02829,258.963898,329.740204,230.738312,329.740204,200z"/>
	<path fill="#0334A6" d="M297.293884,165.925308c0,0-61.255783-38.127899-66.082993-40.786598
		c-5.81929-3.215805-16.65329,3.005791-10.635696,11.437004c2.954102,4.138687,9.676804,12.330093,15.760696,19.606888H104.999001
		v28.211395h40.048393c-9.701691,13.318909-15.055191,30.71051-15.005386,50.752502c0,42.299789,0,47.997116,0,47.997116h28.216782
		c0,0,0-5.686615,0-47.997116c0.058105-18.338898,5.436005-30.511688,13.123505-38.441895
		c7.731506-7.882797,18.501999-12.255402,32.124496-12.302307v-0.008301h32.839905
		c-6.084,7.276901-12.817398,15.476608-15.7715,19.617706c-6.017593,8.431702,4.816406,14.647507,10.635696,11.440399
		c4.827209-2.656204,66.082993-40.784103,66.082993-40.784103s5.169006-3.199295,5.169006-4.375488
		C302.462891,169.126999,297.293884,165.925308,297.293884,165.925308z"/>
</g>
</svg>
