<svg class="svgOrigin" xmlns="http://www.w3.org/2000/svg" width="400" height="400" x="0px" y="0px" viewBox="0 0 400 400" enable-background="new 0 0 400 400">
<g>
	
		<ellipse transform="matrix(0.707107 -0.707107 0.707107 0.707107 -82.842377 200.000595)" fill="#FF0000" cx="200.000885" cy="199.999893" rx="196.131546" ry="196.131653"/>
	<path fill="none" stroke="#FFFFFF" stroke-width="11.2076" d="M286.474579,183.418503
		c-4.662079,3.343704-13.921875,10.934006-22.141571,17.807098h-1.925812c0-13.773895,0-34.498093,0-45.273499
		c-0.175812-13.183105-6.020508-26.683502-16.767609-38.203102c-10.71579-11.398895-27.329987-20.204094-47.766586-20.149391
		c-32.809998-0.486801-53.854401,18.053696-62.612701,36.605499c-9.202202,18.463791-9.667503,36.52829-9.749603,42.695801
		c0.008301,0.744095,0.022003,1.324203,0.035698,1.723602v101.245605h28.021996V177.951706l-0.022491-0.2901
		c0,0-0.013199-0.071304-0.013199-0.760696c-0.068298-3.803207,0.722198-18.387711,6.733398-30.071304
		c6.463394-11.612305,14.5923-20.7295,37.606903-21.205605c12.501999,0.054703,21.147491,4.914604,27.452194,11.426308
		c6.2939,6.402802,9.237305,15.082001,9.0625,18.901794c0,10.775406,0,31.505402,0,45.279297h-1.915009
		c-8.219788-6.873489-17.479492-14.469193-22.153397-17.812897c-9.518494-6.791092-16.55069,5.439407-12.922791,12.017502
		c3.004898,5.445297,46.064392,74.638184,46.064392,74.638184s3.612305,5.839905,4.9366,5.839905
		c1.324203,0,4.935501-5.839905,4.935501-5.839905s43.068405-69.192886,46.067398-74.638184
		C303.03418,188.85791,295.996094,176.627411,286.474579,183.418503z"/>
	
		<ellipse transform="matrix(0.001221 -0.999999 0.999999 0.001221 -0.243112 399.756592)" fill="none" stroke="#FFFFFF" stroke-width="5.60378" cx="200.000992" cy="200" rx="187.726593" ry="187.725601"/>
	<path fill="#FFFFFF" d="M71.164101,200c0,71.152313,57.682091,128.832001,128.837402,128.832001
		c30.533691,0,58.562988-10.638611,80.639099-28.379913L99.555199,119.358406
		C81.808098,141.434113,71.164101,169.463913,71.164101,200z"/>
	<path fill="#FFFFFF" d="M328.841797,200c0-71.158188-57.679718-128.842789-128.840302-128.842789
		c-30.527893,0-58.560593,10.6436-80.636299,28.390694L300.451202,280.63089
		C318.203094,258.555695,328.841797,230.525406,328.841797,200z"/>
	<path fill="#0334A6" d="M286.474579,183.418503c-4.662079,3.343704-13.921875,10.934006-22.141571,17.807098h-1.925812
		c0-13.773895,0-34.498093,0-45.273499c-0.175812-13.183105-6.020508-26.683502-16.767609-38.203102
		c-10.71579-11.398895-27.329987-20.204094-47.766586-20.149391c-32.809998-0.486801-53.854401,18.053696-62.612701,36.605499
		c-9.202202,18.463791-9.667503,36.52829-9.749603,42.695801c0.008301,0.744095,0.022003,1.324203,0.035698,1.723602v101.245605
		h28.021996V177.951706l-0.022491-0.2901c0,0-0.013199-0.071304-0.013199-0.760696
		c-0.068298-3.803207,0.722198-18.387711,6.733398-30.071304c6.463394-11.612305,14.5923-20.7295,37.606903-21.205605
		c12.501999,0.054703,21.147491,4.914604,27.452194,11.426308c6.2939,6.402802,9.237305,15.082001,9.0625,18.901794
		c0,10.775406,0,31.505402,0,45.279297h-1.915009c-8.219788-6.873489-17.479492-14.469193-22.153397-17.812897
		c-9.518494-6.791092-16.55069,5.439407-12.922791,12.017502c3.004898,5.445297,46.064392,74.638184,46.064392,74.638184
		s3.612305,5.839905,4.9366,5.839905c1.324203,0,4.935501-5.839905,4.935501-5.839905s43.068405-69.192886,46.067398-74.638184
		C303.03418,188.85791,295.996094,176.627411,286.474579,183.418503z"/>
</g>
</svg>
