<svg class="svgOrigin" xmlns="http://www.w3.org/2000/svg" width="400" height="400" x="0px" y="0px" viewBox="0 0 400 400" enable-background="new 0 0 400 400">
<g>
	<path fill="#0334A6" d="M397.645477,369.237305c0,14.833984-12.136688,26.969727-26.969696,26.969727H29.324699
		c-14.833499,0-26.970209-12.135742-26.970209-26.969727V30.762709c0-14.833499,12.13671-26.9702,26.970209-26.9702h341.351074
		c14.833008,0,26.969696,12.1367,26.969696,26.9702V369.237305z"/>
	<path fill="none" stroke="#FFFFFF" stroke-width="2.69701" d="M370.675781,390.802734H29.324699
		c-11.899399,0-21.57616-9.676727-21.57616-21.56543V30.762709c0-11.893999,9.676761-21.565399,21.57616-21.565399h341.351074
		c11.899414,0,21.576233,9.6714,21.576233,21.565399v338.474609C392.252014,381.126007,382.575195,390.802734,370.675781,390.802734
		L370.675781,390.802734z"/>
	<polygon fill="#FFFFFF" points="368.537079,185.350601 266.055695,185.350601 266.055695,108.528305 199.989288,60.998508 
		133.923294,108.528305 133.923294,185.350601 31.4424,185.350601 31.4424,218.025406 133.923294,218.025406 133.923294,358.043915 
		199.989288,310.514587 266.055695,358.043915 266.055695,218.025406 368.537079,218.025406 	"/>
</g>
</svg>
