<svg class="svgOrigin" xmlns="http://www.w3.org/2000/svg" width="400" height="400" x="0px" y="0px" viewBox="0 0 400 400" enable-background="new 0 0 400 400">
<g>
	<path fill="#0334A6" d="M396.99408,200c0,108.800812-88.199188,197-196.988678,197C91.204597,397,3.00537,308.800812,3.00537,200
		S91.204597,3,200.005402,3C308.794891,3,396.99408,91.199211,396.99408,200z"/>
	<path fill="none" stroke="#FFFFFF" stroke-width="5.62857" d="M388.551788,200
		c0,104.133789-84.417999,188.557587-188.546387,188.557587C95.8657,388.557587,11.4482,304.133789,11.4482,200
		C11.4482,95.860405,95.8657,11.44291,200.005402,11.44291C304.133789,11.44291,388.551788,95.860405,388.551788,200z"/>
	<path fill="#FFFFFF" d="M152.954102,198.526901c-4.537613-10.267593-37.160202-68.202194-50.937508-89.556694
		c-3.075195-4.776802-6.244095-9.179703-10.481895-9.179703c-4.238297,0-7.406799,4.402901-10.482498,9.179703
		c-13.777298,21.3545-46.399899,79.289101-50.934502,89.556694c-5.548901,12.549301,4.342299,20.997498,21.241701,9.888092
		c7.755798-5.094681,16.836399-11.344681,24.410595-16.632294v126.131393h33.7715V193.343704
		c7.082504,4.930206,15.165504,10.470795,22.168007,15.071289C148.608902,219.524399,158.502899,211.076202,152.954102,198.526901z"
		/>
	<path fill="#FFFFFF" d="M235.8936,148.567902c10.267487-4.534698,68.202103-37.157295,89.550705-50.937492
		c4.782288-3.0728,9.179688-6.244202,9.179688-10.482002c0-4.238197-4.3974-7.404297-9.179688-10.482407
		c-21.348602-13.774391-79.283218-46.397003-89.550705-50.931591c-12.554703-5.5518-20.998108,4.3423-9.894608,21.238701
		c5.100601,7.75589,11.344803,16.836498,16.632797,24.410702H116.502899v33.771492h124.56839
		c-4.925797,7.085403-10.46579,15.165504-15.072296,22.1679C214.895493,144.225601,223.338898,154.119614,235.8936,148.567902z"/>
	<g>
		<path fill="#FFFFFF" d="M206.041,280.927704c1.4785,0,2.934601-0.610291,3.98439-1.655212
			c1.044907-1.049774,1.649399-2.495178,1.649399-3.973694V241.49411c0-1.4785-0.604492-2.9189-1.649399-3.973602
			c-1.049789-1.049805-2.50589-1.655304-3.98439-1.655304H187.2202V229.0439h30.094299
			c3.116196,0,5.628891-2.5224,5.628891-5.623001c0-3.110397-2.512695-5.633789-5.628891-5.633789h-81.463409
			c-1.4785,0-2.935089,0.604492-3.976593,1.654297c-1.055206,1.044891-1.6465,2.490204-1.6465,3.979492c0,0,0,57.770508,0,66.988312
			c0.082504,2.781189-1.810989,8.002899-3.976501,12.026276c-2.119202,4.084015-4.227097,7.057709-4.215897,7.06842
			c-1.786598,2.544891-1.182098,6.052704,1.362801,7.849579c0.983894,0.692413,2.1138,1.022522,3.232498,1.022522
			c1.772392,0,3.5205-0.835999,4.614204-2.396515c0.096191-0.522491,9.860901-13.104492,10.240295-25.570282
			c0-7.454102,0-46.617203,0-61.365311h34.469696v6.821304h-20.37059c-1.492706,0-2.935608,0.605499-3.987808,1.655304
			c-1.039093,1.038101-1.6436,2.495102-1.6436,3.973602v17.001007c0,0.00589-0.002899,0.011688-0.002899,0.016602
			c0,0.00589,0.002899,0.010773,0.002899,0.016571v16.770508c0,1.478516,0.604507,2.92392,1.6436,3.973694
			c1.0522,1.044922,2.495102,1.655212,3.987808,1.655212h21.081985v23.541992
			c-2.454086,0.604492-8.486786,1.033203-11.388687,0.868195c-3.111313,0-5.634201,2.523407-5.634201,5.63382
			c0,3.117188,2.522888,5.634705,5.634201,5.634705c2.522995-0.011719,6.985901,0.010773,11.256897-0.649414
			c2.1548-0.368103,4.287598-0.829987,6.464294-1.967712c2.047409-0.978577,4.946808-3.715881,4.924805-7.618195v-25.44339H206.041z
			 M181.553192,247.123001c0.010803,0,0.016602,0.004898,0.027405,0.004898c0.0112,0,0.016602-0.004898,0.027802-0.004898h18.803696
			v5.765701h-39.199203v-5.765701H181.553192z M161.212891,264.140594h39.199203v5.518616h-39.199203V264.140594z"/>
		<path fill="#FFFFFF" d="M168.938492,287.209991c-1.965393-2.402374-5.504898-2.770477-7.917999-0.807678l-20.914993,17.01178
			c-2.415604,1.961914-2.781296,5.501892-0.818909,7.915009c1.118713,1.36911,2.742706,2.078094,4.378006,2.078094
			c1.245102,0,2.498505-0.412109,3.542892-1.258789l20.914612-17.006805
			C170.535202,293.173798,170.892593,289.622986,168.938492,287.209991z"/>
		<path fill="#FFFFFF" d="M209.817398,284.917999c-2.07811-2.297882-5.645508-2.462891-7.951202-0.379883
			c-2.297806,2.094696-2.462906,5.656189-0.368195,7.954071l13.397491,14.719727
			c1.110397,1.226593,2.638702,1.847687,4.167007,1.847687c1.351593,0,2.709991-0.484406,3.787094-1.467804
			c2.292007-2.094696,2.462906-5.645508,0.378906-7.954102L209.817398,284.917999z"/>
		<path fill="#FFFFFF" d="M273.820282,217.264603c-2.770477-1.417892-6.162079-0.329102-7.580078,2.435608l-23.344711,45.48439
			c-1.417999,2.764587-0.329102,6.151306,2.435608,7.569305c0.824188,0.422882,1.704086,0.626007,2.566391,0.626007
			c2.044907,0,4.012695-1.121124,5.013596-3.061523l1.857513-3.616272v47.732483c0,3.117188,2.523392,5.634705,5.623001,5.634705
			c3.11618,0,5.633789-2.517517,5.633789-5.634705v-69.669998l10.229492-19.919891
			C277.67868,222.074203,276.589783,218.683609,273.820282,217.264603z"/>
		<path fill="#FFFFFF" d="M335.239288,239.5811h-8.860382c0-11.8116,0-20.497101,0-20.52449
			c0-3.110306-2.522522-5.633713-5.628906-5.633713c-3.110413,0-5.627899,2.523407-5.627899,5.633713c0,0,0,8.696289,0,20.52449
			h-31.79892c-3.105377,0-5.627899,2.517502-5.627899,5.634705c0,3.099594,2.522522,5.627899,5.627899,5.627899h31.79892
			c0,20.8936,0,45.506912,0,51.92189c-0.060608,1.203094-0.263702,1.539093-1.231506,2.461914
			c-1.434509,1.325195-4.985291,2.556702-8.113312,3.0401c-3.121979,0.543884-5.551697,0.510681-5.551697,0.533203
			c-3.110382,0-5.633789,2.523376-5.633789,5.633789c0,3.117188,2.523407,5.634705,5.633789,5.634705
			c0.286102-0.0224,5.74411,0.015686,11.807617-1.676697c3.02829-0.879913,6.282196-2.170898,9.157196-4.595703
			c2.890686-2.357391,5.254883-6.40332,5.188507-11.031311c0-6.40918,0-31.02829,0-51.92189h8.860382
			c3.111298,0,5.628906-2.528305,5.628906-5.627899C340.868195,242.098602,338.350586,239.5811,335.239288,239.5811z"/>
		<path fill="#FFFFFF" d="M299.819305,289.079102c1.043976,0,2.099579-0.296906,3.044983-0.907196
			c2.616211-1.676788,3.375-5.156311,1.693298-7.772491l-10.872986-16.902313c-1.670898-2.616211-5.155304-3.375-7.771515-1.692383
			c-2.617188,1.68158-3.375,5.171875-1.69339,7.783173l10.872101,16.896515
			C296.158203,288.161102,297.972687,289.079102,299.819305,289.079102z"/>
	</g>
</g>
</svg>
