<svg class="svgOrigin" xmlns="http://www.w3.org/2000/svg" width="400" height="400" x="0px" y="0px" viewBox="0 0 400 400" enable-background="new 0 0 400 400">
<g>
	<path fill="#FF0000" d="M397.001007,200c0,108.799805-88.198303,196.998047-197.003418,196.998047
		C91.198196,396.998047,3,308.799805,3,200C3,91.200706,91.198196,3.00241,199.997589,3.00241
		C308.802704,3.00241,397.001007,91.200706,397.001007,200z"/>
	<path fill="none" stroke="#FFFFFF" stroke-width="5.62851" d="M162.1978,202.137711
		c-3.089401-6.991211-25.295502-46.429199-34.672401-60.962402c-2.0942-3.253906-4.249001-6.249496-7.134804-6.249496
		c-2.885696,0-5.045898,2.99559-7.134697,6.249496C103.873497,155.708511,81.667,195.1465,78.583504,202.137711
		c-3.7817,8.541992,2.951698,14.291992,14.456093,6.7285C98.3218,205.397507,104.5,201.1436,109.6558,197.542999v85.862305
		h22.992104v-84.795898c4.820892,3.352493,10.3228,7.128906,15.088394,10.256805
		C159.240692,216.429703,165.973602,210.679703,162.1978,202.137711z"/>
	<path fill="none" stroke="#FFFFFF" stroke-width="5.62851" d="M220.912094,168.130905
		c6.986298-3.089401,46.423813-25.295502,60.956985-34.678299c3.253906-2.088303,6.25592-4.248505,6.25592-7.134201
		c0-2.885796-3.002014-5.040596-6.25592-7.134796c-14.533173-9.376999-53.970688-31.583504-60.956985-34.672401
		c-8.541992-3.776299-14.296906,2.9571-6.733398,14.461502c3.468796,5.276794,7.722702,11.460396,11.323303,16.616196h-85.862396
		v22.986809h84.801788c-3.358398,4.825699-7.134796,10.322189-10.262695,15.093689
		C206.615189,165.173813,212.370102,171.906708,220.912094,168.130905z"/>
	<g>
		<path fill="none" stroke="#FFFFFF" stroke-width="5.62851" d="M200.596695,263.859406
			c1.001007,0,1.984406-0.417999,2.693298-1.132813c0.725601-0.708984,1.132904-1.698303,1.132904-2.708984v-22.998108
			c0-1.011703-0.407303-1.995102-1.116302-2.704102c-0.714798-0.714798-1.708893-1.132797-2.7099-1.132797h-12.823303v-4.633804
			h20.485397c2.122101,0,3.831009-1.719696,3.831009-3.830994c0-2.116196-1.708908-3.8311-3.831009-3.8311v-0.010696h-55.443893
			c-1.0112,0-1.995102,0.412094-2.720703,1.13179c-0.708893,0.714905-1.12149,1.699203-1.12149,2.710007
			c0,0.016602,0,9.823196,0,20.447189c0,10.614304,0,22.008804,0,25.15242c0.060501,1.891602-1.225601,5.436493-2.698807,8.184601
			c-1.445297,2.781189-2.879898,4.804596-2.879898,4.815399c-1.214798,1.725586-0.791504,4.122101,0.940002,5.336884
			c0.670395,0.472717,1.439896,0.698212,2.198196,0.698212c1.209503,0,2.3965-0.566406,3.138702-1.626892
			c0.060501-0.357422,6.711395-8.926819,6.975098-17.408203c0-5.073303,0-31.725616,0-41.768616h23.459503v4.633804h-13.862305
			c-1.011292,0-2.000992,0.417999-2.709991,1.132797c-0.719711,0.709-1.132309,1.692398-1.132309,2.704102v22.998108
			c0,1.010681,0.412598,2,1.132309,2.725586c0.709,0.698212,1.6987,1.116211,2.709991,1.116211h14.351501l-0.010696,16.02829
			c-1.676804,0.412109-5.777405,0.698212-7.745102,0.587921c-2.121597,0-3.8311,1.714783-3.8311,3.847595
			c0,2.105499,1.709503,3.825195,3.8311,3.825195c1.720703-0.010712,4.754898,0,7.662598-0.445313
			c1.4673-0.236298,2.913101-0.565399,4.396896-1.3349c1.3965-0.660187,3.369705-2.528381,3.358398-5.194397v-17.314392H200.596695z
			 M196.754898,240.850601v3.914001h-26.68071v-3.914001H196.754898z M170.074188,252.43161h26.68071v3.759796h-26.68071V252.43161z
			"/>
		<path fill="none" stroke="#FFFFFF" stroke-width="5.62851" d="M175.3237,268.141602
			c-1.335907-1.638702-3.743103-1.891602-5.381302-0.555695l-14.241699,11.587006
			c-1.638199,1.329987-1.89061,3.748993-0.555206,5.386688c0.758804,0.928711,1.863297,1.412109,2.979004,1.412109
			c0.846695,0,1.6987-0.280304,2.4077-0.857422l14.241699-11.586975
			C176.422897,272.203094,176.664597,269.779297,175.3237,268.141602z"/>
		<path fill="none" stroke="#FFFFFF" stroke-width="5.62851" d="M203.1689,266.574188
			c-1.422806-1.566376-3.858398-1.675781-5.424805-0.251892c-1.561005,1.422821-1.670898,3.841797-0.252899,5.408203
			l9.119202,10.037109c0.757797,0.824188,1.802704,1.242188,2.846603,1.242188c0.917999,0,1.847687-0.32428,2.578201-0.989288
			c1.566391-1.434601,1.676697-3.859406,0.252899-5.425812L203.1689,266.574188z"/>
		<path fill="none" stroke="#FFFFFF" stroke-width="5.62851" d="M246.724594,220.524399
			c-1.875-0.961899-4.188507-0.219696-5.162094,1.660202l-15.878906,30.951096
			c-0.9785,1.890701-0.231506,4.193405,1.648407,5.167007c0.560593,0.285187,1.154297,0.422913,1.748093,0.422913
			c1.3965,0,2.737305-0.763702,3.4189-2.083008l1.264694-2.473709v32.506912c0,2.110291,1.714813,3.830994,3.835907,3.830994
			c2.105499,0,3.826202-1.720703,3.826202-3.830994v-47.429703l6.963791-13.560608
			C249.351593,223.799805,248.604492,221.486298,246.724594,220.524399z"/>
		<path fill="none" stroke="#FFFFFF" stroke-width="5.62851" d="M288.537079,235.716797h-6.024384
			c0-8.019485,0-13.956085,0-13.972687c0-2.121109-1.720703-3.831009-3.831116-3.831009
			c-2.121979,0-3.830994,1.7099-3.830994,3.831009c-0.00589,0.016602-0.00589,5.953201-0.011688,13.972687h-21.639709
			c-2.122101,0-3.836899,1.720703-3.836899,3.8311c0,2.116211,1.714798,3.836914,3.836899,3.836914h21.639709
			c-0.004883,14.224594-0.004883,30.97258-0.004883,35.342697c0.136688,1.208984-1.055725,2.281281-4.188507,3.264709
			c-2.86911,0.819275-5.936493,0.808594-5.936493,0.84668c-2.122131,0-3.847717,1.7099-3.847717,3.830994
			c0,2.122101,1.725586,3.842804,3.847717,3.842804v-0.011688c0.186493-0.010803,3.902283,0.0224,8.036072-1.142609
			c3.836914-1.001007,9.635803-3.908203,9.767609-10.63089c0-4.370117,0-21.118103,0-35.342697h6.024384
			c2.116211,0,3.841827-1.720703,3.841827-3.836914C292.378906,237.4375,290.65329,235.716797,288.537079,235.716797z"/>
		<path fill="none" stroke="#FFFFFF" stroke-width="5.62851" d="M264.434601,269.405304
			c0.708984,0,1.42868-0.192413,2.066406-0.598694c1.781189-1.149414,2.297791-3.529297,1.143494-5.298798l-7.393494-11.504913
			c-1.142609-1.780197-3.511719-2.296799-5.287109-1.154297c-1.781311,1.1436-2.297897,3.5186-1.154297,5.288116l7.392487,11.509796
			C261.938507,268.790009,263.169891,269.405304,264.434601,269.405304z"/>
	</g>
	<path fill="none" stroke="#FFFFFF" stroke-width="5.62851" d="M388.558594,200
		c0,104.132813-84.427704,188.554688-188.561005,188.554688C95.859398,388.554688,11.4429,304.132813,11.4429,200
		c0-104.138191,84.416496-188.555191,188.554688-188.555191C304.13089,11.44481,388.558594,95.861809,388.558594,200z"/>
	<path fill="#FFFFFF" d="M70.591301,200c0,71.466797,57.93409,129.400391,129.406281,129.400391
		c30.665512,0,58.818817-10.685577,80.992615-28.504883L99.107903,119.002411
		C81.282204,141.175308,70.591301,169.329102,70.591301,200z"/>
	<path fill="#FFFFFF" d="M329.404297,200c0-71.472198-57.934601-129.411591-129.406708-129.411591
		c-30.665588,0-58.818893,10.690895-80.992195,28.516098l181.893005,181.88179
		C318.718781,258.813507,329.404297,230.660202,329.404297,200z"/>
	<path fill="#0334A6" d="M162.1978,202.137711c-3.089401-6.991211-25.295502-46.429199-34.672401-60.962402
		c-2.0942-3.253906-4.249001-6.249496-7.134804-6.249496c-2.885696,0-5.045898,2.99559-7.134697,6.249496
		C103.873497,155.708511,81.667,195.1465,78.583504,202.137711c-3.7817,8.541992,2.951698,14.291992,14.456093,6.7285
		C98.3218,205.397507,104.5,201.1436,109.6558,197.542999v85.862305h22.992104v-84.795898
		c4.820892,3.352493,10.3228,7.128906,15.088394,10.256805C159.240692,216.429703,165.973602,210.679703,162.1978,202.137711z"/>
	<path fill="#0334A6" d="M220.912094,168.130905c6.986298-3.089401,46.423813-25.295502,60.956985-34.678299
		c3.253906-2.088303,6.25592-4.248505,6.25592-7.134201c0-2.885796-3.002014-5.040596-6.25592-7.134796
		c-14.533173-9.376999-53.970688-31.583504-60.956985-34.672401c-8.541992-3.776299-14.296906,2.9571-6.733398,14.461502
		c3.468796,5.276794,7.722702,11.460396,11.323303,16.616196h-85.862396v22.986809h84.801788
		c-3.358398,4.825699-7.134796,10.322189-10.262695,15.093689C206.615189,165.173813,212.370102,171.906708,220.912094,168.130905z"
		/>
	<g>
		<path fill="#0334A6" d="M200.596695,263.859406c1.001007,0,1.984406-0.417999,2.693298-1.132813
			c0.725601-0.708984,1.132904-1.698303,1.132904-2.708984v-22.998108c0-1.011703-0.407303-1.995102-1.116302-2.704102
			c-0.714798-0.714798-1.708893-1.132797-2.7099-1.132797h-12.823303v-4.633804h20.485397
			c2.122101,0,3.831009-1.719696,3.831009-3.830994c0-2.116196-1.708908-3.8311-3.831009-3.8311v-0.010696h-55.443893
			c-1.0112,0-1.995102,0.412094-2.720703,1.13179c-0.708893,0.714905-1.12149,1.699203-1.12149,2.710007
			c0,0.016602,0,9.823196,0,20.447189c0,10.614304,0,22.008804,0,25.15242c0.060501,1.891602-1.225601,5.436493-2.698807,8.184601
			c-1.445297,2.781189-2.879898,4.804596-2.879898,4.815399c-1.214798,1.725586-0.791504,4.122101,0.940002,5.336884
			c0.670395,0.472717,1.439896,0.698212,2.198196,0.698212c1.209503,0,2.3965-0.566406,3.138702-1.626892
			c0.060501-0.357422,6.711395-8.926819,6.975098-17.408203c0-5.073303,0-31.725616,0-41.768616h23.459503v4.633804h-13.862305
			c-1.011292,0-2.000992,0.417999-2.709991,1.132797c-0.719711,0.709-1.132309,1.692398-1.132309,2.704102v22.998108
			c0,1.010681,0.412598,2,1.132309,2.725586c0.709,0.698212,1.6987,1.116211,2.709991,1.116211h14.351501l-0.010696,16.02829
			c-1.676804,0.412109-5.777405,0.698212-7.745102,0.587921c-2.121597,0-3.8311,1.714783-3.8311,3.847595
			c0,2.105499,1.709503,3.825195,3.8311,3.825195c1.720703-0.010712,4.754898,0,7.662598-0.445313
			c1.4673-0.236298,2.913101-0.565399,4.396896-1.3349c1.3965-0.660187,3.369705-2.528381,3.358398-5.194397v-17.314392H200.596695z
			 M196.754898,240.850601v3.914001h-26.68071v-3.914001H196.754898z M170.074188,252.43161h26.68071v3.759796h-26.68071V252.43161z
			"/>
		<path fill="#0334A6" d="M175.3237,268.141602c-1.335907-1.638702-3.743103-1.891602-5.381302-0.555695l-14.241699,11.587006
			c-1.638199,1.329987-1.89061,3.748993-0.555206,5.386688c0.758804,0.928711,1.863297,1.412109,2.979004,1.412109
			c0.846695,0,1.6987-0.280304,2.4077-0.857422l14.241699-11.586975
			C176.422897,272.203094,176.664597,269.779297,175.3237,268.141602z"/>
		<path fill="#0334A6" d="M203.1689,266.574188c-1.422806-1.566376-3.858398-1.675781-5.424805-0.251892
			c-1.561005,1.422821-1.670898,3.841797-0.252899,5.408203l9.119202,10.037109
			c0.757797,0.824188,1.802704,1.242188,2.846603,1.242188c0.917999,0,1.847687-0.32428,2.578201-0.989288
			c1.566391-1.434601,1.676697-3.859406,0.252899-5.425812L203.1689,266.574188z"/>
		<path fill="#0334A6" d="M246.724594,220.524399c-1.875-0.961899-4.188507-0.219696-5.162094,1.660202l-15.878906,30.951096
			c-0.9785,1.890701-0.231506,4.193405,1.648407,5.167007c0.560593,0.285187,1.154297,0.422913,1.748093,0.422913
			c1.3965,0,2.737305-0.763702,3.4189-2.083008l1.264694-2.473709v32.506912c0,2.110291,1.714813,3.830994,3.835907,3.830994
			c2.105499,0,3.826202-1.720703,3.826202-3.830994v-47.429703l6.963791-13.560608
			C249.351593,223.799805,248.604492,221.486298,246.724594,220.524399z"/>
		<path fill="#0334A6" d="M288.537079,235.716797h-6.024384c0-8.019485,0-13.956085,0-13.972687
			c0-2.121109-1.720703-3.831009-3.831116-3.831009c-2.121979,0-3.830994,1.7099-3.830994,3.831009
			c-0.00589,0.016602-0.00589,5.953201-0.011688,13.972687h-21.639709c-2.122101,0-3.836899,1.720703-3.836899,3.8311
			c0,2.116211,1.714798,3.836914,3.836899,3.836914h21.639709c-0.004883,14.224594-0.004883,30.97258-0.004883,35.342697
			c0.136688,1.208984-1.055725,2.281281-4.188507,3.264709c-2.86911,0.819275-5.936493,0.808594-5.936493,0.84668
			c-2.122131,0-3.847717,1.7099-3.847717,3.830994c0,2.122101,1.725586,3.842804,3.847717,3.842804v-0.011688
			c0.186493-0.010803,3.902283,0.0224,8.036072-1.142609c3.836914-1.001007,9.635803-3.908203,9.767609-10.63089
			c0-4.370117,0-21.118103,0-35.342697h6.024384c2.116211,0,3.841827-1.720703,3.841827-3.836914
			C292.378906,237.4375,290.65329,235.716797,288.537079,235.716797z"/>
		<path fill="#0334A6" d="M264.434601,269.405304c0.708984,0,1.42868-0.192413,2.066406-0.598694
			c1.781189-1.149414,2.297791-3.529297,1.143494-5.298798l-7.393494-11.504913
			c-1.142609-1.780197-3.511719-2.296799-5.287109-1.154297c-1.781311,1.1436-2.297897,3.5186-1.154297,5.288116l7.392487,11.509796
			C261.938507,268.790009,263.169891,269.405304,264.434601,269.405304z"/>
	</g>
</g>
</svg>
