<?xml version="1.0" encoding="UTF-8" standalone="no"?>
<!DOCTYPE svg PUBLIC "-//W3C//DTD SVG 1.1//EN" "http://www.w3.org/Graphics/SVG/1.1/DTD/svg11.dtd">
<!-- Created with Vectornator (http://vectornator.io/) -->
<svg height="400.0pt" stroke-miterlimit="10" style="fill-rule:nonzero;clip-rule:evenodd;stroke-linecap:round;stroke-linejoin:round;" version="1.1" viewBox="0 0 400 400" width="400.0pt" xml:space="preserve" xmlns="http://www.w3.org/2000/svg" xmlns:xlink="http://www.w3.org/1999/xlink">
<defs/>
<g id="名称未設定">
<g opacity="1">
<path d="M1.42109e-14 0L400 0L400 0L400 400L400 400L1.42109e-14 400L1.42109e-14 400L1.42109e-14 0L1.42109e-14 0Z" fill="#808080" fill-rule="nonzero" opacity="1" stroke="none"/>
<path d="M199.938 84.2441C199.938 84.2441 219.502 122.726 248.524 151.749C277.547 180.771 316.029 200.335 316.029 200.335C316.029 200.335 277.756 220.108 248.733 249.13C219.711 278.153 199.938 316.426 199.938 316.426C199.938 316.426 180.714 277.604 151.691 248.582C122.669 219.559 83.8469 200.335 83.8469 200.335C83.8469 200.335 121.955 180.398 150.979 151.376C180.001 122.352 199.938 84.2441 199.938 84.2441Z" fill="none" opacity="1" stroke="#ffffff" stroke-linecap="butt" stroke-linejoin="miter" stroke-width="13.6105"/>
<path d="M233.217 138.538L165.729 263.857" fill="none" opacity="1" stroke="#ffffff" stroke-linecap="butt" stroke-linejoin="miter" stroke-width="13.6105"/>
<path d="M207.279 97.3805L135.099 231.412" fill="none" opacity="1" stroke="#ffffff" stroke-linecap="butt" stroke-linejoin="miter" stroke-width="13.6105"/>
<path d="M264.957 168.264L192.061 303.626" fill="none" opacity="1" stroke="#ffffff" stroke-linecap="butt" stroke-linejoin="miter" stroke-width="13.6105"/>
<path d="M319.993 151.749C326.058 157.813 332.535 163.465 338.989 168.611C363.417 188.093 387.498 200.335 387.498 200.335" fill="none" opacity="1" stroke="#ffffff" stroke-linecap="butt" stroke-linejoin="miter" stroke-width="13.6105"/>
<path d="M282.366 111.007L331.611 143.722L309.398 163.776L282.366 111.007Z" fill="#ffffff" fill-rule="nonzero" opacity="1" stroke="none"/>
<path d="M151.352 80.2803C157.416 74.2157 163.067 67.738 168.214 61.2848C187.696 36.8555 199.938 12.7759 199.938 12.7759" fill="none" opacity="1" stroke="#ffffff" stroke-linecap="butt" stroke-linejoin="miter" stroke-width="13.6105"/>
<path d="M110.61 117.907L143.324 68.6628L163.378 90.8747L110.61 117.907Z" fill="#ffffff" fill-rule="nonzero" opacity="1" stroke="none"/>
<path d="M79.8831 248.921C73.8185 242.856 67.3409 237.206 60.8877 232.059C36.4583 212.576 12.3787 200.335 12.3787 200.335" fill="none" opacity="1" stroke="#ffffff" stroke-linecap="butt" stroke-linejoin="miter" stroke-width="13.6105"/>
<path d="M117.51 289.663L68.2656 256.949L90.4777 236.895L117.51 289.663Z" fill="#ffffff" fill-rule="nonzero" opacity="1" stroke="none"/>
<path d="M248.524 320.39C242.459 326.454 236.808 332.932 231.662 339.386C212.18 363.814 199.938 387.895 199.938 387.895" fill="none" opacity="1" stroke="#ffffff" stroke-linecap="butt" stroke-linejoin="miter" stroke-width="13.6105"/>
<path d="M289.266 282.762L256.551 332.008L236.497 309.795L289.266 282.762Z" fill="#ffffff" fill-rule="nonzero" opacity="1" stroke="none"/>
</g>
</g>
</svg>
