<svg class="svgOrigin" xmlns="http://www.w3.org/2000/svg" width="400" height="400" x="0px" y="0px" viewBox="0 0 400 400" enable-background="new 0 0 400 400">
<g>
	<path fill="#0334A6" d="M396.801788,335.464813c0,9.474701-7.739288,17.213898-17.203186,17.213898H20.404301
		c-9.463901,0-17.20606-7.739197-17.20606-17.213898V64.529312c0-9.469204,7.74216-17.208504,17.20606-17.208504h359.194305
		c9.463898,0,17.203186,7.7393,17.203186,17.208504V335.464813z"/>
	<path fill="none" stroke="#FFFFFF" stroke-width="3.68331" d="M392.161102,331.461914
		c0,9.176788-7.516602,16.692383-16.692322,16.692383H24.529301c-9.179201,0-16.687012-7.515594-16.687012-16.692383V68.534706
		c0-9.179199,7.50781-16.684097,16.687012-16.684097h350.939484c9.17572,0,16.692322,7.504898,16.692322,16.684097V331.461914z"/>
	<path fill="#FFFFFF" d="M215.264587,146.499512c-2.139587-3.576599-10.333893-17.245605-16.114685-26.896004
		c-3.411606-5.695297-4.755905-8.324699-5.985306-8.324699c-1.229507,0-2.603104,2.680191-6.046906,8.425797
		c-5.777893,9.645004-13.913589,23.2314-16.050293,26.794907c-3.412109,5.687485,0.648895,8.934097,6.661102,4.548401
		c2.211899-1.615799,4.8862-3.491699,7.3853-5.224701v141.683594h16.106888V145.826202
		c2.496109,1.732407,5.166,3.608902,7.379913,5.22171C214.615189,155.433609,218.681595,152.186996,215.264587,146.499512z"/>
	<rect x="364.535187" y="78.29641" fill="#FFFFFF" width="10.7627" height="32.764099"/>
	<rect x="364.535187" y="151.880905" fill="#FFFFFF" width="10.7627" height="32.766598"/>
	<rect x="364.535187" y="225.464798" fill="#FFFFFF" width="10.7627" height="32.766598"/>
	<rect x="364.535187" y="299.046906" fill="#FFFFFF" width="10.7627" height="32.766598"/>
	<rect x="250.468796" y="78.29641" fill="#FFFFFF" width="10.7626" height="32.764099"/>
	<rect x="250.468796" y="151.880905" fill="#FFFFFF" width="10.7626" height="32.766598"/>
	<rect x="250.468796" y="225.464798" fill="#FFFFFF" width="10.7626" height="32.766598"/>
	<rect x="250.468796" y="299.046906" fill="#FFFFFF" width="10.7626" height="32.766598"/>
	<rect x="136.408203" y="78.29641" fill="#FFFFFF" width="10.7651" height="32.764099"/>
	<rect x="136.408203" y="151.880905" fill="#FFFFFF" width="10.7651" height="32.766598"/>
	<rect x="136.408203" y="225.464798" fill="#FFFFFF" width="10.7651" height="32.766598"/>
	<rect x="136.408203" y="299.046906" fill="#FFFFFF" width="10.7651" height="32.766598"/>
	<rect x="22.3389" y="78.29641" fill="#FFFFFF" width="10.7656" height="32.764099"/>
	<rect x="22.3389" y="151.880905" fill="#FFFFFF" width="10.7656" height="32.766598"/>
	<rect x="22.3389" y="225.464798" fill="#FFFFFF" width="10.7656" height="32.766598"/>
	<rect x="22.3389" y="299.046906" fill="#FFFFFF" width="10.7656" height="32.766598"/>
	<path fill="#FFFFFF" d="M125.211899,146.499512c-2.1455-3.576599-10.334503-17.245605-16.1147-26.896004
		c-3.412102-5.695297-4.755898-8.324699-5.985397-8.324699c-1.229507,0-2.603004,2.680191-6.046898,8.425797
		c-5.777802,9.645004-13.913506,23.2314-16.050705,26.794907c-3.411697,5.687485,0.649399,8.934097,6.661598,4.548401
		c2.211403-1.615799,4.8862-3.491699,7.385201-5.224701v84.42189c-0.026794,5.002899-0.508301,7.664108-6.254395,3.586899l0,0
		c-5.878906-4.066391-13.783203-6.354492-13.783203-6.354492c7.334999-10.156204-1.2295-12.050705-6.917-8.633804
		c-3.576599,2.139694-8.218201,4.928802-17.868099,10.709c-5.695301,3.407303-8.324699,4.748108-8.324699,5.983398
		c0,1.223709,2.679699,2.596695,8.4258,6.045898c9.645,5.781296,14.203598,8.495102,17.766998,10.634796
		c5.6875,3.417999,13.613304,2.214813,6.914604-8.632797c0,0,20.029297,2.033203,20.029297,18.533218
		c0,0.075195,0.010696,0.127899,0.010696,0.202087v25.1875h16.106499V145.826202
		c2.496605,1.732407,5.168404,3.608902,7.380402,5.22171C124.559593,155.433609,128.623489,152.186996,125.211899,146.499512z"/>
	<path fill="#FFFFFF" d="M345.927704,173.110413c-9.645508-5.777908-23.228516-13.913605-26.794922-16.050812
		c-5.684601-3.411697-8.93158,0.649399-4.545898,6.661606c1.607422,2.211395,3.492218,4.8862,5.216797,7.385193h-16.213898
		c-13.753876,0-24.910095,11.156799-24.910095,24.916107v91.484299h16.106415v-78.0849
		c0-13.753403,6.685577-20.431198,20.450195-20.431198h3.321289c-1.362305,1.948288-2.735291,3.907196-3.970703,5.6026
		c-4.385681,6.011688-1.138702,10.072693,4.545898,6.666504c3.577209-2.147507,17.245117-10.336502,26.890594-16.117203
		c5.695404-3.411606,8.32431-4.755905,8.32431-5.985397C354.347687,177.927704,351.675781,176.554199,345.927704,173.110413z"/>
</g>
</svg>
