<svg class="svgOrigin" xmlns="http://www.w3.org/2000/svg" width="400" height="400" x="0px" y="0px" viewBox="0 0 400 400" enable-background="new 0 0 400 400">
<g>
	<circle fill="#FF0000" cx="200" cy="200" r="196.5"/>
	<circle fill="none" stroke="#FFFFFF" stroke-width="5.61429" cx="200.000244" cy="200" r="188.07872"/>
	<path fill="#FFFFFF" d="M70.921402,200c0,71.287109,57.789993,129.073212,129.078598,129.073212
		c30.592789,0,58.676788-10.658203,80.793884-28.432617L99.3647,119.207001
		C81.584999,141.324203,70.921402,169.406204,70.921402,200z"/>
	<path fill="#FFFFFF" d="M329.084015,200c0-71.292007-57.796936-129.084991-129.084015-129.084991
		c-30.585403,0-58.670898,10.663605-80.787605,28.444405l181.428192,181.421783
		C318.415009,258.665009,329.084015,230.582993,329.084015,200z"/>
	<path fill="none" stroke="#0334A6" stroke-width="8.42143" d="M313.766602,220.751999
		c0,22.315399-18.083008,40.408218-40.408203,40.408218c-22.314499,0-40.407211-18.092819-40.407211-40.408218
		c0-22.314499,18.092712-40.407791,40.407211-40.407791C295.683594,180.344208,313.766602,198.4375,313.766602,220.751999z"/>
	<path fill="none" stroke="#0334A6" stroke-width="8.42143" d="M168.252396,220.751999
		c0,22.315399-18.089798,40.408218-40.407196,40.408218s-40.408203-18.092819-40.408203-40.408218
		c0-22.314499,18.090797-40.407791,40.408203-40.407791S168.252396,198.4375,168.252396,220.751999z"/>
	<path fill="#0334A6" d="M138.020493,220.751999c0,5.61911-4.555695,10.176712-10.175293,10.176712
		c-5.620102,0-10.175804-4.557602-10.175804-10.176712c0-5.619202,4.555702-10.175797,10.175804-10.175797
		C133.464798,210.576202,138.020493,215.132797,138.020493,220.751999z"/>
	<path fill="none" stroke="#0334A6" stroke-width="5.61429" stroke-linecap="round" stroke-linejoin="round" d="
		M273.358398,220.751999c0,0-39.891602-66.20369-39.891602-75.58989c0-9.386703,5.34079-6.311005,5.34079-14.408707
		c0-4.857399-14.245087-13.602997-22.336899-13.602997c-8.104492,0-11.338898,7.451202-11.338898,7.451202"/>
	<polyline fill="none" stroke="#0334A6" stroke-width="5.61429" stroke-linecap="round" stroke-linejoin="round" points="
		242.447296,166.319305 197.5215,221.414993 127.8452,220.751999 160.444794,151.477997 237.413101,156.204102 	"/>
	
		<line fill="none" stroke="#0334A6" stroke-width="5.61429" stroke-linecap="round" stroke-linejoin="round" x1="156.025894" y1="138.851105" x2="197.5215" y2="221.414993"/>
	<path fill="none" stroke="#0334A6" stroke-width="5.61429" stroke-linecap="round" stroke-linejoin="round" d="
		M186.350601,246.027298c8.416489,0,11.332993-4.857391,11.332993-4.857391s0-41.964798,0-46.954102
		c0-4.046402,6.474594-3.695297,6.474594-3.695297"/>
	<path fill="none" stroke="#0334A6" stroke-width="10.0716" stroke-linecap="round" stroke-linejoin="round" d="
		M212.917999,218.685501c0,6.885803-5.5811,12.466797-12.465408,12.466797c-6.884201,0-12.465302-5.580994-12.465302-12.466797
		c0-6.880798,5.5811-12.461899,12.465302-12.461899C207.336899,206.223602,212.917999,211.804703,212.917999,218.685501z"/>
	<path fill="#0334A6" d="M176.6138,136.981903c0,2.1875-6.0728,2.68071-10.628006,4.956604
		c-4.556595,2.275406-2.042892,3.804199-2.979904,5.433594c-0.803787,1.386703-1.584488,1.221603-2.277893,1.221603
		c-5.381805,0-18.971207-8.574203-18.971207-11.847595c0-3.273407,13.802811-1.639206,18.948807-1.403305
		C165.851593,135.578613,176.6138,134.174805,176.6138,136.981903z"/>
</g>
</svg>
