<svg class="svgOrigin" xmlns="http://www.w3.org/2000/svg" width="400" height="400" x="0px" y="0px" viewBox="0 0 400 400" enable-background="new 0 0 400 400">
<g>
	<circle fill="#FF0000" cx="200" cy="200" r="196.517578"/>
	<path fill="none" stroke="#FFFFFF" stroke-width="11.171" d="M311.600586,191.53421c0,5.792892,0,29.406189,0,33.414993
		c0,4.008789-2.225586,4.897507-6.240204,4.897507c-4.008789,0-207.216385,0-211.225586,0
		c-5.012703,0-5.290604-0.637711-5.290604-9.354507c0-7.127899,0-28.957993,0-33.856003
		c0-4.903793,24.057198-24.059998,31.186096-24.059998s165.732391,0,171.519501,0
		C297.342804,162.576202,311.600586,182.632813,311.600586,191.53421z"/>
	<circle fill="none" stroke="#FFFFFF" stroke-width="5.61481" cx="200" cy="200" r="188.095703"/>
	<path fill="#FFFFFF" d="M70.909203,200c0,71.291992,57.793892,129.082001,129.09079,129.082001
		c30.589798,0,58.674805-10.658203,80.793884-28.433594L99.355003,119.201706
		C81.573196,141.319305,70.909203,169.405304,70.909203,200z"/>
	<path fill="#FFFFFF" d="M329.087891,200c0-71.29689-57.790985-129.093781-129.087891-129.093781
		c-30.589401,0-58.677704,10.664093-80.795906,28.445892l181.444305,181.436005
		C318.429688,258.669891,329.087891,230.584,329.087891,200z"/>
	<path fill="#0334A6" d="M311.600586,191.53421c0,5.792892,0,29.406189,0,33.414993c0,4.008789-2.225586,4.897507-6.240204,4.897507
		c-4.008789,0-207.216385,0-211.225586,0c-5.012703,0-5.290604-0.637711-5.290604-9.354507c0-7.127899,0-28.957993,0-33.856003
		c0-4.903793,24.057198-24.059998,31.186096-24.059998s165.732391,0,171.519501,0
		C297.342804,162.576202,311.600586,182.632813,311.600586,191.53421z"/>
	<path fill="#FFFFFF" d="M153.627899,184.377899c0,0.556702-0.452606,1.009308-1.006302,1.009308h-20.473694
		c-0.553711,0-1.009201-0.452606-1.009201-1.009308v-12.332993c0-0.550308,0.45549-1.003403,1.009201-1.003403h20.473694
		c0.553696,0,1.006302,0.453094,1.006302,1.003403V184.377899z"/>
	<path fill="#FFFFFF" d="M123.955093,184.377899c0,0.556702-0.452698,1.009308-1.006393,1.009308h-20.474106
		c-0.5532,0-1.008293-0.452606-1.008293-1.009308v-2.606903c0-0.556595,0.370094-1.270996,0.823296-1.587387l12.125404-8.564011
		c0.453194-0.316391,1.276398-0.578094,1.830093-0.578094h6.703606c0.553696,0,1.006393,0.453094,1.006393,1.003403V184.377899z"/>
	<path fill="#FFFFFF" d="M281.982391,184.377899c0,0.556702,0.453094,1.009308,1.003906,1.009308h15.507782
		c0.549805,0,1.00882-0.452606,1.00882-1.009308v-2.606903c0-0.556595-0.305603-1.341797-0.676697-1.75679l-7.452209-8.225098
		c-0.36911-0.414597-1.127899-0.747604-1.679688-0.747604h-6.708008c-0.550812,0-1.003906,0.453094-1.003906,1.003403V184.377899z"
		/>
	<path fill="#FFFFFF" d="M183.298294,184.377899c0,0.556702-0.452606,1.009308-1.006287,1.009308h-20.474106
		c-0.553299,0-1.009308-0.452606-1.009308-1.009308v-12.332993c0-0.550308,0.456009-1.003403,1.009308-1.003403h20.474106
		c0.55368,0,1.006287,0.453094,1.006287,1.003403V184.377899z"/>
	<path fill="#FFFFFF" d="M212.970688,184.377899c0,0.556702-0.457993,1.009308-1.003891,1.009308h-20.475601
		c-0.553696,0-1.009308-0.452606-1.009308-1.009308v-12.332993c0-0.550308,0.455612-1.003403,1.009308-1.003403h20.475601
		c0.545898,0,1.003891,0.453094,1.003891,1.003403V184.377899z"/>
	<path fill="#FFFFFF" d="M242.6436,184.377899c0,0.556702-0.458099,1.009308-1.008804,1.009308h-20.470703
		c-0.556702,0-1.014694-0.452606-1.014694-1.009308v-12.332993c0-0.550308,0.457993-1.003403,1.014694-1.003403h20.470703
		c0.550705,0,1.008804,0.453094,1.008804,1.003403V184.377899z"/>
	<path fill="#FFFFFF" d="M272.317383,184.377899c0,0.556702-0.457977,1.009308-1.014679,1.009308h-20.466812
		c-0.554596,0-1.013596-0.452606-1.013596-1.009308v-12.332993c0-0.550308,0.459-1.003403,1.013596-1.003403h20.466812
		c0.556702,0,1.014679,0.453094,1.014679,1.003403V184.377899z"/>
	<path fill="none" stroke="#FFFFFF" stroke-width="5.58549" d="M294.227478,229.84671
		c0,6.889587-5.5849,12.480392-12.474579,12.480392c-6.894501,0-12.479492-5.590805-12.479492-12.480392
		c0-6.887711,5.584991-12.479507,12.479492-12.479507C288.642578,217.367203,294.227478,222.959,294.227478,229.84671z"/>
	<path fill="none" stroke="#FFFFFF" stroke-width="5.58549" d="M162.799789,229.84671
		c0,6.889587-5.588394,12.480392-12.480499,12.480392c-6.888596,0-12.47699-5.590805-12.47699-12.480392
		c0-6.887711,5.588394-12.479507,12.47699-12.479507C157.211395,217.367203,162.799789,222.959,162.799789,229.84671z"/>
	<path fill="#0334A6" d="M294.227478,229.84671c0,6.889587-5.5849,12.480392-12.474579,12.480392
		c-6.894501,0-12.479492-5.590805-12.479492-12.480392c0-6.887711,5.584991-12.479507,12.479492-12.479507
		C288.642578,217.367203,294.227478,222.959,294.227478,229.84671z"/>
	<path fill="#0334A6" d="M162.799789,229.84671c0,6.889587-5.588394,12.480392-12.480499,12.480392
		c-6.888596,0-12.47699-5.590805-12.47699-12.480392c0-6.887711,5.588394-12.479507,12.47699-12.479507
		C157.211395,217.367203,162.799789,222.959,162.799789,229.84671z"/>
</g>
</svg>
