<svg class="svgOrigin" xmlns="http://www.w3.org/2000/svg" width="400" height="400" x="0px" y="0px" viewBox="0 0 400 400" enable-background="new 0 0 400 400">
<g>
	<circle fill="#FF0000" cx="200.416992" cy="200.217804" r="194.999985"/>
	<path fill="none" stroke="#FFFFFF" stroke-width="11.1429" d="M200.653793,241.30661c-7.168396,0-34.80809,0-39.927704,0
		c-5.120087,0-5.120087-3.318314-9.214386-3.318314c-4.094208,0-11.773911-0.685593-11.773911,1.876907
		c0,2.557693,0,9.119202,0,16.801788c0,3.873016-5.574203,8.889618-11.518097,8.889618c-7.5327,0-12.0298-5.848602-12.0298-8.889618
		c0-6.143585,0-14.336884,0-19.456985c0-5.120209-10.236801-5.120209-10.236801-11.262695c0-6.142609,0-22.955109,0-32.683105
		c0-9.728104,13.308105-18.506897,18.939499-24.138199c5.631302-5.631409,0-17.405304,10.236801-36.344803
		c10.237305-18.939896,33.785202-18.428207,65.524399-18.428207c31.7388,0,55.286606-0.511688,65.526901,18.428207
		c10.234314,18.939499,4.602509,30.713394,10.234314,36.344803c5.63089,5.631302,18.939484,14.410095,18.939484,24.138199
		c0,9.727997,0,26.540497,0,32.683105c0,6.142487-10.240204,6.142487-10.240204,11.262695c0,5.120102,0,13.3134,0,19.456985
		c0,3.041016-4.494202,8.889618-12.023499,8.889618c-5.947205,0-11.524384-5.016602-11.524384-8.889618
		c0-7.682587,0-14.244095,0-16.801788c0-2.5625-7.676819-1.876907-11.773407-1.876907
		c-4.091812,0-4.091812,3.318314-9.211899,3.318314C235.461899,241.30661,207.822296,241.30661,200.653793,241.30661z"/>
	
		<ellipse transform="matrix(0.707107 -0.707107 0.707107 0.707107 -82.874535 200.358536)" fill="none" stroke="#FFFFFF" stroke-width="5.57143" cx="200.41687" cy="200.217682" rx="186.642776" ry="186.642914"/>
	<path fill="#FFFFFF" d="M72.323196,200.217804c0,70.747009,57.349197,128.093689,128.093811,128.093689
		c30.354492,0,58.22258-10.577087,80.170883-28.22168L100.550301,120.041504
		C82.9058,141.992706,72.323196,169.863312,72.323196,200.217804z"/>
	<path fill="#FFFFFF" d="M328.510681,200.217804c0-70.74469-57.346588-128.093811-128.093674-128.093811
		c-30.351608,0-58.222717,10.579605-80.170914,28.22171l180.042999,180.042999
		C317.933594,258.440399,328.510681,230.572311,328.510681,200.217804z"/>
	<path fill="#0334A6" d="M200.653793,241.30661c-7.168396,0-34.80809,0-39.927704,0
		c-5.120087,0-5.120087-3.318314-9.214386-3.318314c-4.094208,0-11.773911-0.685593-11.773911,1.876907
		c0,2.557693,0,9.119202,0,16.801788c0,3.873016-5.574203,8.889618-11.518097,8.889618c-7.5327,0-12.0298-5.848602-12.0298-8.889618
		c0-6.143585,0-14.336884,0-19.456985c0-5.120209-10.236801-5.120209-10.236801-11.262695c0-6.142609,0-22.955109,0-32.683105
		c0-9.728104,13.308105-18.506897,18.939499-24.138199c5.631302-5.631409,0-17.405304,10.236801-36.344803
		c10.237305-18.939896,33.785202-18.428207,65.524399-18.428207c31.7388,0,55.286606-0.511688,65.526901,18.428207
		c10.234314,18.939499,4.602509,30.713394,10.234314,36.344803c5.63089,5.631302,18.939484,14.410095,18.939484,24.138199
		c0,9.727997,0,26.540497,0,32.683105c0,6.142487-10.240204,6.142487-10.240204,11.262695c0,5.120102,0,13.3134,0,19.456985
		c0,3.041016-4.494202,8.889618-12.023499,8.889618c-5.947205,0-11.524384-5.016602-11.524384-8.889618
		c0-7.682587,0-14.244095,0-16.801788c0-2.5625-7.676819-1.876907-11.773407-1.876907
		c-4.091812,0-4.091812,3.318314-9.211899,3.318314C235.461899,241.30661,207.822296,241.30661,200.653793,241.30661z"/>
	<path fill="#FFFFFF" d="M221.2715,126.836906c10.424789,0,22.318298,1.686501,30.142593,7.603493
		c5.77829,4.366211,7.889587,9.858902,7.889587,12.957504c0,3.098709,1.40332,10.421906-3.95018,10.421906
		c-5.348602,0-42.814407,0-45.91011,0c-3.101593,0-3.944397-5.914001-3.944397-14.6465
		C205.498993,134.440399,206.908188,126.836906,221.2715,126.836906z"/>
	<path fill="#FFFFFF" d="M283.243195,191.060501c0,5.446304-4.417999,9.858902-9.859406,9.858902
		c-5.440399,0-9.858398-4.412598-9.858398-9.858902c0-5.446198,4.417999-9.858398,9.858398-9.858398
		C278.825195,181.202103,283.243195,185.614304,283.243195,191.060501z"/>
	<path fill="#FFFFFF" d="M241.479492,174.006302c-0.185593-0.753403,0.271515-1.50679,1.022507-1.689392l0,0
		c5.473602-1.34671,14.428696-1.792511,14.47258-1.803711l0,0c0.767609-0.035202,1.415009,0.546906,1.463928,1.325211l0,0
		c0.038086,0.764099-0.560608,1.41449-1.322327,1.460892l0,0c-0.010681,0-8.95018,0.4785-13.95018,1.721695l0,0
		c-0.109406,0.027313-0.217804,0.041-0.327103,0.041l0,0C242.207993,175.061996,241.63179,174.637711,241.479492,174.006302
		L241.479492,174.006302z"/>
	<path fill="#FFFFFF" d="M180.0327,126.836906c-10.424301,0-22.313004,1.686501-30.139603,7.603493
		c-5.775406,4.366211-7.886307,9.858902-7.886307,12.957504c0,3.098709-1.406693,10.421906,3.944412,10.421906
		c5.350998,0,42.816895,0,45.915497,0s3.941895-5.914001,3.941895-14.6465
		C195.808594,134.440399,194.3965,126.836906,180.0327,126.836906z"/>
	<path fill="#FFFFFF" d="M118.064499,191.060501c0,5.446304,4.415001,9.858902,9.858795,9.858902
		c5.443405,0,9.858398-4.412598,9.858398-9.858902c0-5.446198-4.414993-9.858398-9.858398-9.858398
		C122.4795,181.202103,118.064499,185.614304,118.064499,191.060501z"/>
	<path fill="#FFFFFF" d="M270.848602,222.612305H130.4561c-2.7994,0-5.068405,2.2686-5.068405,5.065399
		c0,2.801804,2.269005,5.071289,5.068405,5.071289h140.392502c2.801788,0,5.071289-2.269485,5.071289-5.071289
		C275.919891,224.880905,273.650391,222.612305,270.848602,222.612305z"/>
	<path fill="#FFFFFF" d="M200.653793,211.061508c-21.684601,0-21.744598-2.53511-21.744598-4.788101
		c0-2.257797,0-12.9599,0-21.692795c0-8.732513,13.286606-13.520508,21.744598-13.520508
		c8.457504,0,21.744598,4.787994,21.744598,13.520508c0,8.732895,0,19.434998,0,21.692795
		C222.398392,208.526398,222.337891,211.061508,200.653793,211.061508z"/>
	<path fill="#FFFFFF" d="M158.13089,175.026413c-4.997589-1.24321-13.934097-1.73291-13.9478-1.73291l0,0
		c-0.764587-0.035202-1.357391-0.696304-1.322296-1.46051l0,0c0.043503-0.767593,0.696808-1.360291,1.471695-1.32518l0,0
		c0.046402,0.011185,8.994202,0.468292,14.472702,1.814499l0,0c0.740204,0.182602,1.197205,0.935989,1.015106,1.678696l0,0
		c-0.155304,0.639099-0.731903,1.066391-1.357895,1.066391l0,0C158.354004,175.067398,158.242203,175.053711,158.13089,175.026413
		L158.13089,175.026413z"/>
</g>
</svg>
