<svg class="svgOrigin" xmlns="http://www.w3.org/2000/svg" width="400" height="400" x="0px" y="0px" viewBox="0 0 400 400" enable-background="new 0 0 400 400">
<g>
	<circle fill="#FF0000" cx="200" cy="200" r="197"/>
	
		<ellipse transform="matrix(0.707107 -0.707107 0.707107 0.707107 -82.842842 199.999954)" fill="none" stroke="#FFFFFF" stroke-width="5.62857" cx="199.999878" cy="200.000122" rx="188.557281" ry="188.557159"/>
	<path fill="#FFFFFF" d="M300.896484,280.987305C318.716797,258.814514,329.413086,230.660202,329.413086,200
		c0-71.472687-57.945282-129.413086-129.413086-129.413086c-30.663101,0-58.819809,10.690903-80.993202,28.516602
		l41.101097,41.101097c-10.119095,2.1138-19.397491,6.442398-27.416992,12.378387l-33.582001-33.581482
		C81.283203,141.174805,70.5923,169.328613,70.5923,200c0,71.467804,57.9375,129.402313,129.4077,129.402313
		c30.670898,0,58.825195-10.685516,80.998993-28.505798l-49.701096-49.700211
		c5.936493-8.025406,10.267502-17.303696,12.378891-27.428696L300.896484,280.987305z"/>
	<path fill="#0334A6" d="M195.951691,209.123993c0,11.565506-9.374588,20.942413-20.942398,20.942413
		c-11.565002,0-20.941895-9.376907-20.941895-20.942413c0-11.564392,9.376892-20.941895,20.941895-20.941895
		C186.577103,188.182098,195.951691,197.559601,195.951691,209.123993z"/>
	<path fill="#0334A6" d="M314.946289,153.006302c-1.165985-2.888092-4.441406-4.287094-7.322296-3.130295l-5.90329,2.369095
		l-6.277313-15.645996c-1.154297-2.893997-4.429688-4.290497-7.321289-3.133301
		c-2.890717,1.154297-4.287109,4.438507-3.132813,7.321808l6.287994,15.648895l-58.770493,23.566895
		c-10.717697-21.14299-32.594696-35.664993-57.914993-35.664993c-35.876999,0-64.954102,29.077103-64.967796,64.956497
		c0.002998,6.5625,0.997597,12.889694,2.808594,18.864304l-21.103996,8.464783
		c-2.877899,1.149414-4.276794,4.424805-3.119598,7.316406c0.874001,2.198303,2.984802,3.528305,5.216301,3.528305
		c0.700699,0.005905,1.410103-0.1259,2.099602-0.400299l21.143097-8.481506
		c10.715797,21.145493,32.597595,35.662094,57.923798,35.662094c35.873993,0,64.951202-29.077087,64.961899-64.954086
		c-0.010696-6.563507-1-12.892609-2.814407-18.8647l63.9375-25.641602c0-0.003006,0-0.003006,0-0.003006
		s0.010712-0.002396,0.010712-0.005295l11.125-4.460495C314.704102,159.162613,316.100586,155.883804,314.946289,153.006302z
		 M222.030289,184.207993L192.0298,196.237808l19.722198-25.611801
		C215.852493,174.56691,219.336899,179.137711,222.030289,184.207993z M163.408691,261.798798
		c-6.826691-1.455994-13.178192-4.188385-18.773895-7.964798l22.704102-26.894501L163.408691,261.798798z M178.054703,232.320297
		l11.207489,28.577194c-4.666504,1.330017-9.572296,2.093719-14.662094,2.105408L178.054703,232.320297z M183.243195,189.201706
		l4.122498-31.998596c5.560104,1.365692,10.768097,3.584,15.495605,6.52739L183.243195,189.201706z M176.213394,155.674805
		l-3.987793,30.996094l-11.480011-29.192902c4.424805-1.184494,9.050308-1.879898,13.846207-1.888184
		C175.138702,155.589813,175.6689,155.658707,176.213394,155.674805z M150.230499,161.50441l11.914001,30.283691
		l-25.664001-20.27739C140.476593,167.479004,145.126999,164.112305,150.230499,161.50441z M153.767593,199.522003
		l-30.602592-5.592804c1.456596-4.870087,3.597694-9.435089,6.288094-13.615204L153.767593,199.522003z M120.889198,209.294907
		c0.002899-1.451202,0.107399-2.875,0.222595-4.292908l33.719307,6.156204l-31.853104,12.774399
		C121.656296,219.2715,120.897499,214.378906,120.889198,209.294907z M127.149895,234.386703l28.99511-11.630798
		L136.0327,246.589798C132.531296,242.967804,129.530304,238.872101,127.149895,234.386703z M199.7061,256.719696
		l-12.510803-31.929703l27.700195,19.865311C210.619095,249.536102,205.488297,253.647507,199.7061,256.719696z
		 M194.04689,215.852509l33.501907,1.913101c-1.0224,6.342789-3.099609,12.317383-6.123001,17.709991L194.04689,215.852509z
		 M228.142593,206.524399l-27.595703-1.577087l25.650406-10.2901
		C227.274399,198.457993,227.922897,202.429703,228.142593,206.524399z"/>
</g>
</svg>
