<?xml version="1.0" encoding="UTF-8" standalone="no"?>
<!DOCTYPE svg PUBLIC "-//W3C//DTD SVG 1.1//EN" "http://www.w3.org/Graphics/SVG/1.1/DTD/svg11.dtd">
<!-- Created with Vectornator (http://vectornator.io/) -->
<svg height="400.0pt" stroke-miterlimit="10" style="fill-rule:nonzero;clip-rule:evenodd;stroke-linecap:round;stroke-linejoin:round;" version="1.1" viewBox="0 0 400 400" width="400.0pt" xml:space="preserve" xmlns="http://www.w3.org/2000/svg" xmlns:xlink="http://www.w3.org/1999/xlink">
<defs/>
<g id="名称未設定">
<g opacity="1">
<path d="M3 200C3 91.1999 91.1999 3 200 3C308.8 3 397 91.1999 397 200C397 308.8 308.8 397 200 397C91.1999 397 3 308.8 3 200Z" fill="#ff0000" fill-rule="nonzero" opacity="1" stroke="none"/>
<path d="M282.66 242.826C282.66 247.113 282.66 264.591 282.66 267.558C282.66 270.525 281.012 271.183 278.041 271.183C275.074 271.183 124.669 271.183 121.701 271.183C117.991 271.183 117.785 270.711 117.785 264.259C117.785 258.983 117.785 242.826 117.785 239.2C117.785 235.571 135.591 221.392 140.868 221.392C146.144 221.392 263.535 221.392 267.819 221.392C272.107 221.392 282.66 236.237 282.66 242.826Z" fill="none" opacity="1" stroke="#ffffff" stroke-linecap="butt" stroke-linejoin="miter" stroke-width="11.171"/>
<path d="M267.642 173.396C265.989 172.364 262.542 169.98 262.542 167.487C262.542 164.695 262.542 162.613 262.542 160.247C262.542 158.594 249.976 151.668 249.976 150.906C249.976 150.143 249.976 145.568 249.976 145.568L249.976 141.6C249.976 138.809 247.716 136.545 244.924 136.545L230.826 136.545C228.038 136.545 225.774 134.281 225.774 131.489L225.774 124.471L225.774 119.658C225.774 116.866 223.51 114.602 220.723 114.602L132.542 114.602C129.75 114.602 127.488 116.866 127.488 119.658C127.488 119.658 127.488 155.334 127.488 162.927C127.488 170.521 130.181 170.994 135.562 170.994C140.943 170.994 141.907 179.068 146.039 179.068C146.944 179.068 152.419 179.068 160.418 179.068C160.418 184.116 164.508 188.206 169.556 188.206C174.604 188.206 178.694 184.116 178.694 179.068C200.19 179.068 226.747 179.068 240.457 179.068C240.457 184.116 244.548 188.206 249.595 188.206C254.643 188.206 258.733 184.116 258.733 179.068C258.733 178.471 258.666 177.896 258.558 177.332C261.08 177.332 264.838 177.332 266.609 177.332C269.405 177.332 269.302 174.428 267.642 173.396Z" fill="none" opacity="1" stroke="#ffffff" stroke-linecap="butt" stroke-linejoin="miter" stroke-width="11.2571"/>
<path d="M66.6699 333.33C-6.96628 259.694-6.96624 140.306 66.67 66.6699C140.306-6.96633 259.694-6.96637 333.33 66.6698C406.967 140.306 406.967 259.694 333.33 333.33C259.694 406.967 140.306 406.967 66.6699 333.33Z" fill="none" opacity="1" stroke="#ffffff" stroke-linecap="butt" stroke-linejoin="miter" stroke-width="5.62857"/>
<path d="M70.5923 200C70.5923 271.468 128.53 329.402 200 329.402C230.666 329.402 258.819 318.717 280.993 300.897L99.1089 119.002C81.2832 141.175 70.5923 169.329 70.5923 200Z" fill="#ffffff" fill-rule="nonzero" opacity="1" stroke="none"/>
<path d="M329.407 200C329.407 128.527 271.473 70.5869 200 70.5869C169.337 70.5869 141.18 81.2778 119.007 99.1035L300.896 280.987C318.722 258.815 329.407 230.66 329.407 200Z" fill="#ffffff" fill-rule="nonzero" opacity="1" stroke="none"/>
<path d="M267.642 173.396C265.989 172.364 262.542 169.98 262.542 167.487C262.542 164.695 262.542 162.613 262.542 160.247C262.542 158.594 249.976 151.668 249.976 150.906C249.976 150.143 249.976 145.568 249.976 145.568L249.976 141.6C249.976 138.809 247.716 136.545 244.924 136.545L230.826 136.545C228.038 136.545 225.774 134.281 225.774 131.489L225.774 124.471L225.774 119.658C225.774 116.866 223.51 114.602 220.723 114.602L132.542 114.602C129.75 114.602 127.488 116.866 127.488 119.658C127.488 119.658 127.488 155.334 127.488 162.927C127.488 170.521 130.181 170.994 135.562 170.994C140.943 170.994 141.907 179.068 146.039 179.068C146.944 179.068 152.419 179.068 160.418 179.068C160.418 184.116 164.508 188.206 169.556 188.206C174.604 188.206 178.694 184.116 178.694 179.068C200.19 179.068 226.747 179.068 240.457 179.068C240.457 184.116 244.548 188.206 249.595 188.206C254.643 188.206 258.733 184.116 258.733 179.068C258.733 178.471 258.666 177.896 258.558 177.332C261.08 177.332 264.838 177.332 266.609 177.332C269.405 177.332 269.302 174.428 267.642 173.396" fill="#0334a6" fill-rule="nonzero" opacity="1" stroke="none"/>
<path d="M245.465 148.642C245.465 149.762 244.548 150.675 243.431 150.675L239.639 150.675C238.523 150.675 237.605 149.762 237.605 148.642L237.605 142.085C237.605 140.965 238.523 140.052 239.639 140.052L243.431 140.052C244.548 140.052 245.465 140.965 245.465 142.085L245.465 148.642Z" fill="#ffffff" fill-rule="nonzero" opacity="1" stroke="none"/>
<path d="M233.245 147.443C233.245 147.983 232.804 148.427 232.26 148.427L231.033 148.427C230.492 148.427 230.048 147.983 230.048 147.443L230.048 143.284C230.048 142.744 230.492 142.3 231.033 142.3L232.26 142.3C232.804 142.3 233.245 142.744 233.245 143.284L233.245 147.443Z" fill="#ffffff" fill-rule="nonzero" opacity="1" stroke="none"/>
<path d="M282.66 242.826C282.66 247.113 282.66 264.591 282.66 267.558C282.66 270.525 281.012 271.183 278.041 271.183C275.074 271.183 124.669 271.183 121.701 271.183C117.991 271.183 117.785 270.711 117.785 264.259C117.785 258.983 117.785 242.826 117.785 239.2C117.785 235.571 135.591 221.392 140.868 221.392C146.144 221.392 263.535 221.392 267.819 221.392C272.107 221.392 282.66 236.237 282.66 242.826Z" fill="#0334a6" fill-rule="nonzero" opacity="1" stroke="none"/>
<path d="M165.735 237.529C165.735 237.941 165.4 238.276 164.99 238.276L149.837 238.276C149.427 238.276 149.09 237.941 149.09 237.529L149.09 228.401C149.09 227.993 149.427 227.658 149.837 227.658L164.99 227.658C165.4 227.658 165.735 227.993 165.735 228.401L165.735 237.529Z" fill="#ffffff" fill-rule="nonzero" opacity="1" stroke="none"/>
<path d="M143.773 237.529C143.773 237.941 143.438 238.276 143.028 238.276L127.874 238.276C127.464 238.276 127.128 237.941 127.128 237.529L127.128 235.599C127.128 235.187 127.401 234.659 127.737 234.425L136.712 228.086C137.047 227.852 137.656 227.658 138.066 227.658L143.028 227.658C143.438 227.658 143.773 227.993 143.773 228.401L143.773 237.529Z" fill="#ffffff" fill-rule="nonzero" opacity="1" stroke="none"/>
<path d="M260.737 237.529C260.737 237.941 261.073 238.276 261.481 238.276L272.959 238.276C273.366 238.276 273.705 237.941 273.705 237.529L273.705 235.599C273.705 235.187 273.479 234.606 273.205 234.299L267.689 228.211C267.416 227.904 266.854 227.658 266.445 227.658L261.481 227.658C261.073 227.658 260.737 227.993 260.737 228.401C260.737 228.401 260.737 237.529 260.737 237.529Z" fill="#ffffff" fill-rule="nonzero" opacity="1" stroke="none"/>
<path d="M187.696 237.529C187.696 237.941 187.361 238.276 186.951 238.276L171.797 238.276C171.388 238.276 171.05 237.941 171.05 237.529L171.05 228.401C171.05 227.993 171.388 227.658 171.797 227.658L186.951 227.658C187.361 227.658 187.696 227.993 187.696 228.401L187.696 237.529Z" fill="#ffffff" fill-rule="nonzero" opacity="1" stroke="none"/>
<path d="M209.658 237.529C209.658 237.941 209.319 238.276 208.915 238.276L193.76 238.276C193.35 238.276 193.013 237.941 193.013 237.529L193.013 228.401C193.013 227.993 193.35 227.658 193.76 227.658L208.915 227.658C209.319 227.658 209.658 227.993 209.658 228.401L209.658 237.529Z" fill="#ffffff" fill-rule="nonzero" opacity="1" stroke="none"/>
<path d="M231.621 237.529C231.621 237.941 231.282 238.276 230.874 238.276L215.722 238.276C215.31 238.276 214.971 237.941 214.971 237.529L214.971 228.401C214.971 227.993 215.31 227.658 215.722 227.658L230.874 227.658C231.282 227.658 231.621 227.993 231.621 228.401L231.621 237.529Z" fill="#ffffff" fill-rule="nonzero" opacity="1" stroke="none"/>
<path d="M253.584 237.529C253.584 237.941 253.245 238.276 252.833 238.276L237.684 238.276C237.274 238.276 236.934 237.941 236.934 237.529L236.934 228.401C236.934 227.993 237.274 227.658 237.684 227.658L252.833 227.658C253.245 227.658 253.584 227.993 253.584 228.401L253.584 237.529Z" fill="#ffffff" fill-rule="nonzero" opacity="1" stroke="none"/>
<path d="M269.801 271.183C269.801 276.282 265.667 280.42 260.568 280.42C255.465 280.42 251.331 276.282 251.331 271.183C251.331 266.085 255.465 261.946 260.568 261.946C265.667 261.946 269.801 266.085 269.801 271.183Z" fill="none" opacity="1" stroke="#ffffff" stroke-linecap="butt" stroke-linejoin="miter" stroke-width="5.58549"/>
<path d="M172.524 271.183C172.524 276.282 168.388 280.42 163.286 280.42C158.188 280.42 154.051 276.282 154.051 271.183C154.051 266.085 158.188 261.946 163.286 261.946C168.388 261.946 172.524 266.085 172.524 271.183Z" fill="none" opacity="1" stroke="#ffffff" stroke-linecap="butt" stroke-linejoin="miter" stroke-width="5.58549"/>
<path d="M269.801 271.183C269.801 276.282 265.667 280.42 260.568 280.42C255.465 280.42 251.331 276.282 251.331 271.183C251.331 266.085 255.465 261.946 260.568 261.946C265.667 261.946 269.801 266.085 269.801 271.183Z" fill="#0334a6" fill-rule="nonzero" opacity="1" stroke="none"/>
<path d="M172.524 271.183C172.524 276.282 168.388 280.42 163.286 280.42C158.188 280.42 154.051 276.282 154.051 271.183C154.051 266.085 158.188 261.946 163.286 261.946C168.388 261.946 172.524 266.085 172.524 271.183Z" fill="#0334a6" fill-rule="nonzero" opacity="1" stroke="none"/>
</g>
</g>
</svg>
