<svg class="svgOrigin" xmlns="http://www.w3.org/2000/svg" width="400" height="400" x="0px" y="0px" viewBox="0 0 400 400" enable-background="new 0 0 400 400">
<g>
	<circle fill="#FF0000" cx="200.045898" cy="200.434601" r="195.492172"/>
	<path fill="none" stroke="#FFFFFF" stroke-width="5.58549" d="M200.820297,172.158203
		c-8.209,0-31.4702-0.529297-35.918396-0.529297c-4.448303,0-6.679199,3.605499-6.679199,7.369095
		c0,3.763702-8.896011,3.076202-8.896011,0c0-3.076096,0-7.871002,0-10.265594c0-2.394501-7.184097-2.732407-7.184097-5.814407
		c0-3.082092,0-16.074692,0-22.920395c0-6.845291,3.253906-8.034195,8.8965-13.679695
		c5.643005-5.6455,7.865707-9.578606,7.865707-19.156799c0-9.57811,7.183594-14.710899,13.000992-14.710899
		c5.817307,0,17.2827,0,28.914505,0c11.634796,0,23.100601,0,28.9151,0c5.820297,0,13.003891,5.13279,13.003891,14.710899
		c0,9.578194,2.22551,13.511299,7.865204,19.156799c5.639587,5.6455,8.896515,6.834404,8.896515,13.679695
		c0,6.845703,0,19.838303,0,22.920395c0,3.082001-7.183609,3.419907-7.183609,5.814407c0,2.394592,0,7.189499,0,10.265594
		c0,3.076202-8.8965,3.763702-8.8965,0c0-3.763596-2.2314-7.369095-6.68161-7.369095
		C232.292999,171.628906,209.029297,172.158203,200.820297,172.158203z"/>
	
		<ellipse transform="matrix(0.707107 -0.707107 0.707107 0.707107 -83.136528 200.159821)" fill="none" stroke="#FFFFFF" stroke-width="5.58549" cx="200.046021" cy="200.434586" rx="187.114059" ry="187.11409"/>
	<path fill="#FFFFFF" d="M71.628899,200.434601c0,70.920898,57.49369,128.412109,128.416992,128.412109
		c30.430695,0,58.36911-10.604523,80.372986-28.288116L99.9272,120.05571
		C82.237801,142.059601,71.628899,169.998001,71.628899,200.434601z"/>
	<path fill="#FFFFFF" d="M328.462891,200.434601c0-70.925797-57.491211-128.422882-128.416992-128.422882
		c-30.428207,0-58.369598,10.609398-80.373001,28.298393l180.496994,180.492599
		C317.859406,258.798798,328.462891,230.860397,328.462891,200.434601z"/>
	<path fill="#0334A6" d="M200.820297,172.158203c-8.209,0-31.4702-0.529297-35.918396-0.529297
		c-4.448303,0-6.679199,3.605499-6.679199,7.369095c0,3.763702-8.896011,3.076202-8.896011,0c0-3.076096,0-7.871002,0-10.265594
		c0-2.394501-7.184097-2.732407-7.184097-5.814407c0-3.082092,0-16.074692,0-22.920395
		c0-6.845291,3.253906-8.034195,8.8965-13.679695c5.643005-5.6455,7.865707-9.578606,7.865707-19.156799
		c0-9.57811,7.183594-14.710899,13.000992-14.710899c5.817307,0,17.2827,0,28.914505,0c11.634796,0,23.100601,0,28.9151,0
		c5.820297,0,13.003891,5.13279,13.003891,14.710899c0,9.578194,2.22551,13.511299,7.865204,19.156799
		c5.639587,5.6455,8.896515,6.834404,8.896515,13.679695c0,6.845703,0,19.838303,0,22.920395
		c0,3.082001-7.183609,3.419907-7.183609,5.814407c0,2.394592,0,7.189499,0,10.265594c0,3.076202-8.8965,3.763702-8.8965,0
		c0-3.763596-2.2314-7.369095-6.68161-7.369095C232.292999,171.628906,209.029297,172.158203,200.820297,172.158203z"/>
	<g>
		<path fill="#FFFFFF" d="M236.526398,107.990204c1.7509,3.878502-0.049805,8.656303-0.049805,8.656303
			c-0.217804,0.578598-0.894592,1.047302-1.510803,1.047302h-25.308594c-0.617203,0-1.118103-0.501404-1.118103-1.118103v-13.3311
			c0-0.616196,0.5009-1.118095,1.118103-1.118095h20.291c0.616302,0,1.559601,0.240196,2.099701,0.529297
			C232.047897,102.655807,234.775391,104.112305,236.526398,107.990204z"/>
	</g>
	<path fill="#FFFFFF" d="M251.870087,142.556213c0,3.495987-2.830994,6.327087-6.327087,6.327087
		c-3.491211,0-6.328201-2.8311-6.328201-6.327087c0-3.496613,2.83699-6.327713,6.328201-6.327713
		C249.039093,136.2285,251.870087,139.059601,251.870087,142.556213z"/>
	<g>
		<path fill="#FFFFFF" d="M167.460388,107.990204c-1.750885,3.878502,0.048904,8.656303,0.048904,8.656303
			c0.215302,0.578598,0.894501,1.047302,1.510712,1.047302h25.309586c0.616211,0,1.11821-0.501404,1.11821-1.118103v-13.3311
			c0-0.616196-0.501999-1.118095-1.11821-1.118095h-20.291c-0.616699,0-1.560089,0.240196-2.103088,0.529297
			C171.935501,102.655807,169.210892,104.112305,167.460388,107.990204z"/>
	</g>
	<path fill="#FFFFFF" d="M200.820297,129.235809c-9.8452,0-16.5952,9.283691-16.5952,15.474594
		c0,6.19101,0.651398,9.801804,16.5952,9.801804c15.94429,0,16.598602-3.610794,16.598602-9.801804
		C217.4189,138.519501,210.666,129.235809,200.820297,129.235809z"/>
	<path fill="#FFFFFF" d="M149.770996,142.556213c0,3.495987,2.833496,6.327087,6.327103,6.327087
		c3.493698,0,6.327698-2.8311,6.327698-6.327087c0-3.496613-2.834-6.327713-6.327698-6.327713
		C152.604492,136.2285,149.770996,139.059601,149.770996,142.556213z"/>
	<path fill="#0334A6" d="M263.269501,275.113312c1.680695-5.050812-14.726501-17.0401-17.251907-18.092804
		c-2.526398-1.052704-6.104492-4.206009-6.104492-6.7314c0-2.525406-2.105515-6.103607-5.677704-11.781311
		c-3.573303-5.678696-10.522507-6.311493-13.467804-6.311493s-5.257797,5.465805-8.623093,5.465805
		c-3.366211,0-6.311508-2.520508-7.364212-3.152298c-1.052795-0.632813-5.470688-3.366211-5.470688-5.891602
		c0-2.525406-0.842804-8.209-2.735413-10.308609c-1.89299-2.100601-1.89299-3.9991-0.840286-4.210999
		c1.052689-0.212891,5.468185-1.893494,5.468185-7.784103c0-5.890701-2.5224-9.256393-7.153793-9.256393
		c-4.630798,0-8.203598,5.0513-8.203598,7.3638s0.840393,5.890594,0.840393,8.623993
		c0,2.732407-4.838394,3.370102-4.628494,6.736313c0.210007,3.365295-4.838303,14.514694-6.730896,17.672897
		c-1.892609,3.158188-1.895508,8.835892-0.422897,10.308594c1.473206,1.472595,3.788589,3.578094,3.788589,5.470703
		c0,1.893494,0.629898,5.045898-1.68309,5.045898c-2.3125,0-4.840805-1.472687-6.100601-1.472687
		c-1.260208,0-12.837402,0-14.940399,0c-2.1026,0-1.895508,4.210999,0,4.210999c1.895493,0,3.580994,2.105377,3.368103,3.578094
		c-0.119614,0.8349-0.643509,2.3349-1.077103,3.485291c-7.6035,2.056702-13.22171,8.940491-13.22171,17.198303
		c0,9.867188,7.993698,17.86911,17.869202,17.86911c7.175308,0,13.311996-4.249023,16.156204-10.341797
		c6.422897,0.082001,23.2798,0.338898,28.876495-0.021515c6.523407-0.419891,8.624008-12.8349,9.883804-14.307587
		c1.265594-1.472626,5.476501-1.472626,6.7314-1.472626c0.2285,0,0.6436-0.163086,1.036102-0.310577
		c-1.407196,2.557587-2.280197,5.454102-2.280197,8.584991c0,9.867188,7.991196,17.86911,17.869095,17.86911
		c9.873093,0,17.869186-8.001923,17.869186-17.86911c0-3.430695-1.014679-6.610413-2.688477-9.333008
		C259.615204,276.280304,262.969696,276.018616,263.269501,275.113312z M162.905792,298.960907
		c-7.560089-0.010712-13.669495-6.130798-13.680191-13.680603c0.010696-7.559601,6.120102-13.679688,13.680191-13.690491
		c5.986298,0.010803,11.007309,3.867188,12.875504,9.217804c-0.125504,0.96579-0.245697,1.668976-0.245697,1.668976
		s-11.571701,0-14.307098,0c-2.735809,0-2.315399,5.471619,0,5.471619c2.184601,0,12.515594,0,15.0952,0
		C175.06929,294.220703,169.5522,298.950195,162.905792,298.960907z M241.178696,298.960907
		c-7.559601-0.010712-13.6689-6.130798-13.690399-13.680603c0.010696-3.987305,1.745102-7.538086,4.461899-10.041992
		c0.555695,0.889587,1.112305,1.77829,1.690399,2.705994c2.923904,4.504883,5.825195,8.541992,5.835999,8.552795
		c0.415009,0.567413,1.052704,0.873016,1.702103,0.873016c0.425797,0,0.851593-0.126007,1.221695-0.393524
		c0.938507-0.675781,1.145508-1.985382,0.480499-2.922882c-0.010803-0.005798-1.603592-2.220703-3.600601-5.171906
		c-0.032288-3.631805,2.809509-6.092712,4.003906-6.293915c0.752899-0.125977,2.377899,0.092804,4.210892,0.622101
		c4.358414,2.290009,7.3526,6.80661,7.364304,12.070313C254.847687,292.830109,248.739288,298.950195,241.178696,298.960907z"/>
	<path fill="#FFFFFF" d="M212.1875,247.736298c0-2.59079-4.074203-6.2939-7.22171-6.2939
		c-3.150391,0-7.592789,2.41011-7.592789,4.630798c0,2.219803,4.63089,7.587006,7.592789,7.587006
		S212.1875,251.069305,212.1875,247.736298z"/>
	<path fill="#FFFFFF" d="M231.463898,253.736298c-1.483398,0-6.299805-4.074188-8.69931-4.074188
		c-2.411087,0-4.079987-2.219711-4.079987-4.074203c0-1.849609,0.370087-6.109406,5.743088-6.109406
		c5.367203,0,9.998108,5.923798,9.998108,8.514709C234.425797,250.589798,233.684601,253.736298,231.463898,253.736298z"/>
	<path fill="#FFFFFF" d="M221.935501,270.400391c0,2.040009-1.113205,4.816406-5.74411,4.816406
		c-4.63089,0-4.259796,10.925812-8.143494,10.925812c-3.889709,0-6.112396,0.550781-6.112396-3.15332
		c0-3.698303,4.9991-4.804688,4.9991-7.958099c0-3.1474,2.967697-7.401276,4.811493-7.401276
		c1.854507,0,4.080093-1.854523,6.664993-1.854523C221.007797,265.775391,221.935501,267.623993,221.935501,270.400391z"/>
	<path fill="#FFFFFF" d="M191.602097,286.497101c-2.593307,0-4.074295-2.219788-4.074295-4.440491
		c0-2.225494,2.964401-7.597595,5.184601-7.597595c2.219696,0,4.074188,2.039978,4.074188,6.299774
		C196.786591,285.018616,194.566895,286.497101,191.602097,286.497101z"/>
	<g>
		<path fill="#FFFFFF" d="M186.6548,161.177704c0,1.150909,2.514587,2.089401,5.585388,2.089401h17.160202
			c3.076202,0,5.585907-0.938492,5.585907-2.089401c0-1.145493-2.509705-2.083496-5.585907-2.083496h-17.160202
			C189.169388,159.094208,186.6548,160.032211,186.6548,161.177704z"/>
	</g>
</g>
</svg>
