<svg class="svgOrigin" xmlns="http://www.w3.org/2000/svg" width="400" height="400" x="0px" y="0px" viewBox="0 0 400 400" enable-background="new 0 0 400 400">
<g>
	<circle fill="#FF0000" cx="200" cy="200" r="197"/>
	
		<ellipse transform="matrix(0.707107 -0.707107 0.707107 0.707107 -82.842842 199.999954)" fill="none" stroke="#FFFFFF" stroke-width="5.62857" cx="199.999878" cy="200.000122" rx="188.557281" ry="188.557159"/>
	<path fill="#FFFFFF" d="M70.5923,200c0,71.467804,57.9375,129.402313,129.4077,129.402313
		c30.660187,0,58.814484-10.685516,80.987305-28.505798L99.108902,119.001511C81.283203,141.174805,70.5923,169.328613,70.5923,200z
		"/>
	<path fill="#FFFFFF" d="M329.402283,200c0-71.472687-57.934479-129.413086-129.402283-129.413086
		c-30.663101,0-58.819809,10.690903-80.993202,28.516602l181.889679,181.883789
		C318.716797,258.814514,329.402283,230.660202,329.402283,200z"/>
	<path fill="none" stroke="#FFFFFF" stroke-width="5.62857" d="M261.815399,206.156204
		c-4.045898,0-7.904312,0.796906-11.444305,2.198303c-3.199203-6.974609-4.221695-13.381409-4.221695-18.858398
		c0-6.596207,0-14.159698,0-17.325699s-4.044907-5.189011-13.542999-5.189011c-5.013611,0-5.013611,0-5.013611,0
		s-11.1026-10.53949-14.950195-14.686996c-4.573303-4.924789-7.248093-9.0224-7.248093-12.012695
		c0-2.990204,4.795898-2.880295,5.236389-5.6064c0.439407-2.726608,0.439407-2.726608,0.439407-2.726608s0-5.540497,0-6.771896
		c0-1.230995,3.418991,0.118103,3.418991-2.432198s-4.650391-8.706497-12.925797-8.706497
		c-8.272003,0-13.30719,4.691399-13.30719,12.958c0,8.267105,3.641586,7.137695,3.641586,10.391602
		c0,3.253891,0,3.253891,0,3.253891s-4.581497,1.011703-9.242599,8.047394
		c-4.661194,7.035614-13.631897,21.72261-13.631897,29.813416c0,8.091293,4.661209,8.530792,4.661209,11.697296
		c0,3.166-6.419998,3.517593-7.739304,3.517593c-1.318802,0-1.934601-2.638199-9.498001-2.638199
		c-7.563507,0-25.240799,0-28.231003,0c-2.990196,0-3.341797,2.462402-3.341797,4.661102c0,2.198792,3.166,2.286697,3.166,5.892609
		c0,1.357391,0,3.243195,0,5.056686c-14.505798,2.655212-25.504402,15.330002-25.515602,30.605408
		c0.0112,17.199203,13.9478,31.132797,31.149895,31.132797c15.220215,0,27.867706-10.932587,30.572311-25.377899
		c40.845688,0,41.634689,0,46.185501,0c5.485397,0,6.156296-4.249008,0.318405-7.425812
		c-3.847717-2.094696-11.122116-5.161087-11.122116-8.223587c0-3.066406,11.452209-24.355499,16.608398-24.355499
		c5.167007,0,14.840805,0,18.391602,0c1.175797,0,4.342804,4.183594,8.036102,9.723694
		c-7.288986,5.700104-11.994095,14.555603-12.004807,24.532196c0.010712,17.193314,13.950211,31.126907,31.155212,31.137711
		c17.182587-0.010803,31.132782-13.944397,31.132782-31.137711C292.948181,220.101608,278.997986,206.156204,261.815399,206.156204z
		 M133.674789,217.408203c6.727509,0.016602,12.645004,3.379898,16.239807,8.498001c-4.930695,0-11.312103,0-12.999603,0
		c-2.847595,0-10.680099,9.376999-13.881798,9.376999c-1.707001,0-5.683601,0-9.047798,0
		C115.024399,225.262711,123.382294,217.429703,133.674789,217.408203z M133.674789,257.175812
		c-8.965294-0.015594-16.446289-5.974609-18.938995-14.126007c14.951202,0,27.444901,0,37.8526,0
		C150.101593,251.201202,142.628403,257.160217,133.674789,257.175812z M261.815399,257.170898
		c-10.982407-0.010681-19.8759-8.904297-19.886703-19.870102c0.010803-5.986298,2.704102-11.279297,6.881805-14.923798
		c2.913086,4.727509,5.683594,9.388611,7.7061,12.8349c-0.252899,0.648499-0.417999,1.34671-0.417999,2.083008
		c0,3.160202,2.550781,5.716797,5.706085,5.716797c3.154327,0,5.71582-2.556595,5.71582-5.716797
		c0-3.155304-2.561493-5.710907-5.71582-5.710907c-0.055695,0-0.110382,0.038101-0.175781,0.038101
		c-2.506805-2.676804-5.342804-6.7276-7.266617-12.730499c2.308609-0.933609,4.814499-1.4785,7.45311-1.483398
		c10.97168,0.0215,19.853485,8.904297,19.876007,19.892593C281.668884,248.266602,272.787079,257.160217,261.815399,257.170898z"/>
	<path fill="none" stroke="#FFFFFF" stroke-width="5.62857" d="M223.316391,232.336899
		c-9.343689,0-18.858398-7.283188-18.858398-11.553696c0-4.265594,4.589905-8.443405,11.723602-8.443405
		c7.134796,0,13.577194,7.519608,14.742203,11.2686C232.3311,228.093704,231.979492,232.336899,223.316391,232.336899z"/>
	<path fill="#0334A6" d="M261.815399,206.156204c-4.045898,0-7.904312,0.796906-11.444305,2.198303
		c-3.199203-6.974609-4.221695-13.381409-4.221695-18.858398c0-6.596207,0-14.159698,0-17.325699
		s-4.044907-5.189011-13.542999-5.189011c-5.013611,0-5.013611,0-5.013611,0s-11.1026-10.53949-14.950195-14.686996
		c-4.573303-4.924789-7.248093-9.0224-7.248093-12.012695c0-2.990204,4.795898-2.880295,5.236389-5.6064
		c0.439407-2.726608,0.439407-2.726608,0.439407-2.726608s0-5.540497,0-6.771896c0-1.230995,3.418991,0.118103,3.418991-2.432198
		s-4.650391-8.706497-12.925797-8.706497c-8.272003,0-13.30719,4.691399-13.30719,12.958
		c0,8.267105,3.641586,7.137695,3.641586,10.391602c0,3.253891,0,3.253891,0,3.253891s-4.581497,1.011703-9.242599,8.047394
		c-4.661194,7.035614-13.631897,21.72261-13.631897,29.813416c0,8.091293,4.661209,8.530792,4.661209,11.697296
		c0,3.166-6.419998,3.517593-7.739304,3.517593c-1.318802,0-1.934601-2.638199-9.498001-2.638199
		c-7.563507,0-25.240799,0-28.231003,0c-2.990196,0-3.341797,2.462402-3.341797,4.661102c0,2.198792,3.166,2.286697,3.166,5.892609
		c0,1.357391,0,3.243195,0,5.056686c-14.505798,2.655212-25.504402,15.330002-25.515602,30.605408
		c0.0112,17.199203,13.9478,31.132797,31.149895,31.132797c15.220215,0,27.867706-10.932587,30.572311-25.377899
		c40.845688,0,41.634689,0,46.185501,0c5.485397,0,6.156296-4.249008,0.318405-7.425812
		c-3.847717-2.094696-11.122116-5.161087-11.122116-8.223587c0-3.066406,11.452209-24.355499,16.608398-24.355499
		c5.167007,0,14.840805,0,18.391602,0c1.175797,0,4.342804,4.183594,8.036102,9.723694
		c-7.288986,5.700104-11.994095,14.555603-12.004807,24.532196c0.010712,17.193314,13.950211,31.126907,31.155212,31.137711
		c17.182587-0.010803,31.132782-13.944397,31.132782-31.137711C292.948181,220.101608,278.997986,206.156204,261.815399,206.156204z
		 M133.674789,217.408203c6.727509,0.016602,12.645004,3.379898,16.239807,8.498001c-4.930695,0-11.312103,0-12.999603,0
		c-2.847595,0-10.680099,9.376999-13.881798,9.376999c-1.707001,0-5.683601,0-9.047798,0
		C115.024399,225.262711,123.382294,217.429703,133.674789,217.408203z M133.674789,257.175812
		c-8.965294-0.015594-16.446289-5.974609-18.938995-14.126007c14.951202,0,27.444901,0,37.8526,0
		C150.101593,251.201202,142.628403,257.160217,133.674789,257.175812z M261.815399,257.170898
		c-10.982407-0.010681-19.8759-8.904297-19.886703-19.870102c0.010803-5.986298,2.704102-11.279297,6.881805-14.923798
		c2.913086,4.727509,5.683594,9.388611,7.7061,12.8349c-0.252899,0.648499-0.417999,1.34671-0.417999,2.083008
		c0,3.160202,2.550781,5.716797,5.706085,5.716797c3.154327,0,5.71582-2.556595,5.71582-5.716797
		c0-3.155304-2.561493-5.710907-5.71582-5.710907c-0.055695,0-0.110382,0.038101-0.175781,0.038101
		c-2.506805-2.676804-5.342804-6.7276-7.266617-12.730499c2.308609-0.933609,4.814499-1.4785,7.45311-1.483398
		c10.97168,0.0215,19.853485,8.904297,19.876007,19.892593C281.668884,248.266602,272.787079,257.160217,261.815399,257.170898z"/>
	<path fill="#0334A6" d="M223.316391,232.336899c-9.343689,0-18.858398-7.283188-18.858398-11.553696
		c0-4.265594,4.589905-8.443405,11.723602-8.443405c7.134796,0,13.577194,7.519608,14.742203,11.2686
		C232.3311,228.093704,231.979492,232.336899,223.316391,232.336899z"/>
	<path fill="#0334A6" d="M215.555695,231.122101"/>
	<path fill="#FFFFFF" d="M189.817398,217.441406c0,3.979492-2.360901,5.452194-6.340302,5.452194
		c-3.979507,0-5.158707-2.946289-5.158707-4.567398c0-1.622101,2.949203-5.601593,7.810501-5.601593
		C187.750488,212.724609,189.817398,212.791,189.817398,217.441406z"/>
	<path fill="#FFFFFF" d="M225.449188,169.782211c2.452209,0,4.474609,0.288589,5.189499,0.288589
		c0.725601,0,1.451111,1.439911,1.451111,2.30571c0,0.865692,3.594803,2.4487,3.594803,4.611801
		s-1.011703,3.894501-5.903305,3.894501c-4.903397,0-8.223694,0-10.092804,0c-1.878891,0-4.473694,5.045898-10.23439,5.045898
		c-5.7686,0-15.860306-5.766098-15.860306-9.226105c0-3.460403,6.483292-11.969208,7.494095-13.986298
		c1.011703-2.017105,5.474609-3.894501,8.069305-0.865707C211.751999,164.87941,218.677689,169.782211,225.449188,169.782211z"/>
	<path fill="#0334A6" d="M249.139587,184.219208c0-2.462402,5.980499-7.123505,11.170013-7.123505
		c5.188385,0,6.419891,3.517609,6.419891,8.442902c0,4.924805-1.407196,8.090805-6.332001,8.090805
		C255.471695,193.62941,249.139587,188.264603,249.139587,184.219208z"/>
</g>
</svg>
