<svg class="svgOrigin" xmlns="http://www.w3.org/2000/svg" width="400" height="400" x="0px" y="0px" viewBox="0 0 400 400" enable-background="new 0 0 400 400">
<g>
	<circle fill="#FF0000" cx="200" cy="200" r="197"/>
	<path fill="none" stroke="#FFFFFF" stroke-width="11.2571" d="M294.328094,222.9375
		c-2.287109-1.428696-7.057587-4.727493-7.057587-8.178696c0-3.864304,0-6.745102,0-10.020493
		c0-2.287109-17.391602-11.873108-17.391602-12.928207c0-1.055206,0-7.387695,0-7.387695v-5.491211
		c0-3.8638-3.127899-6.997086-6.992218-6.997086h-19.512695c-3.858398,0-6.992203-3.133301-6.992203-6.997116v-9.712891V148.5625
		c0-3.864288-3.132797-6.997589-6.991196-6.997589H107.345695c-3.864296,0-6.994598,3.133301-6.994598,6.997589
		c0,0,0,49.376495,0,59.885712c0,10.509781,3.726997,11.164093,11.174797,11.164093c7.447701,0,8.780701,11.174805,14.5,11.174805
		c1.253403,0,8.830505,0,19.900909,0c0,6.986298,5.661591,12.647491,12.6474,12.647491
		c6.986298,0,12.647995-5.661194,12.647995-12.647491c29.750504,0,66.506302,0,85.480896,0
		c0,6.986298,5.662109,12.647491,12.648499,12.647491c6.986298,0,12.6474-5.661194,12.6474-12.647491
		c0-0.825211-0.093689-1.622116-0.242188-2.402298c3.490295,0,8.690491,0,11.141602,0
		C296.768585,228.384811,296.626007,224.366211,294.328094,222.9375z"/>
	
		<ellipse transform="matrix(0.707107 -0.707107 0.707107 0.707107 -82.842766 200.000122)" fill="none" stroke="#FFFFFF" stroke-width="5.62857" cx="200.000122" cy="200.000122" rx="188.557419" ry="188.557281"/>
	<path fill="#FFFFFF" d="M70.5923,200c0,71.467804,57.9375,129.402313,129.4077,129.402313
		c30.666,0,58.819305-10.685516,80.993195-28.505798L99.108902,119.001511C81.283203,141.174805,70.5923,169.328613,70.5923,200z"/>
	<path fill="#FFFFFF" d="M329.407196,200c0-71.473099-57.934509-129.413086-129.407196-129.413086
		c-30.663101,0-58.819809,10.690903-80.993202,28.516602l181.889679,181.883789
		C318.72168,258.814514,329.407196,230.660202,329.407196,200z"/>
	<path fill="#0334A6" d="M294.328094,222.9375c-2.287109-1.428696-7.057587-4.727493-7.057587-8.178696
		c0-3.864304,0-6.745102,0-10.020493c0-2.287109-17.391602-11.873108-17.391602-12.928207c0-1.055206,0-7.387695,0-7.387695
		v-5.491211c0-3.8638-3.127899-6.997086-6.992218-6.997086h-19.512695c-3.858398,0-6.992203-3.133301-6.992203-6.997116v-9.712891
		V148.5625c0-3.864288-3.132797-6.997589-6.991196-6.997589H107.345695c-3.864296,0-6.994598,3.133301-6.994598,6.997589
		c0,0,0,49.376495,0,59.885712c0,10.509781,3.726997,11.164093,11.174797,11.164093c7.447701,0,8.780701,11.174805,14.5,11.174805
		c1.253403,0,8.830505,0,19.900909,0c0,6.986298,5.661591,12.647491,12.6474,12.647491
		c6.986298,0,12.647995-5.661194,12.647995-12.647491c29.750504,0,66.506302,0,85.480896,0
		c0,6.986298,5.662109,12.647491,12.648499,12.647491c6.986298,0,12.6474-5.661194,12.6474-12.647491
		c0-0.825211-0.093689-1.622116-0.242188-2.402298c3.490295,0,8.690491,0,11.141602,0
		C296.768585,228.384811,296.626007,224.366211,294.328094,222.9375z"/>
	<g>
		<path fill="#FFFFFF" d="M263.634796,188.676804c0,1.550308-1.269592,2.814407-2.814514,2.814407h-5.248993
			c-1.544891,0-2.814499-1.264099-2.814499-2.814407v-9.074692c0-1.550308,1.269608-2.814499,2.814499-2.814499h5.248993
			c1.544922,0,2.814514,1.264191,2.814514,2.814499V188.676804z"/>
	</g>
	<g>
		<path fill="#FFFFFF" d="M246.721695,187.017105c0,0.747498-0.610397,1.362793-1.363297,1.362793h-1.698212
			c-0.748093,0-1.363297-0.615295-1.363297-1.362793v-5.755402c0-0.747498,0.615204-1.362793,1.363297-1.362793h1.698212
			c0.752899,0,1.363297,0.615295,1.363297,1.362793V187.017105z"/>
	</g>
</g>
</svg>
