<svg class="svgOrigin" xmlns="http://www.w3.org/2000/svg" width="400" height="400" x="0px" y="0px" viewBox="0 0 400 400" enable-background="new 0 0 400 400">
<g>
	
		<ellipse transform="matrix(0.707107 -0.707107 0.707107 0.707107 -82.842834 199.999954)" fill="#FF0000" cx="199.999878" cy="200.000122" rx="197.666687" ry="197.666565"/>
	
		<ellipse transform="matrix(0.707107 -0.707107 0.707107 0.707107 -82.842804 200.000031)" fill="none" stroke="#FFFFFF" stroke-width="5.64761" cx="200" cy="200.000122" rx="189.195297" ry="189.195175"/>
	<path fill="#FFFFFF" d="M296.164093,276.182617l5.074188,5.079071C319.118195,259.013702,329.839783,230.763702,329.839783,200
		c0-71.714798-58.130768-129.851089-129.839783-129.851089c-30.767105,0-59.0186,10.727089-81.267105,28.613297l24.454605,24.449203
		c-0.292496,1.141586-0.507309,2.299797-0.543503,3.523994c0.033203,3.149406,0.9375,5.653297,1.6353,7.599998
		c0.217804,0.612396,0.433105,1.16951,0.606903,1.621597c-1.914001,0.838409-2.876404,2.145508-4.037109,3.226608
		c-3.187988,3.628891-6.185501,8.82959-8.364197,13.258301l-33.717293-33.714401
		C80.881798,140.976105,70.154297,169.225113,70.154297,200c0,71.709015,58.133804,129.839813,129.845703,129.839813
		c30.763687,0,59.012695-10.721619,81.261688-28.601501l-22.30368-22.309601c4.908173,2.25589,10.34668,3.551788,16.104492,3.551788
		C282.849579,282.480499,290.09668,280.15329,296.164093,276.182617z"/>
	<path fill="#0334A6" d="M275.0625,210.942398c-2.668915,0-5.239319,0.347595-7.732422,0.948212
		c-0.033173-0.0215-0.066376-0.038101-0.099579-0.060501c-2.569397-1.583008-8.801819-15.530807-9.397491-18.106506
		c-0.595703-2.569794-2.86821-7.026291-5.051712-11.377899c-2.173904-4.356903-6.530289-4.847702-11.173904-4.847702
		c-4.754898,0-4.257797,4.351608-0.496994,4.351608c5.636703,0,8.207001,5.244598,8.902298,5.939499
		c0.694305,0.689392,3.264603,7.12059,2.6689,8.802704c-0.595703,1.682098-8.207001-1.781708-11.173798-1.781708
		c-2.967804,0-15.839798,0-20.185501,0c-4.357498,0-9.608398,4.059494-12.575195,4.059494
		c-2.966812,0-6.921906-4.555603-9.295898-6.728989c-2.374512-2.178207-1.583008-9.502411-0.595703-11.874008
		c0.987289-2.376999,6.232391-8.60939,8.314392-11.377899c2.073303-2.7686,4.74321-2.575699,6.628906,0.19281
		c1.875,2.7686,12.762695,10.589386,14.737289,11.482986c1.985413,0.887604,7.997101,2.487305,8.195313-0.386292
		c0.198288-2.867706-6.011703-4.461899-10.269501-7.727005c-4.257797-3.264694-8.305603-7.820297-8.305603-17.71489
		c0-9.894012-0.794006-11.080109-1.985397-12.663101c-1.191406-1.582504-3.861298-4.654709-3.861298-6.237808
		c0-1.582504,1.291-2.569794,4.457001-4.251892c3.164993-1.682098,1.676788-10.192406,3.164993-10.192406
		c1.478607,0,4.159195-0.992699,4.159195-2.873497c0-1.880402-6.430588-8.211899-11.582001-8.211899
		c-5.140594,0-11.176788,7.919899-11.176788,12.072701c0,4.158699,2.7686,6.430702,2.7686,10.291496
		c0,3.860901-4.056702,4.252502-7.420914,7.815002c-3.364288,3.563004-11.774887,19.595703-14.742188,24.145996
		c-2.9673,4.549805-5.540009,4.947205-8.212402,5.046295c-2.671906,0.099213-5.837906-3.9599-7.520004-5.542892
		c-1.68219-1.582504-2.867691-8.609406-2.867691-12.563507c0-3.959991-3.268112-5.64209-4.158707-7.324188
		c-0.890594-1.682114-0.691895-5.245102,1.483902-5.245102s5.738297-3.662109,5.738297-6.62941s0.695297-7.026398,2.672302-7.026398
		c1.977097,0,1.979996-2.570297,0.496094-4.053703c-1.483398-1.483391-5.741196-6.331596-11.380295-6.331596
		c-5.639694,0-9.894592,8.013702-9.894592,11.775002c0,3.761696,2.5728,8.113197,2.5728,9.695808
		c0,1.582993,0.888199,4.390091-2.641602,4.390091s-10.589401,13.181595-12.707001,18.5923
		c-2.11821,5.415497-14.7369,26.6772-14.7369,29.588806c0,2.912201,1.853096,4.677292,1.853096,5.824295
		c0,1.1474-0.882401,5.824203-1.941399,5.824203c-1.059097,0-3.998604-0.055206-6.116302-0.529297
		c-2.118095-0.469315-7.059494-4.94191-7.059494-1.643616c0,3.292511,5.410095,5.647003,6.822197,7.059113
		c1.0289,1.026398,1.053299,4.544891,0.628998,7.291c-12.828697,4.50589-22.044495,16.695297-22.044495,31.056702
		c0,18.20018,14.752899,32.942307,32.942398,32.954086c14.835892-0.01178,27.372101-9.817383,31.50589-23.29689
		c21.42131,0,41.221207,0,44.50531,0c7.531296,0,13.653397-7.301804,15.770493-10.357407
		c2.11821-3.055695-6.121994,0.2314-7.301697,1.412109c-1.180695,1.179688-3.530304-1.6436-3.530304-6.82811
		c0-5.173889-5.878891-5.647491-5.878891-8.471695c0-7.461899,9.497101-19.645508,12.861298-19.645508
		c3.364304,0,37.591797,0,41.3535,0c2.184586,0,3.574295,2.807602,4.378983,5.184509
		c-10.368179,5.548904-17.416992,16.479492-17.416992,29.054703c0,18.20018,14.748016,32.948288,32.948212,32.948288
		c18.189514,0,32.9375-14.748108,32.9375-32.948288C308,225.695297,293.252014,210.942398,275.0625,210.942398z
		 M101.707001,246.946304c-0.129402-1.015594-0.308601-2.007797-0.311501-3.061493
		c0.021996-13.512711,10.959-24.44931,24.471199-24.470703c7.839798,0.010696,14.7285,3.760696,19.204102,9.486298
		c-0.065903,1.323196-0.289505,2.283203-0.609406,2.283203c-0.940399,0-10.117599,0-19.766602,0
		c-9.648895,0-10.354996,15.762695-11.767097,15.762695C111.924294,246.946304,105.939896,246.946304,101.707001,246.946304z
		 M125.866699,268.356415c-10.082001-0.016602-18.718803-6.111298-22.4692-14.814407c8.504799,0,26.539497,0,44.938393,0
		C144.588394,262.245117,135.957001,268.339813,125.866699,268.356415z M275.0625,268.356415
		c-13.523407-0.0224-24.455109-10.948212-24.476608-24.465805c0.010803-8.692398,4.566406-16.264603,11.394608-20.605408
		c0.099579,0.077103,0.198181,0.132797,0.297791,0.220703c2.525391,2.217697,6.132813,10.810501,7.257813,15.365204
		c-1.212921,1.334991-2.007813,3.072296-2.007813,5.019501c0,4.158188,3.376007,7.533188,7.53421,7.533188
		s7.53418-3.375,7.53418-7.533188c0-3.662109-2.669891-6.563507-6.122101-7.247009
		c-4.026398-4.897491-6.740173-11.196289-6.97168-13.534195c-0.087891-0.932602,0.110382-2.041,0.419006-3.122101
		c1.665985-0.358398,3.375977-0.568405,5.140594-0.573196c13.512695,0.021393,24.455078,10.963791,24.476593,24.476501
		C299.517578,257.408203,288.575195,268.334015,275.0625,268.356415z"/>
	<path fill="#0334A6" d="M260.998993,192.709c0-3.706589,6.706085-7.854004,10.853485-7.854004
		c4.147522,0,3.970703,3.882813,3.970703,7.147903c0,3.265213-1.676697,8.206604-6.353485,8.206604
		C264.792999,200.209503,260.998993,196.414993,260.998993,192.709z"/>
	<path fill="#0334A6" d="M232.032196,226.539108c0,2.724594-7.445297,12.712891-11.118103,12.712891
		c-3.673904,0-8.196304-4.516602-8.196304-8.003006c0-3.485291,8.294907-11.680588,11.30661-11.680588
		C227.036087,219.568405,232.032196,223.616211,232.032196,226.539108z"/>
	<path fill="#FFFFFF" d="M190.116699,220.792999c0,2.542007-4.897507,12.055603-10.641602,12.055603
		s-6.028305-1.698196-6.028305-5.371994c0-3.672897,7.064896-10.8311,11.491211-10.8311
		C189.3638,216.645508,190.116699,218.25,190.116699,220.792999z"/>
	<path fill="#FFFFFF" d="M172.693802,176.808609c1.599701,0,1.695801,6.027802,0.471695,6.783691
		c-1.224594,0.75-3.485794,1.792511-3.485794,3.485306c0,1.69339,3.57959,4.991699,4.2388,5.835495
		c0.659088,0.849106,0.659088,7.439896-1.883804,7.439896c-2.542496,0-7.908691,0-9.417007,0
		c-1.508301,0-12.994202-8.195786-14.314987-8.47699c-1.320801-0.281296-2.451614-4.329605-0.284103-6.684601
		c2.167404-2.354996,6.781189-12.431107,6.781189-14.879898c0-2.4487,4.142105-2.354996,5.74411-0.187515
		C162.145996,172.291504,164.876007,176.808609,172.693802,176.808609z"/>
</g>
</svg>
