<?xml version="1.0" encoding="UTF-8" standalone="no"?>
<!DOCTYPE svg PUBLIC "-//W3C//DTD SVG 1.1//EN" "http://www.w3.org/Graphics/SVG/1.1/DTD/svg11.dtd">
<!-- Created with Vectornator (http://vectornator.io/) -->
<svg height="400.0pt" stroke-miterlimit="10" style="fill-rule:nonzero;clip-rule:evenodd;stroke-linecap:round;stroke-linejoin:round;" version="1.1" viewBox="0 0 400 400" width="400.0pt" xml:space="preserve" xmlns="http://www.w3.org/2000/svg" xmlns:xlink="http://www.w3.org/1999/xlink">
<defs/>
<g id="名称未設定">
<path d="M1.42109e-14 0L400 0L400 0L400 400L400 400L1.42109e-14 400L1.42109e-14 400L1.42109e-14 0L1.42109e-14 0Z" fill="#808080" fill-rule="nonzero" opacity="1" stroke="none"/>
<path d="M138.309 350.701L138.309 342.33C137.06 279.981 124.33 266.318 99.7 266.138" fill="none" opacity="1" stroke="#ffffff" stroke-linecap="butt" stroke-linejoin="miter" stroke-width="21"/>
<path d="M138.309 330.701L138.309 322.33C137.06 259.981 124.33 246.318 99.7 246.138" fill="none" opacity="1" stroke="#ffffff" stroke-linecap="butt" stroke-linejoin="miter" stroke-width="21"/>
<path d="M76.3942 256.471L111.043 189.2L111.043 323.742L76.3942 256.471Z" fill="#ffffff" fill-rule="nonzero" opacity="1" stroke="none"/>
<path d="M261.842 353.95L261.842 202.33C263.092 139.981 275.822 126.318 300.452 126.138" fill="none" opacity="1" stroke="#ffffff" stroke-linecap="butt" stroke-linejoin="miter" stroke-width="21"/>
<path d="M138.382 353.95L138.382 167.523" fill="none" opacity="1" stroke="#ffffff" stroke-linecap="butt" stroke-linejoin="miter" stroke-width="21"/>
<path d="M261.842 333.95L261.842 182.33C263.092 119.981 275.822 106.318 300.452 106.138" fill="none" opacity="1" stroke="#ffffff" stroke-linecap="butt" stroke-linejoin="miter" stroke-width="21"/>
<path d="M323.815 116.471L289.108 49.1998L289.108 183.742L323.815 116.471Z" fill="#ffffff" fill-rule="nonzero" opacity="1" stroke="none"/>
<path d="M164.412 183.934L138.603 49.1998L112.352 183.742L164.412 183.934Z" fill="#ffffff" fill-rule="nonzero" opacity="1" stroke="none"/>
</g>
</svg>
