<svg class="svgOrigin" xmlns="http://www.w3.org/2000/svg" width="400" height="400" x="0px" y="0px" viewBox="0 0 400 400" enable-background="new 0 0 400 400">
<g>
	<path fill="#FF0000" d="M200,390.458008c-18.317902,0-27.713898-14.564423-45.090302-49.317413
		C137.5327,306.386688,26.617201,97.595207,11.1172,68.942909C-4.38232,40.291-0.557129,9.54151,39.838402,9.54151
		c60.117195,0,260.206482,0,320.323669,0c40.395508,0,44.220703,30.749491,28.720703,59.401398
		c-15.5,28.652298-126.414978,237.443787-143.791992,272.197693C227.713898,375.893585,218.31839,390.458008,200,390.458008z"/>
	<path fill="none" stroke="#FFFFFF" stroke-width="2.81816" d="M200.005402,384.833008
		c-14.503403,0-22.726608-11.547821-40.054199-46.203094C142.194794,303.084015,31.3428,94.480003,16.071301,66.256805
		C7.71582,50.798309,6.00098,36.074711,11.4863,26.86871c5.7627-9.65971,18.595699-11.691,28.349098-11.691h320.326691
		c9.75293,0,22.594727,2.03129,28.34671,11.691c5.497986,9.206001,3.781219,23.9296-4.584991,39.388096
		c-14.977509,27.675301-126.585907,237.795898-143.880798,272.373108
		C222.721695,373.285187,214.503891,384.833008,200.005402,384.833008L200.005402,384.833008z"/>
	<polygon fill="#FFFFFF" points="200,300.75 72.714798,64.02491 327.285187,64.02491 	"/>
	<g>
		<path fill="#0334A6" d="M119.814499,116.015106c10.018005-10.0644,17.822693-23.629402,17.9272-23.780701
			c1.172394-2.017601,0.473602-4.601601-1.5298-5.774406c-2.014603-1.169495-4.612808-0.486893-5.773895,1.530212h-0.0112
			c0,0.036194-7.639709,13.113785-16.606506,22.041992c-1.6455,1.659203-1.6455,4.336906,0.0112,5.982903
			c0.825699,0.8228,1.904297,1.235893,2.9888,1.235893S118.9888,116.837906,119.814499,116.015106z"/>
		<path fill="#0334A6" d="M183.201202,132.181213c2.334,0,4.232895-1.8936,4.232895-4.227608
			c0-2.331001-1.898895-4.224098-4.232895-4.224098h-16.430206v-6.839401h6.500504c2.334,0,4.238297-1.901299,4.238297-4.235298
			c0-0.118202-0.055206-0.214897-0.065994-0.330101c0.731995,0.902397,1.453201,1.774902,2.190491,2.699699
			c0.831497,1.042999,2.064407,1.587898,3.302704,1.587898c0.930206,0.002899,1.860397-0.302696,2.642105-0.924797
			c1.821793-1.453102,2.124496-4.108902,0.660599-5.933601c-9.753906-12.197296-19.176697-22.702095-19.2099-22.737801
			c-0.847702-0.9272-2.053207-1.450195-3.308105-1.392601c-1.254898,0.046906-2.438492,0.649406-3.192398,1.648499
			c0,0-1.298798,1.706505-4.711395,5.050308c-2.873611,2.820793-7.265701,6.7314-13.25441,11.335899
			c-2.069397-0.798302-4.425293,0.107399-5.338898,2.163094h-0.016602c0,0.013695-1.436493,3.236305-4.662094,7.887695
			c-3.219696,4.647911-8.124001,10.540504-14.734901,15.400406c-1.882301,1.378906-2.284103,4.034592-0.896896,5.914505
			c0.830994,1.125504,2.113197,1.722702,3.412598,1.722702c0.869598,0,1.744598-0.266617,2.504402-0.819809
			c0.930099-0.688004,1.827095-1.390198,2.691399-2.1026v20.439499c0,2.328598,1.8881,4.230011,4.226997,4.230011
			c2.334,0,4.232895-1.901413,4.232895-4.230011V125.584c3.924805-4.482895,6.73201-8.718292,8.509811-11.753891
			c0.566895-0.121109,1.117188-0.346703,1.612289-0.709999v-0.0112c0.622101-0.454102,1.183609-0.8862,1.772507-1.329102
			c-0.060608,0.291496-0.175797,0.563896-0.175797,0.875c0,2.334,1.887695,4.235298,4.221695,4.235298h8.393494v6.839401h-15.901398
			c-2.344696,0-4.227493,1.893097-4.227493,4.224098c0,2.334007,1.882797,4.227608,4.227493,4.227608h15.901398v25.563889
			c0,2.3311,1.888199,4.235901,4.222198,4.235901c2.344711,0,4.232407-1.9048,4.232407-4.235901v-25.563889H183.201202z
			 M163.87059,96.208c2.526413,2.889709,6.36821,7.353996,10.589798,12.464409
			c-0.385193-0.115799-0.765091-0.239304-1.188889-0.239304h-10.705597c-0.0112,0-0.016602-0.005402-0.027313-0.005402
			c-0.011292,0-0.016586,0.005402-0.027893,0.005402h-12.291C156.742203,103.248001,161.178696,99.012711,163.87059,96.208z"/>
		<path fill="#0334A6" d="M146.873489,139.851105l-0.0112-0.011292c0,0.024887-9.879898,12.574799-11.206497,13.848694
			c-1.656799,1.648895-1.645996,4.326599,0,5.985794c0.825607,0.823303,1.904297,1.233398,2.988708,1.233398
			c1.084503,0,2.174301-0.413086,3-1.244095c2.432602-2.482391,11.762192-14.487305,11.877991-14.616699
			c1.436508-1.830093,1.111801-4.488297-0.721191-5.925293C150.957489,137.682602,148.310089,138.007309,146.873489,139.851105z"/>
		<path fill="#0334A6" d="M176.964798,138.832993c-1.5522-1.742188-4.221603-1.893478-5.966309-0.338882
			c-1.7397,1.543991-1.898895,4.216293-0.335892,5.966797l-0.0112-0.0112
			c0.049805,0.058105,10.914993,12.272003,13.595703,14.941406c0.825699,0.8228,1.904297,1.235886,2.988693,1.235886
			c1.084503,0,2.163101-0.413086,2.9888-1.235886c1.645508-1.648407,1.645508-4.317902,0-5.980515
			C188.055695,151.264206,176.9814,138.843704,176.964798,138.832993z"/>
		<path fill="#0334A6" d="M209.588898,114.17141c6.351501-7.364799,17.145493-20.131805,17.145493-20.143105
			c1.497009-1.777794,1.288101-4.450195-0.500992-5.949699c-1.772507-1.508301-4.447311-1.288101-5.944305,0.500504
			l-0.011795-0.010704c-0.010696,0.021904-10.7939,12.777802-17.090805,20.062904
			c-1.535095,1.777901-1.336899,4.447296,0.429703,5.969299c0.797897,0.696297,1.789093,1.034698,2.7686,1.034698
			C207.574188,115.635307,208.75679,115.137207,209.588898,114.17141z"/>
		<path fill="#0334A6" d="M271.274384,109.154305h-37.34079c-0.588898,0-1.150406,0.121101-1.657196,0.335403
			c1.001892-1.901802,0.467697-4.262604-1.3535-5.462799c-1.960007-1.288101-4.57431-0.743202-5.851608,1.208v-0.010803
			c0,0.035698-9.460892,14.277893-18.906296,22.759804c-1.739197,1.568794-1.882797,4.241203-0.314392,5.983391
			c0.836899,0.924301,1.987289,1.395004,3.143494,1.395004c1.012695,0,2.031296-0.360306,2.839905-1.0923
			c0.974594-0.880798,1.931595-1.813904,2.878891-2.763199v27.042007c0,2.334,1.882797,4.2276,4.227509,4.2276
			c2.332993,0,4.226608-1.8936,4.226608-4.2276v-36.528816c2.697281-3.335388,4.954086-6.409592,6.53418-8.635689v0.002396
			c0,2.336906,1.887711,4.221703,4.232407,4.221703h15.742203v40.940407c0,2.325699,1.893494,4.219299,4.232391,4.219299
			c2.334,0,4.227493-1.8936,4.227493-4.219299v-40.940407h13.138702c2.338898,0,4.232422-1.884796,4.232422-4.221703
			C275.506805,111.050308,273.613281,109.154305,271.274384,109.154305z"/>
		<path fill="#0334A6" d="M239.762695,97.394508h27.415985c2.339905,0,4.233398-1.896507,4.233398-4.232903
			c0-2.339294-1.893494-4.221695-4.233398-4.221695h-27.415985c-2.339798,0-4.221695,1.882401-4.221695,4.221695
			C235.541,95.498001,237.422897,97.394508,239.762695,97.394508z"/>
	</g>
</g>
</svg>
