<svg class="svgOrigin" xmlns="http://www.w3.org/2000/svg" width="400" height="400" x="0px" y="0px" viewBox="0 0 400 400" enable-background="new 0 0 400 400">
<g>
	<path fill="#FF0000" d="M200,390.164063c-18.289612,0-27.67041-14.541077-45.020004-49.240265
		C137.630402,306.218689,26.888201,97.75441,11.4126,69.143997C-4.06299,40.539608-0.243652,9.83541,40.088902,9.83541
		c60.0229,0,259.799805,0,319.822205,0c40.332092,0,44.151398,30.704197,28.675781,59.308586
		C373.111298,97.75441,262.370087,306.218689,245.020493,340.923798C227.669891,375.622986,218.289093,390.164063,200,390.164063z"
		/>
	<path fill="none" stroke="#FFFFFF" stroke-width="2.81375" d="M200.005402,384.537109
		c-14.481003,0-22.691406-11.518524-39.991211-46.129913C142.285202,302.926788,31.6064,94.643608,16.3589,66.46241
		C8.0166,51.030807,6.30469,36.329609,11.7808,27.13571c5.753901-9.645,18.5669-11.6728,28.305099-11.6728h319.825195
		c9.738281,0,22.559601,2.0278,28.302795,11.6728c5.490204,9.193899,3.775391,23.895098-4.578217,39.326698
		c-14.953094,27.631798-126.387695,237.432098-143.655182,271.944794
		C222.685501,373.018585,214.480499,384.537109,200.005402,384.537109L200.005402,384.537109z"/>
	<g>
		<path fill="#FFFFFF" d="M146.731003,145.780304h-25.582108v-35.551308H136.916c3.115692,0,5.638702-2.522491,5.638702-5.627388
			c0-3.105003-2.52301-5.627502-5.638702-5.627502h-15.767105V70.726608c0-3.115799-2.517097-5.632896-5.622002-5.632896
			c-3.115799,0-5.627495,2.517097-5.627495,5.632896v33.864197c0,0-0.002396,0.005402-0.002396,0.010803
			c0,0.005798,0.002396,0.0112,0.002396,0.0112v41.167496H97.526398V93.907211c0-3.116211-2.514694-5.627403-5.633301-5.627403
			c-3.104996,0-5.619194,2.511192-5.619194,5.627403v51.873093h-4.182106c-3.104996,0-5.630394,2.517105-5.630394,5.632797
			c0,3.105499,2.525398,5.633301,5.630394,5.633301h64.639206c3.104889,0,5.633301-2.527802,5.633301-5.633301
			C152.364304,148.297409,149.835892,145.780304,146.731003,145.780304z"/>
		<path fill="#FFFFFF" d="M227.862289,97.303711c3.105499,0,5.633804-2.522507,5.633804-5.627403
			c0-3.110901-2.528305-5.627998-5.633804-5.627998h-15.2939c0-7.253899,0-12.419899,0-12.436501
			c0-3.099098-2.528397-5.616203-5.626999-5.616203c-3.099594,0-5.617203,2.517105-5.617203,5.616203h-0.010696
			c0,0.016602,0,5.155296,0,12.436501h-28.286194c-3.110291,0-5.627396,2.517097-5.627396,5.627998
			c0,3.104897,2.517105,5.627403,5.627396,5.627403h28.286194c0,3.039093,0,6.160698,0,9.254395h-28.286194
			c-3.110291,0-5.627396,2.517105-5.627396,5.627403c0,3.104996,2.517105,5.622101,5.627396,5.622101h28.286194
			c0,3.176796,0,6.127495,0,8.589897c-2.467804-0.252998-5.083496-0.324303-7.968796-0.264198
			c-6.528793,0.027802-12.991699,1.86869-18.278305,4.907692c-5.105499,3.039108-9.930695,7.424805-10.150391,14.376511
			c-0.038605,3.550293,1.670898,6.990692,4.275391,9.557098c2.8965,2.912598,6.809097,4.060989,10.364807,4.060989
			c0.055099,0,0.104401,0,0.159592,0c7.666504-0.126389,14.986313-4.006287,21.169006-8.688385
			c3.666-3.061111,7.061493-6.149414,9.244095-9.842804c3.20311,1.7314,7.044907,4.490204,13.041,8.924789
			c2.472702,1.879913,5.995102,1.412613,7.885803-1.055206c1.890594-2.47258,1.417892-5.99559-1.044006-7.885681
			c-6.929688-5.473709-12.2939-9.0186-17.443298-11.216812c0-2.91259,0-6.935593,0-11.46389h15.2939
			c3.105499,0,5.633804-2.517105,5.633804-5.622101c0-3.110298-2.528305-5.627403-5.633804-5.627403h-15.2939
			c0-3.099602,0-6.215302,0-9.254395H227.862289z M179.71579,147.780807c-1.555191-0.033203-2.132294-0.368195-2.566391-0.774902
			c-1.044403-1.093796-0.950699-1.428802-0.983902-1.588394c-0.137207-0.247101,0.940002-2.637711,4.544891-4.632797
			c3.374619-1.989304,8.276413-3.396011,12.5298-3.396011c0.038605,0,0.071808,0,0.104507,0
			c1.879395,0.0439,3.506393,0.087906,4.968307,0.15921C193.702103,142.68071,184.249496,148.126999,179.71579,147.780807z"/>
		<path fill="#FFFFFF" d="M320.589783,148.2202c-1.824188-2.5112-5.335876-3.077591-7.847595-1.252899
			c-1.010803,0.7202-1.813507,1.159698-2.334991,1.37941c-0.731415-1.511307-1.407196-5.726608-1.36911-11.2276
			c0-4.764603,0.395508-10.5625,1.044922-16.975502c0.521484-5.281799,0.768585-9.788101,0.768585-13.7061
			c-0.027405-8.644997-1.082092-14.387703-3.522491-18.734901c-2.324219-4.451096-7.182617-6.775795-10.809601-6.578094
			c-5.638611,0.324196-10.265594,3.368698-15.920898,7.693893c-0.951111,0.774902-1.896515,1.621101-2.835907,2.489204v-12.5298
			c0-3.110298-2.527313-5.632813-5.627014-5.632813c-3.11618,0-5.633667,2.522514-5.633667,5.632813v9.375496h-7.03421
			c-3.104523,0-5.627014,2.522499-5.627014,5.627502c0,3.104897,2.522491,5.627403,5.627014,5.627403h4.996094l-15.992203,50.834496
			c-0.907196,2.857895,0.592804,5.9189,3.417892,6.962906c2.813507,1.044388,5.952209-0.302307,7.122101-3.066406
			c0.00592-0.011307,3.457092-8.089401,7.490326-17.613297v18.690399c0,3.099594,2.517487,5.622101,5.633667,5.622101
			c3.099701,0,5.627014-2.522507,5.627014-5.622101v-45.525902c1.928711-4.302696,5.841797-8.858902,9.924805-12.144997
			c2.160187-1.752899,4.331085-3.170906,6.078094-4.066902c0.869202-0.456001,1.626984-0.752899,2.160187-0.9394
			c0.269501-0.082603,0.466797-0.131897,0.583008-0.154297l0.010712-0.010811c0.1651,0.060608,0.230499,0.033211,0.280304,0.022003
			c0.104492-0.022003,0.065399-0.055199,0.763702,0.884804c0.873993,1.428703,2.072174,5.534103,2.033173,13.1567
			c0.016602,3.439903-0.219666,7.600098-0.708984,12.590302c-0.669891,6.610901-1.104492,12.733391-1.104492,18.091301
			c0.016602,5.544998,0.384796,10.216293,1.736298,14.261292c1.044983,3.802704,4.709991,8.430099,10.128906,8.430099
			c0.049774,0,0.098694,0,0.142578,0c3.638702-0.060501,6.545898-1.604401,9.541016-3.7314
			C321.842804,154.25441,322.415009,150.731903,320.589783,148.2202z"/>
	</g>
</g>
</svg>
