<svg class="svgOrigin" xmlns="http://www.w3.org/2000/svg" width="400" height="400" x="0px" y="0px" viewBox="0 0 400 400" enable-background="new 0 0 400 400">
<g>
	<circle fill="#FF0000" cx="200" cy="200" r="197.28418"/>
	<circle fill="none" stroke="#FFFFFF" stroke-width="5.63669" cx="199.999878" cy="200" r="188.830292"/>
	<path fill="#0334A6" d="M80.892601,251.109406l90.643501-51.350601L81.061501,148.5112
		C74.220703,164.297409,70.4067,181.699707,70.4067,200C70.4067,218.156204,74.148399,235.425812,80.892601,251.109406z"/>
	<path fill="#0334A6" d="M318.190399,250.439499l1.091797,0.277298c6.632813-15.575195,10.310608-32.717804,10.310608-50.716797
		c0-18.252396-3.792023-35.618195-10.599609-51.373993l-90.266602,51.132797L318.190399,250.439499z"/>
	<path fill="#0334A6" d="M305.040009,124.13871C281.493195,91.595711,243.23439,70.406708,200,70.406708
		c-43.182602,0-81.412102,21.140701-104.9673,53.617203L200.126495,183.5625L305.040009,124.13871z"/>
	<path fill="#0334A6" d="M96.265602,274.793915l-1.1548,1.278381C118.657196,308.495087,156.85939,329.593689,200,329.593689
		c43.378891,0,81.758789-21.339783,105.287079-54.070282l-105.154282-59.568298L96.265602,274.793915z"/>
</g>
</svg>
