<svg class="svgOrigin" xmlns="http://www.w3.org/2000/svg" width="400" height="400" x="0px" y="0px" viewBox="0 0 400 400" enable-background="new 0 0 400 400">
<g>
	<circle fill="#FF0000" cx="200" cy="200" r="197.932617"/>
	<path fill="none" stroke="#FFFFFF" stroke-width="5.65521" d="M389.447296,200
		c0,104.622986-84.82431,189.448212-189.447296,189.448212C95.365196,389.448212,10.5464,304.622986,10.5464,200
		C10.5464,95.36821,95.365196,10.54931,200,10.54931C304.622986,10.54931,389.447296,95.36821,389.447296,200z"/>
	<path fill="#0334A6" d="M69.969704,200c0,71.803711,58.214394,130.012695,130.030304,130.012695
		c30.802689,0,59.091797-10.732391,81.368195-28.638702L98.620598,118.61721C80.719704,140.8965,69.969704,169.182602,69.969704,200
		z"/>
	<path fill="#0334A6" d="M330.011688,200c0-71.810089-58.208008-130.026886-130.011688-130.026886
		c-30.814911,0-59.109406,10.743698-81.385704,28.653404l182.759705,182.741684
		C319.274384,259.091797,330.011688,230.802704,330.011688,200z"/>
</g>
</svg>
