<svg class="svgOrigin" xmlns="http://www.w3.org/2000/svg" width="400" height="400" x="0px" y="0px" viewBox="0 0 400 400" enable-background="new 0 0 400 400">
<g>
	<path fill="#0334A6" d="M396.641602,368.377014c0,14.757782-12.075226,26.832947-26.833008,26.832947H30.191401
		c-14.758301,0-26.833-12.075165-26.833-26.832947V31.624001c0-14.758291,12.074699-26.83349,26.833-26.83349h339.617188
		c14.757782,0,26.833008,12.075199,26.833008,26.83349V368.377014z"/>
	<path fill="none" stroke="#FFFFFF" stroke-width="2.68331" d="M369.808594,389.833008H30.191401
		c-11.8389,0-21.466301-9.622101-21.466301-21.455994V31.61871c0-11.828709,9.627401-21.4561,21.466301-21.4561h339.617188
		c11.838898,0,21.466797,9.627391,21.466797,21.4561v336.758301C391.275391,380.210907,381.647491,389.833008,369.808594,389.833008
		L369.808594,389.833008z"/>
	<path fill="#FFFFFF" d="M286.127899,83.872604c-16.891602-16.825699-36.455002-27.538097-58.010712-28.009796
		c-24.720688-0.0107-97.463898-0.0107-97.558594-0.0107h-22.818398v291.434998h45.627007v-90.791992
		c4.962891,0,10.46579,0,16.20459,0c21.130798,0,45.516098,0,58.545395,0
		c22.252899-0.429718,42.188507-11.739212,58.801697-28.992218c16.362396-17.368088,28.819397-42.390594,28.830109-71.988297
		C315.738281,125.657707,302.689484,100.790001,286.127899,83.872604z M253.67189,196.272507
		c-9.282303,10.319305-21.75,15.046799-25.554703,14.6064c-16.571289,0-51.501999,0-74.749985,0V101.476608
		c5.1147,0,10.785599,0,16.702087,0c21.298904,0,45.679703,0,58.047897,0c3.165009-0.474609,16.01561,4.176697,25.349609,14.247002
		c9.664093,9.9785,16.661102,23.525902,16.661102,39.790993C270.137695,172.025909,263.209991,186.079102,253.67189,196.272507z"/>
</g>
</svg>
