<svg class="svgOrigin" xmlns="http://www.w3.org/2000/svg" width="400" height="400" x="0px" y="0px" viewBox="0 0 400 400" enable-background="new 0 0 400 400">
<g>
	<path fill="#0334A6" d="M396.641602,368.377899c0,14.757813-12.075226,26.833038-26.833008,26.833038H30.191401
		c-14.758301,0-26.833-12.075226-26.833-26.833038V31.622108c0-14.757799,12.074699-26.832998,26.833-26.832998h339.617188
		c14.757782,0,26.833008,12.075199,26.833008,26.832998V368.377899z"/>
	<path fill="none" stroke="#FFFFFF" stroke-width="2.68331" d="M369.808594,389.834015H30.191401
		c-11.8389,0-21.466301-9.62793-21.466301-21.456116V31.617208c0-11.828598,9.627401-21.456099,21.466301-21.456099h339.617188
		c11.838898,0,21.466797,9.627501,21.466797,21.456099v336.760681
		C391.275391,380.206085,381.647491,389.834015,369.808594,389.834015L369.808594,389.834015z"/>
	<g>
		<path fill="#FFFFFF" d="M174.351089,87.615211c3.086914-5.067802,1.493607-11.666-3.55809-14.757805
			c-5.068405-3.097595-11.666504-1.50441-14.753403,3.563499h-0.015701c-0.020996,0.042-11.393494,18.647003-28.200699,44.122604
			c-16.807602,25.465294-39.007797,57.701591-60.285599,84.472099c-3.689499,4.632797-2.9189,11.3936,1.7295,15.072296
			c1.976105,1.572296,4.334503,2.337906,6.676704,2.337906c3.160194,0,6.289101-1.388702,8.406296-4.051819
			c9.748001-12.268494,19.601097-25.533188,29.034698-38.750488v129.181183c0,5.932617,4.800301,10.739227,10.732903,10.739227
			c5.922295,0,10.728004-4.80661,10.728004-10.739227V148.686996C157.627899,114.977997,174.277802,87.720207,174.351089,87.615211z
			"/>
		<path fill="#FFFFFF" d="M167.4702,110.371109c0,5.922401,4.805695,10.733398,10.732895,10.733398h129.684601
			c5.927704,0,10.733398-4.810997,10.733398-10.733398c0-5.938004-4.805695-10.733398-10.733398-10.733398h-55.730499V84.801308
			c0-5.927803-4.811508-10.728096-10.739197-10.728096c-5.926804,0-10.7276,4.800293-10.7276,10.728096v14.836403h-52.487305
			C172.275894,99.637711,167.4702,104.433105,167.4702,110.371109z"/>
		<path fill="#FFFFFF" d="M199.585892,132.634308c-2.824692,0-5.591797,1.137192-7.583496,3.144501
			c-2.007294,2.001999-3.144501,4.758804-3.144501,7.583496v41.371094c0,2.872101,1.116196,5.560501,3.144501,7.588913
			c2.022995,2.02829,4.716797,3.139099,7.583496,3.139099h84.602615c2.856384,0,5.544891-1.110809,7.583984-3.139099
			c2.02829-2.028412,3.128906-4.7276,3.128906-7.588913v-41.371094c0-2.8564-1.100616-5.560501-3.128906-7.583496
			c-2.039093-2.028305-4.7276-3.144501-7.583984-3.144501H199.585892z M273.445282,173.995102h-63.13179v-19.894501h63.13179
			V173.995102z"/>
		<path fill="#FFFFFF" d="M324.658203,213.552704c0-2.824203-1.147522-5.596603-3.138702-7.593704
			c-2.007813-2.001999-4.769501-3.139694-7.593719-3.139694H162.863297c-2.824707,0-5.586395,1.137695-7.583496,3.139694
			c-2.001999,1.997101-3.149902,4.758804-3.149902,7.593704v46.481506c0,5.921906,4.806107,10.733398,10.733398,10.733398
			c5.9272,0,10.733398-4.811493,10.733398-10.733398v-35.758804h129.589798v35.758804
			c0,5.921906,4.811493,10.733398,10.739288,10.733398c5.921906,0,10.743103-4.811493,10.743103-10.733398L324.658203,213.552704z"
			/>
		<path fill="#FFFFFF" d="M290.6875,235.821304h-51.077103c-0.015701,0-0.037201-0.004898-0.052811-0.004898
			c-0.015579,0-0.036087,0.004898-0.051697,0.004898h-50.611389c-5.932602,0-10.728012,4.800797-10.728012,10.733398
			c0,5.921906,4.79541,10.727493,10.728012,10.727493h39.924789c0,3.983398,0,8.684601,0,13.495117
			c0,10.502991,0,21.387695,0.004898,25.722687c-0.025391,0.004913-0.057587,0.015594-0.082993,0.020508
			c-3.354507,0.990204-11.776398,1.629883-24.506805,1.577209c-5.9375,0-10.743698,4.80069-10.743698,10.739197
			c0,5.926788,4.806198,10.738281,10.743698,10.738281c13.552704-0.06839,22.713806-0.325195,30.5224-2.453094
			c3.86821-1.110413,7.861404-2.887695,11.07431-6.498108c3.254791-3.621979,4.5439-8.579102,4.464798-12.473602
			c-0.004898-2.914093-0.009811-26.623077-0.004898-40.868195h40.3965c5.932587,0,10.738281-4.805588,10.738281-10.727493
			C301.425781,240.622101,296.620087,235.821304,290.6875,235.821304z"/>
	</g>
</g>
</svg>
