<svg class="svgOrigin" xmlns="http://www.w3.org/2000/svg" width="400" height="400" x="0px" y="0px" viewBox="0 0 400 400" enable-background="new 0 0 400 400">
<g>
	<circle fill="#0334A6" cx="200.00087" cy="200" r="198.333679"/>
	<circle fill="none" stroke="#FFFFFF" stroke-width="5.66669" cx="200.00087" cy="200" r="189.833679"/>
	<path fill="#FFFFFF" d="M216.357391,117.977104c-11.619095-10.470299-26.355392-16.375-41.324692-16.4468
		c-8.75441,0-74.751404,0-74.751404,0v223.723602H128.6035V223.684601c14.991196,0,37.668991,0,46.429199,0
		c14.969299-0.060608,29.705597-5.96489,41.324692-16.435608c11.576202-10.40329,19.932602-26.146881,19.876999-44.641586
		C236.289993,144.113312,227.933594,128.380905,216.357391,117.977104z M197.317902,186.265106
		c-6.380905,5.871094-15.168503,9.158203-22.285202,9.091797c-8.75441,0-31.432098,0-46.429199,0V129.8638
		c14.991196,0,37.668991-0.005386,46.429199,0c7.116699-0.071793,15.904297,3.231903,22.285202,9.0923
		c6.413498,5.915512,10.53949,13.635208,10.594193,23.651306C207.857391,172.634811,203.7314,180.354996,197.317902,186.265106z"/>
	<path fill="#FFFFFF" d="M189.000488,64.613808h-13.735397c-1.560501,0-2.827591,1.267097-2.827591,2.827599
		c0,1.560593,1.26709,2.838905,2.827591,2.838905h13.735397c1.560516,0,2.833008-1.278313,2.833008-2.838905
		C191.833496,65.880905,190.561005,64.613808,189.000488,64.613808z"/>
	<path fill="#FFFFFF" d="M158.370102,65.178207c2.689499-2.479,4.277802-6.386208,4.283188-10.530697
		c-0.010696-6.834511-4.266586-13.076702-10.791-13.214901c-6.535187,0.138199-10.791,6.38039-10.801788,13.214901
		c0.005402,4.144489,1.593796,8.051697,4.288589,10.530697c-3.508301,2.844299-5.561493,7.697792-5.616699,12.573303
		c0.027405,7.442795,5.013702,14.050301,12.129898,14.144493c7.105499-0.094193,12.091812-6.701698,12.11911-14.144493
		C163.9263,72.875999,161.873001,68.022507,158.370102,65.178207z M151.862289,46.645508
		c2.506805,0,5.567413,3.104492,5.567413,8.002003c0,4.891598-3.060608,8.0019-5.567413,8.0019
		c-2.517593,0-5.578094-3.110302-5.578094-8.0019C146.284195,49.75,149.344696,46.645508,151.862289,46.645508z
		 M151.862289,86.683105c-3.40329-0.0112-6.889587-3.635696-6.900391-8.931595c-0.016602-2.617699,0.8965-5.251999,2.2686-7.094803
		c1.372498-1.842705,3.038101-2.789001,4.604507-2.789001c0.010696,0,0.016586,0,0.027283,0
		c1.560608-0.011299,3.237305,0.935005,4.621109,2.789001c1.372101,1.842804,2.285202,4.477104,2.2686,7.094803
		C158.741196,83.047409,155.254898,86.671906,151.862289,86.683105z"/>
	<path fill="#FFFFFF" d="M206.152298,74.70211c-3.76561,4.736893-5.779709,9.330101-5.862701,13.032295
		c0.016602,0.996101,0.143494,2.047302,0.818802,3.137703c0.625,1.067802,2.091797,1.875893,3.336899,1.875893
		c0.049805,0,0.105499,0,0.155304-0.005295c2.813492,0,16.858398,0,16.858398,0c1.560501,0,2.822296-1.267601,2.822296-2.828102
		c0-1.560608-1.261795-2.827698-2.822296-2.827698c0-0.0112-10.957001-0.0112-15.450211-0.005402
		c0.26561-1.7929,1.749008-5.451096,4.538101-8.804596c4.781204-6.308601,13.424805-10.935097,14.576111-18.909199
		c0.054688-0.962902,0.132889-2.003403,0.132889-3.137711c-0.022491-2.844292-0.332092-6.09819-2.014694-9.009289
		c-1.626907-2.960403-5.135696-5.173801-9.5849-5.080101c-5.267609-0.055202-8.629898,3.303699-10.074295,6.181698
		c-1.527313,2.899403-1.76561,5.528301-1.798813,5.727501c-0.166,1.565899,0.968811,2.949192,2.535202,3.1045
		c1.557617,0.166,2.941406-0.974098,3.107407-2.534698h-0.011703c-0.010803-0.0112,0.199203-1.859303,1.162094-3.6357
		c1.0625-1.809601,2.224609-3.121101,5.080109-3.182102c2.911102,0.094193,3.796799,0.913002,4.693298,2.285603
		c0.873993,1.4165,1.261703,3.796398,1.239304,6.14259c0,0.907707-0.05571,1.820808-0.110397,2.72261
		C219.744095,61.957508,211.985397,67.912109,206.152298,74.70211z"/>
	<path fill="#FFFFFF" d="M243.9375,93.058105c4.648392-0.149399,7.493195-3.884796,9.441391-8.290001
		c1.936508-4.548897,3.054703-10.4702,3.065414-17.005394c-0.010712-6.552303-1.128906-12.473602-3.065414-17.022503
		c-1.948196-4.4048-4.792999-8.123497-9.441391-8.289497c-4.669907,0.166-7.514603,3.884697-9.451202,8.289497
		c-1.948196,4.548901-3.054703,10.4702-3.066406,17.022503c0.011703,6.535194,1.11821,12.456497,3.066406,17.005394
		C236.422897,89.173309,239.267593,92.908707,243.9375,93.058105z M239.699188,52.99271
		c1.560608-3.73,3.552811-5.035709,4.238312-4.880901c0.675797-0.154808,2.667999,1.150902,4.2285,4.880901
		c1.548798,3.585899,2.611298,8.892998,2.600586,14.77c0.010712,5.860291-1.051788,11.167496-2.600586,14.758797
		c-1.560501,3.730003-3.552704,5.030304-4.2285,4.875496c-0.685501,0.154808-2.677704-1.145493-4.238312-4.875496
		c-1.560501-3.591301-2.623001-8.898506-2.612289-14.758797C237.076187,61.885708,238.138687,56.578609,239.699188,52.99271z"/>
	<path fill="#FFFFFF" d="M224.370102,267.424805c-1.583008,0.022491-3.098602,0.232391-4.571304,0.541992
		c0-0.021484,0.011703-0.043884,0.022491-0.060608c4.183609-10.243073,9.706009-22.63858,14.576202-30.59169
		c1.626907-2.661194,0.786102-6.159195-1.881897-7.774506c-2.667007-1.638596-6.142593-0.796783-7.780197,1.870209
		c-10.801804,17.742096-22.292999,50.053696-22.669998,51.022415c-2.3349,4.670898-3.6577,10.060577-3.668396,15.682587
		c0.027298,16.109406,10.643997,30.458984,25.973099,30.702209c15.329086-0.243225,25.942398-14.592804,25.964905-30.702209
		C250.3125,282.001007,239.699188,267.646515,224.370102,267.424805z M234.3311,312.248993
		c-2.844803,3.442413-6.297913,5.218811-9.960999,5.235413c-3.663101-0.016602-7.127914-1.792999-9.960907-5.235413
		c-2.789093-3.436493-4.692398-8.466797-4.681702-14.133789c-0.010696-5.666016,1.892609-10.702087,4.681702-14.138611
		c2.832993-3.447296,6.297806-5.218781,9.960907-5.229492c3.663086,0.010712,7.116196,1.782196,9.960999,5.229492
		c2.788986,3.436523,4.670898,8.472595,4.670898,14.138611C239.001999,303.782196,237.120087,308.8125,234.3311,312.248993z"/>
	<path fill="#FFFFFF" d="M275.370087,229.639603c-13.038086,0-23.607391,10.575195-23.618088,23.618195v50.048813
		c0.010696,13.037079,10.580002,23.612305,23.618088,23.612305c13.038116,0,23.607391-10.575226,23.619202-23.612305v-50.048813
		C298.977478,240.214798,288.408203,229.639603,275.370087,229.639603z M287.644501,303.30661
		c-0.011719,6.78418-5.490204,12.268585-12.274414,12.279297c-6.795898-0.010712-12.262695-5.495117-12.274384-12.279297v-50.048813
		c0.011688-6.784195,5.478485-12.274399,12.274384-12.285095c6.78421,0.010696,12.262695,5.5009,12.274414,12.285095V303.30661z"/>
	<path fill="#FFFFFF" d="M340.713898,194.172913c-0.641602-0.437103-2.478516-4.604111-3.640717-8.422409
		c-1.350494-4.034195-2.103485-7.332504-3.176697-9.269501c-2.877899-3.425293-6.663086-3.619202-9.020477-3.98439
		c-1.57132,0-2.843811,1.267593-2.843811,2.833496c0,1.565887,1.272491,2.838791,2.843811,2.838791
		c0.011688-0.038498,1.39447,0.19931,2.490173,0.5923c0.564514,0.204605,1.118225,0.425797,1.472717,0.630905
		c0.132782,0.071808,0.232391,0.143494,0.298798,0.188004c0.033203,0.099594,0.099609,0.270996,0.199188,0.536591
		c1.47171,3.674805,3.585999,13.961899,7.415131,18.101608c0.54187,0.541992,1.261688,0.807602,1.981384,0.807602
		c0.730499,0,1.47168-0.287598,2.025391-0.852112C341.854492,197.056198,341.832001,195.2686,340.713898,194.172913z"/>
	<path fill="#FFFFFF" d="M333.786102,198.793503c-1.693298,0-16.646515,0-16.657196,0
		c-0.232422,0-0.442413,0.077606-0.664124,0.132797c1.560608-4.194397,5.920898-10.796402,5.910217-10.807602
		c0.873993-1.305695,0.520477-3.060089-0.774414-3.934586c-1.306702-0.868713-3.054688-0.525406-3.929688,0.780289h-0.010712
		c-0.044006,0.132797-5.256897,7.697708-6.983398,13.309006c-0.464905,1.505402,0.386719,3.082092,1.892517,3.530304
		c0.276398,0.082993,0.552795,0.122101,0.81839,0.122101c0.332001,0,0.609406-0.188507,0.908203-0.298813
		c0,1.566406,1.272491,2.833008,2.833008,2.833008c0,0,0.674774,0,1.71579,0
		c-1.184509,4.006805-3.564392,10.940399-7.449219,17.863205c-0.763672,1.361389-0.287079,3.099686,1.085022,3.868195
		c0.43158,0.244095,0.907196,0.360397,1.383789,0.360397c0.996094,0,1.958893-0.520599,2.478516-1.450195
		c4.714783-8.444397,7.337891-16.800797,8.400391-20.641602c0.0224,0,0.044891,0,0.078094,0c2.434601,0,4.958008,0,6.728516,0
		c-0.232422,2.7285-1.316406,7.775391-2.212921,11.344696c-1.251007,5.1465-5.158203,11.698196-5.135681,11.7099
		c-0.807617,1.349701-0.365295,3.098709,0.973602,3.889694c0.464783,0.271515,0.962891,0.404312,1.460876,0.404312
		c0.962921,0,1.904327-0.492203,2.435608-1.377899c0.043915-0.126999,4.138702-6.856506,5.777313-13.275406
		c1.029297-4.316406,2.378876-10.093796,2.412079-13.712906c-0.010681-0.725586-0.033203-1.377899-0.287079-2.219696
		C336.851593,200.509308,335.700195,198.776901,333.786102,198.793503z"/>
</g>
</svg>
