<?xml version="1.0" encoding="UTF-8" standalone="no"?>
<!DOCTYPE svg PUBLIC "-//W3C//DTD SVG 1.1//EN" "http://www.w3.org/Graphics/SVG/1.1/DTD/svg11.dtd">
<!-- Created with Vectornator (http://vectornator.io/) -->
<svg height="400.0pt" stroke-miterlimit="10" style="fill-rule:nonzero;clip-rule:evenodd;stroke-linecap:round;stroke-linejoin:round;" version="1.1" viewBox="0 0 400 400" width="400.0pt" xml:space="preserve" xmlns="http://www.w3.org/2000/svg" xmlns:xlink="http://www.w3.org/1999/xlink">
<defs/>
<g id="名称未設定">
<g opacity="1">
<path d="M1.42109e-14 0L400 0L400 0L400 400L400 400L1.42109e-14 400L1.42109e-14 400L1.42109e-14 0L1.42109e-14 0Z" fill="#808080" fill-rule="nonzero" opacity="1" stroke="none"/>
<path d="M36.2647 36.2647L363.735 36.2647L363.735 36.2647L363.735 363.735L363.735 363.735L36.2647 363.735L36.2647 363.735L36.2647 36.2647L36.2647 36.2647Z" fill="none" opacity="1" stroke="#ffffff" stroke-linecap="butt" stroke-linejoin="miter" stroke-width="11.1422"/>
<path d="M112.265 37.3282L288.76 365.067" fill="none" opacity="1" stroke="#ffffff" stroke-linecap="butt" stroke-linejoin="miter" stroke-width="13.6105"/>
<path d="M42.2653 37.3282L218.76 365.067" fill="none" opacity="1" stroke="#ffffff" stroke-linecap="butt" stroke-linejoin="miter" stroke-width="13.6105"/>
<path d="M182.265 37.3282L358.76 365.067" fill="none" opacity="1" stroke="#ffffff" stroke-linecap="butt" stroke-linejoin="miter" stroke-width="13.6105"/>
<path d="M36.333 156.297L148.76 365.067" fill="none" opacity="1" stroke="#ffffff" stroke-linecap="butt" stroke-linejoin="miter" stroke-width="13.6105"/>
<path d="M252.265 37.3282L363.814 244.466" fill="none" opacity="1" stroke="#ffffff" stroke-linecap="butt" stroke-linejoin="miter" stroke-width="13.6105"/>
<path d="M322.265 37.3282L363.537 113.966" fill="none" opacity="1" stroke="#ffffff" stroke-linecap="butt" stroke-linejoin="miter" stroke-width="13.6105"/>
<path d="M35.8265 285.342L78.7603 365.067" fill="none" opacity="1" stroke="#ffffff" stroke-linecap="butt" stroke-linejoin="miter" stroke-width="13.6105"/>
<path d="M78.5996 78.5996L321.4 78.5996L321.4 78.5996L321.4 321.4L321.4 321.4L78.5996 321.4L78.5996 321.4L78.5996 78.5996L78.5996 78.5996Z" fill="#808080" fill-rule="nonzero" opacity="1" stroke="none"/>
</g>
</g>
</svg>
