<svg class="svgOrigin" xmlns="http://www.w3.org/2000/svg" width="400" height="400" x="0px" y="0px" viewBox="0 0 400 400" enable-background="new 0 0 400 400">
<g>
	<path fill="#0334A6" d="M396.99408,200c0,108.800812-88.199188,197-196.988678,197C91.204597,397,3.00537,308.800812,3.00537,200
		S91.204597,3,200.005402,3C308.794891,3,396.99408,91.199211,396.99408,200z"/>
	<path fill="none" stroke="#FFFFFF" stroke-width="5.62857" d="M388.551788,200
		c0,104.133789-84.417999,188.557587-188.546387,188.557587C95.8657,388.557587,11.4482,304.133789,11.4482,200
		C11.4482,95.860405,95.8657,11.44291,200.005402,11.44291C304.133789,11.44291,388.551788,95.860405,388.551788,200z"/>
	<g>
		<path fill="#FFFFFF" d="M119.891594,174.127411c-2.597198,1.692902-3.209999,1.038589-1.3657-1.451111l29.379395-39.625488
			c1.844208-2.489807,3.353012-1.989807,3.353012,1.104996v6.090302c0,3.094696,0.252899,5.628403,0.560501,5.628403
			c0.308197,0,2.479095-1.654312,4.826202-3.671906l55.805191-48.045898c2.352493-2.017502,4.264603-1.1381,4.264603,1.956596
			v13.917503c0,3.094696,2.132904,4.260193,4.738297,2.588799l70.390686-45.110794
			c2.605408-1.670906,4.73822-0.505905,4.73822,2.588898v32.941399c0,3.094696-2.111298,7.024895-4.694305,8.734299
			l-75.232407,49.733398c-2.578201,1.709503-4.694397,0.571808-4.694397-2.522903v-25.663589
			c0-3.094711-2.111298-4.227005-4.6884-2.517609l-52.163589,34.617706c-2.57811,1.709503-4.689011,0.577194-4.689011-2.517105
			v-3.012192c0-3.094711-2.121597-4.249008-4.718689-2.556107L119.891594,174.127411z"/>
	</g>
	<path fill="#FFFFFF" d="M32.6982,200c0,14.307602,9.025398,26.142609,17.1138,33.133804
		c6.041,5.221695,14.035698,4.039993,14.035698-1.501007c0-2.3965,0-6.419891,0-10.135696
		c0-7.871094,5.821201-8.898499,8.217701-6.501999s2.5616,2.561508,6.8433,6.842804
		c4.2817,4.282196,10.611298,5.821304,10.611298,2.3965c0-1.714905,0-46.753906,0-48.469299
		c0-3.424301-6.329597-1.885193-10.611298,2.3965c-4.2817,4.282196-4.4468,4.446793-6.8433,6.843796
		c-2.3965,2.3965-8.217701,1.368591-8.217701-6.502991c0-3.715302,0-7.739212,0-10.135712
		c0-5.540497-7.994698-6.722198-14.035698-1.500488C41.723598,173.85791,32.6982,185.692398,32.6982,200z"/>
	<g>
		<path fill="#FFFFFF" d="M119.891594,225.873001c-2.597198-1.693298-3.209999-1.039001-1.3657,1.451202l29.379395,39.624985
			c1.844208,2.490326,3.353012,1.990326,3.353012-1.104492v-6.09079c0-3.094696,0.252899-5.627899,0.560501-5.627899
			c0.308197,0,2.479095,1.654297,4.826202,3.670898l55.805191,48.046783c2.352493,2.017609,4.264603,1.137726,4.264603-1.957001
			v-13.916992c0-3.094696,2.132904-4.260681,4.738297-2.589783l70.390686,45.111298
			c2.605408,1.670898,4.73822,0.50589,4.73822-2.588898v-32.941406c0-3.094696-2.111298-7.024414-4.694305-8.734314
			l-75.232407-49.733383c-2.578201-1.710007-4.694397-0.571304-4.694397,2.5224v25.664108
			c0,3.094696-2.111298,4.227478-4.6884,2.517578l-52.163589-34.618195c-2.57811-1.709-4.689011-0.577103-4.689011,2.517609
			v3.012695c0,3.094696-2.121597,4.248993-4.718689,2.555588L119.891594,225.873001z"/>
	</g>
</g>
</svg>
