<?xml version="1.0" encoding="UTF-8" standalone="no"?>
<!DOCTYPE svg PUBLIC "-//W3C//DTD SVG 1.1//EN" "http://www.w3.org/Graphics/SVG/1.1/DTD/svg11.dtd">
<!-- Created with Vectornator (http://vectornator.io/) -->
<svg height="400.0pt" stroke-miterlimit="10" style="fill-rule:nonzero;clip-rule:evenodd;stroke-linecap:round;stroke-linejoin:round;" version="1.1" viewBox="0 0 400 400" width="400.0pt" xml:space="preserve" xmlns="http://www.w3.org/2000/svg" xmlns:xlink="http://www.w3.org/1999/xlink">
<defs/>
<clipPath id="ArtboardFrame">
<rect height="400" width="400" x="0" y="0"/>
</clipPath>
<g clip-path="url(#ArtboardFrame)" id="名称未設定">
<g opacity="1">
<path d="M1.42109e-14 0L400 0L400 0L400 400L400 400L1.42109e-14 400L1.42109e-14 400L1.42109e-14 0L1.42109e-14 0Z" fill="#808080" fill-rule="nonzero" opacity="1" stroke="none"/>
<path d="M160-3.55271e-15L179.066-3.55271e-15L179.066-3.55271e-15L179.066 400L179.066 400L160 400L160 400L160-3.55271e-15L160-3.55271e-15Z" fill="#ffffff" fill-rule="nonzero" opacity="1" stroke="none"/>
<path d="M126.428 41.5825L141.242 41.5825L141.242 41.5825L141.242 78.6265L141.242 78.6265L126.428 78.6265L126.428 78.6265L126.428 41.5825L126.428 41.5825Z" fill="#ffffff" fill-rule="nonzero" opacity="1" stroke="none"/>
<path d="M126.428 132.94L141.242 132.94L141.242 132.94L141.242 169.985L141.242 169.985L126.428 169.985L126.428 169.985L126.428 132.94L126.428 132.94Z" fill="#ffffff" fill-rule="nonzero" opacity="1" stroke="none"/>
<path d="M126.428 224.298L141.242 224.298L141.242 224.298L141.242 261.344L141.242 261.344L126.428 261.344L126.428 261.344L126.428 224.298L126.428 224.298Z" fill="#ffffff" fill-rule="nonzero" opacity="1" stroke="none"/>
<path d="M126.428 315.661L141.242 315.661L141.242 315.661L141.242 352.705L141.242 352.705L126.428 352.705L126.428 352.705L126.428 315.661L126.428 315.661Z" fill="#ffffff" fill-rule="nonzero" opacity="1" stroke="none"/>
</g>
</g>
</svg>
