<svg class="svgOrigin" xmlns="http://www.w3.org/2000/svg" width="400" height="400" x="0px" y="0px" viewBox="0 0 400 400" enable-background="new 0 0 400 400">
<g>
	<path fill="#FF0000" d="M396.256775,369.415985c0,15.673828-12.824188,28.498077-28.497986,28.498077H32.241199
		c-15.6738,0-28.498039-12.824249-28.498039-28.498077V30.584c0-15.67379,12.82424-28.498089,28.498039-28.498089h335.517578
		c15.673798,0,28.497986,12.8243,28.497986,28.498089V369.415985z"/>
	<path fill="none" stroke="#FFFFFF" stroke-width="11.3991" d="M185.634293,77.63871
		c-13.163589,2.142998-12.56839,8.671799-12.56839,12.568291c0,3.895996-6.584503,5.994209-5.688004,7.786705
		c0.895996,1.792404,7.480499-1.502998,8.9776,1.792404c1.497498,3.294998,1.497498,3.294998,1.497498,3.294998
		s0.851593,7.041,6.239304,7.041c5.388199,0,4.174789,8.343201,0.8349,8.788498
		c-3.33931,0.445396-8.270905-0.261696-9.467697,3.027901c-1.196808,3.28949,1.491699,18.857407-9.87941,26.338394
		c-11.371597,7.480408-11.371597,7.480408-11.371597,7.480408s-8.977997,5.388199-13.1689,8.082092
		c-4.191498,2.693802-0.306198,15.868591,9.873993,8.683105c10.180206-7.186096,21.251007-15.863297,24.245605-18.557205
		c2.994095-2.693802,6.289505,4.792511,5.988693,9.579102c-0.30069,4.786697,3.8853,10.169006,2.092804,12.267593
		c-1.791992,2.098206-12.267593,14.972214-18.256302,32.925308c-5.989288,17.9561-9.573792,35.922897-10.475098,38.917999
		c-0.901901,2.983398-9.879898,10.764587-12.272995,11.365204c-2.393494,0.601593-3.890594,5.989288,1.196304,5.688507
		c5.087402-0.300812,14.070801-0.601624,17.661194-0.601624c3.589798,0,7.180099-4.786102,7.180099-10.173782
		c0-5.388702,10.475098-35.322311,17.360397-43.1035c6.885208-7.778305,11.972107-10.477997,11.972107-1.792007
		c0,8.682602,8.387695,20.349609,14.371094,26.939407c5.983398,6.579102,12.056702,14.459991,11.372101,16.463898
		c-0.667999,1.948196-4.275406,5.44339-6.368195,6.935608c-2.092712,1.502899-2.499008,12.455994,5.583099,6.768494
		c8.082001-5.688507,14.549789-9.217804,15.150299-12.211899c0.601593-2.995102,2.39949-8.071304-5.983398-23.644501
		c-8.381805-15.5625-18.072205-37.751511-18.072205-45.237808c0-7.486389,2.804703-6.389694,1.307602-16.864792
		c-1.497101-10.475601-6.484406-18.718704-4.987305-23.510696c1.497101-4.792511,9.178696,2.10939,9.479507,6.595688
		c0.299789,4.485809,3.890594,17.955612,3.890594,20.649902c0,2.693802,4.491196,7.781204,8.381805,7.781204
		c3.890701,0,9.879898-0.896408,4.191498-9.874496c-5.688507-8.977509-5.682709-10.180206-6.585007-17.660599
		c-0.901398-7.481003-6.289093-21.256409-15.567398-27.239807c-9.278305-5.983894-12.568405-11.671799-13.765091-14.065399
		c-1.196304-2.3936-0.300308-8.388199-0.601105-12.5737c-0.300293-4.185608,6.884796-3.884796,6.884796-6.879395
		c0-2.994606-6.878891-1.797905-7.479996-4.491699C198.207489,84.22361,198.502899,75.545906,185.634293,77.63871z"/>
	<path fill="none" stroke="#FFFFFF" stroke-width="2.84979" d="M367.758789,392.214844H32.243698
		c-12.567898,0-22.800827-10.230438-22.800827-22.798859V30.589409c0-12.5679,10.23293-22.803799,22.800827-22.803799h335.515076
		c12.568298,0,22.803711,10.235899,22.803711,22.803799v338.826569
		C390.5625,381.984406,380.327087,392.214844,367.758789,392.214844L367.758789,392.214844z"/>
	<path fill="#FFFFFF" d="M330.745087,200.007309V83.767105c0-4.308105-1.752899-8.221199-4.585907-11.054199
		c-2.833984-2.838394-6.746094-4.591797-11.060577-4.591797H200H89.412102l241.332977,241.327103V200.007309z"/>
	<path fill="#FFFFFF" d="M69.257797,200.007309v116.231979c0,4.319305,1.755905,8.226501,4.588905,11.053711
		c2.833,2.838806,6.743095,4.585907,11.054199,4.585907H200h112.856384L69.257797,88.281204V200.007309z"/>
	<path fill="#0334A6" d="M185.634293,77.63871c-13.163589,2.142998-12.56839,8.671799-12.56839,12.568291
		c0,3.895996-6.584503,5.994209-5.688004,7.786705c0.895996,1.792404,7.480499-1.502998,8.9776,1.792404
		c1.497498,3.294998,1.497498,3.294998,1.497498,3.294998s0.851593,7.041,6.239304,7.041
		c5.388199,0,4.174789,8.343201,0.8349,8.788498c-3.33931,0.445396-8.270905-0.261696-9.467697,3.027901
		c-1.196808,3.28949,1.491699,18.857407-9.87941,26.338394c-11.371597,7.480408-11.371597,7.480408-11.371597,7.480408
		s-8.977997,5.388199-13.1689,8.082092c-4.191498,2.693802-0.306198,15.868591,9.873993,8.683105
		c10.180206-7.186096,21.251007-15.863297,24.245605-18.557205c2.994095-2.693802,6.289505,4.792511,5.988693,9.579102
		c-0.30069,4.786697,3.8853,10.169006,2.092804,12.267593c-1.791992,2.098206-12.267593,14.972214-18.256302,32.925308
		c-5.989288,17.9561-9.573792,35.922897-10.475098,38.917999c-0.901901,2.983398-9.879898,10.764587-12.272995,11.365204
		c-2.393494,0.601593-3.890594,5.989288,1.196304,5.688507c5.087402-0.300812,14.070801-0.601624,17.661194-0.601624
		c3.589798,0,7.180099-4.786102,7.180099-10.173782c0-5.388702,10.475098-35.322311,17.360397-43.1035
		c6.885208-7.778305,11.972107-10.477997,11.972107-1.792007c0,8.682602,8.387695,20.349609,14.371094,26.939407
		c5.983398,6.579102,12.056702,14.459991,11.372101,16.463898c-0.667999,1.948196-4.275406,5.44339-6.368195,6.935608
		c-2.092712,1.502899-2.499008,12.455994,5.583099,6.768494c8.082001-5.688507,14.549789-9.217804,15.150299-12.211899
		c0.601593-2.995102,2.39949-8.071304-5.983398-23.644501c-8.381805-15.5625-18.072205-37.751511-18.072205-45.237808
		c0-7.486389,2.804703-6.389694,1.307602-16.864792c-1.497101-10.475601-6.484406-18.718704-4.987305-23.510696
		c1.497101-4.792511,9.178696,2.10939,9.479507,6.595688c0.299789,4.485809,3.890594,17.955612,3.890594,20.649902
		c0,2.693802,4.491196,7.781204,8.381805,7.781204c3.890701,0,9.879898-0.896408,4.191498-9.874496
		c-5.688507-8.977509-5.682709-10.180206-6.585007-17.660599c-0.901398-7.481003-6.289093-21.256409-15.567398-27.239807
		c-9.278305-5.983894-12.568405-11.671799-13.765091-14.065399c-1.196304-2.3936-0.300308-8.388199-0.601105-12.5737
		c-0.300293-4.185608,6.884796-3.884796,6.884796-6.879395c0-2.994606-6.878891-1.797905-7.479996-4.491699
		C198.207489,84.22361,198.502899,75.545906,185.634293,77.63871z"/>
	<polyline fill="none" stroke="#0334A6" stroke-width="5.69957" stroke-linecap="round" stroke-linejoin="round" points="
		119.582497,279.125 128.950195,279.125 124.0186,285.036102 	"/>
	
		<line fill="none" stroke="#0334A6" stroke-width="5.69957" stroke-linecap="round" stroke-linejoin="round" x1="121.897896" y1="282.242218" x2="125.727493" y2="287.496094"/>
	<path fill="none" stroke="#0334A6" stroke-width="5.69957" stroke-linecap="round" stroke-linejoin="round" d="
		M114.5952,317.507813c0-0.979523,0-27.162109,0-27.162109h21.462891c0,0,0,28.675812,0,30.457001
		c0,1.781311-5.610794-0.266602-5.610794-0.266602"/>
	
		<line fill="none" stroke="#0334A6" stroke-width="5.69957" stroke-linecap="round" stroke-linejoin="round" x1="114.5952" y1="308.86911" x2="136.05809" y2="308.86911"/>
	
		<line fill="none" stroke="#0334A6" stroke-width="5.69957" stroke-linecap="round" stroke-linejoin="round" x1="114.5952" y1="300.052704" x2="136.05809" y2="300.052704"/>
	
		<line fill="none" stroke="#0334A6" stroke-width="5.69957" stroke-linecap="round" stroke-linejoin="round" x1="125.371094" y1="290.345703" x2="125.371094" y2="315.726593"/>
	
		<line fill="none" stroke="#0334A6" stroke-width="5.69957" stroke-linecap="round" stroke-linejoin="round" x1="97.944801" y1="280.304718" x2="103.045898" y2="285.826202"/>
	<path fill="none" stroke="#0334A6" stroke-width="5.69957" stroke-linecap="round" stroke-linejoin="round" d="
		M99.185997,298.093689h9.2173l-3.862801,4.686615c0,0,7.199699,2.927704,5.268097,6.645508
		c-1.931198,3.729492-10.622597,14.038086-10.622597,14.038086s3.723701-5.376984,6.617699-4.408203
		c2.894501,0.957001,4.828598,6.478516,13.099602,6.478516s19.297401,0,19.297401,0"/>
	<path fill="none" stroke="#0334A6" stroke-width="5.69957" stroke-linecap="round" stroke-linejoin="round" d="
		M165.095703,280.772491c0,0-7.352509,10.597626-10.001907,13.247009"/>
	<path fill="none" stroke="#0334A6" stroke-width="5.69957" stroke-linecap="round" stroke-linejoin="round" d="
		M168.335007,289.900391c0,0-7.942413,13.537109-11.772003,17.355499"/>
	
		<line fill="none" stroke="#0334A6" stroke-width="5.69957" stroke-linecap="round" stroke-linejoin="round" x1="162.690903" y1="298.995117" x2="162.690903" y2="323.152313"/>
	
		<line fill="none" stroke="#0334A6" stroke-width="5.69957" stroke-linecap="round" stroke-linejoin="round" x1="173.633789" y1="296.079102" x2="195.998001" y2="296.079102"/>
	
		<line fill="none" stroke="#0334A6" stroke-width="5.69957" stroke-linecap="round" stroke-linejoin="round" x1="191.879395" y1="277.834015" x2="176.867691" y2="277.834015"/>
	<path fill="none" stroke="#0334A6" stroke-width="5.69957" stroke-linecap="round" stroke-linejoin="round" d="
		M187.170395,296.079102c0,0,0,16.775391,0,21.183594c0,4.419891-8.5327,7.948212-8.5327,7.948212"/>
	
		<line fill="none" stroke="#0334A6" stroke-width="5.69957" stroke-linecap="round" stroke-linejoin="round" x1="216.892593" y1="323.152313" x2="255.448196" y2="323.152313"/>
	
		<line fill="none" stroke="#0334A6" stroke-width="5.69957" stroke-linecap="round" stroke-linejoin="round" x1="237.498001" y1="323.152313" x2="237.498001" y2="279.002899"/>
	
		<line fill="none" stroke="#0334A6" stroke-width="5.69957" stroke-linecap="round" stroke-linejoin="round" x1="225.725601" y1="323.152313" x2="225.725601" y2="291.069305"/>
	
		<line fill="none" stroke="#0334A6" stroke-width="5.69957" stroke-linecap="round" stroke-linejoin="round" x1="237.498001" y1="298.728516" x2="252.798798" y2="298.728516"/>
</g>
</svg>
