<?xml version="1.0" encoding="UTF-8" standalone="no"?>
<!DOCTYPE svg PUBLIC "-//W3C//DTD SVG 1.1//EN" "http://www.w3.org/Graphics/SVG/1.1/DTD/svg11.dtd">
<!-- Created with Vectornator (http://vectornator.io/) -->
<svg height="400.0pt" stroke-miterlimit="10" style="fill-rule:nonzero;clip-rule:evenodd;stroke-linecap:round;stroke-linejoin:round;" version="1.1" viewBox="0 0 400 400" width="400.0pt" xml:space="preserve" xmlns="http://www.w3.org/2000/svg" xmlns:xlink="http://www.w3.org/1999/xlink">
<defs/>
<g id="名称未設定">
<g opacity="1">
<path d="M1.42109e-14 0L400 0L400 0L400 400L400 400L1.42109e-14 400L1.42109e-14 400L1.42109e-14 0L1.42109e-14 0Z" fill="#808080" fill-rule="nonzero" opacity="1" stroke="none"/>
</g>
<path d="M37.5053 341.493C37.5053 329.642 47.112 320.035 58.9624 320.035C70.8129 320.035 80.4196 329.642 80.4196 341.493C80.4196 353.343 70.8129 362.95 58.9624 362.95C47.112 362.95 37.5053 353.343 37.5053 341.493Z" fill="none" opacity="1" stroke="#ffffff" stroke-linecap="butt" stroke-linejoin="miter" stroke-width="6"/>
<path d="M115.488 341.493C115.488 329.642 125.094 320.035 136.945 320.035C148.795 320.035 158.402 329.642 158.402 341.493C158.402 353.343 148.795 362.95 136.945 362.95C125.094 362.95 115.488 353.343 115.488 341.493Z" fill="none" opacity="1" stroke="#ffffff" stroke-linecap="butt" stroke-linejoin="miter" stroke-width="6"/>
<path d="M58.0228 342.984L80.4776 279.644L96.975 279.481" fill="none" opacity="1" stroke="#ffffff" stroke-linecap="butt" stroke-linejoin="miter" stroke-width="6"/>
<path d="M139.735 341.317L99.4724 341.317L71.6379 303.586" fill="none" opacity="1" stroke="#ffffff" stroke-linecap="butt" stroke-linejoin="miter" stroke-width="6"/>
<path d="M72.1018 303.982L117.588 303.982L136.341 341.17" fill="none" opacity="1" stroke="#ffffff" stroke-linecap="butt" stroke-linejoin="miter" stroke-width="6"/>
<path d="M102.631 341.512L119.762 292.736" fill="none" opacity="1" stroke="#ffffff" stroke-linecap="butt" stroke-linejoin="miter" stroke-width="6"/>
<path d="M109.783 293.598L129.588 293.598" fill="none" opacity="1" stroke="#ffffff" stroke-linecap="butt" stroke-linejoin="miter" stroke-width="6"/>
<path d="M90.182 341.119L109.986 341.119" fill="none" opacity="1" stroke="#ffffff" stroke-linecap="butt" stroke-linejoin="miter" stroke-width="12"/>
<path d="M103.539 233.485L103.539 161.052C102.942 131.266 96.8605 124.739 85.0943 124.653" fill="none" opacity="1" stroke="#ffffff" stroke-linecap="butt" stroke-linejoin="miter" stroke-width="12"/>
<path d="M177.824 375.031L177.824 77.169C176.766 48.9326 149.576 38.1976 125.416 37.1922L34.1799 37.3512" fill="none" opacity="1" stroke="#fd8d33" stroke-linecap="butt" stroke-linejoin="miter" stroke-width="12"/>
<path d="M64.9516 124.812L85.7361 92.6747L85.7361 156.949L64.9516 124.812Z" fill="#ffffff" fill-rule="nonzero" opacity="1" stroke="none"/>
</g>
</svg>
