<svg class="svgOrigin" xmlns="http://www.w3.org/2000/svg" width="400" height="400" x="0px" y="0px" viewBox="0 0 400 400" enable-background="new 0 0 400 400">
<g>
	<path fill="#0334A6" d="M397.142578,368.80661c0,14.795898-12.105499,26.901398-26.901398,26.901398H29.758801
		c-14.795401,0-26.901381-12.105499-26.901381-26.901398V31.193409C2.85742,16.397511,14.9634,4.292,29.758801,4.292H370.24118
		c14.795898,0,26.901398,12.105511,26.901398,26.901409V368.80661z"/>
	<path fill="none" stroke="#FFFFFF" stroke-width="2.69014" d="M370.24118,390.317383H29.758801
		c-11.8692,0-21.521011-9.657196-21.521011-21.510773V31.188509c0-11.8589,9.651811-21.510799,21.521011-21.510799H370.24118
		c11.869202,0,21.520508,9.651899,21.520508,21.510799V368.80661C391.761688,380.660187,382.110382,390.317383,370.24118,390.317383
		L370.24118,390.317383z"/>
	<path fill="#FFFFFF" d="M129.178696,79.792c-12.110802,0-18.478996,12.423805-20.711899,14.656708
		s-0.961403,9.877998,3.184097,12.428703c4.1455,2.550797,3.824699,11.157295,7.329605,12.110893
		c3.504395,0.953606,3.194298,5.732407-0.315498,8.283203c-3.509705,2.550804-16.256302,10.198204-22.308998,19.758293
		c-6.052803,9.560013-14.974701,26.767609-15.295006,40.788605c-0.320801,14.020493-1.592194,20.714798-1.592194,22.306595
		c0,1.591812,3.8144,5.732407,9.236794,5.732407c5.422302,0,10.519005-7.965805,14.3442-7.965805
		c3.824699,0,4.781303,7.965805,2.548302,8.921906c-2.233398,0.955994-1.2714,8.6064-0.635704,11.789993
		c0.635704,3.189499,1.276405,11.160202-0.956497,12.431702c-2.233002,1.271408-0.005402,11.790009-2.233002,15.294907
		c-2.227997,3.504883-0.635696,11.154297-0.635696,17.848602c0,6.688507,4.140099,12.105499,2.548302,14.65918
		c-1.592201,2.542999-3.189407,13.697296,1.591797,14.333008c4.781296,0.641602,11.1548-0.956085,12.746597-3.183594
		c1.5923-2.227509-1.591797-8.921906-0.635696-11.469696c0.956497-2.54892,6.373497-2.863312,6.373497,2.232391
		c0,5.09671,0,12.742188,0,15.610413c0,2.86908,5.417,5.096588,7.965401,5.096588c2.548294,0,9.5625,0.141602,9.5625-5.542908
		c0-9.237305,0-56.598694,0-60.738297c0-4.140594,6.373505,4.781204,6.373505,8.28511
		c0,3.504883,3.184097,20.712891,1.2715,23.901398c-1.912598,3.184601-2.228104,25.172882-3.184097,27.406281
		c-0.956604,2.227509-3.184113,12.43161,4.781189,14.338806c7.965408,1.907196,13.703201,1.591797,11.469803-4.460876
		c-2.232895-6.052826-6.367706-8.286102-5.096207-13.387726c1.271515-5.09668,8.601013-11.475586,8.601013-38.875977
		s-9.877899-35.371109-9.877899-41.74411c0-6.373093,0-11.791,0-11.791h7.965393c0,0-0.951202,7.650299,6.058105,7.330002
		c7.008698-0.320297,11.149399-8.921799,11.149399-17.207504c0-8.285599-12.106003-41.426697-14.018097-47.799789
		c-1.912613-6.373505-20.712402-20.397003-24.216812-23.583504c-3.504395-3.186501-5.106888-5.734802-1.597198-8.921906
		c3.509811-3.186493,7.014206-8.285591,7.014206-11.472092c0-3.187004,4.140594-3.187004,4.140594-7.329605
		c0-4.143097-5.417496-7.647499-8.286102-10.834496C140.969193,85.842308,135.867203,79.792,129.178696,79.792z"/>
	<path fill="#0334A6" d="M107.794395,170.786606c-2.832001,0.236801-5.942795,6.717804-7.235298,10.077698
		c-1.292496,3.359802,0,11.627396-2.327698,13.695297c-2.327599,2.067398-3.094696,8.009705,0.777901,8.782211
		c3.871994,0.777298,8.269997-2.059601,9.042496-4.647507c0.7724-2.5849,1.029701-14.727493,1.029701-17.3125
		C109.081497,178.796906,113.999496,170.268997,107.794395,170.786606z"/>
	<path fill="#0334A6" d="M157.147003,172.339401c-4.534714-1.048401-3.878006,6.714798-3.878006,12.142502
		c0,5.427307-0.771896,15.502502,3.878006,16.022507c4.649887,0.515091,9.557098,1.287598,9.557098-2.8452
		c0-4.132309-4.649902-10.335007-4.649902-13.952209C162.054199,180.089401,160.509293,173.117203,157.147003,172.339401z"/>
	<path fill="#0334A6" d="M122.264198,253.724609c-3.394104,0-5.164604,7.234406-5.164604,12.404297
		c0,5.170898,2.069801,10.334991,4.392105,10.334991c2.3228,0,2.3228,0,2.3228,0s0.777298-5.426788,0.777298-11.370209
		C124.591797,259.151398,125.106895,253.724609,122.264198,253.724609z"/>
	<path fill="#FFFFFF" d="M141.647003,315.997101c-3.100113,0-15.116203,0-16.666504,0c0,3.872009,0,15.756805,0,18.604492
		c0,2.837921,2.706001,6.458008,7.618591,6.458008c4.912613,0,9.047913-3.357513,9.047913-7.493195
		C141.647003,329.43161,141.647003,315.997101,141.647003,315.997101z"/>
	<path fill="#FFFFFF" d="M265.997986,79.792c-12.111298,0-18.479385,12.423805-20.711899,14.656708
		c-2.233398,2.232903-0.961899,9.877998,3.183609,12.428703c4.145493,2.550797,3.825195,11.157295,7.330093,12.110893
		c3.503891,0.953606,3.19429,5.732407-0.315399,8.283203c-3.509796,2.550804-16.256897,10.198204-22.309601,19.758293
		c-6.052689,9.560013-14.974594,26.767609-15.294891,40.788605c-0.320297,14.020493-1.591797,20.714798-1.591797,22.306595
		c0,1.591812,3.814392,5.732407,9.236298,5.732407c5.422897,0,10.519501-7.965805,14.344696-7.965805
		c3.824295,0,4.781296,7.965805,2.547913,8.921906c-2.233414,0.955994-1.271515,8.6064-0.635712,11.789993
		c0.635712,3.189499,1.276291,11.160202-0.9561,12.431702c-2.233398,1.271408-0.005905,11.790009-2.233398,15.294907
		c-2.227509,3.504883-0.635696,11.154297-0.635696,17.848602c0,6.688507,4.140594,12.105499,2.548798,14.65918
		c-1.592804,2.542999-3.189499,13.697296,1.591797,14.333008c4.781204,0.641602,11.154312-0.956085,12.746094-3.183594
		c1.592697-2.227509-1.591782-8.921906-0.635788-11.469696c0.957092-2.54892,6.374084-2.863312,6.374084,2.232391
		c0,5.09671,0,12.742188,0,15.610413c0,2.86908,5.416901,5.096588,7.964813,5.096588c2.548798,0,9.5625,0.141602,9.5625-5.542908
		c0-9.237305,0-56.598694,0-60.738297c0-4.140594,6.373993,4.781204,6.373993,8.28511
		c0,3.504883,3.183594,20.712891,1.271515,23.901398c-1.913116,3.184601-2.228516,25.172882-3.184601,27.406281
		c-0.956024,2.227509-3.183624,12.43161,4.781281,14.338806c7.96582,1.907196,13.703094,1.591797,11.469696-4.460876
		c-2.232391-6.052826-6.367188-8.286102-5.095703-13.387726c1.271515-5.09668,8.600616-11.475586,8.600616-38.875977
		s-9.877899-35.371109-9.877899-41.74411c0-6.373093,0-11.791,0-11.791h7.96579c0,0-0.951202,7.650299,6.057617,7.330002
		c7.008789-0.320297,11.149384-8.921799,11.149384-17.207504c0-8.285599-12.105499-41.426697-14.018494-47.799789
		c-1.912109-6.373505-20.712006-20.397003-24.215912-23.583504c-3.504791-3.186501-5.107391-5.734802-1.597595-8.921906
		c3.509796-3.186493,7.014618-8.285591,7.014618-11.472092c0-3.187004,4.140686-3.187004,4.140686-7.329605
		c0-4.143097-5.417999-7.647499-8.286194-10.834496C277.788086,85.842308,272.686493,79.792,265.997986,79.792z"/>
	<path fill="#0334A6" d="M244.613297,170.786606c-2.832001,0.236801-5.942398,6.717804-7.235397,10.077698
		c-1.292007,3.359802,0,11.627396-2.327103,13.695297c-2.32811,2.067398-3.094696,8.009705,0.777298,8.782211
		c3.872101,0.777298,8.270493-2.059601,9.042999-4.647507c0.772507-2.5849,1.029297-14.727493,1.029297-17.3125
		C245.900391,178.796906,250.81839,170.268997,244.613297,170.786606z"/>
	<path fill="#0334A6" d="M293.96579,172.339401c-4.53421-1.048401-3.877899,6.714798-3.877899,12.142502
		c0,5.427307-0.771484,15.502502,3.877899,16.022507c4.650391,0.515091,9.557617,1.287598,9.557617-2.8452
		c0-4.132309-4.650421-10.335007-4.650421-13.952209C298.872986,180.089401,297.328094,173.117203,293.96579,172.339401z"/>
	<path fill="#0334A6" d="M259.083008,253.724609c-3.393509,0-5.165009,7.234406-5.165009,12.404297
		c0,5.170898,2.070297,10.334991,4.392487,10.334991c2.322296,0,2.322296,0,2.322296,0s0.77832-5.426788,0.77832-11.370209
		C261.411102,259.151398,261.925781,253.724609,259.083008,253.724609z"/>
	<path fill="#FFFFFF" d="M278.46579,315.997101c-3.099609,0-15.116211,0-16.665985,0c0,3.872009,0,15.756805,0,18.604492
		c0,2.837921,2.706085,6.458008,7.618195,6.458008c4.913086,0,9.047791-3.357513,9.047791-7.493195
		C278.46579,329.43161,278.46579,315.997101,278.46579,315.997101z"/>
	<path fill="#0334A6" d="M144.710007,224.663101c-2.916107-0.010803-23.317909-0.010803-25.776909,0
		c-3.184097,0-4.781204,2.417007-4.781204,4.770508c0,2.542999,1.754807,5.307602,5.0019,5.307602c1.2295,0,3.068405,0,5.159706,0
		v4.938492c0,0.368195,0.299301,0.672806,0.672295,0.672806c0.367706,0,0.672401-0.304611,0.672401-0.672806v-4.938492
		c4.003899,0,8.690407,0,12.557594,0v4.938492c0,0.373001,0.289108,0.672806,0.672913,0.672806
		c0.362305,0,0.666992-0.299805,0.666992-0.672806v-4.938492c2.285599,0,4.161606,0,5.154312,0
		c2.684998-0.089813,4.114197-3.037109,4.124496-5.590805C148.834503,226.969711,147.579102,224.663101,144.710007,224.663101z
		 M144.710007,233.406204c-3.803711,0-20.175812,0-25.556213,0c-2.369598-0.010696-3.641098-1.970703-3.662094-3.972595
		c0.0522-1.833008,1.008797-3.393616,3.441399-3.43071c2.474602,0,22.860802,0,25.776909,0
		c2.043884,0.037094,2.721588,1.339905,2.789993,3.147507C147.5,231.298798,146.139191,233.395508,144.710007,233.406204z"/>
	<path fill="#0334A6" d="M281.529297,224.663101c-2.911102,0-23.307617,0-25.782196,0
		c-3.178711,0-4.781311,2.421906-4.781311,4.770508c0,2.538101,1.759811,5.3125,5.006897,5.3125c1.224609,0,3.063416,0,5.149414,0
		v4.933594c0,0.373001,0.304688,0.667007,0.677704,0.667007c0.373077,0,0.677704-0.294006,0.677704-0.667007v-4.933594
		c4.003876,0,8.685577,0,12.551788,0v4.928696c0,0.373093,0.305695,0.677704,0.678711,0.677704
		c0.362274,0,0.666992-0.304611,0.666992-0.677704v-4.928696c2.285187,0,4.161102,0,5.154297,0
		c2.684601-0.099609,4.114288-3.032211,4.140594-5.595703C285.669891,226.974609,284.392578,224.663101,281.529297,224.663101z
		 M281.529297,233.406204c-2.836914,0-12.678711,0-19.724609,0l-0.004883-0.004807l-0.004913,0.004807
		c-2.390594,0-4.460876,0-5.822205,0c-2.369186-0.010696-3.640686-1.964798-3.666992-3.972595
		c0.057602-1.82811,1.018494-3.393616,3.441406-3.43071c2.474579,0,22.855377,0,25.782196,0
		c2.038086,0.037094,2.726593,1.339905,2.794891,3.147507C284.313507,231.304703,282.958008,233.395508,281.529297,233.406204z"/>
</g>
</svg>
