<svg class="svgOrigin" xmlns="http://www.w3.org/2000/svg" width="400" height="400" x="0px" y="0px" viewBox="0 0 400 400" enable-background="new 0 0 400 400">
<g>
	<path fill="#0334A6" d="M46.775398,397.50293c-18.668499,0-26.191399-11.202118-26.191399-23.145538
		c0-8.071289,0-69.332001,0-69.332001s0.382299-24.104492,5.346201-32.03418
		c5.0434-8.05661,140.015091-236.424301,150.763596-254.048798C187.442398,1.31741,200,2.51461,200,2.51461
		s12.557602-1.1972,23.305695,16.427799c10.748993,17.6245,145.720703,245.992188,150.764587,254.048798
		c4.962921,7.929688,5.345703,32.03418,5.345703,32.03418s0,61.260712,0,69.332001
		c0,11.94342-7.523407,23.145538-26.191406,23.145538C334.555695,397.50293,65.443802,397.50293,46.775398,397.50293z"/>
	<path fill="none" stroke="#FFFFFF" stroke-width="2.41797" d="M353.229492,385.422913H46.775398
		c-9.492199,0-14.101597-3.618225-14.101597-11.060608v-69.336914c0.174797-10.417999,1.860897-22.735382,3.522999-25.639679
		c2.502899-4,33.695801-56.666,69.809494-117.648911c37.114799-62.663994,75.495201-127.457993,81.006401-136.492188
		c5.601105-9.192801,10.947311-10.4629,12.227005-10.6284l1.633789,0.27879l0.189011-0.229
		c1.620102,0.299809,6.659195,1.945309,11.929688,10.578609c5.510712,9.034199,43.886719,73.828201,81.005798,136.492188
		c36.114319,60.98291,67.306702,113.648911,69.829102,117.673416c1.642609,2.879791,3.329193,15.197174,3.503998,25.813385
		v69.138702C367.331085,381.804688,362.72168,385.422913,353.229492,385.422913L353.229492,385.422913z"/>
	<path fill="#FFFFFF" d="M198.88089,51.048809c-6.4888-0.333-14.101593,4.8335-14.101593,10.073299
		c0,5.2397-10.0737,9.674301-9.671906,12.8974c0.401398,3.223198,11.683609,3.223198,11.683609,8.059097
		c0,4.835999,1.615295,14.505394-3.220703,16.522003c-4.835907,2.016602-4.835907,2.016602-4.835907,2.016602
		s-12.08989,8.864197-14.507797,13.700195c-2.417999,4.835899-18.938004,27.806587-20.552795,37.882301
		c-1.615204,10.075699-4.434494,38.283691-4.434494,42.314499c0,4.030701,3.220703,6.4487,8.864197-0.805206
		c5.6436-7.253891,2.824188-20.148895,8.869202-31.433594c6.044891-11.284698,16.92569-19.343796,17.327087-13.298798
		c0.401413,6.044891-5.643494,34.654297-8.462891,40.297791c-2.819305,5.6436,6.446304,12.491211,5.237289,18.134811
		c-1.209,5.648392-35.863297,94.305603-36.670898,97.932587c-0.807587,3.626892,1.610413,7.655304,9.671906,10.88089
		c8.061508,3.225525,18.536102,9.671814,18.536102,2.016602c0-7.660187-9.270508-5.639679-4.835907-15.716797
		c4.434616-10.078186,30.630905-66.499084,35.86821-69.31839c5.237289-2.81929,14.512695,8.061508,20.151291,15.315399
		c5.638702,7.253906,29.823303,60.850586,35.060608,66.092804c5.237289,5.237305,29.818298-1.615204,31.8349-1.615204
		s0.807587-4.835999-5.237305-8.462891c-6.044891-3.627014-10.484314-1.209015-16.122986-14.90921
		c-5.638718-13.700195-12.085022-29.823212-16.519608-39.8965c-4.434494-10.073196-28.902313-49.058594-29.837799-53.578094
		c-0.934601-4.519501,4.519485-27.735794,7.013596-32.720703c2.493195-4.98439,4.982498-3.8936,12.929703,3.584503
		c7.948288,7.4785,16.515594,6.387695,19.1651,8.257797c2.649399,1.870102,4.206985,6.387207,7.1689,6.387207
		c2.960907,0,8.254883-6.387207,8.254883-9.036606c0-2.649506-4.047882-3.582092-9.34668-7.478607
		c-5.297806-3.895996-26.020508-18.387192-31.631805-29.138092c-5.610397-10.750999-11.848709-25.242195-13.875-29.138695
		c-2.025391-3.896004-8.098709-7.166504-8.722702-8.257301c-0.623001-1.090912-1.090805-5.3013-0.155304-7.013199
		c0.934601-1.711899,9.190506-6.696304,9.190506-13.085999c0-6.389603,7.324203-5.452103,7.324203-9.036606
		c0-3.584496-9.510803-4.054695-10.597702-8.103996C208.604492,57.320309,207.235397,51.476109,198.88089,51.048809z"/>
	<g>
		<path fill="#FFFFFF" d="M269.200195,266.058594c0-2.658203,2.176819-4.835876,4.835907-4.835876h35.38678
			c2.658203,0,6.195313,1.700195,7.858398,3.773376l2.941406,3.683624c1.662994,2.078094,3.0224,5.955078,3.0224,8.614197v0.864288
			c0,2.65921-2.176697,4.835907-4.835907,4.835907h-34.984375c-2.65921,0-6.224609-1.676697-7.924805-3.721619l-3.210907-3.863281
			c-1.700195-2.044006-3.088898-5.898499-3.088898-8.556702V266.058594z"/>
	</g>
	<g>
		<path fill="#FFFFFF" d="M51.450699,359.911102c-2.658699,0-4.835999-1.813416-4.835999-4.033203
			c0-2.2099,1.194901-5.84671,2.659199-8.066406l5.038601-7.650391c1.464401-2.219696,4.835899-4.033203,7.495098-4.033203
			h276.384796c2.65921,0,6.031219,1.813507,7.495117,4.033203l5.039093,7.650391
			c1.463806,2.219696,2.658203,5.856506,2.658203,8.066406c0,2.219788-2.176788,4.033203-4.835999,4.033203H51.450699z"/>
	</g>
	<g>
		<path fill="#FFFFFF" d="M130.799789,266.058594c0-2.658203-2.177185-4.835876-4.835892-4.835876H90.577599
			c-2.659096,0-6.196297,1.700195-7.858398,3.773376l-2.942299,3.683624c-1.662201,2.078094-3.022499,5.955078-3.022499,8.614197
			v0.864288c0,2.65921,2.1772,4.835907,4.835899,4.835907h34.984894c2.659203,0,6.224602-1.676697,7.924805-3.721619
			l3.211395-3.863281c1.700195-2.044006,3.088394-5.898499,3.088394-8.556702V266.058594z"/>
	</g>
</g>
</svg>
