<?xml version="1.0" encoding="UTF-8" standalone="no"?>
<!DOCTYPE svg PUBLIC "-//W3C//DTD SVG 1.1//EN" "http://www.w3.org/Graphics/SVG/1.1/DTD/svg11.dtd">
<!-- Created with Vectornator (http://vectornator.io/) -->
<svg height="400.0pt" stroke-miterlimit="10" style="fill-rule:nonzero;clip-rule:evenodd;stroke-linecap:round;stroke-linejoin:round;" version="1.1" viewBox="0 0 400 400" width="400.0pt" xml:space="preserve" xmlns="http://www.w3.org/2000/svg" xmlns:xlink="http://www.w3.org/1999/xlink">
<defs/>
<g id="名称未設定">
<g opacity="1">
<path d="M1.42109e-14 0L400 0L400 0L400 400L400 400L1.42109e-14 400L1.42109e-14 400L1.42109e-14 0L1.42109e-14 0Z" fill="#808080" fill-rule="nonzero" opacity="1" stroke="none"/>
<path d="M228.284 86.8629L313.137 171.716L313.137 171.716L291.924 192.929L291.924 192.929L207.071 108.076L207.071 108.076L228.284 86.8629L228.284 86.8629Z" fill="#ffffff" fill-rule="nonzero" opacity="1" stroke="none"/>
<path d="M270.711 44.4365L355.563 129.289L355.563 129.289L334.35 150.503L334.35 150.503L249.497 65.6497L249.497 65.6497L270.711 44.4365L270.711 44.4365Z" fill="#ffffff" fill-rule="nonzero" opacity="1" stroke="none"/>
<path d="M313.137 2.0101L397.99 86.8629L397.99 86.8629L376.777 108.076L376.777 108.076L291.924 23.2233L291.924 23.2233L313.137 2.0101L313.137 2.0101Z" fill="#ffffff" fill-rule="nonzero" opacity="1" stroke="none"/>
<path d="M108.076 207.071L192.929 291.924L192.929 291.924L171.716 313.137L171.716 313.137L86.8629 228.284L86.8629 228.284L108.076 207.071L108.076 207.071Z" fill="#ffffff" fill-rule="nonzero" opacity="1" stroke="none"/>
<path d="M65.6497 249.497L150.503 334.35L150.503 334.35L129.289 355.563L129.289 355.563L44.4365 270.711L44.4365 270.711L65.6497 249.497L65.6497 249.497Z" fill="#ffffff" fill-rule="nonzero" opacity="1" stroke="none"/>
<path d="M23.2233 291.924L108.076 376.777L108.076 376.777L86.8629 397.99L86.8629 397.99L2.0101 313.137L2.0101 313.137L23.2233 291.924L23.2233 291.924Z" fill="#ffffff" fill-rule="nonzero" opacity="1" stroke="none"/>
<path d="M313.137 228.284L228.284 313.137L228.284 313.137L207.071 291.924L207.071 291.924L291.924 207.071L291.924 207.071L313.137 228.284L313.137 228.284Z" fill="#ffffff" fill-rule="nonzero" opacity="1" stroke="none"/>
<path d="M355.563 270.711L270.711 355.563L270.711 355.563L249.497 334.35L249.497 334.35L334.35 249.497L334.35 249.497L355.563 270.711L355.563 270.711Z" fill="#ffffff" fill-rule="nonzero" opacity="1" stroke="none"/>
<path d="M397.99 313.137L313.137 397.99L313.137 397.99L291.924 376.777L291.924 376.777L376.777 291.924L376.777 291.924L397.99 313.137L397.99 313.137Z" fill="#ffffff" fill-rule="nonzero" opacity="1" stroke="none"/>
<path d="M192.929 108.076L108.076 192.929L108.076 192.929L86.8629 171.716L86.8629 171.716L171.716 86.8629L171.716 86.8629L192.929 108.076L192.929 108.076Z" fill="#ffffff" fill-rule="nonzero" opacity="1" stroke="none"/>
<path d="M150.503 65.6497L65.6497 150.503L65.6497 150.503L44.4365 129.289L44.4365 129.289L129.289 44.4365L129.289 44.4365L150.503 65.6497L150.503 65.6497Z" fill="#ffffff" fill-rule="nonzero" opacity="1" stroke="none"/>
<path d="M108.076 23.2233L23.2233 108.076L23.2233 108.076L2.0101 86.8629L2.0101 86.8629L86.8629 2.0101L86.8629 2.0101L108.076 23.2233L108.076 23.2233Z" fill="#ffffff" fill-rule="nonzero" opacity="1" stroke="none"/>
</g>
</g>
</svg>
