<svg class="svgOrigin" xmlns="http://www.w3.org/2000/svg" width="400" height="400" x="0px" y="0px" viewBox="0 0 400 400" enable-background="new 0 0 400 400">
<g>
	<path fill="#0334A6" d="M46.971699,397.25c-18.644598,0-26.1577-11.1875-26.1577-23.115204c0-8.065491,0-69.244202,0-69.244202
		s0.381802-24.073181,5.3388-31.992188c5.0376-8.046814,139.836487-236.122498,150.570801-253.724594
		C187.459,1.57181,200,2.76761,200,2.76761s12.542007-1.1958,23.276398,16.406199
		c10.734299,17.6021,145.533203,245.67778,150.570282,253.724594c4.958008,7.919006,5.339813,31.992188,5.339813,31.992188
		s0,61.178711,0,69.244202c0,11.927704-7.513611,23.115204-26.158203,23.115204
		C334.384796,397.25,65.616203,397.25,46.971699,397.25z"/>
	<path fill="none" stroke="#FFFFFF" stroke-width="2.41487" d="M353.033203,385.184601H46.971699
		c-9.48,0-14.0835-3.617188-14.0835-11.049805v-69.239288c0.174301-10.414093,1.858402-22.709991,3.518501-25.611298
		c2.499599-3.998993,33.652397-56.593811,69.719795-117.498108c37.067307-62.583992,75.398407-127.295395,80.902802-136.317795
		c5.594193-9.1807,10.933594-10.449699,12.211395-10.614799l1.631897,0.2783l0.188904-0.2285
		c1.618195,0.2993,6.650406,1.942901,11.914108,10.565c5.503891,9.022398,43.830093,73.733803,80.902298,136.317795
		c36.067383,60.904297,67.219788,113.499115,69.738281,117.517609c1.641602,2.881805,3.325195,15.177704,3.501007,25.785187
		v69.045898C367.117188,381.567413,362.513702,385.184601,353.033203,385.184601L353.033203,385.184601z"/>
	<g>
		<path fill="#FFFFFF" d="M57.5933,372.719696c-2.6036,0-4.735401-1.811493-4.735401-4.023407
			c0-2.212891,1.1367-5.825195,2.528301-8.023376l4.876499-7.707123c1.391602-2.197205,4.660198-3.998993,7.263699-3.998993
			h264.942383c2.603516,0,5.876923,1.801788,7.268524,3.998993l4.872101,7.707123
			c1.395477,2.198181,2.532196,5.810486,2.532196,8.023376c0,2.211914-2.13092,4.023407-4.735321,4.023407H57.5933z"/>
	</g>
	<path fill="#FFFFFF" d="M288.133789,253.183609c-4.97171,0-9.720703,0.923798-14.135803,2.537094
		c-0.938385-2.707993-1.867096-5.443405-2.773407-8.178696c-7.070282-20.998108-13.503876-42.317398-15.464783-48.233902
		c-0.459-1.317902-0.599609-2.315903-0.609406-3.150406c0.029297-2.242706,1.070313-3.365189,2.848602-5.166992
		c1.660187-1.655701,4.264709-3.931107,4.273499-7.893005c0-1.327698-0.296906-2.728592-0.88681-4.240295
		c-3.003876-7.143005-10.777283-7.852997-14.932587-7.883804c-2.028305,0-3.4189,0.205109-3.508804,0.226608
		c-1.320297,0.195786-2.235291,1.429199-2.02829,2.747589c0.202194,1.318314,1.429688,2.223602,2.745087,2.027802v-0.012192
		c0,0,1.094803-0.162598,2.792007-0.162598c3.778305-0.0327,9.117203,0.998001,10.438507,4.825195
		c0.418884,1.070801,0.565399,1.875,0.565399,2.471695c0.009796,1.575211-0.948212,2.582504-2.8535,4.457001
		c-1.778305,1.7285-4.301712,4.374496-4.273407,8.602997c-0.008804,1.431702,0.259705,2.985413,0.843704,4.692902
		c0.906296,2.711899,2.849594,8.987305,5.382782,17.052704l-95.991684-0.801697l-6.230392-12.225601
		c5.41449,0.028305,13.234299,0.121994,13.234299-2.987305c0-3.339905-11.437012-7.391098-16.328613-7.391098
		c-4.891098,0-10.791489,3.098602-10.791489,5.900299c0,2.419495,0.882401,3.995697,8.584,4.371597
		c0.038101,0.253006,0.085495,0.498108,0.203094,0.734406L156.43309,219.625l-22.511688,38.142609
		c-5.655304-2.9151-12.051308-4.584-18.847702-4.584c-22.790001,0-41.269501,18.479507-41.279297,41.269485
		c0.009796,22.799805,18.489296,41.269592,41.279297,41.269592c21.979004,0,39.892593-17.186584,41.151901-38.849701h19.078598
		c1.126999,10.314514,9.234894,18.417023,19.550293,19.549927v11.287079c0,1.324219,1.080109,2.410095,2.415009,2.410095
		c1.334,0,2.418991-1.085876,2.418991-2.410095v-11.287079c11.117203-1.22171,19.795898-10.522522,19.795898-21.960022
		c0-5.94339-2.363297-11.301788-6.150391-15.287079l45.542007-53.923813c2.344696,7.366211,5.004883,15.620102,7.769501,23.833008
		c0.980499,2.876892,1.960876,5.730392,2.9375,8.536087c-13.46582,6.796906-22.724609,20.710907-22.729507,36.832001
		c0.009796,22.799805,18.489304,41.269592,41.280289,41.269592c22.790009,0,41.269501-18.469788,41.279297-41.269592
		C329.40329,271.65329,310.923798,253.183609,288.133789,253.183609z M159.027298,224.723602l26.077698,51.174805
		c-5.400406,3.546906-9.060593,9.390686-9.800797,16.139709h-19.078598c-0.7686-13.262726-7.753906-24.856506-18.139709-31.845703
		L159.027298,224.723602z M199.688492,277.3125c2.476501,0.348602,4.783203,1.188507,6.805603,2.467804l-6.805603,8.060486V277.3125
		z M194.854492,284.392609l-3.211899-6.305695c1.0327-0.358398,2.098602-0.613312,3.211899-0.774414V284.392609z
		 M193.325699,292.038116h-13.201202c0.693405-4.873108,3.339401-9.093811,7.188004-11.800812L193.325699,292.038116z
		 M151.391098,292.038116h-32.105499l16.329102-27.658203C144.575699,270.511688,150.617691,280.543915,151.391098,292.038116z
		 M115.0737,330.892609c-20.125504-0.02832-36.407204-16.319397-36.444801-36.439514
		c0.037598-20.125977,16.319298-36.407196,36.444801-36.440399c5.900398,0.009796,11.451698,1.448212,16.375992,3.934601
		l-18.455994,31.275421c-0.443398,0.748993-0.452698,1.673798-0.0186,2.427673
		c0.429199,0.759827,1.231003,1.222595,2.108398,1.222595H151.3862
		C150.117691,315.856415,134.388199,330.864288,115.0737,330.892609z M180.124496,296.872986h14.729996v14.714905
		C187.204102,310.507813,181.209488,304.508789,180.124496,296.872986z M214.654297,294.462891
		c-0.019501,8.752899-6.523407,15.932617-14.965805,17.125v-16.257782l10.485306-12.413116
		C212.922897,285.991211,214.644501,290.00589,214.654297,294.462891z M209.6689,276.020508
		c-2.905197-1.952118-6.325104-3.131805-9.980408-3.532196v-8.749023c0-1.334991-1.084991-2.41507-2.418991-2.41507
		c-1.3349,0-2.415009,1.080078-2.415009,2.41507v8.749023c-1.891602,0.207001-3.711899,0.598602-5.428696,1.25l-26.394104-51.796906
		l91.661697,0.773392L209.6689,276.020508z M288.133789,330.892609c-20.129883-0.033203-36.407196-16.319397-36.440399-36.439514
		c0.023407-14.003906,7.923798-26.129883,19.502899-32.233398c5.646515,15.960999,11.027313,29.526398,15.229492,33.940521
		c0.47171,0.471588,1.089813,0.707977,1.711914,0.707977c0.614319,0,1.231384-0.236389,1.698212-0.707977
		c0.948273-0.933624,0.948273-2.470703,0.009796-3.414124c-2.810516-2.585876-8.541016-16.4375-14.240204-32.459991
		c3.910095-1.433594,8.118103-2.263611,12.52829-2.273407c20.129913,0.033203,36.406219,16.319305,36.439392,36.440399
		C324.540009,314.573212,308.263702,330.859406,288.133789,330.892609z"/>
	<g>
		<path fill="#FFFFFF" d="M284.775391,235.802704c-1.631805-2.098602-2.966797-5.277298-2.966797-7.070297
			c0-1.787109,2.173798-3.253906,4.830109-3.253906h13.757782c2.655304,0,6.131805,1.740204,7.725616,3.867203l3.311493,4.414108
			c1.593689,2.127899,2.895508,5.2314,2.895508,6.900391c0,1.666-2.174805,3.033203-4.829102,3.033203h-13.75882
			c-2.655273,0-6.164978-1.716797-7.795898-3.810608L284.775391,235.802704z"/>
	</g>
	<g>
		<path fill="#FFFFFF" d="M125.487801,235.802704c1.632294-2.098602,2.966789-5.277298,2.966789-7.070297
			c0-1.787109-2.174294-3.253906-4.82959-3.253906h-13.758301c-2.655304,0-6.131302,1.740204-7.725601,3.867203l-3.310997,4.414108
			c-1.594299,2.127899-2.896004,5.2314-2.896004,6.900391c0,1.666,2.174301,3.033203,4.830101,3.033203h13.758301
			c2.654701,0,6.164001-1.716797,7.796295-3.810608L125.487801,235.802704z"/>
	</g>
</g>
</svg>
