<svg class="svgOrigin" xmlns="http://www.w3.org/2000/svg" width="400" height="400" x="0px" y="0px" viewBox="0 0 400 400" enable-background="new 0 0 400 400">
<g>
	<path fill="#0334A6" d="M396.133789,367.94339c0,14.719696-12.042999,26.763641-26.763702,26.763641H30.6294
		c-14.720201,0-26.76368-12.043945-26.76368-26.763641V32.05661C3.86572,17.336411,15.9092,5.293,30.6294,5.293h338.740692
		c14.720703,0,26.763702,12.04341,26.763702,26.763611V367.94339z"/>
	<path fill="none" stroke="#FFFFFF" stroke-width="2.67639" d="M369.370087,389.343689H30.6294
		c-11.808599,0-21.41114-9.602478-21.41114-21.400299V32.05661c0-11.8032,9.602541-21.4004,21.41114-21.4004h338.740692
		c11.808594,0,21.411194,9.5972,21.411194,21.4004v335.88678C390.781281,379.741211,381.17868,389.343689,369.370087,389.343689
		L369.370087,389.343689z"/>
	<polygon fill="#FFFFFF" points="200.005402,304.091797 53.211399,157.297913 93.670898,116.838905 200.005402,223.172897 
		306.338898,116.838905 346.798798,157.297913 	"/>
</g>
</svg>
