<svg class="svgOrigin" xmlns="http://www.w3.org/2000/svg" width="400" height="400" x="0px" y="0px" viewBox="0 0 400 400" enable-background="new 0 0 400 400">
<g>
	<circle fill="#FF0000" cx="200" cy="200" r="197.666016"/>
	
		<ellipse transform="matrix(0.707107 -0.707107 0.707107 0.707107 -82.842667 199.999878)" fill="none" stroke="#FFFFFF" stroke-width="5.6476" cx="199.999878" cy="199.999878" rx="189.194489" ry="189.194611"/>
	<path fill="#FFFFFF" d="M329.850586,200c0-71.714798-58.141571-129.850586-129.850586-129.850586
		c-71.714798,0-129.8564,58.135796-129.8564,129.850586c0,71.719696,58.141602,129.850586,129.8564,129.850586
		C271.709015,329.850586,329.850586,271.719696,329.850586,200z"/>
	<path fill="#0334A6" d="M261.489288,144.660202c-7.159195-0.1436-8.515701-4.334991-8.801788-7.197296
		c0-2.735794,0-15.100601,0-26.765602h8.487305c3.110382,0,5.642578-2.531303,5.642578-5.647499
		c0-3.121597-2.532196-5.653297-5.642578-5.653297h-8.482407c0-6.491203,0.005798-11.207001,0.010696-11.223602
		c0-3.121597-2.536087-5.647499-5.658203-5.647499c-3.121994,0-5.6474,2.525902-5.6474,5.647499c0,0,0,4.721092,0,11.223602
		h-9.111404c-3.126892,0-5.6474,2.5317-5.6474,5.653297c0,3.116196,2.520508,5.647499,5.6474,5.647499h9.111404
		c0,11.665001,0,24.029808,0,26.765602c0.010696,4.1362,1.5,8.598099,4.870102,12.293396
		c3.308594,3.662201,8.620102,6.182693,15.000992,6.182693c0.072205,0,0.149414,0,0.220703,0
		c3.110291,0,5.6474-2.526382,5.6474-5.636795C267.136688,147.18071,264.599579,144.660202,261.489288,144.660202z"/>
	<path fill="#0334A6" d="M164.559097,277.003906c-7.588898,0-15.6026-3.022491-21.763199-9.398407l0,0
		c-6.176804-6.364288-9.993698-15.938492-9.932602-27.438492l0,0h19.755402
		c0.457504,14.483398,7.252396,16.601608,11.940399,17.075211l0,0c2.498505-0.010803,5.195297-0.954102,7.252396-3.077225l0,0
		c2.0298-2.139587,3.998596-5.663986,4.042999-12.635696l0,0c0-5.779297,0-21.299789,0-31.209991l0,0
		c0.143097-0.943298-1.097702-6.028305-3.435989-9.227493l0,0c-2.498611-3.430206-4.74321-4.936005-7.859406-4.968811l0,0
		c-8.234406,0.010803-12.127899,3.783203-12.436996,4.025909l0,0l-0.005402-0.00531l-0.005402-0.00589
		c-2.757797,2.890594-6.965805,3.828094-10.699707,2.382797l0,0c-3.810989-1.4785-6.320297-5.134796-6.320297-9.215805l0,0
		v-67.401894c0-2.603004,1.064499-5.1455,2.900909-6.999001l0,0c1.8423-1.825203,4.384796-2.8843,6.987793-2.8843l0,0h49.433105
		v19.771996h-39.549805v41.640106c2.878906-0.661606,6.110794-1.075211,9.695801-1.081009l0,0
		c11.322693-0.022003,19.667496,6.81691,24.167999,13.573212l0,0c4.632797,6.998596,6.7612,13.948288,6.904694,20.395493l0,0
		c0,9.910202,0,25.430695,0,31.209991l0,0c0.04451,11.008804-3.606888,20.285217-9.673798,26.44632l0,0
		c-6.027802,6.160095-13.91449,9.02829-21.349091,9.02829l0,0C164.5923,277.003906,164.575699,277.003906,164.559097,277.003906
		L164.559097,277.003906z M152.116699,200.1436l0.005402,0.00531C152.116699,200.148911,152.116699,200.1436,152.116699,200.1436
		L152.116699,200.1436z"/>
	<path fill="#0334A6" d="M241.297897,274.3125c-5.807709,0-11.934601-1.952087-16.656296-6.061493l0,0
		c-4.726608-4.103516-7.649414-10.274414-7.599594-17.6875l0,0h15.122986c0.347702,9.337891,5.542999,10.700195,9.132904,11.008789
		l0,0c1.914001-0.010803,3.982391-0.618195,5.553696-1.985382l0,0c1.549805-1.378906,3.061508-3.651413,3.094696-8.146515l0,0
		c0-3.7285,0-13.732407,0-20.119095l0,0c0.104507-0.612305-0.838898-3.888702-2.625992-5.951202l0,0
		c-1.913101-2.211899-3.633804-3.182602-6.0224-3.204102l0,0c-6.292999,0.004898-9.276398,2.4375-9.513702,2.597702l0,0
		l-0.005905-0.005905h-0.004898c-2.112305,1.858414-5.328094,2.465805-8.179596,1.533203l0,0
		c-2.922897-0.954102-4.841797-3.308594-4.841797-5.939392l0,0V176.8965c0-1.6763,0.810501-3.314499,2.216797-4.5112l0,0
		c1.406204-1.174896,3.3535-1.858887,5.349594-1.858887l0,0h37.829102v12.746094h-30.261795v26.842697
		c2.200195-0.424805,4.670898-0.689392,7.412201-0.695297l0,0c8.669891-0.016602,15.051682,4.395493,18.498001,8.752991l0,0
		c3.551788,4.511703,5.17868,8.989212,5.289093,13.148407l0,0c0,6.386688,0,16.390594,0,20.119095l0,0
		c0.033203,7.098694-2.762695,13.077209-7.406311,17.047913l0,0c-4.61618,3.970703-10.650391,5.824188-16.341782,5.824188l0,0
		C241.325195,274.3125,241.309601,274.3125,241.297897,274.3125L241.297897,274.3125z M231.77829,224.757797l0.005905,0.005905
		C231.77829,224.763702,231.77829,224.757797,231.77829,224.757797L231.77829,224.757797z"/>
	<g>
		<path fill="#0334A6" d="M212.497101,283.203094c0,1.554718-1.2686,2.823303-2.823303,2.823303h-7.605408
			c-1.555695,0-2.823792-1.268585-2.823792-2.823303v-4.290985c0-1.555695,1.268097-2.824219,2.823792-2.824219h7.605408
			c1.554703,0,2.823303,1.268524,2.823303,2.824219V283.203094z"/>
	</g>
</g>
</svg>
