<?xml version="1.0" encoding="UTF-8" standalone="no"?>
<!DOCTYPE svg PUBLIC "-//W3C//DTD SVG 1.1//EN" "http://www.w3.org/Graphics/SVG/1.1/DTD/svg11.dtd">
<!-- Created with Vectornator (http://vectornator.io/) -->
<svg height="400.0pt" stroke-miterlimit="10" style="fill-rule:nonzero;clip-rule:evenodd;stroke-linecap:round;stroke-linejoin:round;" version="1.1" viewBox="0 0 400 400" width="400.0pt" xml:space="preserve" xmlns="http://www.w3.org/2000/svg" xmlns:xlink="http://www.w3.org/1999/xlink">
<defs/>
<g id="名称未設定">
<g opacity="1">
<path d="M1.42109e-14 0L400 0L400 0L400 400L400 400L1.42109e-14 400L1.42109e-14 400L1.42109e-14 0L1.42109e-14 0Z" fill="#808080" fill-rule="nonzero" opacity="1" stroke="none"/>
<path d="M86.3167 45.9927L200.346 343.108L313.683 45.6841" fill="none" opacity="1" stroke="#ffffff" stroke-linecap="butt" stroke-linejoin="miter" stroke-width="13.61"/>
<path d="M176.417 257.456L175.722 255.634L200.016 273.003L224.094 255.785L223.472 257.44" fill="none" opacity="1" stroke="#ffffff" stroke-linecap="butt" stroke-linejoin="miter" stroke-width="30.8373"/>
<path d="M143.939 165.96L142.282 161.619L200.166 203.003L257.534 161.979L256.051 165.922" fill="none" opacity="1" stroke="#ffffff" stroke-linecap="butt" stroke-linejoin="miter" stroke-width="30.8373"/>
<path d="M104.524 69.8737L101.7 62.475L200.347 133.003L298.116 63.0887L295.589 69.8081" fill="none" opacity="1" stroke="#ffffff" stroke-linecap="butt" stroke-linejoin="miter" stroke-width="30.8373"/>
</g>
</g>
</svg>
