<svg class="svgOrigin" xmlns="http://www.w3.org/2000/svg" width="400" height="400" x="0px" y="0px" viewBox="0 0 400 400" enable-background="new 0 0 400 400">
<g>
	<path fill="#0334A6" d="M396.641602,368.377899c0,14.757813-12.075226,26.833038-26.833008,26.833038H30.191401
		c-14.758301,0-26.833-12.075226-26.833-26.833038V31.622108c0-14.757799,12.074699-26.832998,26.833-26.832998h339.617188
		c14.757782,0,26.833008,12.075199,26.833008,26.832998V368.377899z"/>
	<path fill="none" stroke="#FFFFFF" stroke-width="2.68331" d="M369.808594,389.834015H30.191401
		c-11.8389,0-21.466301-9.62793-21.466301-21.456116V31.622108c0-11.833498,9.627401-21.455599,21.466301-21.455599h339.617188
		c11.838898,0,21.466797,9.622101,21.466797,21.455599v336.755798
		C391.275391,380.206085,381.647491,389.834015,369.808594,389.834015L369.808594,389.834015z"/>
	<rect x="43.8755" y="68.900406" fill="#FFFFFF" width="312.259277" height="74.776398"/>
	<g>
		<path fill="#FFFFFF" d="M63.2295,222.676804c-2.945301-0.345703-5.6021,1.771408-5.9375,4.716797h-0.0107
			c0,0.01561-0.770599,6.734299-2.751499,15.308502c-1.944401,8.558594-5.23,18.888687-9.517101,25.193405
			c-1.650898,2.458008-1.000999,5.795898,1.4673,7.452209c0.917,0.61319,1.955101,0.912079,2.981899,0.912079
			c1.236801,0,2.442402-0.445282,3.417-1.242188v47.2724c0,2.960999,2.395,5.372101,5.366703,5.372101
			c2.960899,0,5.361298-2.411102,5.361298-5.372101v-71.626907c3.176304-11.692398,4.245197-21.832993,4.339397-22.058594
			C68.287102,225.669907,66.164597,223.001999,63.2295,222.676804z"/>
		<path fill="#FFFFFF" d="M136.627899,228.626007h-25.1875v-3.391602c0-2.965805-2.405701-5.361404-5.361801-5.361404
			c-2.971199,0-5.366203,2.395599-5.366203,5.361404v3.391602H75.5298c-2.960999,0-5.366203,2.405197-5.366203,5.371094
			c0,2.960892,2.405205,5.367203,5.366203,5.367203h61.098099c2.955597,0,5.361404-2.406311,5.361404-5.367203
			C141.989304,231.031204,139.583496,228.626007,136.627899,228.626007z"/>
		<path fill="#FFFFFF" d="M129.248489,268.644501c1.425812,0,2.788101-0.560486,3.789108-1.583008
			c1.011703-1.010681,1.572296-2.352478,1.572296-3.783203v-14.758789c0-1.419891-0.571304-2.792892-1.572296-3.7939
			c-0.990204-1.000992-2.379395-1.582993-3.789108-1.582993H82.903801c-1.409698,0-2.793404,0.582001-3.794403,1.582993
			c-1.006401,1.001007-1.572296,2.374008-1.572296,3.7939v14.758789c0,1.40921,0.565895,2.792999,1.572296,3.794006
			c1.000999,0.990204,2.384705,1.572205,3.794403,1.572205H129.248489z M88.2705,253.880905h35.611298v4.025284H88.2705V253.880905z
			"/>
		<path fill="#FFFFFF" d="M139.960892,274.466797c-1.000885-1.00589-2.389603-1.572296-3.799789-1.572296H73.916
			c-1.410103,0-2.793404,0.566406-3.799797,1.572296c-1.001007,1.001007-1.562004,2.373993-1.562004,3.78421v21.445282
			c0,2.960907,2.4058,5.372101,5.361801,5.372101c2.960999,0,5.376999-2.411194,5.376999-5.372101h-0.015701v-16.06839h51.522491
			v15.381897c0,2.960907,2.405807,5.361298,5.361313,5.361298c2.961487,0,5.377487-2.400391,5.377487-5.361298l-0.016098-20.758789
			C141.522491,276.84079,140.9673,275.467804,139.960892,274.466797z"/>
		<path fill="#FFFFFF" d="M121.402794,289.267609h-10.570297c-0.010696,0-0.016098-0.00592-0.026299-0.00592
			c-0.010803,0-0.015701,0.00592-0.026398,0.00592H88.438004c-2.960907,0-5.361305,2.400391-5.361305,5.361298
			s2.400398,5.372101,5.361305,5.372101h16.991196c0,5.30368,0.004898,12.981384,0.0103,15.617188
			c-0.078705,0.440399,0.073196,0.162109-0.288101,0.50882c-0.388199,0.30368-1.608902,0.80658-3.569397,0.795898
			c-4.313004,0.032196-9.213303-1.666107-11.880798-4.417999c-2.101601-2.101624-5.503006-2.101624-7.588905,0
			c-2.101601,2.09668-2.101601,5.502899,0,7.599579c5.398399,5.303711,12.709,7.509796,19.469704,7.546906
			c3.558594-0.015686,6.949699-0.770508,9.795395-2.777405c2.866699-1.944305,4.863304-5.571289,4.7901-9.255798
			c0-2.626007,0-10.313507,0-15.617188h5.235298c2.971703,0,5.372101-2.411194,5.372101-5.372101
			S124.374496,289.267609,121.402794,289.267609z"/>
		<path fill="#FFFFFF" d="M247.523392,316.922913h-35.212891v-58.655304h27.829086c2.961014,0,5.372101-2.400406,5.372101-5.356506
			c0-2.970703-2.411087-5.371109-5.372101-5.371109h-27.829086v-23.919891c0-2.960892-2.405212-5.361298-5.366211-5.361298
			c-2.960892,0-5.361298,2.400406-5.361298,5.361298v93.302811h-22.237305v-71.626007
			c0-2.971695-2.415985-5.372101-5.361298-5.372101c-2.976593,0-5.376999,2.400406-5.376999,5.372101v71.626007h-6.388596
			c-2.960999,0-5.366699,2.406189-5.366699,5.367096c0,2.960999,2.405701,5.372101,5.366699,5.372101h85.304596
			c2.962006,0,5.362305-2.411102,5.362305-5.372101C252.885696,319.329102,250.485397,316.922913,247.523392,316.922913z"/>
		<path fill="#FFFFFF" d="M272.161102,281.375c-2.960907-0.084015-5.434509,2.247986-5.502899,5.209015h-0.015625
			c0,0.010681-0.162079,6.052673-0.60257,12.813477c-0.362305,6.587921-1.341827,14.585907-1.950226,15.80661
			c-1.074188,2.767609,0.314514,5.864288,3.077209,6.939484c0.633789,0.240204,1.283203,0.355408,1.928711,0.355408
			c2.15329,0,4.192383-1.304688,5.020477-3.432587c1.624023-4.606415,2.101624-11.801819,2.635834-18.97171
			c0.455994-6.99118,0.618073-13.185486,0.618073-13.216797C277.454102,283.915985,275.106384,281.442413,272.161102,281.375z"/>
		<path fill="#FFFFFF" d="M314.942383,273.985413c-2.457977-0.010803-10.502899-0.010803-10.513702-0.010803
			c-0.193298,0-0.361298,0.088898-0.549774,0.110382c-0.057617-0.535187-0.121124-1.069397-0.345703-1.587891l-2.316406-5.278412
			c-0.010712-0.015594-0.016602-0.031189-0.021515-0.046783l-2.190399-4.984406
			c-1.189484-2.724609-4.344696-3.946289-7.075195-2.75589c-1.86618,0.817383-2.956085,2.583008-3.108398,4.485382h-6.933594
			c1.886688-2.425781,3.307587-4.323303,3.359406-4.38089c0,0,0,0,0-0.004913l12.054688-15.848587
			c1.781219-2.364197,1.325226-5.7285-1.038086-7.510696c-2.363312-1.792007-5.728516-1.340805-7.509796,1.0224l-7.552704,9.920898
			l-2.551819-3.762695c1.787109-1.992111,3.291016-4.266602,4.983398-6.541c2.689514-3.888611,4.795898-7.425797,4.833008-7.483398
			c1.513702-2.552704,0.686493-5.849609-1.866211-7.363312c-2.536072-1.525299-5.832977-0.686493-7.342773,1.865311v-0.010803
			c-0.015625,0.010803-2.006805,3.338898-4.449219,6.881897c-1.220703,1.765594-2.5625,3.584-3.726501,4.947205
			c-0.571289,0.6866-1.105499,1.257797-1.503998,1.619202c-0.193298,0.183594-0.356384,0.314392-0.450073,0.382797
			l0.009674,0.015594c-1.388702,0.697296-2.378906,1.939499-2.771484,3.416992
			c-0.393524,1.514709-0.125916,3.086914,0.759796,4.380905l7.21579,10.660095
			c-2.447205,3.166016-6.152283,7.86142-7.693298,9.365295c-1.5401,1.536102-1.991211,3.841827-1.152405,5.848602
			c0.822296,2.002899,2.772491,3.318298,4.947296,3.318298h8.725616v47.63382c0,2.960999,2.400391,5.372101,5.361298,5.372101
			s5.367188-2.411102,5.367188-5.372101v-47.63382h2.861298l0.94342,2.153412
			c0.879883,2.012695,2.856384,3.212891,4.920898,3.212891c0.183594,0,0.367188-0.094788,0.550781-0.115295
			c0.292908,2.688507,2.478516,4.816406,5.255798,4.816406v-0.010712c0.00592,0,4.235413,0,7.5,0
			c-0.146484,2.835022-2.007782,9.276398-8.3125,19.726624c0.728516-1.519623,0.823303-3.317413-0.057587-4.894623
			c-0.795898-0.770477-1.530304-9.291992-1.362305-11.377899c0-0.419891,0.010712-0.571289,0.010712-0.571289
			c0.104492-2.960907-2.207001-5.456085-5.162109-5.560486c-2.960876-0.105499-5.455994,2.205994-5.560486,5.162079
			c0,0.0625-0.010803,0.398407-0.010803,0.969696c0.172882,2.934601-0.283203,10.607422,2.69928,16.608398
			c0.985321,1.760712,2.814423,2.751007,4.695313,2.751007c0.885712,0,1.782196-0.219788,2.615204-0.675812
			c0.540009-0.304688,0.964783-0.723572,1.357391-1.164093c-1.745087,2.820313-3.71579,5.843811-6.141602,9.234406
			c-1.724609,2.411102-1.15329,5.759796,1.267609,7.484406c0.94339,0.675781,2.02829,0.996094,3.108398,0.996094
			c1.676819,0,3.327087-0.786194,4.38089-2.253906c13.217712-18.747101,17.09082-29.569397,17.205994-37.00589
			C322.614288,279.61911,321.00589,274.566406,314.942383,273.985413z"/>
		<path fill="#FFFFFF" d="M360.333008,315.80661c-6.131805-6.105408-12.986328-15.145508-17.21582-20.989197
			c8.400391-4.240295,13.882813-11.712921,14.291016-11.854523c1.886688-2.285187,1.572296-5.665985-0.711914-7.546906
			c-2.285187-1.897369-5.665985-1.582977-7.552704,0.702209c0,0-2.111389,2.542023-5.272491,5.235321
			c-2.457001,2.1651-5.560608,4.119202-8.023407,4.957977c0-6.079102,0-11.745087,0-15.680603h16.666016
			c1.430603,0,2.783203-0.566376,3.799774-1.582977c1.001007-1.010803,1.55661-2.3526,1.55661-3.783295v-16.047821
			c0-0.020493,0.009796-0.037094,0.009796-0.052689c0-0.015701-0.009796-0.031311-0.009796-0.051804v-16.047806
			c0-1.419998-0.571289-2.792999-1.55661-3.793991c-1.006897-1.006805-2.389679-1.572296-3.799774-1.572296h-19.286224
			c1.094818-2.165009,1.782318-3.815414,1.849609-3.920914c1.164093-2.719696-0.088806-5.875-2.803711-7.048798
			c-2.719696-1.173798-5.885681,0.079102-7.05368,2.803711c0,0-1.148407,2.65239-2.579102,5.204086
			c-0.655212,1.179703-1.367188,2.285202-1.896515,2.961914h-12.285065c-1.419922,0-2.79303,0.565491-3.794006,1.572296
			c-1.006805,1.000992-1.572205,2.373993-1.572205,3.793991v32.200119c0,1.40918,0.565399,2.792999,1.572205,3.793976
			c1.000977,0.990204,2.374084,1.572296,3.794006,1.572296h16.650391c0,11.158203,0,36.576111,0.004883,43.986298
			c-0.555695,0.141602-1.273499,0.261719-1.838898,0.246124c-0.283203,0-0.529297-0.026398-0.692383-0.046906
			c-2.106415-1.545898-5.078125-1.368195-6.964813,0.53418c-2.101593,2.101501-2.101593,5.502899,0,7.604523
			c2.809509,2.495087,5.266602,2.515594,7.657196,2.630798c2.389618-0.009705,4.758789-0.418915,7.09079-1.477509
			c2.095703-0.958984,5.313507-3.123993,5.481506-7.651398c0-1.116211,0-6.49411,0-13.364197
			c4.3974,5.979492,10.753906,14.150391,16.885712,20.302704c1.048798,1.042999,2.421906,1.567383,3.794891,1.567383
			c1.373108,0,2.751007-0.524384,3.804718-1.567383C362.418884,321.298798,362.418884,317.90329,360.333008,315.80661z
			 M313.815399,238.43071h33.321289v5.367188h-33.321289V238.43071z M313.815399,259.881805v-5.350601h33.326202v5.350601
			H313.815399z"/>
	</g>
</g>
</svg>
