<?xml version="1.0" encoding="UTF-8" standalone="no"?>
<!DOCTYPE svg PUBLIC "-//W3C//DTD SVG 1.1//EN" "http://www.w3.org/Graphics/SVG/1.1/DTD/svg11.dtd">
<!-- Created with Vectornator (http://vectornator.io/) -->
<svg height="400.0pt" stroke-miterlimit="10" style="fill-rule:nonzero;clip-rule:evenodd;stroke-linecap:round;stroke-linejoin:round;" version="1.1" viewBox="0 0 400 400" width="400.0pt" xml:space="preserve" xmlns="http://www.w3.org/2000/svg" xmlns:xlink="http://www.w3.org/1999/xlink">
<defs/>
<g id="名称未設定">
<g opacity="1">
<path d="M396.642 368.378C396.642 383.136 384.566 395.211 369.809 395.211L30.1914 395.211C15.4331 395.211 3.3584 383.136 3.3584 368.378L3.3584 31.6221C3.3584 16.8643 15.4331 4.78911 30.1914 4.78911L369.809 4.78911C384.566 4.78911 396.642 16.8643 396.642 31.6221C396.642 31.6221 396.642 368.378 396.642 368.378Z" fill="#0334a6" fill-rule="nonzero" opacity="1" stroke="none"/>
<path d="M60.711 262.752L60.711 299.818L60.711 299.818L45.4783 299.818L45.4783 299.818L45.4783 262.752L45.4783 262.752L60.711 262.752L60.711 262.752Z" fill="#ffffff" fill-rule="nonzero" opacity="1" stroke="none"/>
<path d="M60.711 306.752L60.711 343.818L60.711 343.818L45.4783 343.818L45.4783 343.818L45.4783 306.752L45.4783 306.752L60.711 306.752L60.711 306.752Z" fill="#ffffff" fill-rule="nonzero" opacity="1" stroke="none"/>
<path d="M60.711 349.752L60.711 386.818L60.711 386.818L45.4783 386.818L45.4783 386.818L45.4783 349.752L45.4783 349.752L60.711 349.752L60.711 349.752Z" fill="#ffffff" fill-rule="nonzero" opacity="1" stroke="none"/>
<path d="M60.711 228.741L60.711 254.818L60.711 254.818L45.4783 254.818L45.4783 254.818L45.4783 228.741L45.4783 228.741L60.711 228.741L60.711 228.741Z" fill="#ffffff" fill-rule="nonzero" opacity="1" stroke="none"/>
<path d="M18.0394 96.6894L381.971 96.6894L381.971 96.6894L381.971 111.922L381.971 111.922L18.0394 111.922L18.0394 111.922L18.0394 96.6894L18.0394 96.6894Z" fill="#ffffff" fill-rule="nonzero" opacity="1" stroke="none"/>
<path d="M45.4716 228.77L381.971 228.77L381.971 228.77L381.971 244.003L381.971 244.003L45.4716 244.003L45.4716 244.003L45.4716 228.77L45.4716 228.77Z" fill="#ffffff" fill-rule="nonzero" opacity="1" stroke="none"/>
<g opacity="1">
<path d="M81.8322 31.9539C81.6447 33.8289 80.6134 34.8602 78.7384 35.0477L32.4728 35.0477C30.5978 34.8602 29.5665 33.8289 29.379 31.9539C29.5665 29.8914 30.5978 28.8602 32.4728 28.8602L78.7384 28.8602C80.6134 28.8602 81.6447 29.8914 81.8322 31.9539ZM87.4572 77.7977C87.2697 79.8133 86.1447 80.9149 84.0822 81.1024L27.129 81.1024C25.0665 80.9149 23.9415 79.8133 23.754 77.7977C23.9415 75.5477 25.0665 74.4227 27.129 74.4227L84.0822 74.4227C86.1447 74.4227 87.2697 75.5477 87.4572 77.7977Z" fill="#ffffff" fill-rule="nonzero" opacity="1" stroke="none"/>
<path d="M118.957 41.5164C118.863 43.1102 117.926 43.9539 116.145 44.0477L105.668 44.0477L105.668 52.2039L116.145 52.2039C117.926 52.2977 118.863 53.2352 118.957 55.0164C118.863 56.6102 117.926 57.4539 116.145 57.5477L105.668 57.5477L105.668 66.6883C110.121 66.0438 114.27 65.2938 118.113 64.4383C119.848 63.9227 120.996 64.4617 121.559 66.0555C121.746 67.743 121.043 68.8445 119.449 69.3602C115.113 70.6727 110.52 71.7391 105.668 72.5594L105.668 83.493C105.574 85.2742 104.613 86.2117 102.785 86.3055C101.004 86.2117 100.067 85.2742 99.9728 83.493L99.9728 73.4031C98.8361 73.5438 97.6876 73.6727 96.5275 73.7899C94.5587 73.9774 93.4103 73.1805 93.0822 71.3992C93.0353 69.3836 93.9962 68.2117 95.965 67.8836C97.3244 67.743 98.6603 67.5965 99.9728 67.4442L99.9728 26.2586C100.067 24.4774 101.027 23.5399 102.856 23.4461C104.637 23.5399 105.574 24.4774 105.668 26.2586L105.668 26.8035C105.82 26.7567 105.985 26.7156 106.16 26.6805C111.082 25.6961 115.465 24.4539 119.309 22.9539C121.184 22.2039 122.59 22.7664 123.527 24.6414C123.949 26.657 123.27 27.993 121.488 28.6492C117.082 30.1024 112.207 31.0867 106.863 31.6024C106.418 31.6492 106.02 31.6434 105.668 31.5848L105.668 38.7039L116.145 38.7039C117.926 38.7977 118.863 39.7352 118.957 41.5164ZM130.84 20.1414C132.574 20.3289 133.535 21.2664 133.723 22.9539L133.723 24.2547C134.051 24.1375 134.426 24.0789 134.848 24.0789L146.379 24.0789C149.988 24.2195 151.793 26.2586 151.793 30.1961L151.793 41.0945C151.793 42.6883 152.402 43.4852 153.621 43.4852L154.957 43.4852C156.363 43.4852 157.067 42.6883 157.067 41.0945L157.067 38.9149C157.067 37.2274 157.84 36.3836 159.387 36.3836C161.074 36.3836 162.012 37.2274 162.199 38.9149L162.199 42.9227C162.199 46.5789 160.301 48.5945 156.504 48.9695C154.957 49.2039 153.481 49.2039 152.074 48.9695C148.277 48.5945 146.379 46.5789 146.379 42.9227L146.379 31.3914C146.332 29.8445 145.582 29.0945 144.129 29.1414L134.848 29.1414C134.426 29.0945 134.051 29.0125 133.723 28.8953L133.723 31.9539C133.77 41.2352 130.793 47.4461 124.793 50.5867C122.965 51.4305 121.512 51.243 120.434 50.0242C119.356 48.1024 119.637 46.5555 121.277 45.3836C126.387 42.7117 128.731 37.7664 128.309 30.5477L128.309 22.9539C128.309 21.2664 129.152 20.3289 130.84 20.1414ZM116.356 83.1414C116.168 80.8445 117.152 79.4852 119.309 79.0633C125.449 78.1492 130.817 76.4207 135.41 73.8778C132.715 71.4285 130.113 68.6102 127.606 65.4227C126.621 63.9695 126.738 62.7274 127.957 61.6961C129.363 60.8055 130.652 61.0164 131.824 62.3289C134.754 65.3992 137.707 68.0653 140.684 70.327C144.211 67.4676 147.117 63.9578 149.402 59.7977C150.152 58.3914 149.824 57.6883 148.418 57.6883L128.59 57.6883C126.762 57.4539 125.777 56.5633 125.637 55.0164C125.777 53.282 126.762 52.3445 128.59 52.2039L151.934 52.2039C154.231 52.2039 155.473 52.907 155.66 54.3133C155.988 56.6102 155.309 59.493 153.621 62.9617C151.36 67.075 148.676 70.6375 145.57 73.6492C149.836 76.2508 154.16 78.032 158.543 78.993C160.606 79.5086 161.426 80.868 161.004 83.0711C160.488 84.8524 159.246 85.5789 157.277 85.2508C151.336 84.161 145.711 81.7176 140.402 77.9207C134.731 81.8817 127.981 84.4422 120.152 85.6024C118.184 85.743 116.918 84.9227 116.356 83.1414Z" fill="#ffffff" fill-rule="nonzero" opacity="1" stroke="none"/>
<path d="M225.129 66.8289C224.942 68.3289 224.004 69.1727 222.317 69.3602L211.91 69.3602L211.91 79.7664C211.91 83.4227 210.012 85.2508 206.215 85.2508C204.059 85.2977 202.184 85.0164 200.59 84.407C198.902 84.2195 197.965 83.282 197.777 81.5945C197.965 80.0008 198.902 79.2039 200.59 79.2039L204.106 79.2039C205.512 79.2039 206.215 78.5008 206.215 77.0945L206.215 69.3602L194.895 69.3602C193.207 69.1727 192.27 68.3289 192.082 66.8289C192.27 65.1414 193.207 64.2977 194.895 64.2977L222.317 64.2977C224.004 64.2977 224.942 65.1414 225.129 66.8289ZM233.567 29.7039C233.379 31.2039 232.442 32.0477 230.754 32.2352L188.988 32.2352C187.301 32.0477 186.363 31.2039 186.176 29.7039C186.363 28.0164 187.301 27.1727 188.988 27.1727L205.512 27.1727L205.512 23.7274C205.512 21.8524 206.567 20.8211 208.676 20.6336C210.551 20.8211 211.582 21.8524 211.77 23.7274L211.77 27.1727L230.754 27.1727C232.442 27.1727 233.379 28.0164 233.567 29.7039ZM233.567 60.6414L233.567 65.8445C233.379 67.532 232.324 68.4695 230.402 68.657C228.715 68.4695 227.871 67.532 227.871 65.8445L227.871 62.1883C227.871 60.782 227.168 60.0789 225.762 60.0789L190.957 60.0789C189.551 60.0789 188.848 60.782 188.848 62.1883L188.848 65.8445C188.66 67.532 187.699 68.4695 185.965 68.657C184.09 68.4695 183.152 67.532 183.152 65.8445L183.152 60.6414C182.965 56.8914 184.77 55.0164 188.567 55.0164L228.152 55.0164C231.762 55.0164 233.567 56.8914 233.567 60.6414ZM227.731 42.0789L227.731 44.8914C227.731 49.0164 225.832 51.0789 222.035 51.0789L194.613 51.0789C190.817 51.0789 188.918 49.0164 188.918 44.8914L188.918 42.0789C188.918 38.3289 190.817 36.4539 194.613 36.4539L222.035 36.4539C225.832 36.4539 227.731 38.3289 227.731 42.0789ZM196.723 40.6727C195.317 40.6727 194.613 41.3758 194.613 42.782L194.613 44.7508C194.613 46.157 195.317 46.8602 196.723 46.8602L219.926 46.8602C221.332 46.8602 222.035 46.157 222.035 44.7508L222.035 42.782C222.035 41.3758 221.332 40.6727 219.926 40.6727L196.723 40.6727ZM183.082 20.9852C184.863 21.5945 185.567 22.9305 185.192 24.993C183.738 30.5828 181.887 35.9324 179.637 41.0418L179.637 82.157C179.449 83.8445 178.488 84.782 176.754 84.9695C174.879 84.782 173.942 83.8445 173.942 82.157L173.942 52.0985C172.852 53.9266 171.703 55.7195 170.496 57.4774C169.231 58.7899 167.918 59.0477 166.559 58.2508C165.293 57.1258 165.152 55.743 166.137 54.1024C171.856 44.7742 176.168 34.6727 179.074 23.7977C179.637 21.5477 180.973 20.6102 183.082 20.9852Z" fill="#ffffff" fill-rule="nonzero" opacity="1" stroke="none"/>
<path d="M304.582 79.0633C304.395 81.1258 303.363 82.157 301.488 82.157L241.723 82.157C239.848 82.157 238.817 81.1258 238.629 79.0633C238.817 77.1883 239.848 76.157 241.723 75.9695L248.121 75.9695L248.121 40.1102C248.309 38.2352 249.363 37.2039 251.285 37.0164C253.348 37.2039 254.379 38.2352 254.379 40.1102L254.379 75.9695L269.918 75.9695L269.918 24.9227C269.918 23.0477 270.949 22.0164 273.012 21.8289C274.934 22.0164 275.988 23.0477 276.176 24.9227L276.176 42.5008L297.27 42.5008C299.145 42.6883 300.176 43.7195 300.363 45.5945C300.176 47.657 299.145 48.6883 297.27 48.6883L276.176 48.6883L276.176 75.9695L301.488 75.9695C303.363 76.157 304.395 77.1883 304.582 79.0633Z" fill="#ffffff" fill-rule="nonzero" opacity="1" stroke="none"/>
<path d="M333.481 30.7586C334.84 31.8367 335.168 33.1492 334.465 34.6961C329.988 42.2195 325.529 48.1551 321.088 52.5028C324.522 52.2332 327.914 51.8289 331.266 51.2899C331.113 50.5985 330.961 49.9188 330.809 49.2508C330.199 47.7977 330.574 46.743 331.934 46.0867C333.293 45.8055 334.277 46.3445 334.887 47.7039C336.293 50.2352 337.184 52.907 337.559 55.7195C338.074 57.3602 337.629 58.5086 336.223 59.1649C334.301 59.493 333.106 58.8602 332.637 57.2664C332.531 56.8211 332.432 56.3817 332.338 55.9481C330.568 56.3231 328.776 56.6453 326.959 56.9149C326.994 57.0906 327.012 57.2781 327.012 57.4774L327.012 82.7195C327.012 84.3602 326.168 85.2977 324.481 85.532C322.793 85.3445 321.949 84.407 321.949 82.7195L321.949 57.5653C318.961 57.8699 315.914 58.0516 312.809 58.1102C311.121 57.9695 310.16 57.1492 309.926 55.6492C309.926 54.0086 310.746 53.0945 312.387 52.907C313.125 52.8953 313.863 52.8778 314.602 52.8543C314.719 52.3153 315.082 51.7703 315.692 51.2195C317.391 49.5086 319.067 47.5926 320.719 45.4715C320.543 45.366 320.367 45.243 320.192 45.1024C317.238 42.7117 314.496 39.618 311.965 35.8211C310.934 34.4617 311.004 33.1492 312.176 31.8836C313.629 30.9227 314.865 30.911 315.885 31.8485C317.877 29.0477 319.781 25.8719 321.598 22.3211C322.395 20.7742 323.684 20.3524 325.465 21.0555C326.918 22.0399 327.34 23.3055 326.731 24.8524C324.574 29.118 322.207 32.5633 319.629 35.1883C319.418 35.4695 319.207 35.7098 318.996 35.909C320.473 37.7957 322.037 39.6297 323.69 41.411C325.658 38.575 327.586 35.4461 329.473 32.0242C330.363 30.5711 331.699 30.1492 333.481 30.7586ZM314.426 61.4149C316.067 61.6024 316.887 62.5399 316.887 64.2274L316.887 75.6883C316.887 77.3758 316.043 78.3133 314.356 78.5008C312.668 78.3133 311.824 77.3758 311.824 75.6883L311.824 64.2274C311.824 62.5399 312.692 61.6024 314.426 61.4149ZM333.832 61.9774C335.66 62.1649 336.574 63.1024 336.574 64.7899L336.574 73.7195C336.574 75.407 335.637 76.3445 333.762 76.532C332.262 76.3445 331.512 75.407 331.512 73.7195L331.512 64.7899C331.512 63.1024 332.285 62.1649 333.832 61.9774ZM355.981 20.6336C357.668 21.4774 358.184 22.6492 357.527 24.1492C357.199 25.4031 356.707 26.5985 356.051 27.7352L369.199 27.7352C372.949 27.7352 374.824 29.6102 374.824 33.3602L374.824 47.1414C374.824 50.8914 372.949 52.7664 369.199 52.7664L360.85 52.7664C360.92 53.0008 360.961 53.2586 360.973 53.5399L360.973 62.2059C361.934 61.6903 362.824 61.9422 363.645 62.9617C363.973 63.4305 364.307 63.8875 364.647 64.3328C364.834 63.7703 365.25 63.243 365.895 62.7508C367.863 61.2977 369.715 59.6336 371.449 57.7586C372.856 56.5399 374.192 56.493 375.457 57.618C376.582 58.743 376.606 60.0555 375.527 61.5555C373.277 63.4774 370.84 65.2117 368.215 66.7586C367.746 66.9813 367.307 67.1102 366.897 67.1453C369.955 70.661 373.184 73.2977 376.582 75.0555C378.082 75.9461 378.481 77.2586 377.777 78.993C376.746 80.493 375.434 80.8914 373.84 80.1883C368.895 77.3875 364.606 72.911 360.973 66.7586L360.973 79.6961C361.16 83.3524 359.356 85.0867 355.559 84.8992C354.152 84.993 352.652 84.8055 351.059 84.3367C349.465 84.0555 348.621 83.2117 348.527 81.8055C348.621 80.118 349.465 79.3211 351.059 79.4149L353.449 79.4149C354.856 79.4149 355.559 78.7117 355.559 77.3055L355.559 53.5399C355.57 53.2586 355.611 53.0008 355.682 52.7664L346.981 52.7664C343.231 52.7664 341.356 50.8914 341.356 47.1414L341.356 33.3602C341.356 29.6102 343.231 27.7352 346.981 27.7352L350.338 27.7352C350.338 27.7117 350.344 27.6883 350.356 27.6649C350.918 26.1649 351.504 24.4305 352.113 22.4617C352.817 20.8211 354.106 20.2117 355.981 20.6336ZM349.09 32.5164C347.684 32.5164 346.981 33.2195 346.981 34.6258L346.981 37.8602L369.199 37.8602L369.199 34.6258C369.199 33.2195 368.496 32.5164 367.09 32.5164L349.09 32.5164ZM338.051 79.2039C337.348 77.6102 337.723 76.368 339.176 75.4774C343.16 72.993 346.465 69.4305 349.09 64.7899C349.652 63.3836 349.324 62.6805 348.106 62.6805L342.621 62.6805C340.84 62.5867 339.902 61.7899 339.809 60.2899C339.902 58.8836 340.84 58.1336 342.621 58.0399L349.934 58.0399C352.418 58.0399 353.848 58.743 354.223 60.1492C354.973 62.2586 354.34 65.0477 352.324 68.5164C349.746 73.532 346.512 77.3524 342.621 79.9774C340.559 80.9149 339.035 80.657 338.051 79.2039ZM346.981 45.8758C346.981 47.282 347.684 47.9852 349.09 47.9852L367.09 47.9852C368.496 47.9852 369.199 47.282 369.199 45.8758L369.199 42.3602L346.981 42.3602L346.981 45.8758Z" fill="#ffffff" fill-rule="nonzero" opacity="1" stroke="none"/>
</g>
<g opacity="1">
<path d="M171.878 141.291C171.628 143.791 170.253 145.166 167.753 145.416L106.066 145.416C103.566 145.166 102.191 143.791 101.941 141.291C102.191 138.541 103.566 137.166 106.066 137.166L167.753 137.166C170.253 137.166 171.628 138.541 171.878 141.291ZM179.378 202.416C179.128 205.104 177.628 206.572 174.878 206.822L98.9406 206.822C96.1906 206.572 94.6906 205.104 94.4406 202.416C94.6906 199.416 96.1906 197.916 98.9406 197.916L174.878 197.916C177.628 197.916 179.128 199.416 179.378 202.416Z" fill="#ffffff" fill-rule="nonzero" opacity="1" stroke="none"/>
<path d="M254.597 138.666C254.222 140.666 252.909 141.791 250.659 142.041L241.097 142.041L241.097 148.041L246.159 148.041C251.159 148.041 253.659 150.541 253.659 155.541L253.659 179.166C253.659 184.166 251.159 186.666 246.159 186.666L241.097 186.666L241.097 193.041L252.159 193.041C254.409 193.041 255.722 194.166 256.097 196.416C255.722 198.416 254.409 199.541 252.159 199.791L241.097 199.791L241.097 208.885C240.909 210.885 239.753 212.01 237.628 212.26C235.628 212.01 234.628 210.885 234.628 208.885L234.628 199.791L222.534 199.791C220.284 199.541 219.128 198.416 219.066 196.416C219.128 194.166 220.284 193.041 222.534 193.041L234.628 193.041L234.628 186.666L228.909 186.666C223.909 186.666 221.409 184.166 221.409 179.166L221.409 155.541C221.409 150.541 223.909 148.041 228.909 148.041L234.628 148.041L234.628 142.041L224.034 142.041C221.784 141.791 220.628 140.666 220.566 138.666C220.628 136.416 221.784 135.291 224.034 135.291L234.628 135.291L234.628 129.572C234.628 127.572 235.659 126.447 237.722 126.197C239.784 126.447 240.909 127.572 241.097 129.572L241.097 135.291L250.659 135.291C252.909 135.291 254.222 136.416 254.597 138.666ZM284.784 126.291C286.534 127.104 287.066 128.604 286.378 130.791C286.097 131.338 285.808 131.877 285.511 132.408C285.839 132.627 286.128 132.932 286.378 133.322C293.503 140.822 300.941 147.26 308.691 152.635C310.941 154.26 311.253 156.26 309.628 158.635C308.003 160.385 306.159 160.604 304.097 159.291C302.034 158.026 299.995 156.58 297.98 154.955C297.808 156.971 296.566 158.041 294.253 158.166L271.941 158.166C269.597 158.041 268.347 156.94 268.191 154.861C266.191 156.705 264.097 158.432 261.909 160.041C259.784 161.416 257.816 161.197 256.003 159.385C254.941 156.947 255.347 154.947 257.222 153.385C266.284 146.26 273.909 137.885 280.097 128.26C281.222 126.197 282.784 125.541 284.784 126.291ZM230.222 154.791C228.347 154.791 227.409 155.729 227.409 157.604L227.409 163.979L234.628 163.979L234.628 154.791L230.222 154.791ZM265.659 208.135C265.597 210.51 264.472 211.76 262.284 211.885C260.097 211.76 258.972 210.51 258.909 208.135L258.909 172.604C258.909 167.604 261.409 165.104 266.409 165.104L299.784 165.104C304.784 165.104 307.284 167.604 307.284 172.604L307.284 204.104C307.284 209.104 304.784 211.604 299.784 211.604C298.347 211.916 296.753 211.666 295.003 210.854C292.753 210.791 291.511 209.666 291.276 207.479C290.745 207.869 290.05 208.088 289.191 208.135C287.316 208.01 286.316 206.76 286.191 204.385L286.191 191.541L279.534 191.541L279.534 204.385C279.409 206.76 278.378 208.01 276.441 208.135C274.316 208.01 273.191 206.76 273.066 204.385L273.066 191.541L265.659 191.541L265.659 208.135ZM279.534 174.197L279.534 184.791L286.191 184.791L286.191 174.197C286.237 173.401 286.409 172.744 286.706 172.229L279.019 172.229C279.316 172.744 279.487 173.401 279.534 174.197ZM273.066 174.197C273.112 173.401 273.308 172.744 273.651 172.229L268.472 172.229C266.597 172.229 265.659 173.166 265.659 175.041L265.659 184.791L273.066 184.791L273.066 174.197ZM292.659 174.197L292.659 184.791L300.534 184.791L300.534 175.041C300.534 173.166 299.597 172.229 297.722 172.229L292.097 172.229C292.425 172.744 292.612 173.401 292.659 174.197ZM292.659 204.385C292.659 204.479 292.651 204.572 292.636 204.666C293.23 204.322 294.019 204.135 295.003 204.104L297.722 204.104C299.597 204.104 300.534 203.166 300.534 201.291L300.534 191.541L292.659 191.541L292.659 204.385ZM227.409 177.104C227.409 178.979 228.347 179.916 230.222 179.916L234.628 179.916L234.628 169.979L227.409 169.979L227.409 177.104ZM244.847 179.916C246.722 179.916 247.659 178.979 247.659 177.104L247.659 169.979L241.097 169.979L241.097 179.916L244.847 179.916ZM247.659 157.604C247.659 155.729 246.722 154.791 244.847 154.791L241.097 154.791L241.097 163.979L247.659 163.979L247.659 157.604ZM282.323 137.846C279.276 142.69 275.87 147.088 272.105 151.041L293.573 151.041C289.714 147.322 285.964 142.924 282.323 137.846Z" fill="#ffffff" fill-rule="nonzero" opacity="1" stroke="none"/>
</g>
<g opacity="1">
<path d="M169.457 327.154C169.457 329.029 170.394 329.967 172.269 329.967C174.519 330.154 176.613 330.154 178.55 329.967C180.425 329.967 181.363 329.029 181.363 327.154L181.363 319.373C181.363 317.123 182.644 315.873 185.207 315.623C187.457 315.873 188.707 317.123 188.957 319.373L188.957 329.967C188.957 334.842 186.425 337.529 181.363 338.029C177.8 338.592 173.832 338.592 169.457 338.029C164.394 337.529 161.863 334.842 161.863 329.967L161.863 293.873C161.863 292.998 162.011 292.279 162.308 291.717L147.73 291.717C148.121 292.279 148.363 292.998 148.457 293.873L148.457 308.123C148.144 323.623 142.738 333.842 132.238 338.779C129.613 340.092 127.55 339.717 126.05 337.654C124.8 335.279 125.144 333.248 127.082 331.561C135.957 326.936 140.425 318.373 140.488 305.873L140.488 293.873C140.488 292.998 140.699 292.279 141.121 291.717L127.082 291.717C125.207 291.717 124.269 292.654 124.269 294.529L124.269 348.904C124.269 350.779 125.207 351.717 127.082 351.717L188.582 351.717C190.457 351.717 191.394 350.779 191.394 348.904L191.394 294.529C191.394 292.654 190.457 291.717 188.582 291.717L168.988 291.717C169.3 292.279 169.457 292.998 169.457 293.873L169.457 327.154ZM199.269 291.717L199.269 351.717C199.269 356.717 196.769 359.217 191.769 359.217L123.894 359.217C118.894 359.217 116.394 356.717 116.394 351.717L116.394 291.717C116.394 286.717 118.894 284.217 123.894 284.217L191.769 284.217C196.769 284.217 199.269 286.717 199.269 291.717Z" fill="#ffffff" fill-rule="nonzero" opacity="1" stroke="none"/>
<path d="M275.519 288.717C275.144 290.717 273.832 291.842 271.582 292.092L262.019 292.092L262.019 298.092L267.082 298.092C272.082 298.092 274.582 300.592 274.582 305.592L274.582 329.217C274.582 334.217 272.082 336.717 267.082 336.717L262.019 336.717L262.019 343.092L273.082 343.092C275.332 343.092 276.644 344.217 277.019 346.467C276.644 348.467 275.332 349.592 273.082 349.842L262.019 349.842L262.019 358.936C261.832 360.936 260.675 362.061 258.55 362.311C256.55 362.061 255.55 360.936 255.55 358.936L255.55 349.842L243.457 349.842C241.207 349.592 240.05 348.467 239.988 346.467C240.05 344.217 241.207 343.092 243.457 343.092L255.55 343.092L255.55 336.717L249.832 336.717C244.832 336.717 242.332 334.217 242.332 329.217L242.332 305.592C242.332 300.592 244.832 298.092 249.832 298.092L255.55 298.092L255.55 292.092L244.957 292.092C242.707 291.842 241.55 290.717 241.488 288.717C241.55 286.467 242.707 285.342 244.957 285.342L255.55 285.342L255.55 279.623C255.55 277.623 256.582 276.498 258.644 276.248C260.707 276.498 261.832 277.623 262.019 279.623L262.019 285.342L271.582 285.342C273.832 285.342 275.144 286.467 275.519 288.717ZM305.707 276.342C307.457 277.154 307.988 278.654 307.3 280.842C307.019 281.389 306.73 281.928 306.433 282.459C306.761 282.678 307.05 282.982 307.3 283.373C314.425 290.873 321.863 297.311 329.613 302.686C331.863 304.311 332.175 306.311 330.55 308.686C328.925 310.436 327.082 310.654 325.019 309.342C322.957 308.076 320.917 306.631 318.902 305.006C318.73 307.021 317.488 308.092 315.175 308.217L292.863 308.217C290.519 308.092 289.269 306.99 289.113 304.912C287.113 306.756 285.019 308.482 282.832 310.092C280.707 311.467 278.738 311.248 276.925 309.436C275.863 306.998 276.269 304.998 278.144 303.436C287.207 296.311 294.832 287.936 301.019 278.311C302.144 276.248 303.707 275.592 305.707 276.342ZM251.144 304.842C249.269 304.842 248.332 305.779 248.332 307.654L248.332 314.029L255.55 314.029L255.55 304.842L251.144 304.842ZM286.582 358.186C286.519 360.561 285.394 361.811 283.207 361.936C281.019 361.811 279.894 360.561 279.832 358.186L279.832 322.654C279.832 317.654 282.332 315.154 287.332 315.154L320.707 315.154C325.707 315.154 328.207 317.654 328.207 322.654L328.207 354.154C328.207 359.154 325.707 361.654 320.707 361.654C319.269 361.967 317.675 361.717 315.925 360.904C313.675 360.842 312.433 359.717 312.199 357.529C311.667 357.92 310.972 358.139 310.113 358.186C308.238 358.061 307.238 356.811 307.113 354.436L307.113 341.592L300.457 341.592L300.457 354.436C300.332 356.811 299.3 358.061 297.363 358.186C295.238 358.061 294.113 356.811 293.988 354.436L293.988 341.592L286.582 341.592L286.582 358.186ZM300.457 324.248L300.457 334.842L307.113 334.842L307.113 324.248C307.16 323.451 307.332 322.795 307.628 322.279L299.941 322.279C300.238 322.795 300.41 323.451 300.457 324.248ZM293.988 324.248C294.035 323.451 294.23 322.795 294.574 322.279L289.394 322.279C287.519 322.279 286.582 323.217 286.582 325.092L286.582 334.842L293.988 334.842L293.988 324.248ZM313.582 324.248L313.582 334.842L321.457 334.842L321.457 325.092C321.457 323.217 320.519 322.279 318.644 322.279L313.019 322.279C313.347 322.795 313.535 323.451 313.582 324.248ZM313.582 354.436C313.582 354.529 313.574 354.623 313.558 354.717C314.152 354.373 314.941 354.186 315.925 354.154L318.644 354.154C320.519 354.154 321.457 353.217 321.457 351.342L321.457 341.592L313.582 341.592L313.582 354.436ZM248.332 327.154C248.332 329.029 249.269 329.967 251.144 329.967L255.55 329.967L255.55 320.029L248.332 320.029L248.332 327.154ZM265.769 329.967C267.644 329.967 268.582 329.029 268.582 327.154L268.582 320.029L262.019 320.029L262.019 329.967L265.769 329.967ZM268.582 307.654C268.582 305.779 267.644 304.842 265.769 304.842L262.019 304.842L262.019 314.029L268.582 314.029L268.582 307.654ZM303.246 287.896C300.199 292.74 296.792 297.139 293.027 301.092L314.496 301.092C310.636 297.373 306.886 292.975 303.246 287.896Z" fill="#ffffff" fill-rule="nonzero" opacity="1" stroke="none"/>
</g>
</g>
</g>
</svg>
