<?xml version="1.0" encoding="UTF-8" standalone="no"?>
<!DOCTYPE svg PUBLIC "-//W3C//DTD SVG 1.1//EN" "http://www.w3.org/Graphics/SVG/1.1/DTD/svg11.dtd">
<!-- Created with Vectornator (http://vectornator.io/) -->
<svg height="400.0pt" stroke-miterlimit="10" style="fill-rule:nonzero;clip-rule:evenodd;stroke-linecap:round;stroke-linejoin:round;" version="1.1" viewBox="0 0 400 400" width="400.0pt" xml:space="preserve" xmlns="http://www.w3.org/2000/svg" xmlns:xlink="http://www.w3.org/1999/xlink">
<defs/>
<g id="名称未設定">
<g opacity="1">
<path d="M3 287.896C3 303.165 15.4912 315.652 30.7563 315.652L369.244 315.652C384.504 315.652 397 303.165 397 287.896L397 112.104C397 96.8389 384.504 84.3477 369.244 84.3477L30.7563 84.3477C15.4912 84.3477 3 96.8389 3 112.104L3 287.896Z" fill="#ffffff" fill-rule="nonzero" opacity="1" stroke="none"/>
<path d="M19.2002 287.128C19.2002 294.754 25.4434 301.006 33.0781 301.006L366.922 301.006C374.557 301.006 380.8 294.754 380.8 287.128L380.8 112.878C380.8 105.246 374.557 99.0005 366.922 99.0005L33.0781 99.0005C25.4434 99.0005 19.2002 105.246 19.2002 112.878C19.2002 112.878 19.2002 287.128 19.2002 287.128Z" fill="none" opacity="1" stroke="#0334a6" stroke-linecap="butt" stroke-linejoin="miter" stroke-width="4.62605"/>
<path d="M349.732 177.314L178.668 177.314C173.048 177.314 169.569 174.515 171.896 170.137C171.896 170.135 184.36 146.675 188.096 139.542C196.869 122.797 180.656 116.154 166.037 125.456C151.417 134.757 40.7178 200.001 40.7178 200.001C40.7178 200.001 151.417 265.244 166.037 274.542C180.656 283.848 196.869 277.207 188.096 260.456C184.36 253.327 171.9 229.862 171.896 229.862C169.569 225.481 173.048 222.689 178.668 222.689L349.732 222.689C352.275 222.689 354.358 220.602 354.358 218.063L354.358 181.939C354.358 179.396 352.275 177.314 349.732 177.314Z" fill="#0334a6" fill-rule="nonzero" opacity="1" stroke="none"/>
</g>
</g>
</svg>
