<svg class="svgOrigin" xmlns="http://www.w3.org/2000/svg" width="400" height="400" x="0px" y="0px" viewBox="0 0 400 400" enable-background="new 0 0 400 400">
<g>
	<path fill="#0334A6" d="M396.998993,200c0,108.802704-88.201111,197.004883-196.993591,197.004883
		C91.202103,397.004883,3.00098,308.802704,3.00098,200C3.00098,91.196808,91.202103,2.99561,200.005402,2.99561
		C308.797882,2.99561,396.998993,91.196808,396.998993,200z"/>
	<path fill="#FFFFFF" d="M153.893097,256.165985c-15.594299,0-20.783203-6.645477-29.732002-6.645477
		c-8.9487,0-13.285599,1.737289-13.285599,5.485397c0,3.749008,0,17.03508,0,23.680588s-6.931702,8.948303-12.417496,8.948303
		c-5.485802,0-10.680199-3.462891-10.680199-8.948303c0-5.486298,0-18.194275,0-24.542892
		c0-6.348694-8.371498-10.971695-8.371498-15.88089c0-4.908203,0-28.296906,0-44.462906s1.7314-18.480499,3.754295-20.497604
		c2.022499-2.017502,10.103104-7.508698,21.651901-39.557587c11.548294-32.048805,22.519997-38.688904,32.045898-38.688904
		s116.75679,0,126.283203,0c9.525391,0,20.497101,6.640099,32.045898,38.688904
		c11.548798,32.048889,19.628906,37.540085,21.652283,39.557587c2.022522,2.017105,3.753998,4.331604,3.753998,20.497604
		s0,39.554703,0,44.462906c0,4.909195-8.371094,9.532196-8.371094,15.88089c0,6.348618,0,19.056595,0,24.542892
		c0,5.485413-5.195404,8.948303-10.680695,8.948303c-5.485413,0-12.416992-2.302795-12.416992-8.948303s0-19.93158,0-23.680588
		c0-3.748108-4.336914-5.485397-13.286102-5.485397c-8.948303,0-14.137695,6.645477-29.731506,6.645477
		C230.512695,256.165985,169.487289,256.165985,153.893097,256.165985z"/>
	<path fill="#0334A6" d="M192.585007,150.202103c0,0-72.46981,0-75.647003,0c-3.176804,0-1.148407-7.217194,1.445793-13.280197
		c2.594704-6.063004,8.9487-23.966301,20.497505-23.966301c11.548889,0,53.703705,0,53.703705,0V150.202103z"/>
	<path fill="none" stroke="#FFFFFF" stroke-width="5.6287" d="M388.555695,200
		c0,104.136688-84.419006,188.561493-188.550293,188.561493C95.8638,388.561493,11.4438,304.136688,11.4438,200
		c0-104.14209,84.419998-188.561493,188.5616-188.561493C304.136688,11.43851,388.555695,95.85791,388.555695,200z"/>
	<path fill="#0334A6" d="M229.935501,225.559601c0,0,0-26.274399,0-36.377502c0-10.102997-14.148407-23.680099-29.935501-23.680099
		c-15.786606,0-29.935501,13.577103-29.935501,23.680099c0,10.103104,0,36.377502,0,36.377502H229.935501z"/>
	<path fill="#0334A6" d="M207.414993,150.202103c0,0,72.469803,0,75.6465,0c3.177795,0,1.149414-7.217194-1.445313-13.280197
		c-2.594696-6.063004-8.949188-23.966301-20.497101-23.966301c-11.548782,0-53.704086,0-53.704086,0V150.202103z"/>
	<circle fill="#0334A6" cx="296.633789" cy="194.954102" r="15.588898"/>
	<circle fill="#0334A6" cx="103.366699" cy="194.954102" r="15.588898"/>
	<path fill="#0334A6" d="M246.75589,177.023407c-0.945389-1.2314-0.71489-3.001404,0.527298-3.946701l0,0
		c0.225601-0.143097,11.504898-8.841293,26.939499-9.809097l0,0c14.495117-0.862808,22.641602-0.862808,22.691406-0.862808l0,0
		c1.555603,0,2.819305,1.255798,2.819305,2.811508l0,0c0,1.544403-1.263702,2.809097-2.819305,2.809097l0,0
		c-0.027405,0-7.981506,0-22.355499,0.862793l0,0c-6.711914,0.396011-12.742188,2.572708-17.045898,4.667007l0,0
		c-4.3311,2.094193-6.810608,3.996094-6.821304,3.996094l0,0h0.010696c-0.510696,0.384705-1.115189,0.577103-1.708893,0.577103l0,0
		C248.140594,178.128403,247.305695,177.743698,246.75589,177.023407L246.75589,177.023407z"/>
	<path fill="#0334A6" d="M153.244598,177.023407c0.945297-1.2314,0.714401-3.001404-0.527802-3.946701l0,0
		c-0.225601-0.143097-11.504898-8.841293-26.939903-9.809097l0,0c-14.494698-0.862808-22.641197-0.862808-22.690498-0.862808l0,0
		c-1.555595,0-2.819801,1.255798-2.819801,2.811508l0,0c0,1.544403,1.264206,2.809097,2.819801,2.809097l0,0
		c0.027405,0,7.981499,0,22.355499,0.862793l0,0c6.711395,0.396011,12.741196,2.572708,17.045395,4.667007l0,0
		c4.331512,2.094193,6.810608,3.996094,6.821304,3.996094l0,0h-0.010696c0.5112,0.384705,1.115692,0.577103,1.709396,0.577103l0,0
		C151.85939,178.128403,152.694794,177.743698,153.244598,177.023407L153.244598,177.023407z"/>
	<path fill="#0334A6" d="M305.576202,233.662109H94.423302c-2.979004,0-5.408699,2.418991-5.408699,5.409195
		c0,2.979492,2.429695,5.3974,5.408699,5.3974h211.152893c2.979492,0,5.40918-2.417908,5.40918-5.3974
		C310.985382,236.0811,308.555695,233.662109,305.576202,233.662109z"/>
</g>
</svg>
